<?xml version="1.0" encoding="utf-8"?>
<!-- Generator: Adobe Illustrator 21.0.0, SVG Export Plug-In . SVG Version: 6.00 Build 0)  -->
<svg version="1.1" id="Layer_1" xmlns="http://www.w3.org/2000/svg" xmlns:xlink="http://www.w3.org/1999/xlink" x="0px" y="0px"
	 viewBox="0 0 1920 1080" style="enable-background:new 0 0 1920 1080;" xml:space="preserve">
<style type="text/css">
	.Drop_x0020_Shadow{fill:none;}
	.Round_x0020_Corners_x0020_2_x0020_pt{fill:#FFFFFF;stroke:#000000;stroke-miterlimit:10;}
	.Live_x0020_Reflect_x0020_X{fill:none;}
	.Bevel_x0020_Soft{fill:url(#SVGID_1_);}
	.Dusk{fill:#FFFFFF;}
	.Foliage_GS{fill:#FFDD00;}
	.Pompadour_GS{fill-rule:evenodd;clip-rule:evenodd;fill:#44ADE2;}
	.st0{fill:#24242E;stroke:#23242E;stroke-miterlimit:10;}
	.st1{fill:#24242E;}
	.st2{fill:#373746;}
	.st3{fill:#FFFFFF;}
	.st4{fill:#FCCCBA;}
	.st5{fill:#E8B7A6;}
	.st6{fill:#EDAF98;}
	.st7{fill:#BF725A;}
	.st8{fill:#555252;}
	.st9{fill:none;stroke:#BF725A;stroke-width:4.8594;stroke-linecap:round;stroke-miterlimit:10;}
	.st10{fill:#A45944;}
	.st11{fill:#555252;stroke:#BF725A;stroke-width:4.8594;stroke-linejoin:round;stroke-miterlimit:10;}
	.st12{fill:none;stroke:#BF725A;stroke-width:4.8594;stroke-linejoin:round;stroke-miterlimit:10;}
	.st13{fill:#A45944;stroke:#A45944;stroke-width:2.4865;stroke-linejoin:round;stroke-miterlimit:10;}
	.st14{fill:#FEE7DE;}
	.st15{fill:#C3E2ED;}
	.st16{fill:#8F4939;}
	.st17{fill:#C98873;}
	.st18{fill:#A95D48;}
	.st19{fill:#FEE5D4;stroke:#FEE5D4;stroke-width:2.9156;stroke-linejoin:round;stroke-miterlimit:10;}
	.st20{fill:#F2C8B2;}
	.st21{fill:#B2856F;}
	.st22{fill:#9F715E;}
	.st23{fill:#555252;stroke:#FEE5D4;stroke-width:4.8594;stroke-linejoin:round;stroke-miterlimit:10;}
	.st24{fill:none;stroke:#FEE5D4;stroke-width:4.8594;stroke-linejoin:round;stroke-miterlimit:10;}
	.st25{fill:#FEE5D4;}
	.st26{fill:#D49989;}
	.st27{fill:#DBA79B;}
	.st28{fill:#DBF0F9;}
	.st29{fill:#A0C6D1;}
	.st30{fill:#7D6D66;}
	.st31{fill:#8BBBCC;stroke:#FEE5D4;stroke-width:2.9156;stroke-linejoin:round;stroke-miterlimit:10;}
	.st32{fill:none;stroke:#FEE5D4;stroke-width:3.3484;stroke-linejoin:round;stroke-miterlimit:10;}
	.st33{fill:#FDD3B4;}
	.st34{fill:#8BBBCC;}
	.st35{fill:none;stroke:#FDD3B4;stroke-width:4.8594;stroke-linecap:round;stroke-miterlimit:10;}
	.st36{fill:#EAB28C;}
	.st37{fill:#FDD3B4;stroke:#FDD3B4;stroke-width:3.9264;stroke-linejoin:round;stroke-miterlimit:10;}
	.st38{fill:#94827C;}
	.st39{fill:#725E58;}
	.st40{fill:none;stroke:#FEE5D4;stroke-width:2.9156;stroke-linejoin:round;stroke-miterlimit:10;}
	.st41{fill:#675651;}
	.st42{fill:#FEE5D4;stroke:#FEE5D4;stroke-width:3.5197;stroke-linejoin:round;stroke-miterlimit:10;}
	.st43{fill:#B84A30;}
	.st44{fill:#9C302A;}
	.st45{fill:#8D2B20;}
	.st46{fill:#A13927;}
	.st47{fill:#AB4238;}
	.st48{fill:#C9A27E;stroke:#C9A27E;stroke-width:4.8594;stroke-linejoin:round;stroke-miterlimit:10;}
	.st49{fill:#6E462A;stroke:#FFFFFF;stroke-width:4.8594;stroke-linejoin:round;stroke-miterlimit:10;}
	.st50{fill:#606161;stroke:#FFFFFF;stroke-width:4.8594;stroke-linejoin:round;stroke-miterlimit:10;}
	.st51{fill:#B28A67;}
	.st52{fill:#CF6941;}
	.st53{fill:#DBB691;stroke:#DBB691;stroke-width:4.8594;stroke-linejoin:round;stroke-miterlimit:10;}
	.st54{fill:#C65A37;}
	.st55{fill:#FEDCB7;}
	.st56{fill:none;stroke:#FFFFFF;stroke-width:4.8594;stroke-linejoin:round;stroke-miterlimit:10;}
	.st57{fill:none;stroke:#DBB691;stroke-width:10.1282;stroke-linecap:round;stroke-linejoin:round;stroke-miterlimit:10;}
	.st58{fill:#F4857F;}
	.st59{fill:#E57167;}
	.st60{fill:#CA5551;}
	.st61{fill:#D6635D;}
	.st62{fill:#9FD1E8;}
	.st63{fill:#9FD1E8;stroke:#FFFFFF;stroke-width:4.8594;stroke-linejoin:round;stroke-miterlimit:10;}
	.st64{fill:none;stroke:#FFFFFF;stroke-width:2.9156;stroke-linejoin:round;stroke-miterlimit:10;}
	.st65{fill:#FCCCBA;stroke:#FCCCBA;stroke-width:3.8875;stroke-linejoin:round;stroke-miterlimit:10;}
	.st66{fill:#EAB19D;}
	.st67{fill:#BD4C39;stroke:#BD4C39;stroke-width:2.9156;stroke-linejoin:round;stroke-miterlimit:10;}
	.st68{fill:#B66C38;}
	.st69{fill:#6CAF44;}
	.st70{fill:#79BD4A;}
	.st71{fill:#A1CF6B;}
	.st72{fill:#8F5125;}
	.st73{fill:#589441;}
	.st74{fill:#F04C4D;}
	.st75{fill:#5BC5C6;}
	.st76{fill:#F4F19B;}
	.st77{clip-path:url(#SVGID_3_);}
	.st78{clip-path:url(#SVGID_3_);fill:#8BD6EF;}
	.st79{clip-path:url(#SVGID_5_);}
	.st80{clip-path:url(#SVGID_5_);fill:#8BD6EF;}
	.st81{clip-path:url(#SVGID_7_);}
	.st82{clip-path:url(#SVGID_7_);fill:#92CD8B;}
	.st83{clip-path:url(#SVGID_9_);}
	.st84{clip-path:url(#SVGID_9_);fill:#92CD8B;}
	.st85{fill:#434343;}
	.st86{fill:none;stroke:#434343;stroke-width:1.3959;stroke-linecap:round;stroke-miterlimit:10;}
	.st87{fill:#8BD6EF;}
	.st88{fill:#92CD8B;}
	.st89{opacity:0.3;fill:#FFFFFF;}
	.st90{opacity:0.7;fill:#FFFFFF;}
	.st91{opacity:0.8;fill:#FFFFFF;}
</style>
<linearGradient id="SVGID_1_" gradientUnits="userSpaceOnUse" x1="0" y1="0" x2="0.7071" y2="0.7071">
	<stop  offset="0" style="stop-color:#DEDFE3"/>
	<stop  offset="0.1738" style="stop-color:#D8D9DD"/>
	<stop  offset="0.352" style="stop-color:#C9CACD"/>
	<stop  offset="0.5323" style="stop-color:#B4B5B8"/>
	<stop  offset="0.7139" style="stop-color:#989A9C"/>
	<stop  offset="0.8949" style="stop-color:#797C7E"/>
	<stop  offset="1" style="stop-color:#656B6C"/>
</linearGradient>
<polygon class="st0" points="-715.026,469.305 -439.918,469.305 -577.47,62.421 "/>
<polygon class="st1" points="-1489.562,466.393 -1214.455,466.393 -1352.007,59.51 "/>
<polygon class="st1" points="-1273.043,402.186 -753.821,402.186 -1013.429,-83.632 "/>
<polygon class="st2" points="-1793.48,417.288 -1325.514,417.288 -1559.494,-98.734 "/>
<polygon class="st3" points="-1633.166,62.421 -1569.461,-26.238 -1559.467,18.092 -1536.179,-9.739 -1502.092,26.717 
	-1559.464,-98.734 "/>
<polygon class="st3" points="-1013.012,-83.632 -1014.777,-80.33 -1112.486,102.515 -1112.486,102.515 -1032.305,59.278 
	-1019.638,91.278 -986.972,64.612 -933.638,114.612 -922.542,85.67 "/>
<polygon class="st3" points="-1352.163,59.51 -1386.84,162.084 -1358.202,114.957 -1358.202,152.957 -1347.536,121.623 
	-1329.585,126.297 "/>
<g id="buildings_1_">
	<g id="building_5_1_">
		<rect x="-1785.936" y="316.948" class="st4" width="33.737" height="32.122"/>
		<rect x="-1785.936" y="328.432" class="st5" width="33.737" height="20.638"/>
		<path class="st3" d="M-1563.23,438.145l-18.322-94.357c-0.391-2.011-2.586-3.494-5.17-3.494h-209.219
			c-2.584,0-4.781,1.483-5.169,3.494l-18.323,94.356c-0.236,1.216,0.231,2.451,1.274,3.367c1.043,0.913,2.555,1.417,4.111,1.365
			l119.366,4.12l126.067-4.117c0.075,0.001,0.144,0.001,0.218,0.001c1.484,0,2.901-0.495,3.894-1.369
			C-1563.461,440.595-1562.995,439.361-1563.23,438.145z"/>
		<rect x="-1811.777" y="442.986" class="st4" width="229.704" height="208.589"/>
		<path class="st6" d="M-1582.073,651.575V442.986h-14.837v9.832c-3.876,3.295-6.339,8.204-6.339,13.677v8.986
			c0,5.475,2.462,10.387,6.339,13.68v162.413H-1582.073z"/>
		<g>
			<rect x="-1735.12" y="531.579" class="st7" width="80.877" height="119.996"/>
			<rect x="-1724.113" y="543.903" class="st8" width="58.502" height="39.54"/>
			<line class="st9" x1="-1694.683" y1="542.845" x2="-1694.683" y2="593.673"/>
			<line class="st9" x1="-1726.984" y1="563.673" x2="-1659.509" y2="563.673"/>
			<circle class="st10" cx="-1722.498" cy="600.31" r="4.486"/>
		</g>
		<g>
			<g>
				<rect x="-1795.627" y="537.143" class="st11" width="44.866" height="73.221"/>
				<line class="st12" x1="-1773.195" y1="536.424" x2="-1773.195" y2="610.363"/>
				<line class="st12" x1="-1795.627" y1="573.752" x2="-1750.762" y2="573.752"/>
			</g>
			<g>
				<rect x="-1638.602" y="537.143" class="st11" width="44.864" height="73.221"/>
				<line class="st12" x1="-1616.168" y1="536.424" x2="-1616.168" y2="610.363"/>
				<line class="st12" x1="-1638.602" y1="573.752" x2="-1593.738" y2="573.752"/>
			</g>
		</g>
		<rect x="-1820.034" y="517.581" class="st13" width="239.456" height="14.358"/>
		<g>
			<g>
				<path class="st8" d="M-1694.683,497.336c-10.054,0-18.234-8.18-18.234-18.234c0-10.056,8.18-18.238,18.234-18.238
					c10.055,0,18.235,8.182,18.235,18.238C-1676.448,489.156-1684.628,497.336-1694.683,497.336z"/>
				<path class="st7" d="M-1694.683,463.294c8.715,0,15.805,7.092,15.805,15.808c0,8.714-7.09,15.804-15.805,15.804
					c-8.714,0-15.804-7.09-15.804-15.804C-1710.487,470.385-1703.398,463.294-1694.683,463.294 M-1694.683,458.434
					c-11.411,0-20.663,9.254-20.663,20.668c0,11.409,9.253,20.663,20.663,20.663c11.414,0,20.665-9.254,20.665-20.663
					C-1674.019,467.689-1683.27,458.434-1694.683,458.434L-1694.683,458.434z"/>
			</g>
			<line class="st12" x1="-1694.683" y1="461.232" x2="-1694.683" y2="496.05"/>
			<line class="st12" x1="-1711.281" y1="479.098" x2="-1678.74" y2="479.098"/>
		</g>
		<rect x="-1633.397" y="630.157" class="st14" width="23.328" height="9.815"/>
		<rect x="-1771.219" y="635.067" class="st14" width="23.328" height="9.811"/>
		<rect x="-1630.884" y="494.859" class="st14" width="23.328" height="9.809"/>
		<rect x="-1599.84" y="452.204" class="st14" width="23.329" height="9.814"/>
		<rect x="-1782.885" y="458.434" class="st14" width="23.329" height="9.814"/>
		<rect x="-1627.834" y="620.231" class="st5" width="23.329" height="9.809"/>
		<rect x="-1592.242" y="627.109" class="st5" width="23.329" height="9.811"/>
		<rect x="-1597.086" y="473.372" class="st5" width="23.328" height="9.812"/>
		<rect x="-1645.063" y="484.949" class="st5" width="23.331" height="9.811"/>
		<rect x="-1792.936" y="468.469" class="st5" width="23.329" height="9.811"/>
		<rect x="-1750.762" y="498.32" class="st5" width="23.328" height="9.811"/>
		<rect x="-1782.885" y="625.135" class="st5" width="23.329" height="9.815"/>
		<circle class="st15" cx="-1749.505" cy="274.417" r="27.099"/>
		<circle class="st15" cx="-1705.015" cy="302.157" r="10.331"/>
		<circle class="st15" cx="-1709.487" cy="225.784" r="12.921"/>
		<path class="st10" d="M-1590.089,610.363v-73.221c0-1.983-1.604-3.59-3.588-3.59h-3.709v7.178h0.12v66.04h-0.12v7.181h3.709
			C-1591.694,613.951-1590.089,612.344-1590.089,610.363z"/>
		<path class="st16" d="M-1580.758,533.776c1.016,0,1.836-0.824,1.836-1.836v-14.358c0-1.013-0.821-1.838-1.836-1.838h-16.328
			v18.032H-1580.758z"/>
		<path class="st15" d="M-1568.617,442.878c0.075,0.001,0.144,0.001,0.218,0.001c1.484,0,2.901-0.495,3.894-1.369
			c1.044-0.915,1.51-2.15,1.275-3.366l-18.322-94.357c-0.391-2.011-2.586-3.494-5.17-3.494h-17.338
			c0.319,4.847,2.323,9.455,5.798,13.104c0.434,0.453,0.884,0.886,1.353,1.3v89.103L-1568.617,442.878z"/>
	</g>
	<g id="building_4_1_">
		<rect x="-458.432" y="328.073" class="st17" width="27.755" height="34.935"/>
		<rect x="-458.432" y="340.097" class="st7" width="27.755" height="12.861"/>
		<path class="st3" d="M-394.088,475.171l-20.375-118.091c-0.431-2.514-2.874-4.371-5.746-4.371h-232.637
			c-2.869,0-5.312,1.857-5.744,4.371l-20.375,118.088c-0.263,1.521,0.257,3.067,1.415,4.215c1.161,1.144,2.842,1.772,4.573,1.708
			l132.725,5.154l140.176-5.154c0.078,0.003,0.159,0.003,0.24,0.003c1.65,0,3.226-0.617,4.331-1.711
			C-394.345,478.235-393.824,476.689-394.088,475.171z"/>
		<path class="st15" d="M-658.589,357.081l-20.375,118.088c-0.263,1.521,0.257,3.067,1.415,4.215
			c1.161,1.144,2.842,1.772,4.573,1.708l27.908,1.085v-5.306c3.638-3.109,5.949-7.735,5.949-12.888v-16.15
			c0-5.151-2.311-9.775-5.949-12.888v-46.98c2.737-1.294,5.193-3.201,7.178-5.632c3.807-4.648,5.502-10.767,4.658-16.77
			l-1.795-12.853h-17.819C-655.714,352.71-658.157,354.566-658.589,357.081z"/>
		<path class="st7" d="M-674.677,498.32v-17.108h79.22c4.337-29.352,29.388-51.446,59.798-51.446
			c30.411,0,55.463,22.094,59.799,51.446h70.308v20.338L-674.677,498.32z"/>
		<polygon class="st18" points="-645.068,481.213 -674.677,481.213 -674.677,498.32 -645.068,498.679 		"/>
		<path class="st17" d="M-482.406,488.388c-0.98-28.573-24.437-51.444-53.253-51.444c-28.813,0-52.272,22.871-53.253,51.444h-78.587
			v163.187h261.947V488.388H-482.406z"/>
		<g>
			<rect x="-583.515" y="522.847" class="st19" width="95.713" height="16.747"/>
			<rect x="-577.472" y="541.39" class="st20" width="83.628" height="110.185"/>
			<rect x="-570.294" y="548.566" class="st21" width="69.27" height="103.008"/>
			<rect x="-535.659" y="548.566" class="st22" width="34.635" height="103.008"/>
			<rect x="-563.176" y="555.745" class="st8" width="19.379" height="29.433"/>
		</g>
		<g>
			<g>
				<rect x="-640.642" y="531.221" class="st23" width="43.071" height="73.697"/>
				<line class="st24" x1="-640.642" y1="568.067" x2="-597.571" y2="568.067"/>
				<line class="st24" x1="-619.105" y1="531.221" x2="-619.105" y2="604.918"/>
			</g>
			<g>
				<rect x="-473.747" y="531.221" class="st23" width="43.07" height="73.697"/>
				<line class="st24" x1="-473.747" y1="568.067" x2="-430.677" y2="568.067"/>
				<line class="st24" x1="-452.209" y1="531.221" x2="-452.209" y2="604.918"/>
			</g>
		</g>
		<g>
			<path class="st8" d="M-535.659,510.606c-11.821,0-21.438-9.618-21.438-21.441c0-11.82,9.617-21.436,21.438-21.436
				s21.438,9.616,21.438,21.436C-514.221,500.988-523.838,510.606-535.659,510.606z"/>
			<g>
				<path class="st25" d="M-535.659,470.159c10.481,0,19.008,8.526,19.008,19.007c0,10.483-8.527,19.011-19.008,19.011
					c-10.481,0-19.008-8.528-19.008-19.011C-554.667,478.685-546.14,470.159-535.659,470.159 M-535.659,465.3
					c-13.181,0-23.867,10.685-23.867,23.866c0,13.182,10.687,23.87,23.867,23.87c13.184,0,23.867-10.688,23.867-23.87
					C-511.792,475.985-522.475,465.3-535.659,465.3L-535.659,465.3z"/>
			</g>
		</g>
		<rect x="-463.936" y="628.244" class="st26" width="19.622" height="10.053"/>
		<rect x="-442.401" y="509.444" class="st26" width="19.622" height="10.052"/>
		<rect x="-628.916" y="501.55" class="st26" width="19.62" height="10.05"/>
		<rect x="-611.328" y="618.196" class="st26" width="19.619" height="10.048"/>
		<rect x="-473.747" y="618.196" class="st27" width="19.622" height="10.048"/>
		<rect x="-452.209" y="499.396" class="st27" width="19.619" height="10.047"/>
		<circle class="st15" cx="-441.958" cy="290.067" r="23.651"/>
		<circle class="st15" cx="-492.589" cy="285.301" r="12.261"/>
		<circle class="st15" cx="-464.411" cy="248.873" r="8.375"/>
		<rect x="-667.499" y="488.388" class="st7" width="22.431" height="163.187"/>
		<rect x="-669.234" y="630.278" class="st26" width="19.622" height="10.053"/>
		<rect x="-664.807" y="620.231" class="st27" width="19.62" height="10.047"/>
	</g>
	<g id="building_3_1_">
		<path class="st28" d="M-647.45,367.548l-22.282-159.551c-0.472-3.397-3.143-5.906-6.282-5.906h-254.43
			c-3.139,0-5.812,2.509-6.285,5.906l-22.279,159.547c-0.29,2.057,0.281,4.143,1.546,5.691c1.268,1.551,3.107,2.401,5,2.314
			l145.158,6.962l153.305-6.962c0.091,0.003,0.176,0.004,0.264,0.004c1.806,0,3.53-0.838,4.736-2.315
			C-647.73,371.688-647.16,369.601-647.45,367.548z"/>
		<path class="st29" d="M-936.729,207.996l-22.279,159.547c-0.29,2.057,0.281,4.143,1.546,5.691c1.268,1.551,3.107,2.401,5,2.314
			l33.186,1.591v-10.746c3.495-3.028,5.713-7.499,5.713-12.478v-16.75c0-2.732-0.671-5.314-1.851-7.588
			c0.88-0.711,1.708-1.496,2.472-2.35c4.262-4.761,6.15-11.109,5.182-17.409l-16.458-107.729h-6.226
			C-933.583,202.09-936.256,204.598-936.729,207.996z"/>
		<polygon class="st30" points="-659.423,375.815 -688.627,375.815 -803.082,261.358 -803.17,261.152 -803.229,261.213 
			-803.287,261.152 -803.375,261.358 -917.831,375.815 -947.035,375.815 -947.035,469.619 -851.41,476.145 -851.164,482.701 
			-803.229,479.432 -755.292,482.701 -755.047,476.145 -659.423,469.619 		"/>
		<rect x="-947.035" y="463.983" class="st30" width="287.612" height="187.592"/>
		<rect x="-799.998" y="506.336" class="st31" width="105.161" height="85.063"/>
		<line class="st32" x1="-764.108" y1="506.336" x2="-764.108" y2="588.526"/>
		<line class="st32" x1="-729.364" y1="507.773" x2="-729.364" y2="589.964"/>
		<line class="st32" x1="-799.998" y1="542.943" x2="-694.837" y2="542.943"/>
		<rect x="-909.228" y="514.682" class="st33" width="79.919" height="136.893"/>
		<rect x="-896.189" y="526.166" class="st34" width="53.838" height="59.489"/>
		<line class="st35" x1="-869.27" y1="526.166" x2="-869.27" y2="585.655"/>
		<line class="st35" x1="-896.189" y1="555.912" x2="-842.35" y2="555.912"/>
		<circle class="st36" cx="-893.497" cy="611.678" r="6.281"/>
		<rect x="-804.305" y="577.041" class="st37" width="114.85" height="22.612"/>
		<rect x="-680.958" y="619.993" class="st38" width="21.535" height="10.047"/>
		<rect x="-794.854" y="625.018" class="st38" width="21.535" height="10.049"/>
		<rect x="-896.189" y="496.286" class="st38" width="21.536" height="10.05"/>
		<rect x="-759.143" y="403.686" class="st38" width="21.536" height="10.05"/>
		<rect x="-897.983" y="409.429" class="st38" width="21.536" height="10.05"/>
		<rect x="-691.725" y="416.608" class="st38" width="21.535" height="10.049"/>
		<rect x="-862.028" y="347.694" class="st38" width="21.535" height="10.05"/>
		<rect x="-670.191" y="478.101" class="st38" width="10.767" height="10.05"/>
		<rect x="-810.765" y="478.101" class="st38" width="21.533" height="10.05"/>
		<rect x="-733.121" y="630.04" class="st39" width="21.535" height="10.053"/>
		<rect x="-670.191" y="609.944" class="st39" width="10.767" height="10.049"/>
		<rect x="-768.414" y="486.239" class="st39" width="21.535" height="10.047"/>
		<rect x="-768.414" y="393.635" class="st39" width="21.535" height="10.05"/>
		<rect x="-675.576" y="405.84" class="st39" width="16.153" height="10.052"/>
		<rect x="-869.267" y="357.985" class="st39" width="21.533" height="10.049"/>
		<rect x="-906.954" y="398.663" class="st39" width="21.535" height="10.048"/>
		<rect x="-805.621" y="614.967" class="st39" width="21.535" height="10.052"/>
		<rect x="-887.216" y="486.239" class="st39" width="21.536" height="10.047"/>
		<g>
			<rect x="-847.317" y="334.836" class="st31" width="88.174" height="85.063"/>
			<line class="st40" x1="-803.229" y1="334.057" x2="-803.229" y2="419.899"/>
			<line class="st40" x1="-847.317" y1="376.978" x2="-759.143" y2="376.978"/>
		</g>
		<rect x="-810.765" y="303.43" class="st38" width="21.533" height="10.049"/>
		<polygon class="st41" points="-919.276,375.815 -947.035,375.815 -947.035,463.983 -947.035,469.621 -947.035,651.575 
			-919.276,651.575 		"/>
		<rect x="-940.844" y="570.762" class="st38" width="21.535" height="10.048"/>
		<rect x="-933.633" y="447.833" class="st42" width="277.558" height="16.15"/>
		<path class="st33" d="M-919.276,445.233h-14.358c-1.437,0-2.6,1.165-2.6,2.599v16.15c0,1.438,1.163,2.602,2.6,2.602h14.358
			V445.233z"/>
	</g>
	<g id="building2_1_">
		<path class="st28" d="M-1228.848,337.829l-25.805-158.77c-0.548-3.381-3.641-5.876-7.278-5.876h-294.651
			c-3.637,0-6.731,2.495-7.279,5.876l-25.803,158.768c-0.332,2.044,0.326,4.121,1.792,5.662c1.47,1.541,3.601,2.387,5.792,2.299
			l168.106,6.93l177.542-6.927c0.102,0.004,0.203,0.006,0.306,0.006c2.089,0,4.087-0.838,5.486-2.305
			C-1229.173,341.952-1228.514,339.874-1228.848,337.829z"/>
		<path class="st29" d="M-1270.565,347.763l34.133-1.33c0.102,0.004,0.203,0.004,0.306,0.004c2.089,0,4.087-0.834,5.486-2.304
			c1.467-1.541,2.126-3.616,1.793-5.661l-25.805-158.773c-0.091-0.55-0.268-1.065-0.483-1.561l-20.216,132.31
			c-0.967,6.313,0.92,12.663,5.186,17.423c0.557,0.622,1.15,1.212,1.772,1.757c-1.381,2.414-2.171,5.206-2.171,8.178V347.763z"/>
		<rect x="-1332.987" y="345.722" class="st43" width="97.923" height="305.853"/>
		<path class="st44" d="M-1235.064,651.575V345.722h-35.502v8.194c0,5.447,2.65,10.284,6.728,13.295v284.364H-1235.064z"/>
		<rect x="-1317.433" y="554.37" class="st45" width="19.381" height="6.821"/>
		<rect x="-1319.946" y="547.79" class="st46" width="19.381" height="6.82"/>
		<rect x="-1263.746" y="496.915" class="st47" width="19.382" height="6.818"/>
		<rect x="-1582.552" y="345.722" class="st43" width="97.925" height="305.853"/>
		<rect x="-1494.317" y="613.651" class="st45" width="19.38" height="6.82"/>
		<rect x="-1585.304" y="466.495" class="st48" width="95.831" height="8.986"/>
		<rect x="-1582.552" y="623.879" class="st46" width="19.382" height="6.822"/>
		<rect x="-1499.164" y="607.55" class="st46" width="19.381" height="6.819"/>
		<rect x="-1561.615" y="569.146" class="st46" width="19.381" height="6.819"/>
		<rect x="-1519.98" y="520.873" class="st46" width="19.382" height="6.819"/>
		<rect x="-1557.187" y="423.068" class="st46" width="19.379" height="6.818"/>
		<rect x="-1514.956" y="390.945" class="st46" width="19.382" height="6.819"/>
		<rect x="-1572.862" y="352.72" class="st46" width="19.382" height="6.82"/>
		<rect x="-1563.17" y="359.54" class="st45" width="19.379" height="6.818"/>
		<rect x="-1514.956" y="527.692" class="st45" width="19.382" height="6.818"/>
		<rect x="-1557.187" y="575.965" class="st45" width="19.379" height="6.82"/>
		<rect x="-1582.552" y="630.701" class="st45" width="11.606" height="6.819"/>
		<rect x="-1522.313" y="640.629" class="st45" width="19.381" height="6.819"/>
		<rect x="-1582.552" y="502.856" class="st45" width="9.69" height="6.818"/>
		<rect x="-1561.615" y="416.249" class="st45" width="19.381" height="6.819"/>
		<rect x="-1519.98" y="384.128" class="st45" width="19.382" height="6.818"/>
		<rect x="-1547.498" y="498.361" class="st49" width="32.542" height="134.314"/>
		<line class="st50" x1="-1547.498" y1="565.518" x2="-1514.956" y2="565.518"/>
		<rect x="-1547.498" y="373.898" class="st49" width="32.542" height="64.603"/>
		<line class="st50" x1="-1547.498" y1="406.197" x2="-1514.956" y2="406.197"/>
		<rect x="-1329.038" y="466.495" class="st48" width="95.83" height="8.986"/>
		<rect x="-1263.864" y="462.908" class="st51" width="28.774" height="16.161"/>
		<polygon class="st52" points="-1487.678,349.737 -1409.973,249.165 -1332.987,349.737 -1386.105,370.188 		"/>
		<rect x="-1489.473" y="342.313" class="st52" width="160.435" height="126.455"/>
		<rect x="-1489.473" y="463.983" class="st52" width="160.435" height="187.592"/>
		<rect x="-1492.344" y="452.141" class="st53" width="164.74" height="9.45"/>
		<rect x="-1348.421" y="620.471" class="st54" width="19.382" height="6.819"/>
		<rect x="-1340.884" y="627.291" class="st43" width="11.845" height="6.818"/>
		<rect x="-1376.416" y="597.323" class="st43" width="19.382" height="6.818"/>
		<rect x="-1381.081" y="604.14" class="st54" width="19.382" height="6.819"/>
		<rect x="-1367.802" y="556.721" class="st43" width="19.381" height="6.824"/>
		<rect x="-1465.066" y="613.651" class="st43" width="19.382" height="6.82"/>
		<rect x="-1470.451" y="620.471" class="st54" width="19.382" height="6.819"/>
		<rect x="-1460.759" y="538.639" class="st54" width="19.379" height="6.819"/>
		<rect x="-1477.269" y="411.044" class="st54" width="19.379" height="6.82"/>
		<rect x="-1359.546" y="370.487" class="st54" width="19.382" height="6.82"/>
		<rect x="-1424.509" y="320.657" class="st54" width="19.381" height="6.82"/>
		<rect x="-1395.797" y="338.901" class="st54" width="19.381" height="6.821"/>
		<rect x="-1465.066" y="556.726" class="st43" width="19.382" height="6.819"/>
		<rect x="-1371.391" y="637.217" class="st54" width="19.382" height="6.823"/>
		<rect x="-1489.473" y="637.58" class="st43" width="13.282" height="6.818"/>
		<rect x="-1489.473" y="578.239" class="st54" width="13.282" height="6.82"/>
		<rect x="-1489.473" y="584.938" class="st43" width="19.381" height="6.818"/>
		<rect x="-1340.884" y="520.873" class="st54" width="11.845" height="6.819"/>
		<rect x="-1489.473" y="497.328" class="st54" width="9.69" height="6.819"/>
		<rect x="-1364.571" y="492.156" class="st54" width="19.38" height="6.82"/>
		<rect x="-1369.236" y="498.626" class="st43" width="19.38" height="6.819"/>
		<rect x="-1364.571" y="377.307" class="st43" width="19.38" height="6.82"/>
		<rect x="-1482.833" y="418.461" class="st43" width="19.381" height="6.822"/>
		<rect x="-1338.728" y="437.245" class="st43" width="9.69" height="6.819"/>
		<rect x="-1434.201" y="313.479" class="st43" width="19.382" height="6.82"/>
		<rect x="-1452.863" y="338.901" class="st43" width="19.38" height="6.821"/>
		<rect x="-1452.863" y="518.538" class="st55" width="86.138" height="133.037"/>
		<rect x="-1445.684" y="525.716" class="st7" width="71.782" height="125.859"/>
		<rect x="-1409.794" y="525.716" class="st10" width="35.893" height="125.859"/>
		<rect x="-1457.889" y="475.111" class="st49" width="96.191" height="31.152"/>
		<rect x="-1409.794" y="475.481" class="st56" width="0" height="29.964"/>
		<polyline class="st57" points="-1491.25,349.737 -1409.256,248.277 -1327.263,349.737 		"/>
		<g>
			<rect x="-1462.735" y="359.54" class="st49" width="106.958" height="72.501"/>
			<line class="st49" x1="-1427.131" y1="359.54" x2="-1427.131" y2="432.041"/>
			<line class="st49" x1="-1391.453" y1="360.257" x2="-1391.453" y2="432.758"/>
			<line class="st49" x1="-1462.735" y1="396.508" x2="-1355.777" y2="396.508"/>
		</g>
		<rect x="-1278.071" y="607.55" class="st45" width="19.379" height="6.819"/>
		<rect x="-1278.071" y="414.635" class="st45" width="19.379" height="6.818"/>
		<rect x="-1319.946" y="385.919" class="st45" width="19.381" height="6.821"/>
		<rect x="-1283.098" y="600.73" class="st46" width="19.382" height="6.82"/>
		<rect x="-1313.245" y="393.099" class="st46" width="19.379" height="6.82"/>
		<rect x="-1278.071" y="448.73" class="st46" width="19.379" height="6.819"/>
		<rect x="-1317.433" y="637.217" class="st46" width="19.381" height="6.823"/>
		<rect x="-1307.742" y="492.978" class="st49" width="32.542" height="134.312"/>
		<line class="st50" x1="-1307.742" y1="560.133" x2="-1275.2" y2="560.133"/>
		<rect x="-1305.947" y="370.188" class="st49" width="32.542" height="64.604"/>
		<line class="st50" x1="-1305.947" y1="402.488" x2="-1273.406" y2="402.488"/>
	</g>
	<g id="building_1_1_">
		<path class="st3" d="M-921.95,311.989l-24.26-158.771c-0.516-3.381-3.425-5.878-6.842-5.878h-277.007
			c-3.419,0-6.327,2.497-6.842,5.878l-24.26,158.768c-0.313,2.044,0.306,4.123,1.687,5.664c1.38,1.541,3.383,2.386,5.443,2.299
			l158.041,6.932l166.907-6.93c0.1,0.004,0.193,0.004,0.289,0.004c1.965,0,3.843-0.835,5.157-2.304
			C-922.256,316.11-921.638,314.033-921.95,311.989z"/>
		<path class="st58" d="M-933.633,320.172h-29.177c0,0-2.351-47.057-59.288-47.057v-35.29h-14.234c0,0-3.151-46.217-54.549-47.018
			c-0.006-0.01-0.016-0.034-0.02-0.036c-0.222,0-0.43,0.016-0.653,0.018c-0.224-0.002-0.431-0.018-0.655-0.018
			c-0.004,0.002-0.014,0.026-0.02,0.036c-51.397,0.801-54.549,47.018-54.549,47.018h-14.234v35.29
			c-56.939,0-59.29,47.057-59.29,47.057h-29.175v15.998l149.647,25.583l1.033,2.651l7.243-1.238l7.243,1.238l1.036-2.651
			l149.644-25.583V320.172z"/>
		<path class="st59" d="M-1091.556,355.885l-2.68,0.457l-0.382-0.981l-147.682-16.038v-11.972h28.826l0.342-6.817
			c0.094-1.613,2.972-40.239,52.119-40.239h7.178v-35.29h13.762l0.457-6.691c0.12-1.589,3.54-39.642,47.497-40.326l0.563-0.01
			l0.563,0.01c43.961,0.684,47.378,38.737,47.504,40.357l0.505,6.629l6.653,0.032h7.054v35.29h7.18
			c20.777,0,35.803,6.66,44.669,19.798c6.754,10.014,7.447,20.371,7.452,20.473l0.405,6.75l6.761,0.036h21.998v11.252
			l-147.676,16.758l-0.382,0.981L-1091.556,355.885z"/>
		<rect x="-1026.353" y="306.302" class="st60" width="19.86" height="14.355"/>
		<rect x="-1141.029" y="291.944" class="st60" width="19.86" height="14.358"/>
		<rect x="-1055.607" y="273.041" class="st60" width="19.859" height="14.358"/>
		<rect x="-1013.432" y="320.657" class="st61" width="19.858" height="14.358"/>
		<rect x="-1102.084" y="213.462" class="st61" width="19.86" height="14.356"/>
		<rect x="-1190.738" y="306.302" class="st61" width="19.861" height="14.355"/>
		<rect x="-1147.729" y="306.302" class="st61" width="19.859" height="14.355"/>
		<rect x="-1063.709" y="258.685" class="st61" width="19.858" height="14.355"/>
		<g>
			<path class="st62" d="M-1091.556,367.758c-19.491,0-35.347-15.856-35.347-35.347v-55.689c0-19.491,15.856-35.347,35.347-35.347
				c19.49,0,35.347,15.856,35.347,35.347v55.689C-1056.209,351.902-1072.066,367.758-1091.556,367.758z"/>
			<path class="st3" d="M-1091.556,243.805c18.151,0,32.917,14.767,32.917,32.917v55.689c0,18.151-14.767,32.917-32.917,32.917
				c-18.151,0-32.917-14.767-32.917-32.917v-55.689C-1124.474,258.571-1109.707,243.805-1091.556,243.805 M-1091.556,238.945
				c-20.864,0-37.777,16.913-37.777,37.777v55.689c0,20.864,16.913,37.777,37.777,37.777s37.777-16.913,37.777-37.777v-55.689
				C-1053.78,255.858-1070.692,238.945-1091.556,238.945L-1091.556,238.945z"/>
		</g>
		<rect x="-1249.479" y="353.916" class="st59" width="315.846" height="297.659"/>
		<g>
			<g>
				<rect x="-1027.91" y="382.51" class="st63" width="73.219" height="99.06"/>
				<line class="st64" x1="-1003.503" y1="382.51" x2="-1003.503" y2="481.57"/>
				<line class="st64" x1="-979.097" y1="382.51" x2="-979.097" y2="481.57"/>
				<line class="st64" x1="-1027.91" y1="407.276" x2="-954.691" y2="407.276"/>
				<rect x="-1003.503" y="407.276" class="st64" width="24.406" height="24.765"/>
				<line class="st64" x1="-1027.91" y1="432.041" x2="-954.691" y2="432.041"/>
				<rect x="-1003.503" y="432.041" class="st64" width="24.406" height="24.765"/>
				<line class="st64" x1="-1027.91" y1="456.806" x2="-954.691" y2="456.806"/>
			</g>
			<g>
				<rect x="-1229.621" y="382.51" class="st63" width="73.221" height="99.06"/>
				<line class="st64" x1="-1205.212" y1="382.51" x2="-1205.212" y2="481.57"/>
				<line class="st64" x1="-1180.805" y1="382.51" x2="-1180.805" y2="481.57"/>
				<line class="st64" x1="-1229.621" y1="407.276" x2="-1156.4" y2="407.276"/>
				<rect x="-1205.212" y="407.276" class="st64" width="24.407" height="24.765"/>
				<line class="st64" x1="-1229.621" y1="432.041" x2="-1156.4" y2="432.041"/>
				<rect x="-1205.212" y="432.041" class="st64" width="24.407" height="24.765"/>
				<line class="st64" x1="-1229.621" y1="456.806" x2="-1156.4" y2="456.806"/>
			</g>
		</g>
		<g>
			<g>
				<rect x="-1027.91" y="526.436" class="st63" width="73.219" height="99.057"/>
				<line class="st64" x1="-1003.503" y1="526.436" x2="-1003.503" y2="625.493"/>
				<line class="st64" x1="-979.097" y1="526.436" x2="-979.097" y2="625.493"/>
				<line class="st64" x1="-1027.91" y1="551.201" x2="-954.691" y2="551.201"/>
				<rect x="-1003.503" y="551.201" class="st64" width="24.406" height="24.765"/>
				<line class="st64" x1="-1027.91" y1="575.965" x2="-954.691" y2="575.965"/>
				<rect x="-1003.503" y="575.965" class="st64" width="24.406" height="24.765"/>
				<line class="st64" x1="-1027.91" y1="600.73" x2="-954.691" y2="600.73"/>
			</g>
			<g>
				<rect x="-1229.621" y="526.436" class="st63" width="73.221" height="99.057"/>
				<line class="st64" x1="-1205.212" y1="526.436" x2="-1205.212" y2="625.493"/>
				<line class="st64" x1="-1180.805" y1="526.436" x2="-1180.805" y2="625.493"/>
				<line class="st64" x1="-1229.621" y1="551.201" x2="-1156.4" y2="551.201"/>
				<rect x="-1205.212" y="551.201" class="st64" width="24.407" height="24.765"/>
				<line class="st64" x1="-1229.621" y1="575.965" x2="-1156.4" y2="575.965"/>
				<rect x="-1205.212" y="575.965" class="st64" width="24.407" height="24.765"/>
				<line class="st64" x1="-1229.621" y1="600.73" x2="-1156.4" y2="600.73"/>
			</g>
		</g>
		<g>
			<rect x="-1141.029" y="526.854" class="st7" width="97.929" height="124.72"/>
			<rect x="-1092.065" y="526.436" class="st10" width="48.965" height="125.139"/>
			<rect x="-1145.037" y="518.538" class="st65" width="105.762" height="11.486"/>
			<g>
				<path class="st66" d="M-1138.275,523.939c-0.011-0.375-0.016-0.738-0.016-1.092c0-25.44,20.697-46.138,46.136-46.138
					c25.441,0,46.139,20.697,46.139,46.138c0,0.354-0.005,0.717-0.016,1.092H-1138.275z"/>
				<path class="st4" d="M-1092.155,479.625c23.223,0,42.226,18.408,43.185,41.398h-86.368
					C-1134.378,498.033-1115.376,479.625-1092.155,479.625 M-1092.155,473.794c-27.09,0-49.052,21.963-49.052,49.053
					c0,1.352,0.071,2.683,0.177,4.008h97.752c0.107-1.324,0.177-2.656,0.177-4.008
					C-1043.1,495.757-1065.062,473.794-1092.155,473.794L-1092.155,473.794z"/>
			</g>
		</g>
		<rect x="-1254.055" y="337.166" class="st67" width="323.979" height="16.75"/>
		<rect x="-1249.479" y="488.388" class="st61" width="19.858" height="14.356"/>
		<rect x="-1249.479" y="637.217" class="st61" width="19.858" height="14.358"/>
		<rect x="-1141.029" y="449.629" class="st60" width="19.86" height="14.354"/>
		<rect x="-1068.615" y="414.696" class="st60" width="19.86" height="14.354"/>
		<rect x="-1138.964" y="389.331" class="st60" width="19.861" height="14.355"/>
		<rect x="-1249.479" y="502.746" class="st60" width="26.856" height="14.358"/>
		<rect x="-960.493" y="637.217" class="st60" width="26.857" height="14.358"/>
		<rect x="-953.493" y="500.324" class="st61" width="19.86" height="14.358"/>
		<rect x="-1062.962" y="461.591" class="st61" width="19.861" height="14.358"/>
		<rect x="-1060.123" y="400.098" class="st61" width="19.86" height="14.355"/>
		<rect x="-1131.1" y="403.686" class="st61" width="19.86" height="14.356"/>
		<rect x="-1003.503" y="355.83" class="st61" width="19.858" height="14.358"/>
		<rect x="-943.564" y="514.682" class="st60" width="9.931" height="14.355"/>
		<g>
			<path class="st62" d="M-1092.065,438.227c-17.065,0-30.949-13.884-30.949-30.95c0-17.065,13.883-30.948,30.949-30.948
				s30.949,13.883,30.949,30.948C-1061.117,424.342-1075,438.227-1092.065,438.227z"/>
			<path class="st3" d="M-1092.065,378.758c15.725,0,28.519,12.794,28.519,28.519c0,15.726-12.793,28.52-28.519,28.52
				c-15.725,0-28.519-12.794-28.519-28.52C-1120.584,391.551-1107.791,378.758-1092.065,378.758 M-1092.065,373.898
				c-18.433,0-33.378,14.941-33.378,33.378c0,18.433,14.945,33.38,33.378,33.38c18.435,0,33.378-14.946,33.378-33.38
				C-1058.687,388.839-1073.631,373.898-1092.065,373.898L-1092.065,373.898z"/>
		</g>
	</g>
</g>
<path class="st3" d="M-359.454,672.155c0,11.366-9.211,20.577-20.578,20.577h-1453.989c-11.365,0-20.58-9.211-20.58-20.577l0,0
	c0-11.365,9.215-20.58,20.58-20.58h1453.989C-368.665,651.575-359.454,660.79-359.454,672.155L-359.454,672.155z"/>
<path class="st28" d="M-501.024,707.806c0,8.324-6.747,15.073-15.073,15.073h-1165.754c-8.325,0-15.075-6.75-15.075-15.073l0,0
	c0-8.325,6.75-15.075,15.075-15.075h1165.754C-507.771,692.732-501.024,699.481-501.024,707.806L-501.024,707.806z"/>
<path class="st28" d="M-838.166,821.223c0,7.535-4.604,13.64-10.286,13.64h-565.296c-5.682,0-10.287-6.105-10.287-13.64l0,0
	c0-7.532,4.605-13.638,10.287-13.638h565.296C-842.77,807.585-838.166,813.691-838.166,821.223L-838.166,821.223z"/>
<path class="st28" d="M-1141.206,777.456h-749.532c-7.533,0-13.64-6.105-13.64-13.64l0,0c0-7.532,6.106-13.638,13.64-13.638h749.532
	h749.533c7.533,0,13.638,6.106,13.638,13.638l0,0c0,7.535-6.105,13.64-13.638,13.64H-1141.206z"/>
<path class="st3" d="M-936.225,807.585h-635.163c-6.018,0-10.895-6.743-10.895-15.065l0,0c0-8.319,4.877-15.064,10.895-15.064
	h635.163h523.868c6.65,0,12.04,6.747,12.04,15.065l0,0c0,8.319-5.39,15.065-12.04,15.065H-936.225z"/>
<path class="st3" d="M-998.626,750.154h-795.264c-7.535,0-13.641-6.105-13.641-13.639l0,0c0-7.532,6.106-13.638,13.641-13.638
	h795.264h655.915c8.327,0,15.075,6.108,15.075,13.639l0,0c0,7.532-6.748,13.639-15.075,13.639H-998.626z"/>
<path class="st3" d="M-1017.394,849.937c0,8.325-6.75,15.075-15.075,15.075H-1171.7c-8.327,0-15.075-6.75-15.075-15.075l0,0
	c0-8.329,6.748-15.075,15.075-15.075h139.231C-1024.144,834.862-1017.394,841.608-1017.394,849.937L-1017.394,849.937z"/>
<g id="christmas_trees_1_">
	<g>
		<g>
			<rect x="-1813.703" y="615.95" class="st68" width="25.339" height="35.695"/>
			<path class="st69" d="M-1732.372,593.194l-20.698-26.875l-47.963-62.27l-47.964,62.27l-20.699,26.875l-0.02,0.026l0.03,0.006
				c3.224,10.13,15.63,17.685,30.481,17.685c2.511,0,4.942-0.24,7.284-0.646c2.395,10.896,15.291,19.231,30.888,19.231
				c15.594,0,28.492-8.335,30.887-19.231c2.34,0.407,4.772,0.646,7.285,0.646c14.848,0,27.257-7.555,30.48-17.685l0.029-0.006
				L-1732.372,593.194z"/>
			<path class="st70" d="M-1738.451,571.619l-18.867-24.495l-43.714-56.755l-43.717,56.755l-18.865,24.495l-0.02,0.025l0.029,0.006
				c2.937,9.231,14.247,16.118,27.781,16.118c2.291,0,4.507-0.219,6.64-0.59c2.181,9.932,13.935,17.527,28.152,17.527
				c14.212,0,25.969-7.595,28.151-17.527c2.134,0.371,4.349,0.59,6.639,0.59c13.536,0,24.846-6.887,27.781-16.118l0.029-0.006
				L-1738.451,571.619z"/>
			<path class="st71" d="M-1747.049,549.481l-16.275-21.131l-37.709-48.958l-37.712,48.958l-16.275,21.131l-0.016,0.02l0.023,0.006
				c2.536,7.962,12.292,13.905,23.968,13.905c1.974,0,3.886-0.19,5.727-0.511c1.88,8.569,12.021,15.121,24.284,15.121
				c12.262,0,22.4-6.552,24.284-15.121c1.839,0.32,3.751,0.511,5.729,0.511c11.675,0,21.43-5.943,23.963-13.905l0.024-0.006
				L-1747.049,549.481z"/>
			<rect x="-1801.033" y="615.95" class="st72" width="12.669" height="35.695"/>
			<path class="st73" d="M-1770.146,610.264c2.34,0.407,4.772,0.646,7.285,0.646c14.848,0,27.257-7.555,30.48-17.685l0.029-0.006
				l-0.02-0.026l-20.698-26.875l-47.963-62.27v125.446C-1785.438,629.495-1772.541,621.162-1770.146,610.264z"/>
			<path class="st69" d="M-1772.882,587.177c2.134,0.371,4.349,0.59,6.639,0.59c13.536,0,24.846-6.887,27.781-16.118l0.029-0.006
				l-0.017-0.025l-18.867-24.495l-43.714-56.755v114.335C-1786.821,604.704-1775.064,597.109-1772.882,587.177z"/>
			<path class="st70" d="M-1776.749,562.901c1.839,0.32,3.751,0.508,5.726,0.508c11.676,0,21.432-5.941,23.966-13.902l0.024-0.006
				l-0.016-0.02l-16.275-21.131l-37.71-48.958v98.63C-1788.771,578.022-1778.632,571.47-1776.749,562.901z"/>
		</g>
		<circle class="st74" cx="-1806.951" cy="538.111" r="6.752"/>
		<circle class="st75" cx="-1786.04" cy="551.617" r="6.752"/>
		<circle class="st76" cx="-1788.365" cy="519.655" r="6.752"/>
		<circle class="st76" cx="-1837.853" cy="566.772" r="6.752"/>
		<circle class="st74" cx="-1817.748" cy="604.705" r="6.752"/>
		<circle class="st74" cx="-1766.505" cy="592.169" r="6.752"/>
		<circle class="st75" cx="-1804.243" cy="585.417" r="6.753"/>
	</g>
	<g>
		<g>
			<rect x="-412.661" y="615.883" class="st68" width="25.337" height="35.692"/>
			<path class="st69" d="M-331.328,593.126l-20.7-26.875l-47.964-62.272l-47.964,62.272l-20.699,26.875l-0.017,0.023l0.027,0.009
				c3.224,10.128,15.63,17.685,30.482,17.685c2.513,0,4.944-0.24,7.285-0.649c2.395,10.899,15.291,19.234,30.887,19.234
				c15.596,0,28.492-8.335,30.885-19.234c2.343,0.41,4.775,0.649,7.286,0.649c14.848,0,27.257-7.556,30.481-17.685l0.028-0.009
				L-331.328,593.126z"/>
			<path class="st70" d="M-337.41,571.551l-18.866-24.495l-43.716-56.758l-43.716,56.758l-18.866,24.495l-0.019,0.021l0.029,0.006
				c2.936,9.234,14.244,16.118,27.781,16.118c2.289,0,4.507-0.218,6.642-0.59c2.178,9.933,13.934,17.53,28.149,17.53
				c14.215,0,25.971-7.596,28.152-17.53c2.132,0.372,4.349,0.59,6.639,0.59c13.536,0,24.845-6.884,27.781-16.118l0.029-0.006
				L-337.41,571.551z"/>
			<path class="st71" d="M-346.007,549.412l-16.275-21.129l-37.71-48.961l-37.71,48.961l-16.275,21.129l-0.016,0.02l0.025,0.004
				c2.533,7.965,12.289,13.905,23.964,13.905c1.976,0,3.886-0.188,5.73-0.511c1.88,8.569,12.021,15.121,24.283,15.121
				c12.262,0,22.402-6.552,24.283-15.121c1.841,0.323,3.754,0.511,5.73,0.511c11.675,0,21.431-5.94,23.964-13.905l0.025-0.004
				L-346.007,549.412z"/>
			<rect x="-399.992" y="615.883" class="st72" width="12.669" height="35.692"/>
			<path class="st73" d="M-369.107,610.193c2.343,0.41,4.775,0.649,7.286,0.649c14.848,0,27.257-7.556,30.481-17.685l0.028-0.009
				l-0.017-0.023l-20.7-26.875l-47.964-62.272v125.448C-384.397,629.427-371.5,621.092-369.107,610.193z"/>
			<path class="st69" d="M-371.84,587.106c2.132,0.372,4.349,0.59,6.639,0.59c13.536,0,24.845-6.887,27.781-16.118l0.029-0.006
				l-0.019-0.021l-18.866-24.495l-43.716-56.758v114.338C-385.777,604.636-374.022,597.04-371.84,587.106z"/>
			<path class="st70" d="M-375.709,562.831c1.841,0.323,3.754,0.511,5.73,0.511c11.675,0,21.431-5.94,23.964-13.905l0.025-0.004
				l-0.016-0.02l-16.275-21.131l-37.71-48.96v98.63C-387.73,577.952-377.59,571.399-375.709,562.831z"/>
		</g>
		<circle class="st74" cx="-405.91" cy="538.042" r="6.752"/>
		<circle class="st75" cx="-384.998" cy="551.547" r="6.753"/>
		<ellipse class="st76" cx="-387.323" cy="519.585" rx="6.751" ry="6.753"/>
		<circle class="st76" cx="-436.811" cy="566.702" r="6.752"/>
		<circle class="st74" cx="-416.708" cy="604.636" r="6.752"/>
		<circle class="st74" cx="-365.464" cy="592.099" r="6.753"/>
		<circle class="st75" cx="-403.202" cy="585.347" r="6.752"/>
	</g>
	<g>
		<g>
			<rect x="-727.455" y="657.038" class="st68" width="25.337" height="35.694"/>
			<path class="st69" d="M-646.123,634.281l-20.7-26.875l-47.964-62.271l-47.964,62.271l-20.697,26.875l-0.02,0.025l0.029,0.009
				c3.223,10.128,15.632,17.683,30.48,17.683c2.513,0,4.944-0.24,7.285-0.648c2.395,10.899,15.291,19.232,30.887,19.232
				c15.596,0,28.494-8.334,30.885-19.232c2.343,0.408,4.775,0.648,7.286,0.648c14.851,0,27.258-7.555,30.482-17.683l0.027-0.009
				L-646.123,634.281z"/>
			<path class="st70" d="M-652.205,612.706l-18.866-24.496l-43.716-56.757l-43.716,56.757l-18.866,24.496l-0.019,0.023l0.029,0.006
				c2.937,9.231,14.244,16.118,27.781,16.118c2.289,0,4.507-0.218,6.64-0.59c2.18,9.934,13.935,17.529,28.15,17.529
				c14.215,0,25.971-7.595,28.152-17.529c2.132,0.372,4.349,0.59,6.639,0.59c13.536,0,24.845-6.887,27.781-16.118l0.029-0.006
				L-652.205,612.706z"/>
			<path class="st71" d="M-660.801,590.568l-16.275-21.132l-37.71-48.959l-37.71,48.959l-16.275,21.132l-0.016,0.02l0.023,0.003
				c2.535,7.965,12.291,13.905,23.965,13.905c1.976,0,3.889-0.189,5.73-0.509c1.88,8.569,12.021,15.121,24.283,15.121
				c12.263,0,22.402-6.552,24.283-15.121c1.842,0.32,3.754,0.509,5.73,0.509c11.675,0,21.431-5.94,23.964-13.905l0.024-0.003
				L-660.801,590.568z"/>
			<rect x="-714.786" y="657.038" class="st72" width="12.669" height="35.694"/>
			<path class="st73" d="M-683.901,651.35c2.343,0.408,4.775,0.648,7.286,0.648c14.851,0,27.258-7.555,30.482-17.683l0.027-0.009
				l-0.017-0.025l-20.7-26.875l-47.964-62.271v125.448C-699.191,670.582-686.292,662.248-683.901,651.35z"/>
			<path class="st69" d="M-686.635,628.263c2.132,0.372,4.349,0.59,6.639,0.59c13.536,0,24.845-6.887,27.781-16.118l0.029-0.006
				l-0.019-0.023l-18.866-24.496l-43.716-56.757v114.338C-700.571,645.792-688.816,638.196-686.635,628.263z"/>
			<path class="st70" d="M-690.503,603.987c1.842,0.32,3.754,0.509,5.73,0.509c11.675,0,21.431-5.94,23.964-13.905l0.024-0.003
				l-0.016-0.02l-16.275-21.132l-37.71-48.959v98.632C-702.524,619.108-692.385,612.556-690.503,603.987z"/>
		</g>
		<circle class="st74" cx="-720.703" cy="579.198" r="6.752"/>
		<circle class="st75" cx="-699.793" cy="592.703" r="6.752"/>
		<circle class="st76" cx="-702.117" cy="560.742" r="6.752"/>
		<circle class="st76" cx="-751.605" cy="607.858" r="6.752"/>
		<circle class="st74" cx="-731.502" cy="645.792" r="6.752"/>
		<circle class="st74" cx="-680.258" cy="633.255" r="6.753"/>
		<circle class="st75" cx="-717.996" cy="626.503" r="6.752"/>
	</g>
	<g>
		<g>
			<rect x="-1245.878" y="714.552" class="st68" width="25.34" height="35.692"/>
			<path class="st69" d="M-1164.545,691.795l-20.701-26.875l-47.963-62.272l-47.963,62.272l-20.701,26.875l-0.02,0.026l0.033,0.006
				c3.221,10.13,15.63,17.684,30.479,17.684c2.513,0,4.944-0.239,7.285-0.646c2.393,10.896,15.291,19.231,30.887,19.231
				c15.596,0,28.494-8.335,30.885-19.231c2.343,0.407,4.773,0.646,7.286,0.646c14.848,0,27.257-7.555,30.479-17.684l0.033-0.006
				L-1164.545,691.795z"/>
			<path class="st70" d="M-1170.627,670.22l-18.866-24.495l-43.716-56.757l-43.716,56.757l-18.866,24.495l-0.019,0.022l0.029,0.009
				c2.937,9.231,14.247,16.118,27.781,16.118c2.289,0,4.504-0.219,6.639-0.59c2.182,9.931,13.935,17.527,28.152,17.527
				c14.215,0,25.969-7.597,28.152-17.527c2.135,0.371,4.349,0.59,6.639,0.59c13.534,0,24.844-6.887,27.781-16.118l0.029-0.009
				L-1170.627,670.22z"/>
			<path class="st71" d="M-1179.223,648.081l-16.275-21.129l-37.71-48.961l-37.71,48.961l-16.275,21.129l-0.016,0.02l0.026,0.006
				c2.533,7.963,12.288,13.904,23.963,13.904c1.976,0,3.886-0.188,5.727-0.509c1.884,8.568,12.022,15.122,24.286,15.122
				c12.263,0,22.402-6.555,24.286-15.122c1.841,0.322,3.751,0.509,5.727,0.509c11.675,0,21.429-5.94,23.964-13.904l0.024-0.006
				L-1179.223,648.081z"/>
			<rect x="-1233.208" y="714.552" class="st72" width="12.67" height="35.692"/>
			<path class="st73" d="M-1202.323,708.865c2.343,0.407,4.773,0.646,7.286,0.646c14.848,0,27.257-7.555,30.479-17.684l0.033-0.006
				l-0.02-0.026l-20.701-26.875l-47.963-62.27v125.446C-1217.613,728.096-1204.715,719.761-1202.323,708.865z"/>
			<path class="st69" d="M-1205.057,685.775c2.135,0.374,4.349,0.593,6.639,0.593c13.534,0,24.844-6.887,27.781-16.118l0.029-0.009
				l-0.019-0.022l-18.866-24.495l-43.716-56.757v114.337C-1218.993,703.306-1207.239,695.709-1205.057,685.775z"/>
			<path class="st70" d="M-1208.923,661.501c1.841,0.322,3.751,0.509,5.727,0.509c11.675,0,21.429-5.94,23.963-13.904l0.026-0.006
				l-0.016-0.02l-16.275-21.129l-37.71-48.961v98.633C-1220.945,676.624-1210.807,670.069-1208.923,661.501z"/>
		</g>
		<circle class="st74" cx="-1239.125" cy="636.713" r="6.753"/>
		<circle class="st75" cx="-1218.215" cy="650.218" r="6.752"/>
		<circle class="st76" cx="-1220.539" cy="618.257" r="6.752"/>
		<circle class="st76" cx="-1270.027" cy="665.373" r="6.753"/>
		<circle class="st74" cx="-1249.923" cy="703.305" r="6.752"/>
		<circle class="st74" cx="-1198.681" cy="690.769" r="6.753"/>
		<circle class="st75" cx="-1236.418" cy="684.016" r="6.753"/>
	</g>
	<g>
		<g>
			<rect x="-1579.409" y="687.651" class="st68" width="25.34" height="35.695"/>
			<path class="st69" d="M-1498.075,664.894l-20.701-26.875l-47.963-62.272l-47.963,62.272l-20.699,26.875l-0.019,0.026l0.03,0.006
				c3.221,10.13,15.63,17.685,30.48,17.685c2.513,0,4.942-0.24,7.285-0.646c2.392,10.896,15.29,19.231,30.885,19.231
				c15.598,0,28.494-8.335,30.887-19.231c2.341,0.407,4.772,0.646,7.285,0.646c14.85,0,27.257-7.555,30.48-17.685l0.032-0.006
				L-1498.075,664.894z"/>
			<path class="st70" d="M-1504.157,643.319l-18.866-24.495l-43.716-56.756l-43.716,56.756l-18.866,24.495l-0.016,0.025l0.029,0.006
				c2.936,9.231,14.244,16.118,27.778,16.118c2.289,0,4.505-0.219,6.64-0.59c2.183,9.931,13.937,17.527,28.151,17.527
				c14.218,0,25.971-7.596,28.152-17.527c2.135,0.371,4.349,0.59,6.642,0.59c13.531,0,24.841-6.887,27.779-16.118l0.028-0.006
				L-1504.157,643.319z"/>
			<path class="st71" d="M-1512.75,621.18l-16.277-21.129l-37.712-48.96l-37.71,48.96l-16.275,21.129l-0.013,0.02l0.023,0.007
				c2.533,7.962,12.288,13.904,23.964,13.904c1.976,0,3.886-0.189,5.728-0.509c1.881,8.569,12.019,15.121,24.283,15.121
				c12.265,0,22.405-6.552,24.286-15.121c1.841,0.32,3.752,0.509,5.727,0.509c11.675,0,21.432-5.942,23.966-13.904l0.023-0.007
				L-1512.75,621.18z"/>
			<rect x="-1566.739" y="687.651" class="st72" width="12.67" height="35.695"/>
			<path class="st73" d="M-1535.852,681.964c2.341,0.407,4.772,0.646,7.285,0.646c14.85,0,27.257-7.555,30.48-17.685l0.032-0.006
				l-0.02-0.026l-20.701-26.875l-47.963-62.27v125.446C-1551.14,701.195-1538.245,692.86-1535.852,681.964z"/>
			<path class="st69" d="M-1538.587,658.877c2.135,0.371,4.349,0.59,6.642,0.59c13.531,0,24.841-6.887,27.779-16.118l0.028-0.006
				l-0.019-0.025l-18.866-24.495l-43.716-56.756v114.337C-1552.521,676.404-1540.768,668.808-1538.587,658.877z"/>
			<path class="st70" d="M-1542.453,634.602c1.841,0.32,3.752,0.508,5.727,0.508c11.675,0,21.432-5.941,23.966-13.902l0.023-0.007
				l-0.016-0.02l-16.274-21.129l-37.712-48.96v98.632C-1554.474,649.722-1544.335,643.17-1542.453,634.602z"/>
		</g>
		<circle class="st74" cx="-1572.655" cy="609.812" r="6.753"/>
		<circle class="st75" cx="-1551.744" cy="623.317" r="6.752"/>
		<circle class="st76" cx="-1554.068" cy="591.356" r="6.752"/>
		<circle class="st76" cx="-1603.557" cy="638.472" r="6.752"/>
		<circle class="st74" cx="-1583.453" cy="676.405" r="6.753"/>
		<circle class="st74" cx="-1532.209" cy="663.869" r="6.752"/>
		<circle class="st75" cx="-1569.948" cy="657.116" r="6.753"/>
	</g>
</g>
<g id="candy_canes_1_">
	<g id="candy_cane_2_4_">
		<defs>
			<path id="SVGID_2_" d="M-1487.43,710.722c5.244-0.036,9.476-5.278,9.452-11.715l-0.711-169.351
				c-0.078-18.843-12.641-34.103-28.007-34.002c-15.366,0.097-27.801,15.508-27.725,34.352c0.025,6.44,4.302,11.629,9.548,11.594
				c5.244-0.036,9.476-5.277,9.453-11.709c-0.024-6.001,3.93-10.901,8.824-10.93c4.89-0.037,8.888,4.817,8.908,10.819l0.71,169.345
				C-1496.955,705.565-1492.678,710.754-1487.43,710.722z"/>
		</defs>
		<clipPath id="SVGID_3_">
			<use xlink:href="#SVGID_2_"  style="overflow:visible;"/>
		</clipPath>
		<g class="st77">
			<path class="st3" d="M-1487.43,710.722c5.244-0.036,9.476-5.278,9.452-11.715l-0.711-169.351
				c-0.078-18.843-12.641-34.103-28.007-34.002c-15.366,0.097-27.801,15.508-27.725,34.352c0.025,6.44,4.302,11.629,9.548,11.594
				c5.244-0.036,9.476-5.277,9.453-11.709c-0.024-6.001,3.93-10.901,8.824-10.93c4.89-0.037,8.888,4.817,8.908,10.819l0.71,169.345
				C-1496.955,705.565-1492.678,710.754-1487.43,710.722z"/>
		</g>
		<polygon class="st78" points="-1502.664,704.336 -1468.442,689.623 -1472.856,674.186 -1507.077,688.901 		"/>
		<polygon class="st78" points="-1502.792,672.479 -1468.574,657.769 -1472.989,642.336 -1507.209,657.051 		"/>
		<polygon class="st78" points="-1502.932,640.629 -1468.707,625.919 -1473.121,610.482 -1507.338,625.193 		"/>
		<polygon class="st78" points="-1503.059,608.777 -1468.84,594.068 -1473.254,578.631 -1507.47,593.34 		"/>
		<polygon class="st78" points="-1503.198,576.927 -1468.972,562.213 -1473.387,546.781 -1507.603,561.492 		"/>
		<polygon class="st78" points="-1503.33,545.074 -1469.108,530.36 -1473.52,514.927 -1507.737,529.637 		"/>
		<polygon class="st78" points="-1509.001,530.397 -1542.958,514.787 -1548.344,532.408 -1514.388,548.014 		"/>
		<polygon class="st78" points="-1513.653,486.465 -1512.967,530.928 -1499.637,530.622 -1500.318,486.158 		"/>
	</g>
	<g id="candy_cane_2_3_">
		<defs>
			<path id="SVGID_4_" d="M-810.54,766.156c5.244-0.039,9.476-5.28,9.452-11.716l-0.71-169.35
				c-0.077-18.844-12.641-34.102-28.009-34.001c-15.365,0.097-27.801,15.506-27.725,34.351c0.024,6.438,4.302,11.63,9.548,11.595
				c5.244-0.036,9.478-5.279,9.455-11.71c-0.026-6.001,3.93-10.903,8.823-10.93c4.89-0.039,8.888,4.817,8.908,10.819l0.71,169.344
				C-820.065,760.998-815.788,766.187-810.54,766.156z"/>
		</defs>
		<clipPath id="SVGID_5_">
			<use xlink:href="#SVGID_4_"  style="overflow:visible;"/>
		</clipPath>
		<g class="st79">
			<path class="st3" d="M-810.54,766.156c5.244-0.039,9.476-5.28,9.452-11.716l-0.71-169.35
				c-0.077-18.844-12.641-34.102-28.009-34.001c-15.365,0.097-27.801,15.506-27.725,34.351c0.024,6.438,4.302,11.63,9.548,11.595
				c5.244-0.036,9.478-5.279,9.455-11.71c-0.026-6.001,3.93-10.903,8.823-10.93c4.89-0.039,8.888,4.817,8.908,10.819l0.71,169.344
				C-820.065,760.998-815.788,766.187-810.54,766.156z"/>
		</g>
		<polygon class="st80" points="-825.774,759.769 -791.551,745.055 -795.963,729.618 -830.186,744.332 		"/>
		<polygon class="st80" points="-825.901,727.913 -791.684,713.2 -796.096,697.767 -830.319,712.482 		"/>
		<polygon class="st80" points="-826.042,696.062 -791.817,681.35 -796.231,665.915 -830.448,680.625 		"/>
		<polygon class="st80" points="-826.169,664.208 -791.95,649.5 -796.364,634.063 -830.58,648.772 		"/>
		<polygon class="st80" points="-826.307,632.36 -792.082,617.647 -796.497,602.213 -830.713,616.926 		"/>
		<polygon class="st80" points="-826.44,600.508 -792.218,585.792 -796.629,570.358 -830.846,585.071 		"/>
		<polygon class="st80" points="-832.111,585.829 -866.066,570.219 -871.454,587.842 -837.497,603.448 		"/>
		<polygon class="st80" points="-836.76,541.899 -836.073,586.362 -822.747,586.056 -823.428,541.59 		"/>
	</g>
	<g id="candy_cane_2_2_">
		<defs>
			<path id="SVGID_6_" d="M-1034.184,711.674c-5.247-0.036-9.479-5.277-9.454-11.714l0.713-169.352
				c0.076-18.841,12.64-34.099,28.006-34.001c15.368,0.097,27.804,15.508,27.725,34.352c-0.023,6.44-4.3,11.629-9.547,11.597
				c-5.245-0.036-9.478-5.278-9.453-11.712c0.023-6-3.931-10.9-8.824-10.928c-4.891-0.039-8.889,4.814-8.91,10.819l-0.708,169.345
				C-1024.661,706.517-1028.938,711.708-1034.184,711.674z"/>
		</defs>
		<clipPath id="SVGID_7_">
			<use xlink:href="#SVGID_6_"  style="overflow:visible;"/>
		</clipPath>
		<g class="st81">
			<path class="st3" d="M-1034.184,711.674c-5.247-0.036-9.479-5.277-9.454-11.714l0.713-169.352
				c0.076-18.841,12.64-34.099,28.006-34.001c15.368,0.097,27.804,15.508,27.725,34.352c-0.023,6.44-4.3,11.629-9.547,11.597
				c-5.245-0.036-9.478-5.278-9.453-11.712c0.023-6-3.931-10.9-8.824-10.928c-4.891-0.039-8.889,4.814-8.91,10.819l-0.708,169.345
				C-1024.661,706.517-1028.938,711.708-1034.184,711.674z"/>
		</g>
		<polygon class="st82" points="-1018.95,705.289 -1053.175,690.576 -1048.761,675.139 -1014.539,689.854 		"/>
		<polygon class="st82" points="-1018.823,673.434 -1053.041,658.721 -1048.628,643.289 -1014.406,658.003 		"/>
		<polygon class="st82" points="-1018.685,641.581 -1052.91,626.871 -1048.495,611.434 -1014.279,626.147 		"/>
		<polygon class="st82" points="-1018.556,609.729 -1052.777,595.02 -1048.363,579.583 -1014.143,594.292 		"/>
		<polygon class="st82" points="-1018.419,577.882 -1052.641,563.165 -1048.23,547.733 -1014.012,562.444 		"/>
		<polygon class="st82" points="-1018.286,546.028 -1052.507,531.313 -1048.097,515.879 -1013.878,530.592 		"/>
		<polygon class="st82" points="-1012.616,531.349 -978.658,515.741 -973.271,533.36 -1007.226,548.967 		"/>
		<polygon class="st82" points="-1007.964,487.419 -1008.65,531.883 -1021.977,531.577 -1021.299,487.11 		"/>
	</g>
	<g id="candy_cane_2_1_">
		<defs>
			<path id="SVGID_8_" d="M-1730.049,740.208c-5.248-0.036-9.481-5.277-9.455-11.714l0.711-169.352
				c0.077-18.841,12.641-34.1,28.006-34.002c15.369,0.097,27.806,15.508,27.728,34.352c-0.026,6.44-4.302,11.63-9.547,11.597
				c-5.248-0.036-9.479-5.278-9.457-11.712c0.026-6-3.928-10.9-8.823-10.928c-4.89-0.04-8.888,4.815-8.908,10.819l-0.708,169.342
				C-1720.528,735.051-1724.804,740.241-1730.049,740.208z"/>
		</defs>
		<clipPath id="SVGID_9_">
			<use xlink:href="#SVGID_8_"  style="overflow:visible;"/>
		</clipPath>
		<g class="st83">
			<path class="st3" d="M-1730.049,740.208c-5.248-0.036-9.481-5.277-9.455-11.714l0.711-169.352
				c0.077-18.841,12.641-34.1,28.006-34.002c15.369,0.097,27.806,15.508,27.728,34.352c-0.026,6.44-4.302,11.63-9.547,11.597
				c-5.248-0.036-9.479-5.278-9.457-11.712c0.026-6-3.928-10.9-8.823-10.928c-4.89-0.04-8.888,4.815-8.908,10.819l-0.708,169.342
				C-1720.528,735.051-1724.804,740.241-1730.049,740.208z"/>
		</g>
		<polygon class="st84" points="-1714.817,733.823 -1749.041,719.109 -1744.628,703.673 -1710.405,718.388 		"/>
		<polygon class="st84" points="-1714.689,701.968 -1748.905,687.255 -1744.495,671.823 -1710.27,686.537 		"/>
		<polygon class="st84" points="-1714.55,670.115 -1748.774,655.405 -1744.363,639.968 -1710.143,654.681 		"/>
		<polygon class="st84" points="-1714.423,638.263 -1748.641,623.554 -1744.23,608.117 -1710.009,622.826 		"/>
		<polygon class="st84" points="-1714.286,606.417 -1748.507,591.699 -1744.097,576.267 -1709.878,590.979 		"/>
		<polygon class="st84" points="-1714.151,574.562 -1748.375,559.847 -1743.962,544.415 -1709.744,559.126 		"/>
		<polygon class="st84" points="-1708.483,559.883 -1674.523,544.275 -1669.138,561.894 -1703.094,577.502 		"/>
		<polygon class="st84" points="-1703.831,515.953 -1704.516,560.417 -1717.844,560.109 -1717.165,515.644 		"/>
	</g>
</g>
<g id="christmas_balls_1_">
	<g>
		<g>
			<rect x="-1625.167" y="461.4" class="st85" width="8.36" height="7.741"/>
			<circle class="st74" cx="-1620.988" cy="479.235" r="13.626"/>
		</g>
		<line class="st86" x1="-1620.988" y1="461.4" x2="-1620.988" y2="446.741"/>
	</g>
	<g>
		<g>
			<rect x="-1117.665" y="375.563" class="st85" width="8.36" height="7.741"/>
			<circle class="st87" cx="-1113.487" cy="393.396" r="13.626"/>
		</g>
		<line class="st86" x1="-1113.486" y1="375.563" x2="-1113.486" y2="208.502"/>
	</g>
	<g>
		<g>
			<rect x="-990.07" y="312.092" class="st85" width="8.361" height="7.744"/>
			<circle class="st88" cx="-985.89" cy="329.928" r="13.626"/>
		</g>
		<line class="st86" x1="-985.889" y1="312.092" x2="-985.889" y2="279.926"/>
	</g>
	<g>
		<g>
			<rect x="-678.292" y="435.86" class="st85" width="8.361" height="7.741"/>
			<circle class="st74" cx="-674.112" cy="453.693" r="13.626"/>
		</g>
		<line class="st86" x1="-674.111" y1="435.86" x2="-674.111" y2="375.684"/>
	</g>
	<g>
		<g>
			<rect x="-605.674" y="517.063" class="st85" width="8.361" height="7.741"/>
			<circle class="st88" cx="-601.493" cy="534.898" r="13.626"/>
		</g>
		<line class="st86" x1="-601.494" y1="517.063" x2="-601.494" y2="484.968"/>
	</g>
</g>
<polygon class="st3" points="-577.274,62.421 -614.159,171.525 -588.47,132.086 -587.137,155.42 -577.274,144.086 -561.804,160.753 
	-561.804,128.753 -548.535,147.432 "/>
<path class="st89" d="M-3689.513-1226.268c0.376-2.129,0.588-4.317,0.588-6.554c0-20.496-16.617-37.113-37.113-37.113
	c-11.133,0-21.112,4.908-27.914,12.668c-2.913-0.887-5.999-1.367-9.198-1.367c-17.377,0-31.464,14.087-31.464,31.462h-0.545
	c-10.061,0-18.218,8.157-18.218,18.217c0,10.066,8.157,18.22,18.218,18.22h100.001c10.064,0,18.219-8.154,18.219-18.22
	C-3676.939-1217.043-3682.217-1223.893-3689.513-1226.268z"/>
<path class="st90" d="M-1917.361-1063.667c0.391-2.198,0.608-4.455,0.608-6.767c0-21.16-17.159-38.319-38.318-38.319
	c-11.495,0-21.801,5.073-28.824,13.081c-3.003-0.913-6.193-1.412-9.498-1.412c-17.94,0-32.484,14.543-32.484,32.484h-0.562
	c-10.388,0-18.811,8.423-18.811,18.811s8.423,18.811,18.811,18.811h103.247c10.391,0,18.814-8.423,18.814-18.811
	C-1904.378-1054.14-1909.828-1061.213-1917.361-1063.667z"/>
<path class="st91" d="M-3102.319-1196.113c0.61-3.426,0.948-6.954,0.948-10.562c0-33.036-26.781-59.817-59.817-59.817
	c-17.944,0-34.03,7.91-44.992,20.424c-4.691-1.432-9.667-2.208-14.826-2.208c-28.004,0-50.709,22.704-50.709,50.71h-0.88
	c-16.217,0-29.363,13.144-29.363,29.363c0,16.219,13.146,29.363,29.363,29.363h161.178c16.219,0,29.365-13.144,29.365-29.363
	C-3082.053-1181.241-3090.56-1192.279-3102.319-1196.113z"/>
<path class="st90" d="M-2257.962-937.68c0.802-4.477,1.241-9.087,1.241-13.802c0-43.167-34.997-78.154-78.164-78.154
	c-23.447,0-44.46,10.327-58.787,26.678c-6.128-1.871-12.628-2.882-19.367-2.882c-36.595,0-66.261,29.666-66.261,66.266h-1.15
	c-21.19,0-38.371,17.175-38.371,38.361c0,21.195,17.181,38.366,38.371,38.366h210.599c21.195,0,38.371-17.171,38.371-38.366
	C-2231.479-918.247-2242.594-932.674-2257.962-937.68z"/>
<path class="st91" d="M-3595.817-924.889c-0.862-4.812-1.334-9.768-1.334-14.837c0-46.402,37.62-84.011,84.022-84.011
	c25.204,0,47.792,11.101,63.193,28.677c6.587-2.011,13.574-3.098,20.818-3.098c39.338,0,71.227,31.889,71.227,71.232h1.236
	c22.778,0,41.247,18.463,41.247,41.236c0,22.783-18.469,41.241-41.247,41.241h-226.383c-22.783,0-41.247-18.458-41.247-41.241
	C-3624.284-904-3612.336-919.508-3595.817-924.889z"/>
<path class="st90" d="M-2670.168-1190.875c0.436-2.452,0.677-4.972,0.677-7.552c0-23.628-19.154-42.785-42.781-42.785
	c-12.835,0-24.336,5.661-32.179,14.609c-3.354-1.023-6.914-1.58-10.606-1.58c-20.029,0-36.268,16.236-36.268,36.269h-0.626
	c-11.598,0-21.002,9.404-21.002,21.001c0,11.598,9.404,21.002,21.002,21.002h115.275c11.602,0,21.001-9.404,21.001-21.002
	C-2655.675-1180.238-2661.76-1188.136-2670.168-1190.875z"/>
<path class="st89" d="M-2249.004-1340.411c0.391-2.195,0.608-4.455,0.608-6.764c0-21.16-17.158-38.319-38.318-38.319
	c-11.495,0-21.801,5.069-28.824,13.082c-3.003-0.917-6.193-1.413-9.498-1.413c-17.94,0-32.484,14.544-32.484,32.484h-0.562
	c-10.388,0-18.811,8.42-18.811,18.811c0,10.388,8.423,18.808,18.811,18.808h103.247c10.391,0,18.814-8.42,18.814-18.808
	C-2236.021-1330.884-2241.471-1337.953-2249.004-1340.411z"/>
</svg>
