<svg viewBox="0 0 1920 213.437">
<style type="text/css">
	.st0{fill:#FFFFFF;}
	.st1{fill:#DBF0F9;}
</style>
<g>
	<path class="st0" id="line1" d="M1716.552,20.58c0,11.366-9.211,20.577-20.578,20.577H241.985c-11.365,0-20.58-9.211-20.58-20.577l0,0
		c0-11.365,9.215-20.58,20.58-20.58h1453.989C1707.342,0,1716.552,9.215,1716.552,20.58L1716.552,20.58z"/>
	<path class="st1" id="line2" d="M1574.983,56.232c0,8.324-6.747,15.073-15.073,15.073H394.155c-8.325,0-15.075-6.75-15.075-15.073l0,0
		c0-8.325,6.75-15.075,15.075-15.075h1165.754C1568.236,41.157,1574.983,47.906,1574.983,56.232L1574.983,56.232z"/>
	<path class="st1" id="line3" d="M1237.841,169.648c0,7.535-4.604,13.64-10.286,13.64H662.259c-5.681,0-10.287-6.105-10.287-13.64l0,0
		c0-7.532,4.605-13.638,10.287-13.638h565.296C1233.237,156.01,1237.841,162.116,1237.841,169.648L1237.841,169.648z"/>
	<path class="st1" id="line4" d="M934.801,125.881H185.268c-7.533,0-13.64-6.105-13.64-13.64l0,0c0-7.532,6.106-13.638,13.64-13.638h749.532
		h749.533c7.533,0,13.638,6.106,13.638,13.638l0,0c0,7.535-6.105,13.64-13.638,13.64H934.801z"/>
	<path class="st0" id="line5" d="M1139.781,156.01H504.618c-6.018,0-10.895-6.743-10.895-15.065l0,0c0-8.319,4.877-15.064,10.895-15.064
		h635.163h523.868c6.65,0,12.04,6.747,12.04,15.065l0,0c0,8.319-5.39,15.065-12.04,15.065H1139.781z"/>
	<path class="st0" id="line6" d="M1077.381,98.579H282.118c-7.535,0-13.641-6.105-13.641-13.64l0,0c0-7.532,6.106-13.638,13.641-13.638h795.264
		h655.915c8.327,0,15.075,6.108,15.075,13.639l0,0c0,7.532-6.748,13.639-15.075,13.639H1077.381z"/>
	<path class="st0" id="line7" d="M1058.613,198.363c0,8.325-6.75,15.075-15.075,15.075H904.307c-8.327,0-15.075-6.75-15.075-15.075l0,0
		c0-8.329,6.748-15.075,15.075-15.075h139.231C1051.863,183.288,1058.613,190.033,1058.613,198.363L1058.613,198.363z"/>
</g>
</svg>
