<?xml version="1.0" encoding="utf-8"?>
<!-- Generator: Adobe Illustrator 21.0.0, SVG Export Plug-In . SVG Version: 6.00 Build 0)  -->
<svg version="1.1" id="Layer_1" xmlns="http://www.w3.org/2000/svg" xmlns:xlink="http://www.w3.org/1999/xlink" x="0px" y="0px"
	 viewBox="0 0 806.308 618.708" style="enable-background:new 0 0 806.308 618.708;" xml:space="preserve">
<style type="text/css">
	.st0{fill:none;stroke:#F7901E;stroke-width:12;stroke-miterlimit:10;}
</style>
<g>
	<g>
		<path class="st0" d="M210.425,15.902l-10.696,30.442c-9.05,25.917-20.774,59.649-22.214,63.558
			c-13.37,36.407-19.334,53.273-19.746,63.969c-0.412,10.284,3.497,18.101,13.987,18.101c2.263,0,4.319,2.057,4.319,4.525
			c-0.206,2.263-2.057,4.319-4.525,4.319c-15.838-0.411-22.42-11.93-22.42-26.945c0-12.341,7.405-33.322,20.158-66.849l3.497-9.667
			h-53.067c-1.028,2.879-1.852,5.554-2.674,8.228c-10.49,32.293-20.775,63.352-56.976,63.352c-23.037,0-35.584-16.044-35.584-37.024
			c0-24.889,21.597-43.195,44.429-43.606c2.468,0,4.319,2.057,4.319,4.319c0,2.468-1.851,4.525-4.319,4.525
			c-18.306,0-35.79,15.016-35.79,34.967c0,16.25,9.461,28.179,27.15,28.179c29.619,0,38.875-28.179,48.337-57.387
			c0.617-1.852,1.234-3.908,1.852-5.554h-8.639c-2.468,0-4.319-2.057-4.319-4.319c0-2.469,1.851-4.525,4.319-4.525h11.519
			l3.497-10.696c4.731-14.81,10.49-33.527,18.512-48.131l0.617-1.234c-8.844-2.057-16.866-4.525-24.477-6.788
			c-13.164-4.114-25.505-8.022-39.287-8.022c-13.576,0-26.945,13.37-26.945,27.151c0,15.221,9.873,22.009,23.86,22.009
			c5.965,0,12.547-1.646,18.718-4.319c0.617-0.206,1.234-0.412,2.057-0.412c2.88,0,4.114,2.674,4.114,4.319
			s-0.823,3.085-2.469,3.908c-7.199,3.291-15.221,5.142-22.625,5.142c-19.952,0-32.293-12.136-32.293-30.03
			C36.618,21.455,54.102,5,72.202,5c15.221,0,27.974,3.908,41.96,8.228c8.433,2.674,17.483,5.554,27.562,7.405
			c4.73-4.525,8.639-7.405,13.164-9.873c0.617-0.412,1.439-0.617,2.057-0.617c3.085,0,4.319,2.674,4.319,4.319
			s-0.823,3.085-2.468,3.908c-6.582,3.702-12.752,9.05-15.838,15.427c-7.405,13.781-13.164,32.087-17.895,46.691l-2.468,8.022
			h53.273c4.525-12.958,10.49-30.236,15.838-45.046c5.554-16.043,10.079-29.208,10.696-30.647c0.617-1.646,2.263-2.674,3.908-2.674
			C209.808,10.143,211.453,13.228,210.425,15.902z"/>
		<path class="st0" d="M286.117,112.575c0,0.617-0.206,1.234-0.411,1.852l-0.206,0.617c-7.816,17.278-18.924,42.578-37.436,42.578
			c-9.873,0-14.81-7.199-14.81-17.278c-8.228,11.519-16.866,17.278-25.711,17.278c-11.519,0-16.867-9.873-16.867-22.214
			c0-26.945,20.775-75.076,45.458-75.076c8.639,0,15.015,3.497,18.717,10.901c1.234-3.497,2.468-6.582,3.497-9.256
			c0.617-1.646,2.263-2.674,4.114-2.674c3.291,0,4.937,3.291,3.908,5.76l-10.284,27.562c-7.405,20.774-14.193,38.669-14.193,47.72
			c0,6.17,1.852,8.639,6.171,8.639c12.753,0,22.626-22.215,29.414-37.436l0.206-0.617c0.823-1.646,2.263-2.674,3.908-2.674
			c0.617,0,1.234,0.206,1.851,0.411C285.089,109.49,286.117,110.93,286.117,112.575z M244.363,97.148l4.937-13.164
			c-0.412-9.461-5.76-15.015-13.164-15.015c-18.924,0.412-36.407,44.634-36.818,64.998c0,9.05,1.851,15.016,8.021,15.016
			C224,148.982,236.136,118.129,244.363,97.148z"/>
		<path class="st0" d="M364.279,112.575c0,0.617-0.206,1.028-0.411,1.646c-4.319,15.221-17.689,30.236-31.882,30.236
			c-5.965,0-11.107-2.263-14.192-5.348c-8.433,11.313-18.923,19.54-30.854,19.129c-7.816-0.412-12.547-3.085-14.81-8.639
			c-9.256,25.711-17.689,49.16-19.746,55.331c-0.617,1.851-2.262,2.879-4.113,2.879c-3.085,0-5.143-3.085-4.114-5.759l23.037-64.38
			c11.725-32.087,23.654-65.204,26.123-71.58l1.234-3.291c0.617-1.852,2.262-2.88,4.114-2.88c3.085,0,5.142,3.085,4.114,5.759
			l-1.646,4.32c5.759-5.965,12.341-10.079,19.952-10.079c12.958,0,17.278,10.696,17.278,23.449c0,14.192-8.433,37.229-15.838,48.336
			c2.468,2.674,5.965,4.114,9.667,4.114c10.901,0,20.363-13.37,23.654-24.889c0.823-1.646,2.263-2.674,3.908-2.674
			c0.617,0,1.234,0.206,1.851,0.411C363.251,109.284,364.279,110.93,364.279,112.575z M320.468,113.81
			c-0.617,1.851-0.823,3.702-1.028,5.348c5.965-12.547,10.079-25.917,10.079-36.201c0-8.639-1.851-14.398-8.022-14.398
			c-16.866,0-29.413,31.47-37.641,52.245c-3.085,8.639-4.525,11.313-4.525,18.101c0,7.199,2.057,10.49,7.816,10.696
			c9.461,0.206,18.306-7.405,25.3-18.101c-2.674-6.17-2.057-14.192-0.412-19.952c0.412-2.057,2.263-3.291,4.114-3.291
			C319.028,108.256,321.085,110.93,320.468,113.81z"/>
		<path class="st0" d="M442.439,112.575c0,0.617-0.206,1.028-0.411,1.646c-4.319,15.221-17.689,30.236-31.882,30.236
			c-5.965,0-11.107-2.263-14.192-5.348c-8.433,11.313-18.923,19.54-30.854,19.129c-7.816-0.412-12.547-3.085-14.81-8.639
			c-9.256,25.711-17.689,49.16-19.746,55.331c-0.617,1.851-2.262,2.879-4.113,2.879c-3.085,0-5.143-3.085-4.114-5.759l23.037-64.38
			c11.725-32.087,23.654-65.204,26.123-71.58l1.234-3.291c0.617-1.852,2.262-2.88,4.114-2.88c3.085,0,5.142,3.085,4.114,5.759
			l-1.646,4.32c5.759-5.965,12.341-10.079,19.952-10.079c12.958,0,17.278,10.696,17.278,23.449c0,14.192-8.433,37.229-15.838,48.336
			c2.468,2.674,5.965,4.114,9.667,4.114c10.901,0,20.363-13.37,23.654-24.889c0.823-1.646,2.263-2.674,3.908-2.674
			c0.617,0,1.234,0.206,1.851,0.411C441.411,109.284,442.439,110.93,442.439,112.575z M398.628,113.81
			c-0.617,1.851-0.823,3.702-1.028,5.348c5.965-12.547,10.079-25.917,10.079-36.201c0-8.639-1.851-14.398-8.022-14.398
			c-16.866,0-29.413,31.47-37.641,52.245c-3.085,8.639-4.525,11.313-4.525,18.101c0,7.199,2.057,10.49,7.816,10.696
			c9.461,0.206,18.306-7.405,25.3-18.101c-2.674-6.17-2.057-14.192-0.412-19.952c0.412-2.057,2.263-3.291,4.114-3.291
			C397.188,108.256,399.245,110.93,398.628,113.81z"/>
		<path class="st0" d="M527.181,112.781c0,0.617-0.206,1.234-0.411,1.851c-12.753,30.03-29.825,49.16-59.855,58.004
			c-9.873,28.179-22.625,42.784-37.435,42.989c-12.341,0.206-20.363-7.816-20.363-19.952c0-12.958,10.079-22.42,34.761-26.945
			c5.143-0.823,10.696-1.852,16.25-3.291l5.142-14.81c-4.73,4.525-9.873,6.993-15.632,6.993c-17.483,0-22.42-11.724-22.42-22.009
			c0.412-9.461,5.142-20.774,13.164-41.755L451.9,62.593c0.617-1.646,2.263-2.674,3.908-2.674c3.497,0,5.142,3.085,4.114,5.759
			l-11.313,31.265c-9.05,24.888-12.547,31.265-12.547,38.669c0,5.965,1.851,13.37,13.575,13.37
			c10.902,0,24.066-21.803,32.293-45.458c2.674-8.022,1.439-4.319,15.221-40.726c0.617-1.646,2.263-2.88,3.908-2.88
			c2.468,0,5.348,2.88,4.319,5.965c-3.291,8.434-8.845,22.626-15.427,40.521l-16.455,46.897l-3.085,9.05
			c23.654-8.022,38.052-26.945,48.336-51.216c0.823-1.646,2.263-2.674,3.908-2.674c0.617,0,1.234,0.206,1.851,0.412
			C526.153,109.696,527.181,111.136,527.181,112.781z M456.836,175.104c-3.908,0.823-7.61,1.646-11.313,2.263
			c-18.923,3.291-26.945,8.639-27.768,18.101c0,7.199,4.73,11.725,11.724,11.519C440.587,206.78,450.049,195.879,456.836,175.104z"
			/>
	</g>
	<g>
		<path class="st0" d="M9.07,242.048c2.057,0,4.114,1.44,4.114,4.114c0,16.25,7.816,23.86,24.065,23.86
			c18.307,0,42.372-17.895,56.564-27.974c3.702-2.879,7.199-5.348,10.284-7.405c0.617-0.411,1.44-0.617,2.263-0.617
			c1.234,0,2.468,0.411,3.291,1.646c0.823,1.234,1.028,2.468,0.617,3.702l-11.93,36.407c15.015-19.334,28.591-33.733,46.896-33.733
			c18.718,0,25.095,10.285,25.095,25.917c0.205,12.958-3.908,27.768-14.811,60.061c-9.05,26.945-25.711,70.962-25.916,80.424
			c0,12.547,4.319,18.306,13.986,18.717c2.263,0,4.114,1.851,4.114,3.908c0,2.263-1.852,4.114-4.114,4.114
			c-14.81,0-22.214-10.079-22.214-26.739c0.205-10.902,12.958-43.4,26.328-83.099c10.695-31.881,14.604-46.28,14.604-57.387
			c-0.206-10.696-4.525-17.689-17.072-17.689c-19.951,0-39.286,27.563-55.536,51.834c-23.654,72.402-26.74,91.943-45.457,91.943
			c-7.199,0-10.49-4.937-10.49-12.547c0-15.016,21.392-42.372,27.356-51.011l21.186-32.087l16.25-49.777
			c-17.072,12.136-40.932,29.414-61.295,29.414c-19.746,0-33.938-12.752-32.087-32.087C5.368,243.283,7.219,242.048,9.07,242.048z
			 M67.692,335.431c-5.965,8.021-25.505,34.144-25.917,46.28c0,2.674,0.823,4.114,2.674,4.114c9.462,0,13.164-9.667,27.768-56.564
			C71.188,330.906,70.16,332.14,67.692,335.431z"/>
		<path class="st0" d="M239.853,349.212c0,0.617-0.205,1.028-0.411,1.646c-13.369,29.619-29.002,43.194-49.776,43.194
			c-17.072,0-27.356-11.313-26.945-28.179c1.234-26.328,22.626-69.111,46.897-69.111c10.284,0,17.483,5.348,17.483,15.221
			c0,21.803-30.647,34.967-53.479,40.521c-1.439,5.348-2.057,9.256-2.263,13.575c-0.411,11.724,6.171,18.923,18.513,19.335
			c16.866,0.411,30.03-11.519,41.549-38.053c1.028-2.057,3.496-3.085,5.759-2.263C238.825,345.921,239.853,347.567,239.853,349.212z
			 M218.462,311.982c0-5.553-4.319-6.582-8.844-6.582c-14.193,0-26.123,21.392-32.705,37.23
			C193.985,337.282,218.462,327.204,218.462,311.982z"/>
		<path class="st0" d="M347.632,350.652c-5.76,15.838-17.278,30.236-31.882,30.236c-6.171,0-11.107-2.263-14.398-5.554
			c-7.816,10.901-15.221,18.718-24.889,18.718c-9.461,0-13.575-5.759-14.809-14.604c-5.966,8.433-13.37,14.604-22.626,14.604
			c-9.873,0-14.81-7.199-14.81-17.278c0-10.285,6.993-30.853,24.683-77.75c0.617-1.646,2.263-2.674,3.908-2.674
			c3.496,0,5.142,3.085,4.113,5.759c-20.157,55.536-24.065,66.643-24.065,74.665c0,6.17,1.852,8.639,6.171,8.639
			c9.873,0,18.512-10.49,29.619-38.258c3.702-9.256,15.221-41.755,17.483-48.131c0.617-1.646,2.263-2.674,3.908-2.674
			c3.291,0,5.348,3.085,4.319,5.759c-12.958,34.35-24.065,64.38-24.065,74.665c0,6.582,2.263,8.639,6.17,8.639
			c6.582,0,10.285-4.731,19.541-17.895c-2.263-6.171-1.852-13.781-0.206-19.541c0.617-2.057,2.058-3.291,4.114-3.291
			c2.879,0,5.142,2.674,4.319,5.554c-0.617,1.646-0.823,3.497-1.028,4.937c6.17-11.725,22.214-43.195,28.591-56.564
			c0.822-1.44,2.468-2.468,4.113-2.468c2.263,0,4.114,2.057,4.114,4.319c0,0.823-0.206,1.44-0.412,2.057
			c-9.05,18.512-26.328,52.862-33.527,65.409c2.058,2.674,5.966,4.32,9.668,4.32c10.695,0,17.277-9.667,23.859-24.889
			c0.823-1.646,2.263-2.674,3.908-2.674c2.263,0,4.525,1.851,4.525,4.319C348.044,349.624,347.838,350.035,347.632,350.652z"/>
	</g>
	<g>
		<path class="st0" d="M518.076,217.575c7.199,0,12.136,4.525,12.136,11.107c0,9.667-14.81,17.483-29.414,21.392
			c-11.93,29.208-26.739,81.247-26.739,94.411c0,12.547,4.525,18.512,14.192,18.512c12.342,0,22.215-8.228,30.442-19.746
			c11.106-15.221,12.958-21.186,28.796-60.678c6.171-16.661,13.164-36.201,20.363-55.33c0.617-1.851,2.263-2.879,4.113-2.879
			c2.675,0,4.114,2.057,4.114,4.113c0,0.617,0,1.029-0.206,1.646l-20.157,55.331c-0.617,1.234-27.974,78.162-31.676,88.035
			l-3.291,9.05c23.654-8.022,38.052-26.945,48.337-51.216c0.822-1.646,2.263-2.674,3.908-2.674c0.617,0,1.233,0.206,1.851,0.412
			c1.646,0.823,2.674,2.263,2.674,3.908c0,0.617-0.205,1.234-0.411,1.851c-12.753,30.03-29.824,49.16-59.855,58.004
			c-9.873,28.179-22.625,42.784-37.436,42.989c-12.341,0.206-20.362-7.816-20.362-19.952c0-12.958,10.078-22.42,34.761-26.945
			c5.143-0.823,10.696-1.852,16.25-3.291c5.142-14.398,8.433-24.066,11.312-32.293c-9.051,11.107-19.952,18.306-33.527,18.306
			c-15.016,0-23.037-10.901-23.037-27.15c0.206-13.164,12.342-56.153,25.506-92.355c-4.114,0.823-8.434,1.44-12.753,2.057
			c-25.917,4.114-61.09,9.05-61.09,33.733c0,10.901,7.199,18.512,16.25,18.512c2.468,0,4.319,1.852,4.319,4.319
			c0,2.469-1.646,4.32-4.525,4.32c-14.398,0-24.683-12.136-24.683-27.563c0-31.059,38.669-37.23,68.288-41.754l17.689-2.88
			C498.741,230.945,507.586,217.575,518.076,217.575z M495.861,397.553c-18.923,3.291-26.945,8.639-27.768,18.101
			c0,7.199,4.73,11.725,11.724,11.519c11.107-0.206,20.569-11.107,27.357-31.882C503.267,396.113,499.564,396.936,495.861,397.553z
			 M520.956,228.683c0-1.646-1.234-2.88-2.88-2.88c-4.525,0-9.873,6.994-13.164,13.987
			C513.551,237.939,520.956,231.974,520.956,228.683z"/>
		<path class="st0" d="M642.724,332.967c0,0.617-0.205,1.028-0.411,1.646c-13.37,29.619-29.002,43.194-49.776,43.194
			c-17.072,0-27.356-11.313-26.945-28.179c1.234-26.328,22.626-69.111,46.896-69.111c10.285,0,17.484,5.348,17.484,15.221
			c0,21.803-30.648,34.967-53.479,40.521c-1.439,5.348-2.057,9.256-2.263,13.575c-0.411,11.724,6.171,18.923,18.512,19.335
			c16.867,0.411,30.031-11.519,41.55-38.053c1.028-2.057,3.496-3.085,5.759-2.263C641.695,329.676,642.724,331.321,642.724,332.967z
			 M621.332,295.737c0-5.553-4.319-6.582-8.845-6.582c-14.192,0-26.122,21.392-32.704,37.23
			C596.856,321.037,621.332,310.958,621.332,295.737z"/>
		<path class="st0" d="M725.614,332.761c0,0.617-0.205,1.234-0.411,1.852l-0.206,0.617c-7.816,17.278-18.923,42.578-37.436,42.578
			c-9.873,0-14.809-7.199-14.809-17.278c-8.229,11.519-16.867,17.278-25.712,17.278c-11.519,0-16.866-9.873-16.866-22.214
			c0-26.945,20.774-75.076,45.457-75.076c8.639,0,15.016,3.497,18.718,10.901c1.234-3.497,2.469-6.582,3.497-9.256
			c0.617-1.646,2.263-2.674,4.113-2.674c3.291,0,4.937,3.291,3.908,5.76l-10.284,27.562c-7.405,20.774-14.192,38.669-14.192,47.72
			c0,6.17,1.851,8.639,6.17,8.639c12.753,0,22.626-22.215,29.414-37.436l0.205-0.617c0.823-1.646,2.263-2.674,3.908-2.674
			c0.617,0,1.234,0.206,1.852,0.411C724.586,329.676,725.614,331.115,725.614,332.761z M683.859,317.334l4.937-13.164
			c-0.411-9.461-5.759-15.015-13.164-15.015c-18.923,0.412-36.406,44.634-36.818,64.998c0,9.05,1.852,15.016,8.022,15.016
			C663.496,369.168,675.632,338.315,683.859,317.334z"/>
		<path class="st0" d="M801.308,332.761c0,0.617-0.205,1.234-0.411,1.852c-13.37,30.647-23.654,43.194-37.641,43.194h-0.206
			c-9.667,0-14.604-7.199-14.604-17.278c0-4.114,0.617-8.228,2.057-13.37c1.646-6.582,10.695-33.938,12.547-38.464
			c-15.633-5.142-17.895-5.965-22.42-8.228c-0.823,2.468-2.263,5.348-18.718,41.343c-0.823,1.646-2.263,2.468-3.702,2.468
			c-0.823,0-1.44-0.206-2.057-0.411c-1.44-0.823-2.469-2.263-2.469-3.908c0-0.617,0.206-1.234,0.411-1.851l16.455-35.79l2.469-6.17
			c-6.171-4.319-10.49-9.667-10.49-17.278c0-8.433,5.965-13.37,12.547-13.37c7.405,0,11.93,5.348,11.93,13.575
			c0,3.291-0.822,5.142-3.291,13.164c5.76,2.88,12.753,5.142,18.718,7.199c2.88,0.823,5.554,1.646,7.816,2.468
			s3.291,3.497,2.468,5.965c-2.674,6.788-12.547,36.201-13.78,41.343c-1.234,4.319-1.646,7.816-1.852,11.313
			c0,5.142,1.646,8.639,6.171,8.639c10.078,0,17.895-11.519,29.619-38.053c0.822-1.646,2.263-2.674,3.907-2.674
			c0.617,0,1.234,0.206,1.852,0.411C800.279,329.676,801.308,331.115,801.308,332.761z M735.076,274.14
			c-2.674,0-3.908,1.646-3.908,3.908c0,3.291,1.852,6.993,4.937,9.461c1.028-2.879,2.263-6.582,2.263-8.639
			C738.367,275.374,736.722,274.14,735.076,274.14z"/>
	</g>
	<g>
		<path class="st0" d="M227.279,585.528c-5.965,4.937-11.519,9.256-16.249,12.958c7.199-1.233,13.575-1.851,19.952-1.851
			c13.576,0,25.917,2.057,43.606,7.199c1.851,0.617,3.291,2.262,3.291,4.113c0,3.086-2.674,4.937-5.554,4.319
			c-15.427-4.113-29.619-6.993-41.343-6.993c-12.958,0-18.718,1.439-35.996,5.348c-0.823,0.206-1.646,0.206-2.468,0.206
			c-2.879,0-4.731-1.44-4.731-3.497c0-1.851,1.234-3.702,3.497-5.348c7.405-4.937,23.037-17.072,30.442-23.243
			c27.974-22.42,64.998-59.238,64.998-86.8c0-11.725-9.462-17.896-22.009-17.896c-13.987,0-23.86,11.107-28.179,25.506
			c-0.617,2.263-3.085,3.496-5.348,2.88c-2.468-0.823-3.702-3.086-3.085-5.554c5.553-17.896,18.717-31.471,36.407-31.471
			c18.306,0,30.853,10.284,30.853,26.739C295.362,522.588,257.104,561.256,227.279,585.528z"/>
		<path class="st0" d="M320.865,613.708c-16.866,0-24.477-15.838-24.888-34.762c-0.617-43.812,30.031-114.157,68.495-115.392
			c18.923-1.028,29.207,13.781,29.207,34.145C393.678,546.242,359.741,613.708,320.865,613.708z M364.883,472.194
			c-31.676,0-61.501,68.288-60.267,106.546c0.411,15.222,4.525,26.328,16.249,26.328c34.145-0.616,64.175-64.586,64.175-107.163
			C385.04,482.272,378.252,472.194,364.883,472.194z"/>
		<path class="st0" d="M473.895,477.131l-50.599,133.491c-0.617,1.852-2.469,2.88-4.319,2.88c-2.88,0-4.937-3.291-3.908-5.965
			l42.577-112.306c-13.575,17.072-28.591,33.732-42.372,34.144c-8.433,0-12.958-4.73-12.958-10.695c0-2.469,0.411-5.143,1.439-7.816
			c0.823-1.851,2.469-2.88,4.319-2.88c0.617,0,1.234,0.206,1.852,0.412c1.439,0.617,2.263,2.262,2.263,3.908
			c0,0.616,0,1.028-0.206,1.645c-0.617,1.646-1.028,3.291-1.028,4.32c0,2.057,1.44,2.468,4.114,2.468
			c9.05-0.411,19.951-12.547,31.676-25.711c17.483-19.54,20.774-28.591,25.094-28.591c2.469,0,4.114,1.439,4.114,3.497
			C475.953,471.371,475.13,473.84,473.895,477.131z"/>
		<path class="st0" d="M575.3,475.69c-3.085,4.731-15.427,17.689-28.18,31.06c-8.639,9.256-16.66,18.306-24.065,27.561h8.228
			c2.469,0,4.32,1.852,4.32,4.32s-1.852,4.319-4.32,4.319h-14.81c-13.575,17.277-26.739,42.988-36.201,67.26
			c-1.028,2.263-3.496,3.291-5.759,2.468c-2.057-0.822-3.291-3.496-2.469-5.759c8.228-21.186,23.654-50.6,33.733-63.969h-9.462
			c-2.263,0-4.319-1.852-4.319-4.319c0-2.469,2.057-4.32,4.319-4.32h15.838c8.639-11.519,18.101-22.214,28.797-33.527
			c4.73-5.142,9.873-10.489,19.129-20.362c-3.497,0.616-5.348,0.822-10.49,0.822c-9.051,0-39.492-8.228-44.635-8.228
			c-3.702,0-11.313,15.427-14.604,22.009c-1.028,2.263-3.702,3.085-5.76,2.057c-2.262-1.028-3.085-3.702-2.057-5.759
			c7.61-14.192,12.959-27.151,22.42-27.151c14.193,0,29.414,7.816,44.635,8.228c6.171,0.206,12.136,0,16.661-2.674
			c2.879-1.646,6.17-2.468,8.433-0.822C577.151,470.754,577.356,472.811,575.3,475.69z"/>
	</g>
</g>
</svg>
