<?xml version="1.0" encoding="utf-8"?>
<!-- Generator: Adobe Illustrator 19.2.1, SVG Export Plug-In . SVG Version: 6.00 Build 0)  -->
<svg version="1.1" id="Layer_1" xmlns="http://www.w3.org/2000/svg" xmlns:xlink="http://www.w3.org/1999/xlink" x="0px" y="0px"
	 viewBox="0 0 481.9 421.7" style="enable-background:new 0 0 481.9 421.7;" xml:space="preserve">
<style type="text/css">
	.st0{fill:#DD3E51;}
	.st1{filter:url(#Adobe_OpacityMaskFilter);}
	.st2{opacity:0.3;mask:url(#SVGID_1_);}
	.st3{fill:#510808;}
</style>
<g>
	<g>
		<path class="st0" d="M481.6,134.5C481.6,60.2,421.4,0,347.1,0C304,0,265.6,23,241,54.6C216.3,23,178,0,134.8,0
			C60.5,0,0.3,60.2,0.3,134.5c0,0-19.2,120.2,240.7,287.2C500.8,254.7,481.6,134.5,481.6,134.5z"/>
	</g>
	<defs>
		<filter id="Adobe_OpacityMaskFilter" filterUnits="userSpaceOnUse" x="0" y="0" width="481.9" height="421.7">
			
				<feColorMatrix  type="matrix" values="-1 0 0 0 1  0 -1 0 0 1  0 0 -1 0 1  0 0 0 1 0" color-interpolation-filters="sRGB" result="source"/>
		</filter>
	</defs>
	<mask maskUnits="userSpaceOnUse" x="0" y="0" width="481.9" height="421.7" id="SVGID_1_">
		<g class="st1">
			
				<image style="overflow:visible;" width="487" height="427" xlink:href="E66E6ABE.jpg"  transform="matrix(1 0 0 1 -2.5987 -2.5558)">
			</image>
		</g>
	</mask>
	<g class="st2">
		<path class="st3" d="M481.6,134.5C481.6,60.2,421.4,0,347.1,0C304,0,265.6,23,241,54.6C216.3,23,178,0,134.8,0
			C60.5,0,0.3,60.2,0.3,134.5c0,0-19.2,120.2,240.7,287.2C500.8,254.7,481.6,134.5,481.6,134.5z"/>
	</g>
</g>
</svg>
