
<svg version="1.1" id="Layer_1" xmlns="http://www.w3.org/2000/svg" xmlns:xlink="http://www.w3.org/1999/xlink" x="0px" y="0px"
	 viewBox="0 0 1920 504.235" style="enable-background:new 0 0 1920 504.235;" xml:space="preserve">
<style type="text/css">
	.st0{fill:#FCCCBA;}
	.st1{fill:#E8B7A6;}
	.st2{fill:#FFFFFF;}
	.st3{fill:#EDAF98;}
	.st4{fill:#BF725A;}
	.st5{fill:#555252;}
	.st6{fill:none;stroke:#BF725A;stroke-width:4.8594;stroke-linecap:round;stroke-miterlimit:10;}
	.st7{fill:#A45944;}
	.st8{fill:#555252;stroke:#BF725A;stroke-width:4.8594;stroke-linejoin:round;stroke-miterlimit:10;}
	.st9{fill:none;stroke:#BF725A;stroke-width:4.8594;stroke-linejoin:round;stroke-miterlimit:10;}
	.st10{fill:#A45944;stroke:#A45944;stroke-width:2.4865;stroke-linejoin:round;stroke-miterlimit:10;}
	.st11{fill:#FEE7DE;}
	.st12{fill:#8F4939;}
	.st13{fill:#C3E2ED;}
	.st14{fill:#C98873;}
	.st15{fill:#A95D48;}
	.st16{fill:#FEE5D4;stroke:#FEE5D4;stroke-width:2.9156;stroke-linejoin:round;stroke-miterlimit:10;}
	.st17{fill:#F2C8B2;}
	.st18{fill:#B2856F;}
	.st19{fill:#9F715E;}
	.st20{fill:#555252;stroke:#FEE5D4;stroke-width:4.8594;stroke-linejoin:round;stroke-miterlimit:10;}
	.st21{fill:none;stroke:#FEE5D4;stroke-width:4.8594;stroke-linejoin:round;stroke-miterlimit:10;}
	.st22{fill:#FEE5D4;}
	.st23{fill:#D49989;}
	.st24{fill:#DBA79B;}
	.st25{fill:#DBF0F9;}
	.st26{fill:#A0C6D1;}
	.st27{fill:#7D6D66;}
	.st28{fill:#8BBBCC;stroke:#FEE5D4;stroke-width:2.9156;stroke-linejoin:round;stroke-miterlimit:10;}
	.st29{fill:none;stroke:#FEE5D4;stroke-width:3.3484;stroke-linejoin:round;stroke-miterlimit:10;}
	.st30{fill:#FDD3B4;}
	.st31{fill:#8BBBCC;}
	.st32{fill:none;stroke:#FDD3B4;stroke-width:4.8594;stroke-linecap:round;stroke-miterlimit:10;}
	.st33{fill:#EAB28C;}
	.st34{fill:#FDD3B4;stroke:#FDD3B4;stroke-width:3.9264;stroke-linejoin:round;stroke-miterlimit:10;}
	.st35{fill:#94827C;}
	.st36{fill:#725E58;}
	.st37{fill:none;stroke:#FEE5D4;stroke-width:2.9156;stroke-linejoin:round;stroke-miterlimit:10;}
	.st38{fill:#675651;}
	.st39{fill:#FEE5D4;stroke:#FEE5D4;stroke-width:3.5197;stroke-linejoin:round;stroke-miterlimit:10;}
	.st40{fill:#B84A30;}
	.st41{fill:#9C302A;}
	.st42{fill:#8D2B20;}
	.st43{fill:#A13927;}
	.st44{fill:#AB4238;}
	.st45{fill:#C9A27E;stroke:#C9A27E;stroke-width:4.8594;stroke-linejoin:round;stroke-miterlimit:10;}
	.st46{fill:#6E462A;stroke:#FFFFFF;stroke-width:4.8594;stroke-linejoin:round;stroke-miterlimit:10;}
	.st47{fill:#606161;stroke:#FFFFFF;stroke-width:4.8594;stroke-linejoin:round;stroke-miterlimit:10;}
	.st48{fill:#B28A67;}
	.st49{fill:#CF6941;}
	.st50{fill:#DBB691;stroke:#DBB691;stroke-width:4.8594;stroke-linejoin:round;stroke-miterlimit:10;}
	.st51{fill:#C65A37;}
	.st52{fill:#FEDCB7;}
	.st53{fill:none;stroke:#FFFFFF;stroke-width:4.8594;stroke-linejoin:round;stroke-miterlimit:10;}
	.st54{fill:none;stroke:#DBB691;stroke-width:10.1282;stroke-linecap:round;stroke-linejoin:round;stroke-miterlimit:10;}
	.st55{fill:#F4857F;}
	.st56{fill:#E57167;}
	.st57{fill:#CA5551;}
	.st58{fill:#D6635D;}
	.st59{fill:#9FD1E8;}
	.st60{fill:#9FD1E8;stroke:#FFFFFF;stroke-width:4.8594;stroke-linejoin:round;stroke-miterlimit:10;}
	.st61{fill:none;stroke:#FFFFFF;stroke-width:2.9156;stroke-linejoin:round;stroke-miterlimit:10;}
	.st62{fill:#FCCCBA;stroke:#FCCCBA;stroke-width:3.8875;stroke-linejoin:round;stroke-miterlimit:10;}
	.st63{fill:#EAB19D;}
	.st64{fill:#BD4C39;stroke:#BD4C39;stroke-width:2.9156;stroke-linejoin:round;stroke-miterlimit:10;}
</style>
<linearGradient id="SVGID_1_" gradientUnits="userSpaceOnUse" x1="2153.5935" y1="-122.1172" x2="2154.3005" y2="-121.4101">
	<stop  offset="0" style="stop-color:#DEDFE3"/>
	<stop  offset="0.1738" style="stop-color:#D8D9DD"/>
	<stop  offset="0.352" style="stop-color:#C9CACD"/>
	<stop  offset="0.5323" style="stop-color:#B4B5B8"/>
	<stop  offset="0.7139" style="stop-color:#989A9C"/>
	<stop  offset="0.8949" style="stop-color:#797C7E"/>
	<stop  offset="1" style="stop-color:#656B6C"/>
</linearGradient>
<g id="building_5_3_">
	<rect x="281.713" y="169.608" class="st0" width="33.737" height="32.122"/>
	<rect x="281.713" y="181.093" class="st1" width="33.737" height="20.637"/>
	<path class="st2" d="M504.419,290.805l-18.322-94.357c-0.391-2.011-2.586-3.494-5.17-3.494H271.707
		c-2.584,0-4.781,1.483-5.169,3.494l-18.324,94.356c-0.237,1.216,0.231,2.451,1.274,3.367c1.043,0.913,2.555,1.417,4.111,1.365
		l119.366,4.12l126.066-4.117c0.075,0.001,0.144,0.001,0.218,0.001c1.484,0,2.901-0.495,3.894-1.369
		C504.188,293.256,504.654,292.021,504.419,290.805z"/>
	<rect x="255.872" y="295.646" class="st0" width="229.704" height="208.589"/>
	<path class="st3" d="M485.576,504.235V295.646h-14.837v9.832c-3.876,3.295-6.339,8.204-6.339,13.677v8.986
		c0,5.475,2.462,10.387,6.339,13.68v162.413H485.576z"/>
	<g>
		<rect x="332.529" y="384.239" class="st4" width="80.876" height="119.996"/>
		<rect x="343.536" y="396.563" class="st5" width="58.502" height="39.54"/>
		<line class="st6" x1="372.966" y1="395.505" x2="372.966" y2="446.333"/>
		<line class="st6" x1="340.665" y1="416.333" x2="408.14" y2="416.333"/>
		<circle class="st7" cx="345.151" cy="452.97" r="4.486"/>
	</g>
	<g>
		<g>
			<rect x="272.022" y="389.803" class="st8" width="44.866" height="73.221"/>
			<line class="st9" x1="294.454" y1="389.085" x2="294.454" y2="463.024"/>
			<line class="st9" x1="272.022" y1="426.413" x2="316.887" y2="426.413"/>
		</g>
		<g>
			<rect x="429.047" y="389.803" class="st8" width="44.864" height="73.221"/>
			<line class="st9" x1="451.481" y1="389.085" x2="451.481" y2="463.024"/>
			<line class="st9" x1="429.047" y1="426.413" x2="473.911" y2="426.413"/>
		</g>
	</g>
	<rect x="247.615" y="370.242" class="st10" width="239.456" height="14.358"/>
	<g>
		<g>
			<path class="st5" d="M372.966,349.996c-10.054,0-18.233-8.18-18.233-18.233c0-10.057,8.18-18.238,18.233-18.238
				c10.055,0,18.235,8.182,18.235,18.238C391.201,341.816,383.021,349.996,372.966,349.996z"/>
			<path class="st4" d="M372.966,315.954c8.715,0,15.805,7.092,15.805,15.808c0,8.714-7.09,15.804-15.805,15.804
				c-8.714,0-15.804-7.09-15.804-15.804C357.162,323.046,364.251,315.954,372.966,315.954 M372.966,311.095
				c-11.411,0-20.663,9.254-20.663,20.668c0,11.409,9.253,20.663,20.663,20.663c11.414,0,20.665-9.254,20.665-20.663
				C393.63,320.349,384.379,311.095,372.966,311.095L372.966,311.095z"/>
		</g>
		<line class="st9" x1="372.966" y1="313.892" x2="372.966" y2="348.71"/>
		<line class="st9" x1="356.367" y1="331.758" x2="388.909" y2="331.758"/>
	</g>
	<rect x="434.252" y="482.817" class="st11" width="23.328" height="9.815"/>
	<rect x="296.43" y="487.728" class="st11" width="23.328" height="9.811"/>
	<rect x="436.765" y="347.52" class="st11" width="23.328" height="9.809"/>
	<rect x="467.809" y="304.864" class="st11" width="23.329" height="9.814"/>
	<rect x="284.764" y="311.095" class="st11" width="23.329" height="9.814"/>
	<rect x="439.815" y="472.891" class="st1" width="23.329" height="9.809"/>
	<rect x="475.407" y="479.769" class="st1" width="23.329" height="9.811"/>
	<rect x="470.563" y="326.033" class="st1" width="23.328" height="9.812"/>
	<rect x="422.586" y="337.609" class="st1" width="23.331" height="9.811"/>
	<rect x="274.713" y="321.129" class="st1" width="23.329" height="9.811"/>
	<rect x="316.887" y="350.98" class="st1" width="23.328" height="9.811"/>
	<rect x="284.764" y="477.796" class="st1" width="23.329" height="9.815"/>
	<path class="st7" d="M477.56,463.024v-73.221c0-1.984-1.604-3.59-3.588-3.59h-3.709v7.178h0.12v66.04h-0.12v7.181h3.709
		C475.955,466.611,477.56,465.004,477.56,463.024z"/>
	<path class="st12" d="M486.891,386.436c1.016,0,1.836-0.824,1.836-1.836v-14.358c0-1.013-0.821-1.838-1.836-1.838h-16.328v18.032
		H486.891z"/>
	<path class="st13" d="M499.032,295.538c0.075,0.001,0.144,0.001,0.218,0.001c1.484,0,2.901-0.495,3.894-1.369
		c1.044-0.915,1.51-2.149,1.275-3.366l-18.322-94.357c-0.391-2.011-2.586-3.494-5.17-3.494h-17.338
		c0.319,4.847,2.323,9.455,5.798,13.104c0.434,0.453,0.884,0.886,1.353,1.3v89.103L499.032,295.538z"/>
</g>
<g id="building_4_3_">
	<rect x="1609.217" y="180.734" class="st14" width="27.755" height="34.935"/>
	<rect x="1609.217" y="192.757" class="st4" width="27.755" height="12.861"/>
	<path class="st2" d="M1673.561,327.831l-20.375-118.091c-0.431-2.514-2.874-4.371-5.746-4.371h-232.637
		c-2.869,0-5.312,1.857-5.744,4.371l-20.375,118.088c-0.263,1.52,0.257,3.067,1.415,4.215c1.161,1.144,2.842,1.772,4.573,1.708
		l132.725,5.154l140.176-5.154c0.078,0.003,0.159,0.003,0.24,0.003c1.65,0,3.226-0.617,4.331-1.711
		C1673.304,330.895,1673.825,329.349,1673.561,327.831z"/>
	<path class="st13" d="M1409.06,209.741l-20.375,118.088c-0.263,1.52,0.257,3.067,1.415,4.215c1.161,1.144,2.842,1.772,4.573,1.708
		l27.908,1.085v-5.306c3.638-3.109,5.949-7.735,5.949-12.888v-16.15c0-5.151-2.311-9.775-5.949-12.888v-46.98
		c2.737-1.294,5.193-3.201,7.178-5.632c3.807-4.648,5.502-10.767,4.658-16.77l-1.795-12.853h-17.819
		C1411.935,205.37,1409.492,207.226,1409.06,209.741z"/>
	<path class="st4" d="M1392.972,350.98v-17.108h79.22c4.337-29.352,29.388-51.446,59.798-51.446
		c30.411,0,55.463,22.094,59.799,51.446h70.308v20.337L1392.972,350.98z"/>
	<polygon class="st15" points="1422.581,333.873 1392.972,333.873 1392.972,350.98 1422.581,351.34 	"/>
	<path class="st14" d="M1585.243,341.048c-0.98-28.573-24.437-51.444-53.253-51.444c-28.813,0-52.272,22.871-53.253,51.444h-78.587
		v163.187h261.947V341.048H1585.243z"/>
	<g>
		<rect x="1484.134" y="375.507" class="st16" width="95.713" height="16.747"/>
		<rect x="1490.177" y="394.05" class="st17" width="83.627" height="110.185"/>
		<rect x="1497.355" y="401.227" class="st18" width="69.27" height="103.008"/>
		<rect x="1531.99" y="401.227" class="st19" width="34.635" height="103.008"/>
		<rect x="1504.473" y="408.405" class="st5" width="19.379" height="29.433"/>
	</g>
	<g>
		<g>
			<rect x="1427.007" y="383.881" class="st20" width="43.071" height="73.697"/>
			<line class="st21" x1="1427.007" y1="420.727" x2="1470.078" y2="420.727"/>
			<line class="st21" x1="1448.544" y1="383.881" x2="1448.544" y2="457.578"/>
		</g>
		<g>
			<rect x="1593.902" y="383.881" class="st20" width="43.07" height="73.697"/>
			<line class="st21" x1="1593.902" y1="420.727" x2="1636.972" y2="420.727"/>
			<line class="st21" x1="1615.44" y1="383.881" x2="1615.44" y2="457.578"/>
		</g>
	</g>
	<g>
		<path class="st5" d="M1531.99,363.267c-11.821,0-21.438-9.618-21.438-21.441c0-11.82,9.617-21.436,21.438-21.436
			s21.438,9.616,21.438,21.436C1553.427,353.648,1543.811,363.267,1531.99,363.267z"/>
		<g>
			<path class="st22" d="M1531.99,322.819c10.481,0,19.008,8.526,19.008,19.006c0,10.483-8.527,19.011-19.008,19.011
				c-10.481,0-19.008-8.528-19.008-19.011C1512.982,331.346,1521.509,322.819,1531.99,322.819 M1531.99,317.96
				c-13.181,0-23.867,10.685-23.867,23.866c0,13.182,10.687,23.87,23.867,23.87c13.184,0,23.867-10.688,23.867-23.87
				C1555.857,328.645,1545.174,317.96,1531.99,317.96L1531.99,317.96z"/>
		</g>
	</g>
	<rect x="1603.713" y="480.904" class="st23" width="19.622" height="10.053"/>
	<rect x="1625.248" y="362.104" class="st23" width="19.622" height="10.052"/>
	<rect x="1438.733" y="354.21" class="st23" width="19.62" height="10.05"/>
	<rect x="1456.321" y="470.857" class="st23" width="19.619" height="10.048"/>
	<rect x="1593.902" y="470.857" class="st24" width="19.622" height="10.048"/>
	<rect x="1615.44" y="352.057" class="st24" width="19.619" height="10.047"/>
	<rect x="1400.15" y="341.048" class="st4" width="22.431" height="163.187"/>
	<rect x="1398.415" y="482.938" class="st23" width="19.622" height="10.053"/>
	<rect x="1402.842" y="472.891" class="st24" width="19.62" height="10.047"/>
</g>
<g id="building_3_3_">
	<path class="st25" d="M1420.199,220.208l-22.282-159.551c-0.472-3.397-3.143-5.906-6.282-5.906h-254.43
		c-3.139,0-5.812,2.509-6.285,5.906l-22.279,159.547c-0.29,2.057,0.281,4.143,1.546,5.691c1.268,1.551,3.108,2.4,5,2.314
		l145.157,6.962l153.305-6.962c0.091,0.003,0.176,0.004,0.264,0.004c1.806,0,3.53-0.838,4.736-2.315
		C1419.919,224.348,1420.489,222.261,1420.199,220.208z"/>
	<path class="st26" d="M1130.92,60.657l-22.279,159.547c-0.29,2.057,0.281,4.143,1.546,5.691c1.268,1.551,3.108,2.4,5,2.314
		l33.186,1.591v-10.746c3.495-3.028,5.713-7.499,5.713-12.478v-16.75c0-2.732-0.671-5.314-1.851-7.588
		c0.88-0.711,1.708-1.496,2.472-2.35c4.261-4.761,6.15-11.109,5.182-17.409l-16.458-107.728h-6.226
		C1134.066,54.751,1131.393,57.258,1130.92,60.657z"/>
	<polygon class="st27" points="1408.226,228.476 1379.022,228.476 1264.567,114.018 1264.479,113.813 1264.42,113.873 
		1264.362,113.813 1264.274,114.018 1149.818,228.476 1120.614,228.476 1120.614,322.279 1216.239,328.805 1216.485,335.362 
		1264.42,332.093 1312.357,335.362 1312.602,328.805 1408.226,322.279 	"/>
	<rect x="1120.614" y="316.643" class="st27" width="287.612" height="187.592"/>
	<rect x="1267.651" y="358.997" class="st28" width="105.161" height="85.063"/>
	<line class="st29" x1="1303.541" y1="358.997" x2="1303.541" y2="441.186"/>
	<line class="st29" x1="1338.285" y1="360.434" x2="1338.285" y2="442.624"/>
	<line class="st29" x1="1267.651" y1="395.604" x2="1372.812" y2="395.604"/>
	<rect x="1158.421" y="367.342" class="st30" width="79.919" height="136.893"/>
	<rect x="1171.46" y="378.826" class="st31" width="53.838" height="59.489"/>
	<line class="st32" x1="1198.379" y1="378.826" x2="1198.379" y2="438.315"/>
	<line class="st32" x1="1171.46" y1="408.572" x2="1225.299" y2="408.572"/>
	<circle class="st33" cx="1174.152" cy="464.338" r="6.281"/>
	<rect x="1263.344" y="429.702" class="st34" width="114.85" height="22.612"/>
	<rect x="1386.691" y="472.653" class="st35" width="21.535" height="10.047"/>
	<rect x="1272.795" y="477.679" class="st35" width="21.535" height="10.049"/>
	<rect x="1171.46" y="348.946" class="st35" width="21.536" height="10.05"/>
	<rect x="1308.506" y="256.346" class="st35" width="21.536" height="10.05"/>
	<rect x="1169.666" y="262.089" class="st35" width="21.536" height="10.05"/>
	<rect x="1375.924" y="269.269" class="st35" width="21.535" height="10.049"/>
	<rect x="1205.62" y="200.354" class="st35" width="21.535" height="10.05"/>
	<rect x="1397.458" y="330.761" class="st35" width="10.767" height="10.05"/>
	<rect x="1256.884" y="330.761" class="st35" width="21.533" height="10.05"/>
	<rect x="1334.528" y="482.7" class="st36" width="21.535" height="10.053"/>
	<rect x="1397.458" y="462.604" class="st36" width="10.767" height="10.049"/>
	<rect x="1299.235" y="338.899" class="st36" width="21.535" height="10.047"/>
	<rect x="1299.235" y="246.296" class="st36" width="21.535" height="10.05"/>
	<rect x="1392.073" y="258.5" class="st36" width="16.153" height="10.052"/>
	<rect x="1198.382" y="210.645" class="st36" width="21.533" height="10.049"/>
	<rect x="1160.695" y="251.323" class="st36" width="21.535" height="10.048"/>
	<rect x="1262.028" y="467.627" class="st36" width="21.535" height="10.052"/>
	<rect x="1180.433" y="338.899" class="st36" width="21.536" height="10.047"/>
	<g>
		<rect x="1220.332" y="187.496" class="st28" width="88.175" height="85.063"/>
		<line class="st37" x1="1264.42" y1="186.718" x2="1264.42" y2="272.559"/>
		<line class="st37" x1="1220.332" y1="229.638" x2="1308.506" y2="229.638"/>
	</g>
	<rect x="1256.884" y="156.09" class="st35" width="21.533" height="10.049"/>
	<polygon class="st38" points="1148.373,228.476 1120.614,228.476 1120.614,316.643 1120.614,322.282 1120.614,504.235 
		1148.373,504.235 	"/>
	<rect x="1126.806" y="423.422" class="st35" width="21.535" height="10.048"/>
	<rect x="1134.016" y="300.493" class="st39" width="277.558" height="16.15"/>
	<path class="st30" d="M1148.373,297.894h-14.358c-1.437,0-2.599,1.166-2.599,2.599v16.15c0,1.438,1.163,2.602,2.599,2.602h14.358
		V297.894z"/>
</g>
<g id="building2_3_">
	<path class="st25" d="M838.801,190.49L812.997,31.72c-0.548-3.381-3.641-5.876-7.278-5.876H511.067
		c-3.637,0-6.731,2.495-7.279,5.876l-25.803,158.768c-0.332,2.044,0.326,4.121,1.792,5.662c1.47,1.541,3.601,2.387,5.792,2.299
		l168.106,6.93l177.542-6.927c0.102,0.004,0.203,0.006,0.306,0.006c2.089,0,4.087-0.838,5.486-2.305
		C838.475,194.613,839.135,192.534,838.801,190.49z"/>
	<path class="st26" d="M797.084,200.423l34.133-1.33c0.102,0.004,0.203,0.004,0.306,0.004c2.089,0,4.087-0.834,5.486-2.304
		c1.467-1.541,2.126-3.616,1.793-5.661L812.997,32.361c-0.091-0.55-0.268-1.065-0.483-1.561l-20.216,132.31
		c-0.967,6.313,0.92,12.663,5.186,17.423c0.557,0.622,1.15,1.212,1.772,1.757c-1.381,2.413-2.171,5.206-2.171,8.178V200.423z"/>
	<rect x="734.662" y="198.382" class="st40" width="97.923" height="305.853"/>
	<path class="st41" d="M832.585,504.235V198.382h-35.502v8.194c0,5.447,2.65,10.284,6.728,13.295v284.364H832.585z"/>
	<rect x="750.216" y="407.03" class="st42" width="19.381" height="6.821"/>
	<rect x="747.703" y="400.451" class="st43" width="19.381" height="6.821"/>
	<rect x="803.903" y="349.575" class="st44" width="19.382" height="6.818"/>
	<rect x="485.097" y="198.382" class="st40" width="97.925" height="305.853"/>
	<rect x="573.332" y="466.311" class="st42" width="19.38" height="6.821"/>
	<rect x="482.344" y="319.156" class="st45" width="95.832" height="8.986"/>
	<rect x="485.097" y="476.539" class="st43" width="19.382" height="6.822"/>
	<rect x="568.485" y="460.211" class="st43" width="19.381" height="6.819"/>
	<rect x="506.034" y="421.807" class="st43" width="19.381" height="6.819"/>
	<rect x="547.669" y="373.534" class="st43" width="19.382" height="6.819"/>
	<rect x="510.462" y="275.729" class="st43" width="19.379" height="6.818"/>
	<rect x="552.693" y="243.605" class="st43" width="19.382" height="6.819"/>
	<rect x="494.787" y="205.38" class="st43" width="19.382" height="6.821"/>
	<rect x="504.479" y="212.2" class="st42" width="19.379" height="6.818"/>
	<rect x="552.693" y="380.353" class="st42" width="19.382" height="6.818"/>
	<rect x="510.462" y="428.626" class="st42" width="19.379" height="6.821"/>
	<rect x="485.097" y="483.361" class="st42" width="11.605" height="6.819"/>
	<rect x="545.336" y="493.289" class="st42" width="19.381" height="6.819"/>
	<rect x="485.097" y="355.516" class="st42" width="9.69" height="6.818"/>
	<rect x="506.034" y="268.91" class="st42" width="19.381" height="6.819"/>
	<rect x="547.669" y="236.788" class="st42" width="19.382" height="6.818"/>
	<rect x="520.151" y="351.021" class="st46" width="32.542" height="134.314"/>
	<line class="st47" x1="520.151" y1="418.178" x2="552.693" y2="418.178"/>
	<rect x="520.151" y="226.559" class="st46" width="32.542" height="64.603"/>
	<line class="st47" x1="520.151" y1="258.858" x2="552.693" y2="258.858"/>
	<rect x="738.611" y="319.156" class="st45" width="95.83" height="8.986"/>
	<rect x="803.785" y="315.568" class="st48" width="28.774" height="16.161"/>
	<polygon class="st49" points="579.971,202.397 657.676,101.825 734.662,202.397 681.544,222.848 	"/>
	<rect x="578.176" y="194.973" class="st49" width="160.435" height="126.455"/>
	<rect x="578.176" y="316.643" class="st49" width="160.435" height="187.592"/>
	<rect x="575.305" y="304.801" class="st50" width="164.74" height="9.45"/>
	<rect x="719.228" y="473.132" class="st51" width="19.382" height="6.819"/>
	<rect x="726.766" y="479.951" class="st40" width="11.845" height="6.818"/>
	<rect x="691.233" y="449.983" class="st40" width="19.382" height="6.818"/>
	<rect x="686.568" y="456.8" class="st51" width="19.382" height="6.819"/>
	<rect x="699.847" y="409.382" class="st40" width="19.381" height="6.823"/>
	<rect x="602.583" y="466.311" class="st40" width="19.382" height="6.821"/>
	<rect x="597.198" y="473.132" class="st51" width="19.382" height="6.819"/>
	<rect x="606.891" y="391.299" class="st51" width="19.379" height="6.819"/>
	<rect x="590.38" y="263.705" class="st51" width="19.379" height="6.821"/>
	<rect x="708.103" y="223.147" class="st51" width="19.382" height="6.821"/>
	<rect x="643.14" y="173.317" class="st51" width="19.381" height="6.82"/>
	<rect x="671.853" y="191.562" class="st51" width="19.381" height="6.821"/>
	<rect x="602.583" y="409.386" class="st40" width="19.382" height="6.819"/>
	<rect x="696.258" y="489.877" class="st51" width="19.382" height="6.823"/>
	<rect x="578.176" y="490.241" class="st40" width="13.282" height="6.818"/>
	<rect x="578.176" y="430.899" class="st51" width="13.282" height="6.821"/>
	<rect x="578.176" y="437.598" class="st40" width="19.381" height="6.818"/>
	<rect x="726.766" y="373.534" class="st51" width="11.845" height="6.819"/>
	<rect x="578.176" y="349.988" class="st51" width="9.69" height="6.819"/>
	<rect x="703.078" y="344.816" class="st51" width="19.38" height="6.821"/>
	<rect x="698.413" y="351.286" class="st40" width="19.38" height="6.819"/>
	<rect x="703.078" y="229.967" class="st40" width="19.38" height="6.821"/>
	<rect x="584.816" y="271.121" class="st40" width="19.381" height="6.822"/>
	<rect x="728.921" y="289.905" class="st40" width="9.69" height="6.819"/>
	<rect x="633.448" y="166.139" class="st40" width="19.382" height="6.821"/>
	<rect x="614.786" y="191.562" class="st40" width="19.38" height="6.821"/>
	<rect x="614.786" y="371.198" class="st52" width="86.138" height="133.037"/>
	<rect x="621.965" y="378.376" class="st4" width="71.782" height="125.859"/>
	<rect x="657.855" y="378.376" class="st7" width="35.893" height="125.859"/>
	<rect x="609.76" y="327.771" class="st46" width="96.191" height="31.152"/>
	<rect x="657.855" y="328.142" class="st53" width="0" height="29.964"/>
	<polyline class="st54" points="576.399,202.397 658.393,100.937 740.386,202.397 	"/>
	<g>
		<rect x="604.914" y="212.2" class="st46" width="106.958" height="72.501"/>
		<line class="st46" x1="640.518" y1="212.2" x2="640.518" y2="284.701"/>
		<line class="st46" x1="676.196" y1="212.917" x2="676.196" y2="285.418"/>
		<line class="st46" x1="604.914" y1="249.168" x2="711.872" y2="249.168"/>
	</g>
	<rect x="789.578" y="460.211" class="st42" width="19.379" height="6.819"/>
	<rect x="789.578" y="267.295" class="st42" width="19.379" height="6.818"/>
	<rect x="747.703" y="238.579" class="st42" width="19.381" height="6.821"/>
	<rect x="784.551" y="453.39" class="st43" width="19.382" height="6.821"/>
	<rect x="754.404" y="245.759" class="st43" width="19.379" height="6.821"/>
	<rect x="789.578" y="301.391" class="st43" width="19.379" height="6.819"/>
	<rect x="750.216" y="489.877" class="st43" width="19.381" height="6.823"/>
	<rect x="759.907" y="345.639" class="st46" width="32.542" height="134.312"/>
	<line class="st47" x1="759.907" y1="412.793" x2="792.449" y2="412.793"/>
	<rect x="761.702" y="222.848" class="st46" width="32.542" height="64.604"/>
	<line class="st47" x1="761.702" y1="255.149" x2="794.243" y2="255.149"/>
</g>
<g id="building_1_3_">
	<path class="st2" d="M1145.699,164.649l-24.26-158.771c-0.516-3.381-3.425-5.878-6.842-5.878H837.59
		c-3.419,0-6.327,2.497-6.842,5.878l-24.26,158.768c-0.313,2.044,0.306,4.123,1.687,5.664c1.38,1.541,3.383,2.386,5.443,2.3
		l158.041,6.932l166.907-6.93c0.1,0.004,0.193,0.004,0.289,0.004c1.965,0,3.843-0.835,5.157-2.304
		C1145.393,168.77,1146.01,166.693,1145.699,164.649z"/>
	<path class="st55" d="M1134.016,172.833h-29.177c0,0-2.351-47.057-59.288-47.057v-35.29h-14.234c0,0-3.151-46.217-54.55-47.019
		c-0.006-0.01-0.016-0.034-0.02-0.036c-0.222,0-0.43,0.016-0.654,0.018c-0.224-0.002-0.431-0.018-0.655-0.018
		c-0.004,0.002-0.014,0.026-0.02,0.036c-51.397,0.801-54.549,47.019-54.549,47.019h-14.234v35.29
		c-56.939,0-59.29,47.057-59.29,47.057H818.17v15.998l149.647,25.583l1.033,2.651l7.243-1.238l7.243,1.238l1.036-2.651
		l149.644-25.583V172.833z"/>
	<path class="st56" d="M976.093,208.545l-2.68,0.457l-0.382-0.981l-147.682-16.039v-11.972h28.826l0.342-6.818
		c0.094-1.613,2.972-40.239,52.119-40.239h7.178v-35.29h13.762l0.457-6.691c0.12-1.589,3.54-39.642,47.497-40.326l0.563-0.01
		l0.563,0.01c43.961,0.685,47.378,38.737,47.504,40.357l0.505,6.629l6.653,0.032h7.054v35.29h7.18
		c20.777,0,35.803,6.66,44.669,19.798c6.754,10.014,7.447,20.371,7.452,20.473l0.405,6.75l6.761,0.036h21.998v11.252L979.16,208.021
		l-0.382,0.981L976.093,208.545z"/>
	<rect x="1041.296" y="158.962" class="st57" width="19.86" height="14.355"/>
	<rect x="926.62" y="144.604" class="st57" width="19.86" height="14.358"/>
	<rect x="1012.042" y="125.701" class="st57" width="19.859" height="14.358"/>
	<rect x="1054.217" y="173.317" class="st58" width="19.859" height="14.358"/>
	<rect x="965.565" y="66.122" class="st58" width="19.86" height="14.356"/>
	<rect x="876.911" y="158.962" class="st58" width="19.861" height="14.355"/>
	<rect x="919.92" y="158.962" class="st58" width="19.859" height="14.355"/>
	<rect x="1003.94" y="111.346" class="st58" width="19.859" height="14.355"/>
	<g>
		<path class="st59" d="M976.093,220.418c-19.491,0-35.347-15.856-35.347-35.347v-55.689c0-19.491,15.856-35.347,35.347-35.347
			c19.49,0,35.347,15.856,35.347,35.347v55.689C1011.44,204.562,995.583,220.418,976.093,220.418z"/>
		<path class="st2" d="M976.093,96.465c18.151,0,32.917,14.767,32.917,32.917v55.689c0,18.151-14.767,32.917-32.917,32.917
			s-32.917-14.767-32.917-32.917v-55.689C943.175,111.232,957.942,96.465,976.093,96.465 M976.093,91.606
			c-20.864,0-37.777,16.913-37.777,37.777v55.689c0,20.864,16.913,37.777,37.777,37.777s37.777-16.913,37.777-37.777v-55.689
			C1013.869,108.518,996.957,91.606,976.093,91.606L976.093,91.606z"/>
	</g>
	<rect x="818.17" y="206.576" class="st56" width="315.846" height="297.659"/>
	<g>
		<g>
			<rect x="1039.739" y="235.171" class="st60" width="73.219" height="99.06"/>
			<line class="st61" x1="1064.146" y1="235.171" x2="1064.146" y2="334.231"/>
			<line class="st61" x1="1088.552" y1="235.171" x2="1088.552" y2="334.231"/>
			<line class="st61" x1="1039.739" y1="259.937" x2="1112.958" y2="259.937"/>
			<rect x="1064.146" y="259.937" class="st61" width="24.405" height="24.765"/>
			<line class="st61" x1="1039.739" y1="284.701" x2="1112.958" y2="284.701"/>
			<rect x="1064.146" y="284.701" class="st61" width="24.405" height="24.765"/>
			<line class="st61" x1="1039.739" y1="309.466" x2="1112.958" y2="309.466"/>
		</g>
		<g>
			<rect x="838.028" y="235.171" class="st60" width="73.221" height="99.06"/>
			<line class="st61" x1="862.437" y1="235.171" x2="862.437" y2="334.231"/>
			<line class="st61" x1="886.844" y1="235.171" x2="886.844" y2="334.231"/>
			<line class="st61" x1="838.028" y1="259.937" x2="911.249" y2="259.937"/>
			<rect x="862.437" y="259.937" class="st61" width="24.407" height="24.765"/>
			<line class="st61" x1="838.028" y1="284.701" x2="911.249" y2="284.701"/>
			<rect x="862.437" y="284.701" class="st61" width="24.407" height="24.765"/>
			<line class="st61" x1="838.028" y1="309.466" x2="911.249" y2="309.466"/>
		</g>
	</g>
	<g>
		<g>
			<rect x="1039.739" y="379.096" class="st60" width="73.219" height="99.057"/>
			<line class="st61" x1="1064.146" y1="379.096" x2="1064.146" y2="478.153"/>
			<line class="st61" x1="1088.552" y1="379.096" x2="1088.552" y2="478.153"/>
			<line class="st61" x1="1039.739" y1="403.861" x2="1112.958" y2="403.861"/>
			<rect x="1064.146" y="403.861" class="st61" width="24.405" height="24.765"/>
			<line class="st61" x1="1039.739" y1="428.626" x2="1112.958" y2="428.626"/>
			<rect x="1064.146" y="428.626" class="st61" width="24.405" height="24.765"/>
			<line class="st61" x1="1039.739" y1="453.39" x2="1112.958" y2="453.39"/>
		</g>
		<g>
			<rect x="838.028" y="379.096" class="st60" width="73.221" height="99.057"/>
			<line class="st61" x1="862.437" y1="379.096" x2="862.437" y2="478.153"/>
			<line class="st61" x1="886.844" y1="379.096" x2="886.844" y2="478.153"/>
			<line class="st61" x1="838.028" y1="403.861" x2="911.249" y2="403.861"/>
			<rect x="862.437" y="403.861" class="st61" width="24.407" height="24.765"/>
			<line class="st61" x1="838.028" y1="428.626" x2="911.249" y2="428.626"/>
			<rect x="862.437" y="428.626" class="st61" width="24.407" height="24.765"/>
			<line class="st61" x1="838.028" y1="453.39" x2="911.249" y2="453.39"/>
		</g>
	</g>
	<g>
		<rect x="926.62" y="379.515" class="st4" width="97.929" height="124.72"/>
		<rect x="975.584" y="379.096" class="st7" width="48.965" height="125.139"/>
		<rect x="922.612" y="371.198" class="st62" width="105.762" height="11.486"/>
		<g>
			<path class="st63" d="M929.374,376.599c-0.011-0.375-0.016-0.738-0.016-1.092c0-25.44,20.697-46.138,46.136-46.138
				c25.441,0,46.139,20.697,46.139,46.138c0,0.354-0.005,0.717-0.016,1.092H929.374z"/>
			<path class="st0" d="M975.494,332.285c23.223,0,42.226,18.408,43.185,41.398h-86.368
				C933.271,350.693,952.273,332.285,975.494,332.285 M975.494,326.454c-27.09,0-49.052,21.963-49.052,49.053
				c0,1.352,0.071,2.683,0.177,4.007h97.752c0.107-1.324,0.177-2.656,0.177-4.007
				C1024.549,348.417,1002.587,326.454,975.494,326.454L975.494,326.454z"/>
		</g>
	</g>
	<rect x="813.594" y="189.826" class="st64" width="323.979" height="16.75"/>
	<rect x="818.17" y="341.048" class="st58" width="19.858" height="14.357"/>
	<rect x="818.17" y="489.877" class="st58" width="19.858" height="14.358"/>
	<rect x="926.62" y="302.289" class="st57" width="19.86" height="14.354"/>
	<rect x="999.034" y="267.356" class="st57" width="19.86" height="14.354"/>
	<rect x="928.685" y="241.991" class="st57" width="19.861" height="14.355"/>
	<rect x="818.17" y="355.406" class="st57" width="26.856" height="14.358"/>
	<rect x="1107.156" y="489.877" class="st57" width="26.856" height="14.358"/>
	<rect x="1114.156" y="352.984" class="st58" width="19.86" height="14.358"/>
	<rect x="1004.687" y="314.251" class="st58" width="19.861" height="14.358"/>
	<rect x="1007.526" y="252.758" class="st58" width="19.86" height="14.355"/>
	<rect x="936.549" y="256.346" class="st58" width="19.86" height="14.356"/>
	<rect x="1064.146" y="208.49" class="st58" width="19.858" height="14.358"/>
	<rect x="1124.085" y="367.342" class="st57" width="9.931" height="14.355"/>
	<g>
		<path class="st59" d="M975.584,290.887c-17.065,0-30.949-13.884-30.949-30.95c0-17.065,13.883-30.949,30.949-30.949
			c17.065,0,30.948,13.884,30.948,30.949C1006.532,277.003,992.649,290.887,975.584,290.887z"/>
		<path class="st2" d="M975.584,231.418c15.725,0,28.519,12.793,28.519,28.519c0,15.726-12.794,28.52-28.519,28.52
			c-15.725,0-28.519-12.794-28.519-28.52C947.065,244.211,959.858,231.418,975.584,231.418 M975.584,226.559
			c-18.433,0-33.378,14.941-33.378,33.378c0,18.433,14.945,33.38,33.378,33.38c18.434,0,33.378-14.946,33.378-33.38
			C1008.962,241.499,994.018,226.559,975.584,226.559L975.584,226.559z"/>
	</g>
</g>
</svg>
