<?xml version="1.0" encoding="utf-8"?>
<!-- Generator: Adobe Illustrator 21.0.0, SVG Export Plug-In . SVG Version: 6.00 Build 0)  -->
<svg version="1.1" id="Layer_1" xmlns="http://www.w3.org/2000/svg" xmlns:xlink="http://www.w3.org/1999/xlink" x="0px" y="0px"
	 viewBox="0 0 1920 1080" style="enable-background:new 0 0 1920 1080;" xml:space="preserve">
<style type="text/css">
	.Drop_x0020_Shadow{fill:none;}
	.Round_x0020_Corners_x0020_2_x0020_pt{fill:#FFFFFF;stroke:#000000;stroke-miterlimit:10;}
	.Live_x0020_Reflect_x0020_X{fill:none;}
	.Bevel_x0020_Soft{fill:url(#SVGID_1_);}
	.Dusk{fill:#FFFFFF;}
	.Foliage_GS{fill:#FFDD00;}
	.Pompadour_GS{fill-rule:evenodd;clip-rule:evenodd;fill:#44ADE2;}
	.st0{fill:#24242E;}
	.st1{fill:#373746;}
	.st2{fill:#FFFFFF;}
	.st3{fill:#FCCCBA;}
	.st4{fill:#E8B7A6;}
	.st5{fill:#EDAF98;}
	.st6{fill:#BF725A;}
	.st7{fill:#555252;}
	.st8{fill:none;stroke:#BF725A;stroke-width:4.8594;stroke-linecap:round;stroke-miterlimit:10;}
	.st9{fill:#A45944;}
	.st10{fill:#555252;stroke:#BF725A;stroke-width:4.8594;stroke-linejoin:round;stroke-miterlimit:10;}
	.st11{fill:none;stroke:#BF725A;stroke-width:4.8594;stroke-linejoin:round;stroke-miterlimit:10;}
	.st12{fill:#A45944;stroke:#A45944;stroke-width:2.4865;stroke-linejoin:round;stroke-miterlimit:10;}
	.st13{fill:#FEE7DE;}
	.st14{fill:#C3E2ED;}
	.st15{fill:#8F4939;}
	.st16{fill:#C98873;}
	.st17{fill:#A95D48;}
	.st18{fill:#FEE5D4;stroke:#FEE5D4;stroke-width:2.9156;stroke-linejoin:round;stroke-miterlimit:10;}
	.st19{fill:#F2C8B2;}
	.st20{fill:#B2856F;}
	.st21{fill:#9F715E;}
	.st22{fill:#555252;stroke:#FEE5D4;stroke-width:4.8594;stroke-linejoin:round;stroke-miterlimit:10;}
	.st23{fill:none;stroke:#FEE5D4;stroke-width:4.8594;stroke-linejoin:round;stroke-miterlimit:10;}
	.st24{fill:#FEE5D4;}
	.st25{fill:#D49989;}
	.st26{fill:#DBA79B;}
	.st27{fill:#DBF0F9;}
	.st28{fill:#A0C6D1;}
	.st29{fill:#7D6D66;}
	.st30{fill:#8BBBCC;stroke:#FEE5D4;stroke-width:2.9156;stroke-linejoin:round;stroke-miterlimit:10;}
	.st31{fill:none;stroke:#FEE5D4;stroke-width:3.3484;stroke-linejoin:round;stroke-miterlimit:10;}
	.st32{fill:#FDD3B4;}
	.st33{fill:#8BBBCC;}
	.st34{fill:none;stroke:#FDD3B4;stroke-width:4.8594;stroke-linecap:round;stroke-miterlimit:10;}
	.st35{fill:#EAB28C;}
	.st36{fill:#FDD3B4;stroke:#FDD3B4;stroke-width:3.9264;stroke-linejoin:round;stroke-miterlimit:10;}
	.st37{fill:#94827C;}
	.st38{fill:#725E58;}
	.st39{fill:none;stroke:#FEE5D4;stroke-width:2.9156;stroke-linejoin:round;stroke-miterlimit:10;}
	.st40{fill:#675651;}
	.st41{fill:#FEE5D4;stroke:#FEE5D4;stroke-width:3.5197;stroke-linejoin:round;stroke-miterlimit:10;}
	.st42{fill:#B84A30;}
	.st43{fill:#9C302A;}
	.st44{fill:#8D2B20;}
	.st45{fill:#A13927;}
	.st46{fill:#AB4238;}
	.st47{fill:#C9A27E;stroke:#C9A27E;stroke-width:4.8594;stroke-linejoin:round;stroke-miterlimit:10;}
	.st48{fill:#6E462A;stroke:#FFFFFF;stroke-width:4.8594;stroke-linejoin:round;stroke-miterlimit:10;}
	.st49{fill:#606161;stroke:#FFFFFF;stroke-width:4.8594;stroke-linejoin:round;stroke-miterlimit:10;}
	.st50{fill:#B28A67;}
	.st51{fill:#CF6941;}
	.st52{fill:#DBB691;stroke:#DBB691;stroke-width:4.8594;stroke-linejoin:round;stroke-miterlimit:10;}
	.st53{fill:#C65A37;}
	.st54{fill:#FEDCB7;}
	.st55{fill:none;stroke:#FFFFFF;stroke-width:4.8594;stroke-linejoin:round;stroke-miterlimit:10;}
	.st56{fill:none;stroke:#DBB691;stroke-width:10.1282;stroke-linecap:round;stroke-linejoin:round;stroke-miterlimit:10;}
	.st57{fill:#F4857F;}
	.st58{fill:#E57167;}
	.st59{fill:#CA5551;}
	.st60{fill:#D6635D;}
	.st61{fill:#9FD1E8;}
	.st62{fill:#9FD1E8;stroke:#FFFFFF;stroke-width:4.8594;stroke-linejoin:round;stroke-miterlimit:10;}
	.st63{fill:none;stroke:#FFFFFF;stroke-width:2.9156;stroke-linejoin:round;stroke-miterlimit:10;}
	.st64{fill:#FCCCBA;stroke:#FCCCBA;stroke-width:3.8875;stroke-linejoin:round;stroke-miterlimit:10;}
	.st65{fill:#EAB19D;}
	.st66{fill:#BD4C39;stroke:#BD4C39;stroke-width:2.9156;stroke-linejoin:round;stroke-miterlimit:10;}
	.st67{fill:#B66C38;}
	.st68{fill:#6CAF44;}
	.st69{fill:#79BD4A;}
	.st70{fill:#A1CF6B;}
	.st71{fill:#8F5125;}
	.st72{fill:#589441;}
	.st73{fill:#F04C4D;}
	.st74{fill:#5BC5C6;}
	.st75{fill:#F4F19B;}
	.st76{clip-path:url(#SVGID_3_);}
	.st77{clip-path:url(#SVGID_3_);fill:#8BD6EF;}
	.st78{clip-path:url(#SVGID_5_);}
	.st79{clip-path:url(#SVGID_5_);fill:#8BD6EF;}
	.st80{clip-path:url(#SVGID_7_);}
	.st81{clip-path:url(#SVGID_7_);fill:#92CD8B;}
	.st82{clip-path:url(#SVGID_9_);}
	.st83{clip-path:url(#SVGID_9_);fill:#92CD8B;}
	.st84{fill:#434343;}
	.st85{fill:none;stroke:#434343;stroke-width:1.3959;stroke-linecap:round;stroke-miterlimit:10;}
	.st86{fill:#8BD6EF;}
	.st87{fill:#92CD8B;}
</style>
<linearGradient id="SVGID_1_" gradientUnits="userSpaceOnUse" x1="0" y1="0" x2="0.7071" y2="0.7071">
	<stop  offset="0" style="stop-color:#DEDFE3"/>
	<stop  offset="0.1738" style="stop-color:#D8D9DD"/>
	<stop  offset="0.352" style="stop-color:#C9CACD"/>
	<stop  offset="0.5323" style="stop-color:#B4B5B8"/>
	<stop  offset="0.7139" style="stop-color:#989A9C"/>
	<stop  offset="0.8949" style="stop-color:#797C7E"/>
	<stop  offset="1" style="stop-color:#656B6C"/>
</linearGradient>
<polygon class="st0" points="1361.307,626.66 1636.415,626.66 1498.863,219.777 "/>
<polygon class="st0" points="586.771,623.749 861.878,623.749 724.326,216.865 "/>
<polygon class="st0" points="803.29,559.542 1322.512,559.542 1062.904,73.723 "/>
<polygon class="st1" points="282.853,574.643 750.819,574.643 516.839,58.622 "/>
<polygon class="st2" points="443.167,219.777 506.872,131.117 516.866,175.447 540.154,147.617 574.241,184.072 516.869,58.622 "/>
<polygon class="st2" points="1063.321,73.723 1061.556,77.026 963.846,259.87 963.846,259.87 1044.028,216.634 1056.695,248.634 
	1089.361,221.967 1142.695,271.967 1153.791,243.025 "/>
<polygon class="st2" points="724.17,216.865 689.493,319.439 718.131,272.312 718.131,310.312 728.797,278.979 746.748,283.653 "/>
<g id="buildings_1_">
	<g id="building_5_1_">
		<rect x="290.397" y="474.304" class="st3" width="33.737" height="32.122"/>
		<rect x="290.397" y="485.788" class="st4" width="33.737" height="20.638"/>
		<path class="st2" d="M513.103,595.5l-18.322-94.357c-0.391-2.011-2.586-3.494-5.17-3.494H280.391
			c-2.584,0-4.781,1.483-5.169,3.494l-18.323,94.356c-0.237,1.216,0.231,2.451,1.274,3.367c1.043,0.913,2.555,1.417,4.111,1.365
			l119.366,4.12l126.066-4.117c0.075,0.002,0.144,0.002,0.218,0.002c1.484,0,2.901-0.495,3.894-1.369
			C512.872,597.951,513.338,596.716,513.103,595.5z"/>
		<rect x="264.556" y="600.341" class="st3" width="229.704" height="208.589"/>
		<path class="st5" d="M494.26,808.93V600.341h-14.837v9.833c-3.876,3.295-6.339,8.204-6.339,13.677v8.986
			c0,5.475,2.462,10.387,6.339,13.68V808.93H494.26z"/>
		<g>
			<rect x="341.213" y="688.934" class="st6" width="80.877" height="119.996"/>
			<rect x="352.22" y="701.258" class="st7" width="58.502" height="39.54"/>
			<line class="st8" x1="381.65" y1="700.201" x2="381.65" y2="751.028"/>
			<line class="st8" x1="349.349" y1="721.029" x2="416.824" y2="721.029"/>
			<circle class="st9" cx="353.835" cy="757.666" r="4.486"/>
		</g>
		<g>
			<g>
				<rect x="280.706" y="694.498" class="st10" width="44.866" height="73.221"/>
				<line class="st11" x1="303.138" y1="693.78" x2="303.138" y2="767.719"/>
				<line class="st11" x1="280.706" y1="731.108" x2="325.571" y2="731.108"/>
			</g>
			<g>
				<rect x="437.731" y="694.498" class="st10" width="44.864" height="73.221"/>
				<line class="st11" x1="460.165" y1="693.78" x2="460.165" y2="767.719"/>
				<line class="st11" x1="437.731" y1="731.108" x2="482.595" y2="731.108"/>
			</g>
		</g>
		<rect x="256.299" y="674.937" class="st12" width="239.456" height="14.358"/>
		<g>
			<g>
				<path class="st7" d="M381.65,654.691c-10.054,0-18.234-8.18-18.234-18.233c0-10.057,8.18-18.238,18.234-18.238
					c10.055,0,18.235,8.182,18.235,18.238C399.885,646.512,391.705,654.691,381.65,654.691z"/>
				<path class="st6" d="M381.65,620.649c8.715,0,15.805,7.092,15.805,15.808c0,8.714-7.09,15.804-15.805,15.804
					c-8.714,0-15.804-7.09-15.804-15.804C365.846,627.741,372.935,620.649,381.65,620.649 M381.65,615.79
					c-11.411,0-20.663,9.254-20.663,20.668c0,11.409,9.253,20.663,20.663,20.663c11.414,0,20.665-9.254,20.665-20.663
					C402.315,625.044,393.063,615.79,381.65,615.79L381.65,615.79z"/>
			</g>
			<line class="st11" x1="381.65" y1="618.587" x2="381.65" y2="653.405"/>
			<line class="st11" x1="365.052" y1="636.453" x2="397.593" y2="636.453"/>
		</g>
		<rect x="442.936" y="787.512" class="st13" width="23.328" height="9.815"/>
		<rect x="305.114" y="792.423" class="st13" width="23.328" height="9.811"/>
		<rect x="445.449" y="652.215" class="st13" width="23.328" height="9.809"/>
		<rect x="476.493" y="609.559" class="st13" width="23.329" height="9.814"/>
		<rect x="293.448" y="615.79" class="st13" width="23.329" height="9.814"/>
		<rect x="448.499" y="777.586" class="st4" width="23.329" height="9.809"/>
		<rect x="484.091" y="784.464" class="st4" width="23.329" height="9.811"/>
		<rect x="479.247" y="630.728" class="st4" width="23.328" height="9.812"/>
		<rect x="431.27" y="642.304" class="st4" width="23.331" height="9.811"/>
		<rect x="283.397" y="625.825" class="st4" width="23.329" height="9.811"/>
		<rect x="325.571" y="655.676" class="st4" width="23.328" height="9.811"/>
		<rect x="293.448" y="782.491" class="st4" width="23.329" height="9.815"/>
		<circle class="st14" cx="326.828" cy="431.772" r="27.099"/>
		<circle class="st14" cx="371.318" cy="459.513" r="10.331"/>
		<circle class="st14" cx="366.846" cy="383.139" r="12.921"/>
		<path class="st9" d="M486.243,767.719v-73.221c0-1.984-1.604-3.59-3.588-3.59h-3.709v7.178h0.12v66.04h-0.12v7.181h3.709
			C484.639,771.307,486.243,769.7,486.243,767.719z"/>
		<path class="st15" d="M495.575,691.131c1.016,0,1.836-0.824,1.836-1.836v-14.358c0-1.013-0.821-1.838-1.836-1.838h-16.328v18.032
			H495.575z"/>
		<path class="st14" d="M507.716,600.233c0.075,0.002,0.144,0.002,0.218,0.002c1.484,0,2.901-0.495,3.894-1.369
			c1.044-0.915,1.51-2.15,1.275-3.366l-18.322-94.357c-0.391-2.011-2.586-3.494-5.17-3.494h-17.338
			c0.319,4.847,2.323,9.455,5.798,13.104c0.434,0.453,0.884,0.886,1.353,1.3v89.103L507.716,600.233z"/>
	</g>
	<g id="building_4_1_">
		<rect x="1617.901" y="485.429" class="st16" width="27.755" height="34.935"/>
		<rect x="1617.901" y="497.453" class="st6" width="27.755" height="12.861"/>
		<path class="st2" d="M1682.245,632.527l-20.375-118.091c-0.431-2.514-2.874-4.371-5.746-4.371h-232.637
			c-2.869,0-5.312,1.857-5.744,4.371l-20.375,118.088c-0.262,1.521,0.257,3.067,1.415,4.215c1.161,1.144,2.842,1.772,4.573,1.708
			l132.725,5.154l140.176-5.154c0.078,0.003,0.159,0.003,0.24,0.003c1.65,0,3.226-0.617,4.331-1.711
			C1681.989,635.591,1682.509,634.044,1682.245,632.527z"/>
		<path class="st14" d="M1417.744,514.436l-20.375,118.088c-0.262,1.521,0.257,3.067,1.415,4.215
			c1.161,1.144,2.842,1.772,4.573,1.708l27.908,1.085v-5.306c3.638-3.109,5.949-7.735,5.949-12.888v-16.15
			c0-5.151-2.311-9.775-5.949-12.888v-46.98c2.737-1.294,5.193-3.201,7.178-5.632c3.807-4.648,5.502-10.767,4.658-16.77
			l-1.795-12.853h-17.819C1420.619,510.065,1418.176,511.922,1417.744,514.436z"/>
		<path class="st6" d="M1401.656,655.676v-17.108h79.22c4.336-29.352,29.388-51.446,59.798-51.446
			c30.411,0,55.463,22.094,59.799,51.446h70.308v20.337L1401.656,655.676z"/>
		<polygon class="st17" points="1431.265,638.568 1401.656,638.568 1401.656,655.676 1431.265,656.035 		"/>
		<path class="st16" d="M1593.927,645.744c-0.98-28.573-24.437-51.444-53.253-51.444c-28.813,0-52.272,22.871-53.253,51.444h-78.587
			V808.93h261.947V645.744H1593.927z"/>
		<g>
			<rect x="1492.818" y="680.202" class="st18" width="95.713" height="16.747"/>
			<rect x="1498.861" y="698.745" class="st19" width="83.628" height="110.185"/>
			<rect x="1506.039" y="705.922" class="st20" width="69.27" height="103.008"/>
			<rect x="1540.674" y="705.922" class="st21" width="34.635" height="103.008"/>
			<rect x="1513.157" y="713.1" class="st7" width="19.379" height="29.433"/>
		</g>
		<g>
			<g>
				<rect x="1435.691" y="688.576" class="st22" width="43.071" height="73.697"/>
				<line class="st23" x1="1435.691" y1="725.423" x2="1478.762" y2="725.423"/>
				<line class="st23" x1="1457.228" y1="688.576" x2="1457.228" y2="762.273"/>
			</g>
			<g>
				<rect x="1602.586" y="688.576" class="st22" width="43.07" height="73.697"/>
				<line class="st23" x1="1602.586" y1="725.423" x2="1645.656" y2="725.423"/>
				<line class="st23" x1="1624.124" y1="688.576" x2="1624.124" y2="762.273"/>
			</g>
		</g>
		<g>
			<path class="st7" d="M1540.674,667.962c-11.82,0-21.438-9.618-21.438-21.44c0-11.82,9.617-21.437,21.438-21.437
				s21.438,9.616,21.438,21.437C1562.111,658.344,1552.494,667.962,1540.674,667.962z"/>
			<g>
				<path class="st24" d="M1540.674,627.515c10.481,0,19.008,8.526,19.008,19.007c0,10.483-8.527,19.011-19.008,19.011
					s-19.008-8.528-19.008-19.011C1521.666,636.041,1530.193,627.515,1540.674,627.515 M1540.674,622.655
					c-13.181,0-23.867,10.685-23.867,23.866c0,13.182,10.687,23.87,23.867,23.87c13.184,0,23.867-10.688,23.867-23.87
					C1564.541,633.34,1553.858,622.655,1540.674,622.655L1540.674,622.655z"/>
			</g>
		</g>
		<rect x="1612.397" y="785.6" class="st25" width="19.622" height="10.053"/>
		<rect x="1633.932" y="666.799" class="st25" width="19.622" height="10.052"/>
		<rect x="1447.417" y="658.906" class="st25" width="19.62" height="10.05"/>
		<rect x="1465.005" y="775.552" class="st25" width="19.619" height="10.048"/>
		<rect x="1602.586" y="775.552" class="st26" width="19.622" height="10.048"/>
		<rect x="1624.124" y="656.752" class="st26" width="19.619" height="10.047"/>
		<circle class="st14" cx="1634.375" cy="447.423" r="23.651"/>
		<circle class="st14" cx="1583.745" cy="442.656" r="12.261"/>
		<circle class="st14" cx="1611.922" cy="406.228" r="8.375"/>
		<rect x="1408.834" y="645.744" class="st6" width="22.431" height="163.187"/>
		<rect x="1407.099" y="787.633" class="st25" width="19.622" height="10.053"/>
		<rect x="1411.526" y="777.586" class="st26" width="19.62" height="10.047"/>
	</g>
	<g id="building_3_1_">
		<path class="st27" d="M1428.883,524.903l-22.282-159.551c-0.472-3.397-3.143-5.906-6.282-5.906h-254.43
			c-3.139,0-5.812,2.509-6.285,5.906l-22.279,159.547c-0.29,2.057,0.281,4.143,1.546,5.691c1.268,1.551,3.107,2.4,5,2.314
			l145.157,6.962l153.305-6.962c0.091,0.003,0.176,0.004,0.264,0.004c1.806,0,3.53-0.838,4.736-2.315
			C1428.603,529.044,1429.173,526.956,1428.883,524.903z"/>
		<path class="st28" d="M1139.604,365.352l-22.279,159.547c-0.29,2.057,0.281,4.143,1.546,5.691c1.268,1.551,3.107,2.4,5,2.314
			l33.186,1.591v-10.746c3.495-3.028,5.713-7.498,5.713-12.478v-16.75c0-2.732-0.671-5.314-1.851-7.588
			c0.88-0.711,1.708-1.496,2.473-2.35c4.261-4.761,6.15-11.109,5.182-17.409l-16.458-107.728h-6.226
			C1142.75,359.446,1140.077,361.953,1139.604,365.352z"/>
		<polygon class="st29" points="1416.91,533.171 1387.706,533.171 1273.251,418.713 1273.163,418.508 1273.104,418.569 
			1273.046,418.508 1272.958,418.713 1158.502,533.171 1129.298,533.171 1129.298,626.974 1224.923,633.5 1225.169,640.057 
			1273.104,636.788 1321.041,640.057 1321.286,633.5 1416.91,626.974 		"/>
		<rect x="1129.298" y="621.338" class="st29" width="287.612" height="187.592"/>
		<rect x="1276.335" y="663.692" class="st30" width="105.161" height="85.063"/>
		<line class="st31" x1="1312.225" y1="663.692" x2="1312.225" y2="745.881"/>
		<line class="st31" x1="1346.969" y1="665.129" x2="1346.969" y2="747.319"/>
		<line class="st31" x1="1276.335" y1="700.299" x2="1381.496" y2="700.299"/>
		<rect x="1167.105" y="672.037" class="st32" width="79.919" height="136.893"/>
		<rect x="1180.144" y="683.522" class="st33" width="53.838" height="59.489"/>
		<line class="st34" x1="1207.063" y1="683.522" x2="1207.063" y2="743.01"/>
		<line class="st34" x1="1180.144" y1="713.268" x2="1233.983" y2="713.268"/>
		<circle class="st35" cx="1182.836" cy="769.033" r="6.281"/>
		<rect x="1272.028" y="734.397" class="st36" width="114.85" height="22.612"/>
		<rect x="1395.375" y="777.348" class="st37" width="21.535" height="10.047"/>
		<rect x="1281.479" y="782.374" class="st37" width="21.535" height="10.049"/>
		<rect x="1180.144" y="653.642" class="st37" width="21.536" height="10.05"/>
		<rect x="1317.191" y="561.041" class="st37" width="21.536" height="10.05"/>
		<rect x="1178.35" y="566.784" class="st37" width="21.536" height="10.05"/>
		<rect x="1384.608" y="573.964" class="st37" width="21.535" height="10.049"/>
		<rect x="1214.305" y="505.049" class="st37" width="21.535" height="10.05"/>
		<rect x="1406.142" y="635.457" class="st37" width="10.767" height="10.05"/>
		<rect x="1265.568" y="635.457" class="st37" width="21.533" height="10.05"/>
		<rect x="1343.212" y="787.396" class="st38" width="21.535" height="10.053"/>
		<rect x="1406.142" y="767.299" class="st38" width="10.767" height="10.049"/>
		<rect x="1307.919" y="643.594" class="st38" width="21.535" height="10.047"/>
		<rect x="1307.919" y="550.991" class="st38" width="21.535" height="10.05"/>
		<rect x="1400.757" y="563.195" class="st38" width="16.153" height="10.052"/>
		<rect x="1207.066" y="515.341" class="st38" width="21.533" height="10.049"/>
		<rect x="1169.379" y="556.018" class="st38" width="21.535" height="10.048"/>
		<rect x="1270.712" y="772.322" class="st38" width="21.535" height="10.052"/>
		<rect x="1189.117" y="643.594" class="st38" width="21.536" height="10.047"/>
		<g>
			<rect x="1229.016" y="492.192" class="st30" width="88.174" height="85.063"/>
			<line class="st39" x1="1273.104" y1="491.413" x2="1273.104" y2="577.255"/>
			<line class="st39" x1="1229.016" y1="534.333" x2="1317.191" y2="534.333"/>
		</g>
		<rect x="1265.568" y="460.785" class="st37" width="21.533" height="10.049"/>
		<polygon class="st40" points="1157.057,533.171 1129.298,533.171 1129.298,621.338 1129.298,626.977 1129.298,808.93 
			1157.057,808.93 		"/>
		<rect x="1135.49" y="728.117" class="st37" width="21.535" height="10.048"/>
		<rect x="1142.7" y="605.188" class="st41" width="277.558" height="16.15"/>
		<path class="st32" d="M1157.057,602.589H1142.7c-1.437,0-2.6,1.166-2.6,2.599v16.15c0,1.438,1.163,2.602,2.6,2.602h14.358V602.589
			z"/>
	</g>
	<g id="building2_1_">
		<path class="st27" d="M847.485,495.185l-25.805-158.77c-0.548-3.381-3.641-5.876-7.278-5.876H519.752
			c-3.637,0-6.731,2.495-7.279,5.876l-25.803,158.768c-0.332,2.044,0.326,4.121,1.792,5.662c1.47,1.541,3.601,2.387,5.792,2.299
			l168.106,6.93l177.542-6.927c0.102,0.004,0.203,0.006,0.306,0.006c2.089,0,4.087-0.838,5.486-2.305
			C847.159,499.308,847.819,497.229,847.485,495.185z"/>
		<path class="st28" d="M805.768,505.119l34.133-1.33c0.102,0.004,0.203,0.004,0.306,0.004c2.089,0,4.087-0.834,5.486-2.304
			c1.467-1.541,2.126-3.617,1.793-5.661l-25.805-158.773c-0.091-0.55-0.268-1.065-0.483-1.561l-20.216,132.31
			c-0.967,6.313,0.92,12.663,5.186,17.423c0.557,0.622,1.15,1.212,1.772,1.757c-1.381,2.413-2.171,5.206-2.171,8.178V505.119z"/>
		<rect x="743.346" y="503.077" class="st42" width="97.923" height="305.853"/>
		<path class="st43" d="M841.269,808.93V503.077h-35.502v8.194c0,5.447,2.65,10.284,6.728,13.295V808.93H841.269z"/>
		<rect x="758.9" y="711.725" class="st44" width="19.381" height="6.821"/>
		<rect x="756.387" y="705.146" class="st45" width="19.381" height="6.82"/>
		<rect x="812.587" y="654.271" class="st46" width="19.382" height="6.818"/>
		<rect x="493.781" y="503.077" class="st42" width="97.925" height="305.853"/>
		<rect x="582.016" y="771.006" class="st44" width="19.38" height="6.82"/>
		<rect x="491.029" y="623.851" class="st47" width="95.831" height="8.986"/>
		<rect x="493.781" y="781.234" class="st45" width="19.382" height="6.822"/>
		<rect x="577.169" y="764.906" class="st45" width="19.381" height="6.819"/>
		<rect x="514.718" y="726.502" class="st45" width="19.381" height="6.819"/>
		<rect x="556.353" y="678.229" class="st45" width="19.382" height="6.819"/>
		<rect x="519.146" y="580.424" class="st45" width="19.379" height="6.818"/>
		<rect x="561.377" y="548.301" class="st45" width="19.382" height="6.819"/>
		<rect x="503.471" y="510.075" class="st45" width="19.382" height="6.82"/>
		<rect x="513.163" y="516.896" class="st44" width="19.379" height="6.818"/>
		<rect x="561.377" y="685.048" class="st44" width="19.382" height="6.818"/>
		<rect x="519.146" y="733.321" class="st44" width="19.379" height="6.82"/>
		<rect x="493.781" y="788.056" class="st44" width="11.606" height="6.819"/>
		<rect x="554.02" y="797.984" class="st44" width="19.381" height="6.819"/>
		<rect x="493.781" y="660.211" class="st44" width="9.69" height="6.818"/>
		<rect x="514.718" y="573.605" class="st44" width="19.381" height="6.819"/>
		<rect x="556.353" y="541.483" class="st44" width="19.382" height="6.818"/>
		<rect x="528.836" y="655.716" class="st48" width="32.542" height="134.314"/>
		<line class="st49" x1="528.836" y1="722.874" x2="561.377" y2="722.874"/>
		<rect x="528.836" y="531.254" class="st48" width="32.542" height="64.603"/>
		<line class="st49" x1="528.836" y1="563.553" x2="561.377" y2="563.553"/>
		<rect x="747.295" y="623.851" class="st47" width="95.83" height="8.986"/>
		<rect x="812.469" y="620.263" class="st50" width="28.774" height="16.161"/>
		<polygon class="st51" points="588.655,507.092 666.36,406.52 743.346,507.092 690.228,527.543 		"/>
		<rect x="586.86" y="499.668" class="st51" width="160.435" height="126.455"/>
		<rect x="586.86" y="621.338" class="st51" width="160.435" height="187.592"/>
		<rect x="583.989" y="609.496" class="st52" width="164.74" height="9.45"/>
		<rect x="727.912" y="777.827" class="st53" width="19.382" height="6.819"/>
		<rect x="735.45" y="784.646" class="st42" width="11.845" height="6.818"/>
		<rect x="699.917" y="754.678" class="st42" width="19.382" height="6.818"/>
		<rect x="695.252" y="761.496" class="st53" width="19.382" height="6.819"/>
		<rect x="708.531" y="714.077" class="st42" width="19.381" height="6.824"/>
		<rect x="611.267" y="771.006" class="st42" width="19.382" height="6.82"/>
		<rect x="605.882" y="777.827" class="st53" width="19.382" height="6.819"/>
		<rect x="615.575" y="695.994" class="st53" width="19.379" height="6.819"/>
		<rect x="599.064" y="568.4" class="st53" width="19.379" height="6.82"/>
		<rect x="716.787" y="527.842" class="st53" width="19.382" height="6.82"/>
		<rect x="651.824" y="478.013" class="st53" width="19.381" height="6.82"/>
		<rect x="680.536" y="496.257" class="st53" width="19.381" height="6.821"/>
		<rect x="611.267" y="714.081" class="st42" width="19.382" height="6.819"/>
		<rect x="704.942" y="794.572" class="st53" width="19.382" height="6.823"/>
		<rect x="586.86" y="794.936" class="st42" width="13.282" height="6.818"/>
		<rect x="586.86" y="735.594" class="st53" width="13.282" height="6.82"/>
		<rect x="586.86" y="742.294" class="st42" width="19.381" height="6.818"/>
		<rect x="735.45" y="678.229" class="st53" width="11.845" height="6.819"/>
		<rect x="586.86" y="654.683" class="st53" width="9.69" height="6.819"/>
		<rect x="711.762" y="649.511" class="st53" width="19.38" height="6.82"/>
		<rect x="707.097" y="655.982" class="st42" width="19.38" height="6.819"/>
		<rect x="711.762" y="534.662" class="st42" width="19.38" height="6.82"/>
		<rect x="593.5" y="575.816" class="st42" width="19.381" height="6.822"/>
		<rect x="737.605" y="594.6" class="st42" width="9.69" height="6.819"/>
		<rect x="642.132" y="470.834" class="st42" width="19.382" height="6.82"/>
		<rect x="623.47" y="496.257" class="st42" width="19.38" height="6.821"/>
		<rect x="623.47" y="675.893" class="st54" width="86.138" height="133.037"/>
		<rect x="630.649" y="683.072" class="st6" width="71.782" height="125.859"/>
		<rect x="666.539" y="683.072" class="st9" width="35.893" height="125.859"/>
		<rect x="618.444" y="632.466" class="st48" width="96.191" height="31.152"/>
		<rect x="666.539" y="632.837" class="st55" width="0" height="29.964"/>
		<polyline class="st56" points="585.083,507.092 667.077,405.632 749.07,507.092 		"/>
		<g>
			<rect x="613.598" y="516.896" class="st48" width="106.958" height="72.501"/>
			<line class="st48" x1="649.202" y1="516.896" x2="649.202" y2="589.397"/>
			<line class="st48" x1="684.88" y1="517.613" x2="684.88" y2="590.114"/>
			<line class="st48" x1="613.598" y1="553.863" x2="720.556" y2="553.863"/>
		</g>
		<rect x="798.262" y="764.906" class="st44" width="19.379" height="6.819"/>
		<rect x="798.262" y="571.99" class="st44" width="19.379" height="6.818"/>
		<rect x="756.387" y="543.274" class="st44" width="19.381" height="6.821"/>
		<rect x="793.235" y="758.085" class="st45" width="19.382" height="6.82"/>
		<rect x="763.088" y="550.454" class="st45" width="19.379" height="6.82"/>
		<rect x="798.262" y="606.086" class="st45" width="19.379" height="6.819"/>
		<rect x="758.9" y="794.572" class="st45" width="19.381" height="6.823"/>
		<rect x="768.591" y="650.334" class="st48" width="32.542" height="134.312"/>
		<line class="st49" x1="768.591" y1="717.489" x2="801.133" y2="717.489"/>
		<rect x="770.386" y="527.543" class="st48" width="32.542" height="64.604"/>
		<line class="st49" x1="770.386" y1="559.844" x2="802.927" y2="559.844"/>
	</g>
	<g id="building_1_1_">
		<path class="st2" d="M1154.383,469.344l-24.26-158.771c-0.516-3.381-3.425-5.878-6.842-5.878H846.274
			c-3.419,0-6.327,2.497-6.842,5.878l-24.26,158.768c-0.313,2.044,0.306,4.123,1.686,5.664c1.38,1.541,3.383,2.386,5.443,2.299
			l158.041,6.932l166.907-6.93c0.1,0.004,0.193,0.004,0.288,0.004c1.965,0,3.843-0.835,5.157-2.304
			C1154.077,473.466,1154.695,471.388,1154.383,469.344z"/>
		<path class="st57" d="M1142.7,477.528h-29.177c0,0-2.351-47.057-59.288-47.057v-35.29H1040c0,0-3.151-46.217-54.549-47.018
			c-0.006-0.01-0.016-0.034-0.02-0.036c-0.222,0-0.43,0.016-0.654,0.018c-0.224-0.002-0.431-0.018-0.655-0.018
			c-0.004,0.002-0.014,0.026-0.02,0.036c-51.397,0.801-54.549,47.018-54.549,47.018h-14.234v35.29
			c-56.938,0-59.29,47.057-59.29,47.057h-29.175v15.998l149.647,25.583l1.033,2.651l7.243-1.238l7.243,1.238l1.036-2.651
			l149.644-25.583V477.528z"/>
		<path class="st58" d="M984.777,513.24l-2.68,0.457l-0.382-0.981l-147.682-16.038v-11.972h28.826l0.342-6.817
			c0.094-1.613,2.972-40.239,52.119-40.239h7.178v-35.29h13.762l0.457-6.691c0.12-1.589,3.54-39.642,47.497-40.326l0.563-0.01
			l0.563,0.01c43.961,0.685,47.378,38.737,47.504,40.357l0.505,6.629l6.653,0.032h7.054v35.29h7.18
			c20.777,0,35.803,6.66,44.669,19.798c6.754,10.014,7.447,20.371,7.452,20.473l0.405,6.75l6.761,0.036h21.998v11.252
			l-147.676,16.758l-0.382,0.981L984.777,513.24z"/>
		<rect x="1049.98" y="463.658" class="st59" width="19.86" height="14.355"/>
		<rect x="935.304" y="449.3" class="st59" width="19.86" height="14.358"/>
		<rect x="1020.726" y="430.396" class="st59" width="19.859" height="14.358"/>
		<rect x="1062.901" y="478.013" class="st60" width="19.858" height="14.358"/>
		<rect x="974.249" y="370.817" class="st60" width="19.86" height="14.356"/>
		<rect x="885.596" y="463.658" class="st60" width="19.861" height="14.355"/>
		<rect x="928.604" y="463.658" class="st60" width="19.859" height="14.355"/>
		<rect x="1012.624" y="416.041" class="st60" width="19.858" height="14.355"/>
		<g>
			<path class="st61" d="M984.776,525.114c-19.49,0-35.347-15.856-35.347-35.347v-55.689c0-19.491,15.856-35.347,35.347-35.347
				c19.491,0,35.348,15.856,35.348,35.347v55.689C1020.124,509.257,1004.268,525.114,984.776,525.114z"/>
			<path class="st2" d="M984.777,401.16c18.151,0,32.917,14.767,32.917,32.917v55.689c0,18.151-14.767,32.917-32.917,32.917
				c-18.151,0-32.917-14.767-32.917-32.917v-55.689C951.859,415.927,966.626,401.16,984.777,401.16 M984.777,396.301
				c-20.864,0-37.777,16.913-37.777,37.777v55.689c0,20.864,16.913,37.777,37.777,37.777s37.777-16.913,37.777-37.777v-55.689
				C1022.553,413.214,1005.641,396.301,984.777,396.301L984.777,396.301z"/>
		</g>
		<rect x="826.854" y="511.271" class="st58" width="315.846" height="297.659"/>
		<g>
			<g>
				<rect x="1048.423" y="539.866" class="st62" width="73.219" height="99.06"/>
				<line class="st63" x1="1072.83" y1="539.866" x2="1072.83" y2="638.926"/>
				<line class="st63" x1="1097.235" y1="539.866" x2="1097.235" y2="638.926"/>
				<line class="st63" x1="1048.423" y1="564.632" x2="1121.642" y2="564.632"/>
				<rect x="1072.83" y="564.632" class="st63" width="24.406" height="24.765"/>
				<line class="st63" x1="1048.423" y1="589.397" x2="1121.642" y2="589.397"/>
				<rect x="1072.83" y="589.397" class="st63" width="24.406" height="24.765"/>
				<line class="st63" x1="1048.423" y1="614.161" x2="1121.642" y2="614.161"/>
			</g>
			<g>
				<rect x="846.712" y="539.866" class="st62" width="73.221" height="99.06"/>
				<line class="st63" x1="871.121" y1="539.866" x2="871.121" y2="638.926"/>
				<line class="st63" x1="895.528" y1="539.866" x2="895.528" y2="638.926"/>
				<line class="st63" x1="846.712" y1="564.632" x2="919.933" y2="564.632"/>
				<rect x="871.121" y="564.632" class="st63" width="24.407" height="24.765"/>
				<line class="st63" x1="846.712" y1="589.397" x2="919.933" y2="589.397"/>
				<rect x="871.121" y="589.397" class="st63" width="24.407" height="24.765"/>
				<line class="st63" x1="846.712" y1="614.161" x2="919.933" y2="614.161"/>
			</g>
		</g>
		<g>
			<g>
				<rect x="1048.423" y="683.791" class="st62" width="73.219" height="99.057"/>
				<line class="st63" x1="1072.83" y1="683.791" x2="1072.83" y2="782.849"/>
				<line class="st63" x1="1097.235" y1="683.791" x2="1097.235" y2="782.849"/>
				<line class="st63" x1="1048.423" y1="708.556" x2="1121.642" y2="708.556"/>
				<rect x="1072.83" y="708.556" class="st63" width="24.406" height="24.765"/>
				<line class="st63" x1="1048.423" y1="733.321" x2="1121.642" y2="733.321"/>
				<rect x="1072.83" y="733.321" class="st63" width="24.406" height="24.765"/>
				<line class="st63" x1="1048.423" y1="758.085" x2="1121.642" y2="758.085"/>
			</g>
			<g>
				<rect x="846.712" y="683.791" class="st62" width="73.221" height="99.057"/>
				<line class="st63" x1="871.121" y1="683.791" x2="871.121" y2="782.849"/>
				<line class="st63" x1="895.528" y1="683.791" x2="895.528" y2="782.849"/>
				<line class="st63" x1="846.712" y1="708.556" x2="919.933" y2="708.556"/>
				<rect x="871.121" y="708.556" class="st63" width="24.407" height="24.765"/>
				<line class="st63" x1="846.712" y1="733.321" x2="919.933" y2="733.321"/>
				<rect x="871.121" y="733.321" class="st63" width="24.407" height="24.765"/>
				<line class="st63" x1="846.712" y1="758.085" x2="919.933" y2="758.085"/>
			</g>
		</g>
		<g>
			<rect x="935.304" y="684.21" class="st6" width="97.929" height="124.72"/>
			<rect x="984.268" y="683.791" class="st9" width="48.965" height="125.139"/>
			<rect x="931.296" y="675.893" class="st64" width="105.762" height="11.486"/>
			<g>
				<path class="st65" d="M938.058,681.294c-0.011-0.374-0.016-0.737-0.016-1.092c0-25.44,20.696-46.137,46.136-46.137
					c25.441,0,46.139,20.696,46.139,46.137c0,0.354-0.005,0.718-0.016,1.092H938.058z"/>
				<path class="st3" d="M984.178,636.98c23.222,0,42.226,18.408,43.185,41.398h-86.368
					C941.955,655.388,960.957,636.98,984.178,636.98 M984.178,631.149c-27.09,0-49.052,21.963-49.052,49.053
					c0,1.352,0.071,2.683,0.177,4.008h97.752c0.107-1.324,0.177-2.656,0.177-4.008
					C1033.233,653.112,1011.271,631.149,984.178,631.149L984.178,631.149z"/>
			</g>
		</g>
		<rect x="822.278" y="494.521" class="st66" width="323.979" height="16.75"/>
		<rect x="826.854" y="645.744" class="st60" width="19.858" height="14.356"/>
		<rect x="826.854" y="794.572" class="st60" width="19.858" height="14.358"/>
		<rect x="935.304" y="606.984" class="st59" width="19.86" height="14.354"/>
		<rect x="1007.718" y="572.051" class="st59" width="19.86" height="14.354"/>
		<rect x="937.369" y="546.686" class="st59" width="19.861" height="14.355"/>
		<rect x="826.854" y="660.102" class="st59" width="26.856" height="14.358"/>
		<rect x="1115.84" y="794.572" class="st59" width="26.857" height="14.358"/>
		<rect x="1122.84" y="657.679" class="st60" width="19.86" height="14.358"/>
		<rect x="1013.371" y="618.946" class="st60" width="19.861" height="14.358"/>
		<rect x="1016.21" y="557.454" class="st60" width="19.86" height="14.355"/>
		<rect x="945.233" y="561.041" class="st60" width="19.86" height="14.356"/>
		<rect x="1072.83" y="513.185" class="st60" width="19.858" height="14.358"/>
		<rect x="1132.769" y="672.037" class="st59" width="9.931" height="14.355"/>
		<g>
			<path class="st61" d="M984.268,595.582c-17.065,0-30.949-13.884-30.949-30.95c0-17.064,13.883-30.948,30.949-30.948
				c17.064,0,30.948,13.884,30.948,30.948C1015.216,581.698,1001.332,595.582,984.268,595.582z"/>
			<path class="st2" d="M984.268,536.113c15.725,0,28.519,12.794,28.519,28.519c0,15.726-12.794,28.52-28.519,28.52
				c-15.725,0-28.519-12.794-28.519-28.52C955.749,548.907,968.542,536.113,984.268,536.113 M984.268,531.254
				c-18.433,0-33.378,14.941-33.378,33.378c0,18.433,14.945,33.38,33.378,33.38c18.435,0,33.378-14.946,33.378-33.38
				C1017.646,546.194,1002.702,531.254,984.268,531.254L984.268,531.254z"/>
		</g>
	</g>
</g>
<path class="st2" d="M1716.879,829.51c0,11.366-9.211,20.577-20.578,20.577H242.311c-11.365,0-20.58-9.211-20.58-20.577l0,0
	c0-11.365,9.215-20.58,20.58-20.58H1696.3C1707.668,808.93,1716.879,818.146,1716.879,829.51L1716.879,829.51z"/>
<path class="st27" d="M1575.309,865.162c0,8.324-6.747,15.073-15.073,15.073H394.481c-8.325,0-15.075-6.75-15.075-15.073l0,0
	c0-8.325,6.75-15.075,15.075-15.075h1165.754C1568.562,850.087,1575.309,856.837,1575.309,865.162L1575.309,865.162z"/>
<path class="st27" d="M1238.167,978.578c0,7.535-4.604,13.64-10.286,13.64H662.585c-5.682,0-10.287-6.105-10.287-13.64l0,0
	c0-7.532,4.605-13.638,10.287-13.638h565.296C1233.563,964.94,1238.167,971.047,1238.167,978.578L1238.167,978.578z"/>
<path class="st27" d="M935.127,934.811H185.594c-7.533,0-13.639-6.105-13.639-13.64l0,0c0-7.532,6.106-13.638,13.639-13.638h749.533
	h749.533c7.533,0,13.638,6.106,13.638,13.638l0,0c0,7.535-6.105,13.64-13.638,13.64H935.127z"/>
<path class="st2" d="M1140.108,964.94H504.944c-6.018,0-10.895-6.743-10.895-15.065l0,0c0-8.319,4.877-15.064,10.895-15.064h635.163
	h523.868c6.65,0,12.04,6.747,12.04,15.065l0,0c0,8.319-5.39,15.065-12.04,15.065H1140.108z"/>
<path class="st2" d="M1077.707,907.51H282.444c-7.535,0-13.641-6.105-13.641-13.64l0,0c0-7.532,6.106-13.638,13.641-13.638h795.264
	h655.915c8.327,0,15.075,6.108,15.075,13.639l0,0c0,7.532-6.748,13.639-15.075,13.639H1077.707z"/>
<path class="st2" d="M1058.939,1007.293c0,8.325-6.75,15.075-15.075,15.075H904.633c-8.327,0-15.075-6.75-15.075-15.075l0,0
	c0-8.329,6.748-15.075,15.075-15.075h139.231C1052.189,992.218,1058.939,998.964,1058.939,1007.293L1058.939,1007.293z"/>
<g id="christmas_trees_1_">
	<g>
		<g>
			<rect x="262.63" y="773.306" class="st67" width="25.339" height="35.695"/>
			<path class="st68" d="M343.961,750.549l-20.698-26.875l-47.963-62.27l-47.964,62.27l-20.7,26.875l-0.02,0.026l0.03,0.006
				c3.224,10.13,15.63,17.685,30.481,17.685c2.512,0,4.942-0.24,7.284-0.646c2.395,10.896,15.291,19.231,30.888,19.231
				c15.594,0,28.492-8.335,30.887-19.231c2.34,0.407,4.772,0.646,7.285,0.646c14.848,0,27.257-7.555,30.48-17.685l0.029-0.006
				L343.961,750.549z"/>
			<path class="st69" d="M337.882,728.974l-18.867-24.495L275.3,647.724l-43.717,56.755l-18.864,24.495l-0.02,0.024l0.029,0.006
				c2.937,9.231,14.247,16.118,27.781,16.118c2.291,0,4.507-0.219,6.64-0.59c2.181,9.932,13.935,17.527,28.152,17.527
				c14.212,0,25.969-7.595,28.151-17.527c2.133,0.371,4.349,0.59,6.639,0.59c13.536,0,24.846-6.887,27.781-16.118l0.029-0.006
				L337.882,728.974z"/>
			<path class="st70" d="M329.284,706.837l-16.275-21.131L275.3,636.748l-37.712,48.958l-16.275,21.131l-0.016,0.02l0.023,0.006
				c2.536,7.962,12.292,13.905,23.968,13.905c1.974,0,3.886-0.19,5.727-0.511c1.88,8.569,12.021,15.121,24.284,15.121
				c12.262,0,22.4-6.552,24.284-15.121c1.839,0.32,3.751,0.511,5.728,0.511c11.675,0,21.43-5.943,23.963-13.905l0.025-0.006
				L329.284,706.837z"/>
			<rect x="275.3" y="773.306" class="st71" width="12.669" height="35.695"/>
			<path class="st72" d="M306.187,767.619c2.34,0.407,4.772,0.646,7.285,0.646c14.848,0,27.257-7.555,30.48-17.685l0.029-0.006
				l-0.02-0.026l-20.698-26.875l-47.963-62.27V786.85C290.895,786.85,303.793,778.518,306.187,767.619z"/>
			<path class="st68" d="M303.451,744.532c2.133,0.371,4.349,0.59,6.639,0.59c13.536,0,24.846-6.887,27.781-16.118l0.029-0.006
				l-0.017-0.024l-18.867-24.495L275.3,647.724V762.06C289.512,762.06,301.269,754.464,303.451,744.532z"/>
			<path class="st69" d="M299.585,720.257c1.839,0.32,3.751,0.508,5.726,0.508c11.676,0,21.432-5.94,23.966-13.902l0.025-0.006
				l-0.016-0.02l-16.275-21.131l-37.71-48.958v98.63C287.562,735.378,297.701,728.826,299.585,720.257z"/>
		</g>
		<circle class="st73" cx="269.382" cy="695.467" r="6.752"/>
		<circle class="st74" cx="290.293" cy="708.973" r="6.752"/>
		<circle class="st75" cx="287.969" cy="677.011" r="6.752"/>
		<circle class="st75" cx="238.48" cy="724.128" r="6.752"/>
		<circle class="st73" cx="258.585" cy="762.06" r="6.752"/>
		<circle class="st73" cx="309.828" cy="749.525" r="6.752"/>
		<circle class="st74" cx="272.09" cy="742.772" r="6.753"/>
	</g>
	<g>
		<g>
			<rect x="1663.672" y="773.238" class="st67" width="25.337" height="35.692"/>
			<path class="st68" d="M1745.005,750.482l-20.699-26.875l-47.964-62.272l-47.964,62.272l-20.699,26.875l-0.017,0.023l0.027,0.009
				c3.224,10.128,15.63,17.685,30.482,17.685c2.513,0,4.944-0.24,7.285-0.649c2.395,10.899,15.291,19.234,30.887,19.234
				s28.492-8.335,30.885-19.234c2.343,0.41,4.775,0.649,7.286,0.649c14.848,0,27.257-7.556,30.481-17.685l0.028-0.009
				L1745.005,750.482z"/>
			<path class="st69" d="M1738.923,728.906l-18.866-24.495l-43.716-56.758l-43.716,56.758l-18.866,24.495l-0.019,0.021l0.029,0.006
				c2.936,9.234,14.244,16.118,27.781,16.118c2.289,0,4.507-0.218,6.642-0.59c2.178,9.934,13.934,17.53,28.149,17.53
				c14.215,0,25.971-7.596,28.152-17.53c2.132,0.372,4.349,0.59,6.639,0.59c13.536,0,24.845-6.884,27.781-16.118l0.029-0.006
				L1738.923,728.906z"/>
			<path class="st70" d="M1730.326,706.767l-16.275-21.129l-37.71-48.961l-37.71,48.961l-16.275,21.129l-0.016,0.02l0.025,0.004
				c2.533,7.964,12.289,13.905,23.964,13.905c1.976,0,3.886-0.188,5.73-0.511c1.88,8.569,12.021,15.121,24.283,15.121
				s22.402-6.552,24.283-15.121c1.841,0.323,3.754,0.511,5.73,0.511c11.675,0,21.431-5.94,23.964-13.905l0.025-0.004
				L1730.326,706.767z"/>
			<rect x="1676.341" y="773.238" class="st71" width="12.669" height="35.692"/>
			<path class="st72" d="M1707.226,767.549c2.343,0.41,4.775,0.649,7.286,0.649c14.848,0,27.257-7.556,30.481-17.685l0.028-0.009
				l-0.017-0.023l-20.699-26.875l-47.964-62.272v125.448C1691.937,786.782,1704.833,778.447,1707.226,767.549z"/>
			<path class="st68" d="M1704.493,744.462c2.132,0.372,4.349,0.59,6.639,0.59c13.536,0,24.845-6.887,27.781-16.118l0.029-0.006
				l-0.019-0.021l-18.866-24.495l-43.716-56.758v114.338C1690.556,761.992,1702.312,754.395,1704.493,744.462z"/>
			<path class="st69" d="M1700.624,720.186c1.841,0.323,3.754,0.511,5.73,0.511c11.675,0,21.431-5.94,23.964-13.905l0.025-0.004
				l-0.016-0.02l-16.275-21.131l-37.71-48.96v98.63C1688.603,735.307,1698.743,728.755,1700.624,720.186z"/>
		</g>
		<circle class="st73" cx="1670.423" cy="695.398" r="6.752"/>
		<circle class="st74" cx="1691.334" cy="708.903" r="6.753"/>
		<ellipse class="st75" cx="1689.01" cy="676.941" rx="6.751" ry="6.753"/>
		<circle class="st75" cx="1639.522" cy="724.057" r="6.752"/>
		<circle class="st73" cx="1659.625" cy="761.992" r="6.752"/>
		<circle class="st73" cx="1710.87" cy="749.455" r="6.753"/>
		<circle class="st74" cx="1673.131" cy="742.702" r="6.752"/>
	</g>
	<g>
		<g>
			<rect x="1348.878" y="814.393" class="st67" width="25.337" height="35.694"/>
			<path class="st68" d="M1430.21,791.637l-20.7-26.875l-47.964-62.271l-47.964,62.271l-20.697,26.875l-0.02,0.025l0.029,0.009
				c3.223,10.128,15.632,17.683,30.48,17.683c2.513,0,4.944-0.24,7.285-0.648c2.395,10.899,15.291,19.232,30.887,19.232
				c15.596,0,28.494-8.334,30.885-19.232c2.343,0.408,4.775,0.648,7.286,0.648c14.851,0,27.257-7.555,30.482-17.683l0.027-0.009
				L1430.21,791.637z"/>
			<path class="st69" d="M1424.128,770.062l-18.866-24.496l-43.716-56.756l-43.716,56.756l-18.866,24.496l-0.019,0.023l0.029,0.006
				c2.937,9.231,14.244,16.118,27.781,16.118c2.289,0,4.507-0.218,6.64-0.59c2.18,9.933,13.935,17.529,28.15,17.529
				c14.215,0,25.971-7.595,28.152-17.529c2.132,0.372,4.349,0.59,6.639,0.59c13.536,0,24.845-6.887,27.781-16.118l0.029-0.006
				L1424.128,770.062z"/>
			<path class="st70" d="M1415.532,747.924l-16.275-21.132l-37.71-48.96l-37.71,48.96l-16.275,21.132l-0.016,0.02l0.023,0.003
				c2.535,7.964,12.291,13.905,23.965,13.905c1.976,0,3.889-0.189,5.73-0.509c1.88,8.569,12.021,15.121,24.283,15.121
				c12.263,0,22.402-6.552,24.283-15.121c1.842,0.32,3.754,0.509,5.73,0.509c11.675,0,21.431-5.941,23.964-13.905l0.024-0.003
				L1415.532,747.924z"/>
			<rect x="1361.547" y="814.393" class="st71" width="12.669" height="35.694"/>
			<path class="st72" d="M1392.432,808.705c2.343,0.408,4.775,0.648,7.286,0.648c14.851,0,27.257-7.555,30.482-17.683l0.027-0.009
				l-0.017-0.025l-20.7-26.875l-47.964-62.271v125.448C1377.142,827.938,1390.041,819.604,1392.432,808.705z"/>
			<path class="st68" d="M1389.698,785.618c2.132,0.372,4.349,0.59,6.639,0.59c13.536,0,24.845-6.887,27.781-16.118l0.029-0.006
				l-0.019-0.023l-18.866-24.496l-43.716-56.756v114.338C1375.762,803.147,1387.517,795.552,1389.698,785.618z"/>
			<path class="st69" d="M1385.83,761.343c1.842,0.32,3.754,0.509,5.73,0.509c11.675,0,21.431-5.941,23.964-13.905l0.024-0.003
				l-0.016-0.02l-16.275-21.132l-37.71-48.96v98.632C1373.809,776.464,1383.948,769.912,1385.83,761.343z"/>
		</g>
		<circle class="st73" cx="1355.63" cy="736.554" r="6.752"/>
		<circle class="st74" cx="1376.54" cy="750.058" r="6.752"/>
		<circle class="st75" cx="1374.216" cy="718.097" r="6.752"/>
		<circle class="st75" cx="1324.728" cy="765.214" r="6.752"/>
		<circle class="st73" cx="1344.831" cy="803.147" r="6.752"/>
		<circle class="st73" cx="1396.075" cy="790.61" r="6.753"/>
		<circle class="st74" cx="1358.337" cy="783.858" r="6.752"/>
	</g>
	<g>
		<g>
			<rect x="830.455" y="871.907" class="st67" width="25.34" height="35.692"/>
			<path class="st68" d="M911.788,849.151l-20.701-26.875l-47.963-62.272l-47.963,62.272l-20.701,26.875l-0.02,0.026l0.033,0.006
				c3.221,10.13,15.63,17.684,30.479,17.684c2.513,0,4.944-0.239,7.285-0.646c2.393,10.896,15.291,19.231,30.887,19.231
				c15.596,0,28.494-8.335,30.885-19.231c2.343,0.407,4.774,0.646,7.286,0.646c14.848,0,27.258-7.555,30.479-17.684l0.033-0.006
				L911.788,849.151z"/>
			<path class="st69" d="M905.706,827.576l-18.866-24.495l-43.716-56.757l-43.716,56.757l-18.866,24.495l-0.019,0.022l0.029,0.009
				c2.937,9.231,14.247,16.118,27.781,16.118c2.289,0,4.504-0.219,6.639-0.59c2.182,9.931,13.935,17.527,28.152,17.527
				c14.215,0,25.969-7.597,28.152-17.527c2.135,0.371,4.349,0.59,6.639,0.59c13.534,0,24.844-6.887,27.781-16.118l0.029-0.009
				L905.706,827.576z"/>
			<path class="st70" d="M897.11,805.436l-16.275-21.129l-37.71-48.961l-37.71,48.961l-16.275,21.129l-0.016,0.02l0.026,0.006
				c2.533,7.963,12.288,13.904,23.963,13.904c1.976,0,3.886-0.188,5.727-0.509c1.884,8.568,12.022,15.122,24.286,15.122
				c12.263,0,22.402-6.555,24.286-15.122c1.841,0.322,3.751,0.509,5.727,0.509c11.675,0,21.429-5.94,23.964-13.904l0.025-0.006
				L897.11,805.436z"/>
			<rect x="843.125" y="871.907" class="st71" width="12.67" height="35.692"/>
			<path class="st72" d="M874.01,866.221c2.343,0.407,4.774,0.646,7.286,0.646c14.848,0,27.258-7.555,30.479-17.684l0.033-0.006
				l-0.02-0.026l-20.701-26.875l-47.963-62.27v125.446C858.72,885.452,871.618,877.116,874.01,866.221z"/>
			<path class="st68" d="M871.276,843.131c2.135,0.374,4.349,0.593,6.639,0.593c13.534,0,24.844-6.887,27.781-16.118l0.029-0.009
				l-0.019-0.022l-18.866-24.495l-43.716-56.757v114.337C857.34,860.661,869.094,853.064,871.276,843.131z"/>
			<path class="st69" d="M867.41,818.857c1.841,0.322,3.751,0.509,5.727,0.509c11.675,0,21.429-5.94,23.963-13.904l0.026-0.006
				l-0.016-0.02l-16.275-21.129l-37.71-48.961v98.633C855.388,833.979,865.526,827.424,867.41,818.857z"/>
		</g>
		<circle class="st73" cx="837.208" cy="794.068" r="6.753"/>
		<circle class="st74" cx="858.118" cy="807.573" r="6.752"/>
		<circle class="st75" cx="855.794" cy="775.612" r="6.752"/>
		<circle class="st75" cx="806.306" cy="822.728" r="6.753"/>
		<circle class="st73" cx="826.41" cy="860.661" r="6.752"/>
		<circle class="st73" cx="877.652" cy="848.125" r="6.753"/>
		<circle class="st74" cx="839.915" cy="841.372" r="6.753"/>
	</g>
	<g>
		<g>
			<rect x="496.924" y="845.006" class="st67" width="25.34" height="35.695"/>
			<path class="st68" d="M578.258,822.25l-20.701-26.875l-47.963-62.272l-47.963,62.272l-20.7,26.875l-0.019,0.026l0.03,0.006
				c3.221,10.13,15.63,17.685,30.48,17.685c2.513,0,4.942-0.24,7.285-0.646c2.392,10.896,15.29,19.231,30.885,19.231
				c15.598,0,28.494-8.335,30.887-19.231c2.341,0.407,4.772,0.646,7.285,0.646c14.85,0,27.257-7.555,30.48-17.685l0.032-0.006
				L578.258,822.25z"/>
			<path class="st69" d="M572.176,800.674L553.31,776.18l-43.716-56.757l-43.716,56.757l-18.866,24.495l-0.016,0.024l0.029,0.006
				c2.936,9.231,14.244,16.118,27.778,16.118c2.289,0,4.505-0.219,6.64-0.59c2.183,9.931,13.937,17.527,28.151,17.527
				c14.218,0,25.97-7.596,28.152-17.527c2.135,0.371,4.349,0.59,6.642,0.59c13.531,0,24.841-6.887,27.78-16.118l0.027-0.006
				L572.176,800.674z"/>
			<path class="st70" d="M563.583,778.535l-16.276-21.129l-37.712-48.96l-37.711,48.96l-16.275,21.129l-0.013,0.02l0.023,0.007
				c2.533,7.962,12.288,13.904,23.964,13.904c1.976,0,3.886-0.189,5.728-0.509c1.881,8.569,12.019,15.121,24.283,15.121
				c12.265,0,22.405-6.552,24.286-15.121c1.841,0.32,3.752,0.509,5.727,0.509c11.675,0,21.432-5.942,23.966-13.904l0.023-0.007
				L563.583,778.535z"/>
			<rect x="509.595" y="845.006" class="st71" width="12.67" height="35.695"/>
			<path class="st72" d="M540.481,839.32c2.341,0.407,4.772,0.646,7.285,0.646c14.85,0,27.257-7.555,30.48-17.685l0.032-0.006
				l-0.02-0.026l-20.701-26.875l-47.963-62.27v125.446C525.193,858.551,538.088,850.215,540.481,839.32z"/>
			<path class="st68" d="M537.746,816.233c2.135,0.371,4.349,0.59,6.642,0.59c13.531,0,24.841-6.887,27.78-16.118l0.027-0.006
				l-0.019-0.024L553.31,776.18l-43.716-56.757V833.76C523.813,833.76,535.565,826.163,537.746,816.233z"/>
			<path class="st69" d="M533.88,791.957c1.841,0.32,3.752,0.508,5.727,0.508c11.675,0,21.432-5.941,23.966-13.902l0.023-0.007
				l-0.016-0.02l-16.274-21.129l-37.712-48.96v98.632C521.859,807.078,531.998,800.526,533.88,791.957z"/>
		</g>
		<circle class="st73" cx="503.678" cy="767.167" r="6.753"/>
		<circle class="st74" cx="524.589" cy="780.672" r="6.752"/>
		<circle class="st75" cx="522.265" cy="748.711" r="6.752"/>
		<circle class="st75" cx="472.776" cy="795.828" r="6.752"/>
		<circle class="st73" cx="492.88" cy="833.76" r="6.753"/>
		<circle class="st73" cx="544.124" cy="821.224" r="6.752"/>
		<circle class="st74" cx="506.385" cy="814.472" r="6.753"/>
	</g>
</g>
<g id="candy_canes_1_">
	<g id="candy_cane_2_4_">
		<defs>
			<path id="SVGID_2_" d="M588.903,868.077c5.244-0.036,9.476-5.278,9.452-11.715l-0.711-169.351
				c-0.078-18.843-12.641-34.103-28.008-34.001c-15.366,0.097-27.801,15.508-27.725,34.352c0.025,6.44,4.302,11.628,9.549,11.594
				c5.244-0.036,9.476-5.277,9.453-11.709c-0.024-6.001,3.93-10.901,8.824-10.93c4.89-0.038,8.888,4.817,8.908,10.819l0.71,169.345
				C579.378,862.92,583.655,868.109,588.903,868.077z"/>
		</defs>
		<clipPath id="SVGID_3_">
			<use xlink:href="#SVGID_2_"  style="overflow:visible;"/>
		</clipPath>
		<g class="st76">
			<path class="st2" d="M588.903,868.077c5.244-0.036,9.476-5.278,9.452-11.715l-0.711-169.351
				c-0.078-18.843-12.641-34.103-28.008-34.001c-15.366,0.097-27.801,15.508-27.725,34.352c0.025,6.44,4.302,11.628,9.549,11.594
				c5.244-0.036,9.476-5.277,9.453-11.709c-0.024-6.001,3.93-10.901,8.824-10.93c4.89-0.038,8.888,4.817,8.908,10.819l0.71,169.345
				C579.378,862.92,583.655,868.109,588.903,868.077z"/>
		</g>
		<polygon class="st77" points="573.669,861.691 607.891,846.978 603.477,831.541 569.256,846.257 		"/>
		<polygon class="st77" points="573.541,829.835 607.759,815.125 603.344,799.692 569.124,814.406 		"/>
		<polygon class="st77" points="573.401,797.984 607.626,783.274 603.212,767.837 568.995,782.549 		"/>
		<polygon class="st77" points="573.274,766.132 607.493,751.424 603.079,735.987 568.862,750.695 		"/>
		<polygon class="st77" points="573.135,734.283 607.361,719.569 602.946,704.136 568.73,718.847 		"/>
		<polygon class="st77" points="573.003,702.43 607.225,687.715 602.813,672.283 568.596,686.992 		"/>
		<polygon class="st77" points="567.332,687.753 533.375,672.143 527.989,689.764 561.945,705.369 		"/>
		<polygon class="st77" points="562.68,643.821 563.366,688.284 576.696,687.978 576.015,643.513 		"/>
	</g>
	<g id="candy_cane_2_3_">
		<defs>
			<path id="SVGID_4_" d="M1265.793,923.511c5.244-0.039,9.476-5.28,9.452-11.716l-0.71-169.349
				c-0.077-18.844-12.641-34.102-28.009-34.002c-15.365,0.097-27.801,15.506-27.725,34.351c0.025,6.438,4.302,11.63,9.548,11.595
				c5.244-0.036,9.478-5.279,9.454-11.709c-0.026-6.001,3.93-10.903,8.823-10.93c4.89-0.039,8.888,4.817,8.908,10.819l0.71,169.344
				C1256.268,918.354,1260.545,923.543,1265.793,923.511z"/>
		</defs>
		<clipPath id="SVGID_5_">
			<use xlink:href="#SVGID_4_"  style="overflow:visible;"/>
		</clipPath>
		<g class="st78">
			<path class="st2" d="M1265.793,923.511c5.244-0.039,9.476-5.28,9.452-11.716l-0.71-169.349
				c-0.077-18.844-12.641-34.102-28.009-34.002c-15.365,0.097-27.801,15.506-27.725,34.351c0.025,6.438,4.302,11.63,9.548,11.595
				c5.244-0.036,9.478-5.279,9.454-11.709c-0.026-6.001,3.93-10.903,8.823-10.93c4.89-0.039,8.888,4.817,8.908,10.819l0.71,169.344
				C1256.268,918.354,1260.545,923.543,1265.793,923.511z"/>
		</g>
		<polygon class="st79" points="1250.559,917.125 1284.782,902.411 1280.37,886.974 1246.147,901.688 		"/>
		<polygon class="st79" points="1250.432,885.268 1284.649,870.556 1280.237,855.123 1246.014,869.837 		"/>
		<polygon class="st79" points="1250.291,853.418 1284.516,838.705 1280.102,823.271 1245.885,837.981 		"/>
		<polygon class="st79" points="1250.164,821.563 1284.384,806.856 1279.969,791.419 1245.753,806.127 		"/>
		<polygon class="st79" points="1250.026,789.715 1284.251,775.003 1279.836,759.568 1245.62,774.281 		"/>
		<polygon class="st79" points="1249.893,757.863 1284.115,743.148 1279.704,727.714 1245.487,742.426 		"/>
		<polygon class="st79" points="1244.222,743.185 1210.267,727.575 1204.879,745.197 1238.836,760.803 		"/>
		<polygon class="st79" points="1239.573,699.254 1240.26,743.717 1253.586,743.411 1252.905,698.946 		"/>
	</g>
	<g id="candy_cane_2_2_">
		<defs>
			<path id="SVGID_6_" d="M1042.149,869.029c-5.247-0.036-9.479-5.277-9.454-11.714l0.713-169.352
				c0.076-18.841,12.64-34.1,28.006-34.002c15.368,0.097,27.804,15.508,27.725,34.352c-0.023,6.44-4.3,11.629-9.547,11.597
				c-5.245-0.036-9.478-5.278-9.453-11.712c0.023-6-3.931-10.9-8.824-10.928c-4.891-0.039-8.889,4.814-8.909,10.819l-0.708,169.345
				C1051.672,863.872,1047.395,869.064,1042.149,869.029z"/>
		</defs>
		<clipPath id="SVGID_7_">
			<use xlink:href="#SVGID_6_"  style="overflow:visible;"/>
		</clipPath>
		<g class="st80">
			<path class="st2" d="M1042.149,869.029c-5.247-0.036-9.479-5.277-9.454-11.714l0.713-169.352
				c0.076-18.841,12.64-34.1,28.006-34.002c15.368,0.097,27.804,15.508,27.725,34.352c-0.023,6.44-4.3,11.629-9.547,11.597
				c-5.245-0.036-9.478-5.278-9.453-11.712c0.023-6-3.931-10.9-8.824-10.928c-4.891-0.039-8.889,4.814-8.909,10.819l-0.708,169.345
				C1051.672,863.872,1047.395,869.064,1042.149,869.029z"/>
		</g>
		<polygon class="st81" points="1057.383,862.644 1023.158,847.932 1027.572,832.495 1061.794,847.209 		"/>
		<polygon class="st81" points="1057.51,830.79 1023.292,816.077 1027.705,800.644 1061.927,815.358 		"/>
		<polygon class="st81" points="1057.648,798.936 1023.423,784.226 1027.838,768.789 1062.054,783.502 		"/>
		<polygon class="st81" points="1057.777,767.084 1023.556,752.376 1027.97,736.939 1062.19,751.647 		"/>
		<polygon class="st81" points="1057.914,735.238 1023.692,720.521 1028.103,705.088 1062.321,719.799 		"/>
		<polygon class="st81" points="1058.047,703.383 1023.826,688.669 1028.236,673.235 1062.455,687.947 		"/>
		<polygon class="st81" points="1063.717,688.705 1097.675,673.096 1103.062,690.716 1069.107,706.323 		"/>
		<polygon class="st81" points="1068.37,644.774 1067.683,689.239 1054.356,688.933 1055.034,644.465 		"/>
	</g>
	<g id="candy_cane_2_1_">
		<defs>
			<path id="SVGID_8_" d="M346.284,897.563c-5.248-0.036-9.481-5.277-9.455-11.714l0.711-169.352
				c0.077-18.841,12.641-34.1,28.006-34.001c15.369,0.097,27.806,15.508,27.728,34.352c-0.026,6.44-4.302,11.63-9.547,11.597
				c-5.248-0.036-9.479-5.278-9.457-11.712c0.026-6-3.928-10.9-8.823-10.928c-4.89-0.04-8.888,4.815-8.908,10.819l-0.708,169.342
				C355.805,892.406,351.529,897.597,346.284,897.563z"/>
		</defs>
		<clipPath id="SVGID_9_">
			<use xlink:href="#SVGID_8_"  style="overflow:visible;"/>
		</clipPath>
		<g class="st82">
			<path class="st2" d="M346.284,897.563c-5.248-0.036-9.481-5.277-9.455-11.714l0.711-169.352
				c0.077-18.841,12.641-34.1,28.006-34.001c15.369,0.097,27.806,15.508,27.728,34.352c-0.026,6.44-4.302,11.63-9.547,11.597
				c-5.248-0.036-9.479-5.278-9.457-11.712c0.026-6-3.928-10.9-8.823-10.928c-4.89-0.04-8.888,4.815-8.908,10.819l-0.708,169.342
				C355.805,892.406,351.529,897.597,346.284,897.563z"/>
		</g>
		<polygon class="st83" points="361.516,891.179 327.292,876.464 331.705,861.029 365.928,875.743 		"/>
		<polygon class="st83" points="361.644,859.324 327.428,844.611 331.838,829.178 366.063,843.893 		"/>
		<polygon class="st83" points="361.783,827.47 327.559,812.76 331.97,797.323 366.19,812.036 		"/>
		<polygon class="st83" points="361.909,795.618 327.692,780.91 332.103,765.473 366.324,780.181 		"/>
		<polygon class="st83" points="362.047,763.772 327.826,749.055 332.236,733.622 366.455,748.335 		"/>
		<polygon class="st83" points="362.182,731.917 327.958,717.203 332.371,701.77 366.589,716.482 		"/>
		<polygon class="st83" points="367.85,717.239 401.81,701.63 407.195,719.25 373.239,734.857 		"/>
		<polygon class="st83" points="372.502,673.308 371.817,717.773 358.489,717.464 359.168,673 		"/>
	</g>
</g>
<g id="christmas_balls_1_">
	<g>
		<g>
			<rect x="451.166" y="618.756" class="st84" width="8.36" height="7.741"/>
			<circle class="st73" cx="455.345" cy="636.591" r="13.626"/>
		</g>
		<line class="st85" x1="455.345" y1="618.756" x2="455.345" y2="604.096"/>
	</g>
	<g>
		<g>
			<rect x="958.668" y="532.918" class="st84" width="8.36" height="7.741"/>
			<circle class="st86" cx="962.846" cy="550.752" r="13.626"/>
		</g>
		<line class="st85" x1="962.847" y1="532.918" x2="962.847" y2="365.858"/>
	</g>
	<g>
		<g>
			<rect x="1086.263" y="469.448" class="st84" width="8.361" height="7.744"/>
			<circle class="st87" cx="1090.443" cy="487.284" r="13.626"/>
		</g>
		<line class="st85" x1="1090.444" y1="469.448" x2="1090.444" y2="437.281"/>
	</g>
	<g>
		<g>
			<rect x="1398.041" y="593.215" class="st84" width="8.361" height="7.741"/>
			<circle class="st73" cx="1402.221" cy="611.049" r="13.626"/>
		</g>
		<line class="st85" x1="1402.222" y1="593.215" x2="1402.222" y2="533.039"/>
	</g>
	<g>
		<g>
			<rect x="1470.659" y="674.419" class="st84" width="8.361" height="7.741"/>
			<circle class="st87" cx="1474.84" cy="692.253" r="13.626"/>
		</g>
		<line class="st85" x1="1474.839" y1="674.419" x2="1474.839" y2="642.323"/>
	</g>
</g>
<polygon class="st2" points="1499.059,219.777 1462.174,328.88 1487.863,289.442 1489.196,312.775 1499.059,301.442 
	1514.53,318.108 1514.53,286.108 1527.798,304.788 "/>
</svg>
