<svg version="1.1" id="Objects" xmlns="http://www.w3.org/2000/svg" xmlns:xlink="http://www.w3.org/1999/xlink" x="0px" y="0px"
	 viewBox="0 0 766 194.82" style="enable-background:new 0 0 766 194.82;" xml:space="preserve">
<style type="text/css">
	.st0{fill:none;}
	.st1{fill:#1D1D1B;}
	.st2{fill:#783E00;}
	.st3{fill:none;stroke:#783E00;stroke-width:0.9749;stroke-linecap:round;stroke-miterlimit:10;}
	.st4{fill:#9E5E1E;}
	.st5{fill:#D70B00;}
	.st6{fill:#1A3336;}
	.st7{fill:#FFC095;}
	.st8{fill:none;stroke:#850000;stroke-width:2.8032;stroke-linecap:round;stroke-miterlimit:10;}
	.st9{fill:#850000;}
	.st10{fill:url(#SVGID_2_);}
	.st11{fill:url(#SVGID_3_);}
	.st12{fill:#AE1900;}
	.st13{fill:#BF7D00;}
	.st14{fill:#FFFFFF;}
	.st15{opacity:0.2;fill:#D70B00;}
	.st16{fill:none;stroke:#FFC095;stroke-width:1.1846;stroke-linecap:round;stroke-miterlimit:10;}
	.st17{fill:#5A2F00;}
	.st18{fill:#C36600;}
	.st19{fill:none;stroke:#543107;stroke-width:5.3306;stroke-linecap:round;stroke-linejoin:round;stroke-miterlimit:10;}
	.st20{fill:none;stroke:#543107;stroke-width:5;stroke-linecap:round;stroke-linejoin:round;stroke-miterlimit:10;}
	.st21{fill:url(#SVGID_4_);}
	.st22{fill:none;stroke:#E98700;stroke-width:3.5537;stroke-linejoin:round;}
	.st23{fill:#E98700;}
	.st24{fill:none;stroke:#FFBB00;stroke-width:1.6819;stroke-linejoin:round;}
	.st25{fill:#FFBB00;}
	.st26{fill:none;stroke:#E98700;stroke-width:5;stroke-linecap:round;stroke-linejoin:round;stroke-miterlimit:10;}
	.st27{fill:none;stroke:#E98700;stroke-width:1.7769;stroke-miterlimit:10;}
	.st28{fill:#890906;}
	.st29{fill:url(#SVGID_5_);}
</style>
<pattern  x="-17" y="-267.454" width="28.8" height="28.8" patternUnits="userSpaceOnUse" id="_x31_0_ppp_40_x25_" viewBox="17.28 -31.68 28.8 28.8" style="overflow:visible;">
	<g>
		<rect x="17.28" y="-31.68" class="st0" width="28.8" height="28.8"/>
		<circle class="st1" cx="46.08" cy="-2.88" r="2.88"/>
		<circle class="st1" cx="31.68" cy="-2.88" r="2.88"/>
		<circle class="st1" cx="17.28" cy="-2.88" r="2.88"/>
		<circle class="st1" cx="46.08" cy="-17.28" r="2.88"/>
		<circle class="st1" cx="31.68" cy="-17.28" r="2.88"/>
		<circle class="st1" cx="17.28" cy="-17.28" r="2.88"/>
		<circle class="st1" cx="46.08" cy="-31.68" r="2.88"/>
		<circle class="st1" cx="31.68" cy="-31.68" r="2.88"/>
		<circle class="st1" cx="17.28" cy="-31.68" r="2.88"/>
		<circle class="st1" cx="2.88" cy="-31.68" r="2.88"/>
		<path class="st1" d="M2.88-31.68"/>
		<circle class="st1" cx="24.48" cy="-10.08" r="2.88"/>
		<circle class="st1" cx="38.88" cy="-10.08" r="2.88"/>
		<circle class="st1" cx="24.48" cy="-24.48" r="2.88"/>
		<circle class="st1" cx="38.88" cy="-24.48" r="2.88"/>
		<circle class="st1" cx="10.08" cy="-24.48" r="2.88"/>
		<path class="st1" d="M10.08-24.48"/>
	</g>
</pattern>
<linearGradient id="SVGID_1_" gradientUnits="userSpaceOnUse" x1="-17" y1="-267.4537" x2="-17" y2="-268.4537">
	<stop  offset="0" style="stop-color:#656565"/>
	<stop  offset="0.618" style="stop-color:#1B1B1B"/>
	<stop  offset="0.6292" style="stop-color:#545454"/>
	<stop  offset="0.9831" style="stop-color:#3E3E3E"/>
</linearGradient>
<g>
	<g>
		<path class="st2" d="M58.476,121.764c1.329,1.25,3.089,2.713,4.661,4.325l-27.456,0.807l-0.472,40.855l-3.912-0.428l-3.827-45.129
			c0,0,18.514-7.826,21.34-9.709C51.965,115.648,55.216,118.701,58.476,121.764z"/>
		<path class="st2" d="M130.843,112.001c-1.043,6.754-3.852,30.088,5.557,38.411c11.052,9.777,30.037,27.684,30.037,27.684
			l-3.714,2.921l-37.852-29.895l-10.987-12.86c1.222-3.274,2.594-6.495,4.15-9.63C122.125,122.923,126.301,117.297,130.843,112.001z
			"/>
		<g>
			<g>
				<path class="st2" d="M55.347,56.897c-0.183-0.521-0.268-0.852-0.378-1.264c-0.1-0.392-0.187-0.783-0.266-1.173
					c-0.157-0.781-0.267-1.566-0.34-2.358c-0.152-1.581-0.123-3.197,0.102-4.809c0.434-3.219,1.903-6.454,4.215-8.811
					c2.297-2.38,5.177-3.87,8.039-4.807c1.533-0.481,2.643-0.747,3.912-1.228c1.236-0.454,2.46-0.983,3.661-1.566
					c4.778-2.368,9.292-5.555,12.671-9.666c1.672-2.056,3.028-4.376,3.703-6.901c0.721-2.516,0.607-5.218-0.198-7.752l-0.004-0.012
					c-0.119-0.376,0.089-0.777,0.464-0.897c0.359-0.114,0.742,0.073,0.88,0.417c1.076,2.703,1.424,5.784,0.799,8.692
					c-0.573,2.921-1.921,5.615-3.601,7.993c-3.41,4.759-7.984,8.462-12.979,11.381c-1.26,0.721-2.555,1.39-3.898,1.989
					c-1.3,0.602-2.868,1.121-3.968,1.547c-2.363,0.941-4.475,2.28-5.947,4.032c-1.481,1.743-2.295,3.888-2.469,6.201
					c-0.083,1.156-0.034,2.345,0.16,3.528c0.093,0.591,0.215,1.181,0.371,1.758c0.078,0.288,0.161,0.573,0.252,0.851
					c0.084,0.256,0.205,0.591,0.266,0.723c0.675,1.47,0.03,3.209-1.441,3.884s-3.209,0.03-3.884-1.441
					c-0.037-0.082-0.071-0.164-0.1-0.247L55.347,56.897z"/>
			</g>
			<g>
				<path class="st2" d="M80.129,28.002c-0.731-0.635-1.223-1.198-1.77-1.827c-0.515-0.626-1.004-1.265-1.448-1.929
					c-0.891-1.327-1.661-2.722-2.256-4.184c-0.595-1.458-1.085-2.952-1.367-4.483c-0.331-1.519-0.433-3.067-0.483-4.593
					c-0.008-0.238,0.179-0.436,0.416-0.444c0.216-0.007,0.4,0.146,0.437,0.352l0.004,0.024c0.267,1.455,0.578,2.891,1.097,4.254
					c0.469,1.376,1.125,2.673,1.854,3.903c0.728,1.233,1.6,2.368,2.55,3.409c0.474,0.522,0.979,1.009,1.493,1.474
					c0.506,0.439,1.099,0.916,1.556,1.2l0.012,0.007c0.83,0.516,1.085,1.606,0.569,2.436c-0.516,0.83-1.606,1.085-2.436,0.569
					C80.278,28.12,80.197,28.06,80.129,28.002z"/>
			</g>
			<g>
				<path class="st2" d="M69.849,36.933c-0.531-0.336-0.882-0.604-1.284-0.919c-0.39-0.302-0.758-0.62-1.12-0.94
					c-0.725-0.641-1.395-1.329-2.041-2.033c-1.278-1.422-2.379-2.991-3.276-4.656c-0.477-0.815-0.822-1.703-1.198-2.558
					c-0.291-0.898-0.638-1.763-0.813-2.683c-0.479-1.8-0.567-3.659-0.582-5.466c-0.003-0.328,0.261-0.597,0.59-0.599
					c0.293-0.002,0.538,0.207,0.589,0.485l0.009,0.048c0.315,1.69,0.688,3.35,1.399,4.874c0.291,0.782,0.743,1.495,1.123,2.224
					c0.466,0.689,0.885,1.393,1.423,2.021c1.017,1.286,2.18,2.445,3.459,3.445c0.646,0.492,1.301,0.964,1.984,1.381
					c0.341,0.208,0.682,0.411,1.029,0.593c0.328,0.178,0.726,0.372,0.965,0.463c1.268,0.479,1.907,1.895,1.428,3.163
					c-0.479,1.268-1.895,1.907-3.163,1.428c-0.154-0.058-0.298-0.13-0.433-0.214L69.849,36.933z"/>
			</g>
			<g>
				<path class="st2" d="M88.493,21.34c0.517,0.139,1.272,0.259,1.933,0.298c0.685,0.057,1.374,0.042,2.061-0.005
					c1.371-0.112,2.717-0.463,3.942-1.085c1.222-0.618,2.358-1.491,3.217-2.639c0.494-0.528,0.808-1.189,1.2-1.809
					c0.351-0.644,0.598-1.347,0.908-2.028l0.03-0.066c0.098-0.215,0.351-0.31,0.566-0.212c0.195,0.089,0.291,0.306,0.234,0.506
					c-0.215,0.752-0.371,1.534-0.646,2.282c-0.32,0.73-0.569,1.507-1.03,2.186c-0.783,1.434-1.963,2.684-3.339,3.653
					c-1.379,0.976-2.974,1.652-4.617,2.032c-0.824,0.182-1.659,0.32-2.504,0.376c-0.867,0.064-1.644,0.076-2.635-0.031
					c-0.971-0.105-1.674-0.977-1.569-1.949c0.105-0.971,0.977-1.674,1.949-1.569c0.089,0.01,0.176,0.026,0.26,0.048L88.493,21.34z"
					/>
			</g>
			<g>
				<path class="st2" d="M71.05,33.329c0.397,0.36,1.014,0.81,1.585,1.146c0.584,0.363,1.204,0.664,1.837,0.935
					c1.272,0.525,2.63,0.827,4.004,0.832c1.37,0.008,2.779-0.252,4.067-0.881c0.68-0.245,1.262-0.69,1.894-1.063
					c0.606-0.413,1.146-0.926,1.733-1.391l0.057-0.045c0.185-0.146,0.454-0.115,0.6,0.07c0.133,0.168,0.119,0.405-0.023,0.557
					c-0.535,0.572-1.03,1.197-1.616,1.737c-0.618,0.504-1.194,1.082-1.914,1.476c-1.351,0.919-2.971,1.493-4.638,1.728
					c-1.672,0.24-3.4,0.114-5.036-0.296c-0.816-0.214-1.623-0.471-2.4-0.807c-0.801-0.338-1.498-0.682-2.331-1.228
					c-0.817-0.536-1.045-1.633-0.509-2.45c0.536-0.817,1.633-1.045,2.45-0.509c0.075,0.049,0.145,0.103,0.21,0.161L71.05,33.329z"/>
			</g>
			<path class="st3" d="M65.397,35.671"/>
		</g>
		<path class="st4" d="M143.672,97.504c-10.214,25.853-76.404,11.92-81.393,0.885c-5.893-13.039,10.66-36.957,0.425-49.728
			c-6.551-8.168-16.284-7.764-25.154,0.256C25.231,60.056,6.466,58.04,6.466,58.04c5.788,7.595,15.211,15.01,32.655,14.635
			c-9.589,23.964-5.197,39.553,0.03,48.331l20.144,13.807c0,0,6.823,6.134,24.479,9.06c17.66,2.927,29.962-3.194,29.962-3.194
			l23.091-22.39C150.043,113.24,143.672,97.504,143.672,97.504z"/>
		<path class="st4" d="M60.573,56.252c0,0,3.532-6.139,9.645-8.322c6.113-2.183,12.377,0.462,12.377,0.462s-1.314,5.375-7.366,9.127
			C68.934,61.424,60.573,56.252,60.573,56.252z"/>
		<path class="st5" d="M13.877,58.04c0,0-1.565-0.251-4.598-0.306c-3.032-0.054-5.552,1.012-1.99,3.333
			C10.852,63.39,12.026,62.649,13.877,58.04z"/>
		<path class="st6" d="M44.974,60.125c-0.738-0.587-1.64-1.036-2.71-1.293c-0.012-0.464,0.056-0.974,0.233-1.491
			c0.522-1.53,1.72-2.507,2.675-2.184c0.954,0.326,1.309,1.832,0.788,3.366C45.731,59.183,45.379,59.731,44.974,60.125z"/>
		<path class="st7" d="M38.917,72.691c0,0-19.048,25.544,0.232,48.336c0,0-6.949-17.738-2.285-27.764
			c2.721-5.851,4.965-9.317,5.982-12.533c1.977-6.248,0.92-9.055,0.92-9.055L38.917,72.691z"/>
		<path class="st4" d="M135.008,112.484c-3.737,5.722-15.923,25.818-10.787,37.282c6.034,13.466,15.939,37.611,15.939,37.611
			l-4.588,1.129l-22.145-42.85l-4.702-16.248c2.464-2.479,5.042-4.846,7.754-7.06C122.561,118.836,128.686,115.435,135.008,112.484z
			"/>
		<path class="st7" d="M67.115,54.63c0,0,4.58-3.237,8.761-2.337C75.876,52.294,70.33,57.416,67.115,54.63z"/>
		<path class="st8" d="M258.579,133.386c-17.817,3.159-104.828,32.753-169.25-2.044"/>
		<path class="st8" d="M87.198,127.509c-1.024,1.248,3.651,8.109-4.054,16.364"/>
		<path class="st7" d="M111.961,112.335c0,0-7.417,23.997-27.401,18.133c-19.986-5.864-15.418-26.612-15.418-26.612
			s26.781,6.859,26.298,7.913C94.955,112.819,111.961,112.335,111.961,112.335z"/>
		<path class="st9" d="M112.16,112.16c0,0-5.366,17.055-24.331,15.349c-18.967-1.702-18.687-23.654-18.687-23.654
			S97.208,113.52,112.16,112.16z"/>
		
			<pattern  id="SVGID_2_" xlink:href="#_x31_0_ppp_40_x25_" patternTransform="matrix(-1.0919 -0.1192 -0.1192 1.0919 -17232.6133 -287.2882)">
		</pattern>
		<path class="st10" d="M112.16,112.16c0,0-5.366,17.055-24.331,15.349c-18.967-1.702-18.687-23.654-18.687-23.654
			S97.208,113.52,112.16,112.16z"/>
		<path class="st4" d="M60.171,131.007c0.84,1.619,2.017,3.583,2.966,5.624l-26.174-8.329l-13.972,38.394l-3.55-1.699l11.33-43.851
			c0,0,20.06-1.255,23.351-2.097C56.052,123.08,58.109,127.038,60.171,131.007z"/>
	</g>
	<path class="st5" d="M188.384,56.981c0,0-1.565-0.251-4.598-0.306c-3.032-0.054-5.552,1.012-1.99,3.333
		C185.36,62.331,186.534,61.59,188.384,56.981z"/>
	<g>
		<path class="st2" d="M232.983,120.705c1.329,1.25,3.089,2.713,4.661,4.325l-27.456,0.807l-0.472,40.855l-3.912-0.428
			l-3.827-45.129c0,0,18.514-7.826,21.34-9.709C226.472,114.589,229.723,117.642,232.983,120.705z"/>
		<path class="st2" d="M305.35,110.942c-1.043,6.754-3.852,30.088,5.557,38.411c11.052,9.777,30.037,27.684,30.037,27.684
			l-3.714,2.921l-37.852-29.895l-10.987-12.861c1.222-3.274,2.594-6.495,4.15-9.63C296.632,121.864,300.809,116.238,305.35,110.942z
			"/>
		<g>
			<g>
				<path class="st2" d="M229.855,55.838c-0.183-0.521-0.268-0.852-0.378-1.264c-0.1-0.392-0.187-0.783-0.266-1.173
					c-0.157-0.781-0.267-1.566-0.34-2.358c-0.152-1.581-0.123-3.197,0.102-4.809c0.434-3.219,1.903-6.454,4.215-8.811
					c2.297-2.38,5.177-3.87,8.039-4.807c1.533-0.481,2.643-0.747,3.912-1.228c1.236-0.454,2.46-0.983,3.661-1.566
					c4.778-2.368,9.292-5.555,12.671-9.666c1.672-2.056,3.028-4.376,3.703-6.901c0.721-2.516,0.607-5.218-0.198-7.752l-0.004-0.012
					c-0.119-0.376,0.089-0.777,0.464-0.897c0.359-0.114,0.742,0.073,0.88,0.417c1.076,2.703,1.424,5.784,0.799,8.692
					c-0.573,2.921-1.921,5.615-3.601,7.993c-3.41,4.759-7.984,8.462-12.979,11.381c-1.26,0.721-2.555,1.39-3.898,1.989
					c-1.3,0.602-2.868,1.121-3.968,1.547c-2.363,0.941-4.475,2.28-5.947,4.032c-1.481,1.743-2.295,3.888-2.469,6.201
					c-0.083,1.156-0.034,2.345,0.16,3.528c0.093,0.591,0.215,1.181,0.371,1.758c0.078,0.288,0.161,0.573,0.252,0.851
					c0.084,0.256,0.205,0.591,0.266,0.723c0.675,1.47,0.03,3.209-1.441,3.884s-3.209,0.03-3.884-1.441
					c-0.037-0.082-0.071-0.164-0.1-0.247L229.855,55.838z"/>
			</g>
			<g>
				<path class="st2" d="M254.636,26.943c-0.731-0.635-1.223-1.198-1.77-1.827c-0.515-0.626-1.004-1.265-1.448-1.929
					c-0.891-1.327-1.661-2.722-2.256-4.184c-0.595-1.458-1.085-2.952-1.367-4.483c-0.331-1.519-0.433-3.067-0.483-4.593
					c-0.008-0.238,0.179-0.436,0.416-0.444c0.216-0.007,0.4,0.146,0.437,0.352l0.004,0.024c0.267,1.455,0.578,2.891,1.097,4.254
					c0.469,1.376,1.125,2.673,1.854,3.903c0.728,1.233,1.6,2.368,2.55,3.409c0.474,0.522,0.979,1.009,1.493,1.474
					c0.506,0.439,1.099,0.916,1.556,1.2l0.012,0.007c0.83,0.516,1.085,1.606,0.569,2.436c-0.516,0.83-1.606,1.085-2.436,0.569
					C254.785,27.061,254.704,27.001,254.636,26.943z"/>
			</g>
			<g>
				<path class="st2" d="M244.356,35.874c-0.531-0.336-0.882-0.604-1.284-0.919c-0.39-0.302-0.758-0.62-1.12-0.94
					c-0.725-0.641-1.395-1.329-2.041-2.033c-1.278-1.422-2.379-2.991-3.276-4.656c-0.477-0.815-0.822-1.703-1.198-2.558
					c-0.291-0.898-0.638-1.763-0.813-2.683c-0.479-1.8-0.567-3.659-0.582-5.466c-0.003-0.328,0.261-0.597,0.59-0.599
					c0.293-0.002,0.538,0.207,0.589,0.485l0.009,0.048c0.315,1.69,0.688,3.35,1.399,4.874c0.291,0.782,0.743,1.495,1.123,2.224
					c0.466,0.689,0.885,1.393,1.423,2.021c1.017,1.286,2.18,2.445,3.459,3.445c0.646,0.492,1.301,0.964,1.984,1.381
					c0.341,0.208,0.682,0.411,1.029,0.593c0.328,0.178,0.726,0.372,0.965,0.463c1.268,0.479,1.907,1.895,1.428,3.163
					c-0.479,1.268-1.895,1.907-3.163,1.428c-0.154-0.058-0.298-0.13-0.433-0.214L244.356,35.874z"/>
			</g>
			<g>
				<path class="st2" d="M263.001,20.281c0.517,0.139,1.272,0.259,1.933,0.298c0.685,0.057,1.374,0.042,2.061-0.005
					c1.371-0.112,2.717-0.463,3.942-1.085c1.222-0.618,2.358-1.491,3.217-2.639c0.494-0.528,0.808-1.189,1.2-1.809
					c0.351-0.644,0.598-1.347,0.908-2.028l0.03-0.066c0.098-0.215,0.351-0.31,0.566-0.212c0.195,0.089,0.291,0.306,0.234,0.506
					c-0.215,0.752-0.371,1.534-0.646,2.282c-0.32,0.73-0.569,1.507-1.03,2.186c-0.783,1.434-1.963,2.684-3.339,3.653
					c-1.379,0.976-2.974,1.652-4.617,2.032c-0.824,0.182-1.659,0.32-2.504,0.376c-0.867,0.064-1.644,0.076-2.635-0.031
					c-0.971-0.105-1.674-0.977-1.569-1.949c0.105-0.971,0.977-1.674,1.949-1.569c0.089,0.01,0.176,0.026,0.26,0.048L263.001,20.281z
					"/>
			</g>
			<g>
				<path class="st2" d="M245.557,32.27c0.397,0.36,1.014,0.81,1.585,1.146c0.584,0.363,1.204,0.664,1.837,0.935
					c1.272,0.525,2.63,0.827,4.004,0.832c1.37,0.008,2.779-0.252,4.067-0.881c0.68-0.245,1.262-0.69,1.894-1.063
					c0.606-0.413,1.146-0.926,1.733-1.391l0.057-0.045c0.185-0.146,0.454-0.115,0.6,0.07c0.133,0.168,0.119,0.405-0.023,0.557
					c-0.535,0.572-1.03,1.197-1.616,1.737c-0.618,0.504-1.194,1.082-1.914,1.476c-1.351,0.919-2.971,1.493-4.638,1.728
					c-1.672,0.24-3.4,0.114-5.036-0.296c-0.816-0.214-1.623-0.471-2.4-0.807c-0.801-0.338-1.498-0.682-2.331-1.228
					c-0.817-0.536-1.045-1.633-0.509-2.45c0.536-0.817,1.633-1.045,2.45-0.509c0.075,0.049,0.145,0.103,0.21,0.161L245.557,32.27z"
					/>
			</g>
			<path class="st3" d="M239.904,34.612"/>
		</g>
		<path class="st4" d="M318.18,96.445c-10.214,25.853-76.404,11.92-81.393,0.885c-5.893-13.039,10.66-36.957,0.425-49.728
			c-6.551-8.168-16.284-7.764-25.154,0.256c-12.32,11.139-31.085,9.123-31.085,9.123c5.788,7.595,15.211,15.01,32.655,14.635
			c-9.589,23.964-5.197,39.553,0.03,48.331l20.144,13.807c0,0,6.823,6.134,24.48,9.06c17.66,2.927,29.962-3.194,29.962-3.194
			l23.091-22.39C324.55,112.181,318.18,96.445,318.18,96.445z"/>
		<path class="st4" d="M235.08,55.193c0,0,3.532-6.139,9.645-8.322c6.113-2.183,12.376,0.462,12.376,0.462s-1.314,5.375-7.366,9.127
			C243.441,60.365,235.08,55.193,235.08,55.193z"/>
		<path class="st6" d="M219.482,59.066c-0.738-0.587-1.64-1.036-2.71-1.293c-0.012-0.464,0.056-0.974,0.233-1.491
			c0.522-1.53,1.72-2.507,2.675-2.184c0.954,0.326,1.309,1.832,0.788,3.366C220.238,58.124,219.886,58.672,219.482,59.066z"/>
		<path class="st7" d="M213.424,71.632c0,0-19.048,25.544,0.232,48.336c0,0-6.949-17.738-2.285-27.764
			c2.721-5.851,4.965-9.317,5.982-12.533c1.977-6.248,0.92-9.055,0.92-9.055L213.424,71.632z"/>
		<path class="st4" d="M309.515,111.425c-3.737,5.722-15.923,25.818-10.787,37.282c6.034,13.466,15.939,37.611,15.939,37.611
			l-4.588,1.129l-22.145-42.85l-4.702-16.248c2.464-2.479,5.042-4.846,7.754-7.06C297.068,117.777,303.193,114.376,309.515,111.425z
			"/>
		<path class="st7" d="M241.622,53.571c0,0,4.58-3.237,8.761-2.337C250.383,51.235,244.837,56.357,241.622,53.571z"/>
		<path class="st8" d="M433.086,132.327c-17.817,3.159-104.828,32.753-169.25-2.044"/>
		<path class="st8" d="M261.705,126.45c-1.024,1.248,3.651,8.109-4.054,16.364"/>
		<path class="st7" d="M286.468,111.276c0,0-7.417,23.997-27.401,18.133c-19.986-5.864-15.418-26.612-15.418-26.612
			s26.781,6.859,26.298,7.913C269.462,111.76,286.468,111.276,286.468,111.276z"/>
		<path class="st9" d="M286.667,111.101c0,0-5.366,17.055-24.331,15.349c-18.967-1.702-18.687-23.654-18.687-23.654
			S271.715,112.461,286.667,111.101z"/>
		
			<pattern  id="SVGID_3_" xlink:href="#_x31_0_ppp_40_x25_" patternTransform="matrix(-1.0919 -0.1192 -0.1192 1.0919 -17215.3359 -305.5064)">
		</pattern>
		<path class="st11" d="M286.667,111.101c0,0-5.366,17.055-24.331,15.349c-18.967-1.702-18.687-23.654-18.687-23.654
			S271.715,112.461,286.667,111.101z"/>
		<path class="st4" d="M234.678,129.948c0.84,1.619,2.017,3.583,2.966,5.624l-26.174-8.329l-13.972,38.394l-3.55-1.699l11.33-43.851
			c0,0,20.06-1.255,23.351-2.097C230.559,122.021,232.616,125.979,234.678,129.948z"/>
	</g>
	<path class="st5" d="M358.388,56.981c0,0-1.565-0.251-4.598-0.306c-3.032-0.054-5.552,1.012-1.99,3.333
		C355.364,62.331,356.537,61.59,358.388,56.981z"/>
	<g>
		<g>
			<path class="st12" d="M670.466,106.343c0,0,2.099,11.008-8.312,14.128c-10.413,3.119-43.735,3.119-43.735,3.119l-11.679,15.86
				l-6.766-5.28l-2.243-15.227c0,0,9.853-10.628,14.676-11.173C617.228,107.226,670.466,106.343,670.466,106.343z"/>
			<g>
				<path class="st13" d="M617.651,138.076c-0.103-0.732-0.176-1.474-0.176-2.235c0-8.627,6.993-15.619,15.62-15.619h39.27
					c8.628,0,15.62,6.992,15.62,15.619c0,0.76-0.073,1.503-0.177,2.235H617.651z"/>
			</g>
			<path class="st5" d="M671.466,111.495l0.779-13.426c3.897-21.783-5.203-39.157-13.345-42.087
				c-8.144-2.931-33.861,0.811-33.861,0.811s-15.238,6.846-15.621,33.483l-0.668,18.737c0,0,8.498,3.538,31.02,3.344
				C662.292,112.163,671.466,111.495,671.466,111.495z"/>
			<g>
				<path class="st12" d="M665.198,61.783c12.942,11.883,4.224,32.67-8.745,37.7c-17.685,6.86-31.188,1.067-42.001-0.819
					l2.296-10.858c0,0,32.029,7.007,33.683-13.448C650.994,67.384,655.225,58.846,665.198,61.783z"/>
				<path class="st6" d="M614.412,87.639c-0.667-0.501-6.839-4.336-9.005-1.834c-2.172,2.503-4.505,8.341-0.837,10.009
					c3.671,1.668,8.841,1.835,8.841,1.835L614.412,87.639z"/>
				<path class="st14" d="M615.798,85.095c4.507,0,4.507,6.424,0,6.424S611.292,85.095,615.798,85.095z"/>
				<path class="st14" d="M614.672,92.712c3.38,0,3.38,6.205,0,6.205C610.165,98.918,610.165,92.712,614.672,92.712z"/>
				<path class="st14" d="M615.798,88.709c3.38,0,3.38,6.204,0,6.204C611.292,94.913,611.292,88.709,615.798,88.709z"/>
			</g>
			<g>
				<path class="st7" d="M616.597,32.961c0,0-1.294-5.375-4.188-2.513c-2.891,2.864,0.67,10.833,3.671,8.74
					C619.085,37.094,616.597,32.961,616.597,32.961z"/>
				<path class="st7" d="M663.742,40.315c0,0,2.955-4.672,4.772-1.03c1.818,3.638-4.122,10.04-6.289,7.092
					C660.058,43.427,663.742,40.315,663.742,40.315z"/>
				<path class="st7" d="M614.08,39.855c-0.723,11.943,10.029,22.532,24.015,23.649c13.986,1.119,25.909-7.656,26.632-19.598
					c0.723-11.945-10.027-22.532-24.013-23.652C626.73,19.137,614.802,27.912,614.08,39.855z"/>
				<path class="st15" d="M642.024,46.163c-0.383,2.434,1.704,4.646,4.66,4.95c2.955,0.3,5.661-1.427,6.043-3.856
					c0.384-2.431-1.702-4.646-4.657-4.948C645.114,42.006,642.408,43.734,642.024,46.163z"/>
				<path class="st6" d="M650.667,41.213c-0.493-0.58-1.207-1.02-2.171-1.194c-0.363-0.065-0.702-0.078-1.026-0.056
					c0.031-0.157,0.068-0.314,0.119-0.473c0.457-1.434,1.578-2.355,2.505-2.06c0.926,0.295,1.309,1.695,0.853,3.129
					C650.87,40.794,650.774,41.008,650.667,41.213z"/>
				<path class="st6" d="M625.467,38.387c0.614-0.45,1.411-0.712,2.388-0.66c0.368,0.021,0.702,0.087,1.01,0.18
					c0.009-0.159,0.007-0.319-0.004-0.486c-0.115-1.499-0.994-2.656-1.965-2.58c-0.968,0.072-1.664,1.346-1.548,2.845
					C625.366,37.933,625.41,38.163,625.467,38.387z"/>
				<path class="st15" d="M632.513,45.147c-0.381,2.431-3.088,4.156-6.045,3.856c-2.956-0.304-5.042-2.517-4.659-4.948
					c0.382-2.433,3.088-4.158,6.046-3.856C630.811,40.501,632.897,42.717,632.513,45.147z"/>
				<g>
					<path class="st5" d="M623.775,17.056c0.922-2.124,3.754-6.405,11.992-8.212c14.901-3.267,22.352,5.552,31.362,7.803
						c6.314,1.578,9.584-1.769,9.221-8.357c0.326,0.107,0.668,0.18,1.026,0.205c0.735,0.052,1.437-0.087,2.059-0.371
						c0.876,3.706,2.321,15.924-16.433,16.501C646.606,11.408,628.048,15.794,623.775,17.056z"/>
					<path class="st14" d="M677.377,8.494c-0.359-0.024-0.701-0.098-1.026-0.205c-1.807-0.592-3.056-2.349-2.918-4.335
						c0.164-2.341,2.196-4.108,4.539-3.944c2.344,0.164,4.107,2.196,3.945,4.537c-0.112,1.612-1.11,2.951-2.482,3.576
						C678.814,8.407,678.112,8.546,677.377,8.494z"/>
					<path class="st14" d="M622.861,17.348c0,0,0.322-0.117,0.914-0.292c4.273-1.262,22.831-5.648,39.227,7.568
						c0,0,3.505,6.355-0.067,11.562c0,0-6.51-7.91-20.06-9.76c-6.846-0.934-16.902-1.079-25.136,3.94
						C617.739,30.367,615.81,22.516,622.861,17.348z"/>
				</g>
				<g>
					<path class="st14" d="M616.567,56.826c-0.372,0.842-0.582,1.767-0.582,2.732c0,3.752,3.128,6.882,6.881,6.882
						c1.646,0,3.171-0.603,4.367-1.596c0.611,3.035,3.337,5.381,6.531,5.381c1.888,0,3.609-0.823,4.829-2.118
						c0.168,0.218,0.347,0.427,0.547,0.625c0.769,0.766,1.678,1.297,2.726,1.591c2.127,0.582,4.455-0.031,6.014-1.591
						c0.94-0.939,1.528-2.159,1.727-3.444c1.022,0.711,2.25,1.11,3.509,1.11c1.62,0,3.188-0.649,4.332-1.793
						c0.164-0.162,0.315-0.34,0.463-0.526c0.051-0.065,0.099-0.131,0.147-0.198c0.103-0.14,0.199-0.283,0.292-0.434
						c0.027-0.046,0.058-0.091,0.086-0.139c0.546-0.93,0.888-2.015,0.808-3.038c0.002-0.014,0.002-0.03,0.004-0.045
						c0.019-0.263,0.004-0.529-0.027-0.798c-0.007-0.134-0.032-0.269-0.052-0.402c0.453-0.002,0.908-0.062,1.351-0.185
						c0.889-0.249,1.662-0.7,2.318-1.351c0.274-0.353,0.547-0.71,0.821-1.063c0.307-0.421,0.498-0.915,0.621-1.421
						c0.088-0.356,0.13-0.718,0.147-1.079c1.217-4.051,3.252-14.058-2.78-22.779c0,0,2.951,7.374,0.132,17.938
						c-1.17-0.636-2.548-0.789-3.888-0.468c-0.504,0.122-1.001,0.315-1.42,0.617c-0.669,0.398-1.215,0.918-1.651,1.544
						c-0.204-0.165-0.42-0.316-0.647-0.436c-0.107-0.057-0.214-0.095-0.32-0.142c1.022-3.33-1.166-5.798-1.166-5.798
						c0.429,2.669-1.067,5.128-3.846,5.343c-2.777,0.215-3.953-3.525-6.305-4.275c-1.957-0.623-3.765,0.977-4.313,1.528
						c-0.248-0.541-1.457-2.911-3.644-2.959c-2.465-0.051-4.789,3.108-7.348,2.005c-2.559-1.101-3.177-3.911-1.909-6.3
						c0,0-2.263,1.285-2.847,4.015c-0.117-0.004-0.231-0.009-0.353-0.001c-0.366,0.019-0.715,0.075-1.041,0.164
						c-0.992-0.555-2.128-0.872-3.327-0.872c-0.681,0-1.342,0.105-1.969,0.296c-1.438-9.568,5.776-17.697,5.776-17.697
						c-9.636,6.47-9.033,16.504-8.63,19.39c0.071,0.514,0.137,0.804,0.137,0.804s-0.066-0.29-0.137-0.804
						c-1.3,1.269-2.121,3.03-2.121,4.953C610.805,53.377,613.33,56.252,616.567,56.826z"/>
				</g>
				<path class="st14" d="M621.789,31.118c3.322-1.812,8.398-2.156,11.65,0.052c0.537,0.364,0.366,1.267-0.342,1.263
					c-3.545-0.032-6.677-0.842-10.044,0.847C621.62,33.999,620.364,31.898,621.789,31.118z"/>
				<path class="st14" d="M657.601,35.932c-2.527-2.818-7.197-4.832-10.999-3.837c-0.628,0.163-0.77,1.074-0.099,1.304
					c3.351,1.153,6.573,1.435,9.186,4.149C656.8,38.702,658.683,37.142,657.601,35.932z"/>
				<path class="st16" d="M645.33,52.649c0,0-0.444,4.686-6.227,3.129"/>
				<ellipse class="st5" cx="637.991" cy="44.466" rx="4.228" ry="3.988"/>
			</g>
			<path class="st2" d="M672.078,100.978l-0.276,4.844c0,0-45.844,4.442-62.849-2.45l0.154-4.304c0,0,7.627,2.775,18.737,3.678
				C640.903,103.81,657.453,103.237,672.078,100.978z"/>
		</g>
		<g>
			<path class="st2" d="M724.646,47.739c0,0,6.375-20.091,10.797-20.596c4.422-0.504,1.307,5.378,9.091,5.932
				c3.863,0.276,8.676,10.53,5.785,12.549c-2.894,2.019-4.339-2.641-6.228-3.785c-1.891-1.142-2.893-2.887-5.116-0.468
				c-4.45,4.84-5.784,13.06-5.784,13.06L724.646,47.739z"/>
			<path class="st2" d="M738.528,67.609c4.004,10.856,29.361,21.345,27.359,42.458c-2.002,21.112-25.667,26.997-34.342,23.666
				c-8.674-3.33-30.384-2.701-31.052-24.647c-0.667-21.947-4.672-43.089,4.338-51.202c9.006-8.111,23.02-13.433,23.02-13.433
				l6.007,6.134L738.528,67.609z"/>
			<path class="st17" d="M704.832,57.883c1.55-1.398,3.251-2.708,5.003-3.928c-0.404,1.366-0.794,2.727-1.166,4.075
				c-3.458,12.536-5.025,25.358-2.644,38.216c2.439,13.17,12.314,26.778,26.281,29.257c8.586,1.526,16.612,1.007,24.436-3.18
				c2.776-1.484,5.41-3.473,7.717-5.793c-5.655,15.83-25.203,20.163-32.913,17.201c-8.674-3.33-30.384-2.701-31.052-24.647
				C699.827,87.138,695.822,65.997,704.832,57.883z"/>
			<path class="st18" d="M725.849,42.579c1.485,0.193,2.381,1.274,3.52,2.189c1.559,1.25,3.076,2.238,5.155,2.062
				c1.062-0.089,1.278,1.622,0.252,1.844c-1.876,0.407-3.506,0.063-5.236-0.713c-1.703-0.761-4.094-2.122-4.833-3.88
				C724.429,43.418,725.136,42.488,725.849,42.579z"/>
			<path class="st18" d="M728.171,42.744c1.694,0.801,3.294,1.925,4.93,2.85c1.285,0.727,2.891,1.664,3.481,3.087
				c0.251,0.606-0.367,1.209-0.934,1.225c-1.589,0.047-3.298-0.824-4.716-1.446c-1.73-0.759-3.679-1.408-5.13-2.645
				C724.002,44.281,726.292,41.856,728.171,42.744z"/>
			<path class="st18" d="M728.978,37.102c1.793,2.913,3.657,5.965,6.879,7.418c2.242,1.009,0.61,4.4-1.622,3.845
				c-4.322-1.076-6.736-6.323-7.639-10.257C726.264,36.668,728.191,35.824,728.978,37.102z"/>
			<path class="st18" d="M725.794,40.755c1.974-0.82,4.3,0.043,6.464,0.447c2.147,0.401,4.931,0.54,6.956,0.048
				c0.954-0.23,1.99,0.865,1.43,1.55c-1.55,1.898-3.319,2.729-6.22,2.843c-2.573,0.103-6.962-0.118-8.965-1.821
				C724.357,42.89,724.493,41.293,725.794,40.755z"/>
		</g>
		<g>
			<line class="st19" x1="677.035" y1="191.238" x2="663.607" y2="169.882"/>
			<line class="st19" x1="589.161" y1="191.238" x2="602.588" y2="169.882"/>
		</g>
		<path class="st20" d="M722.586,192.32l-180.631-0.745c-13.21-0.05-21.358-11.467-21.358-24.678v-0.201
			c0-13.212,8.613-23.547,21.825-23.499c11.791,0,19.152,9.781,19.287,20.013c0.139,10.233-12.916,20.019-23.478,12.456
			c-9.57-6.849-1.715-17.794,3.179-17.348"/>
		<path class="st9" d="M592.139,92.654v38.124h82.244V77.754c0-8.453,4.937-14.574,13.388-14.574h0.088
			c8.451,0,15.817,6.121,15.817,14.574v56.807c0,1.651-0.522,2.968-1.006,4.458c-3.587,18.567-20.172,32.318-39.786,32.318h-59.573
			c-22.244,0-39.337-17.485-39.337-39.731v-0.183C563.973,112.963,575.239,97.415,592.139,92.654z"/>
		
			<pattern  id="SVGID_4_" xlink:href="#_x31_0_ppp_40_x25_" patternTransform="matrix(-1.0978 -0.0343 -0.0343 1.0978 -16652.6309 408.0681)">
		</pattern>
		<path class="st21" d="M592.5,92.445v38.124h82.244V77.545c0-8.453,4.937-14.574,13.388-14.574h0.088
			c8.451,0,15.817,6.121,15.817,14.574v56.807c0,1.651-0.522,2.968-1.006,4.458c-3.587,18.567-20.172,32.318-39.786,32.318h-59.573
			c-22.244,0-39.337-17.485-39.337-39.731v-0.183C564.334,112.754,575.6,97.206,592.5,92.445z"/>
		<g>
			<g>
				<polyline class="st22" points="672.801,68.133 672.801,130.846 592.726,130.846 592.726,92.155 				"/>
				<g>
					<circle class="st23" cx="672.801" cy="68.327" r="3.875"/>
				</g>
				<g>
					<circle class="st23" cx="592.726" cy="92.349" r="3.875"/>
				</g>
			</g>
		</g>
		<g>
			<g>
				<polyline class="st24" points="672.801,68.721 672.801,130.846 592.726,130.846 592.726,92.11 				"/>
				<g>
					<circle class="st25" cx="672.801" cy="68.813" r="1.834"/>
				</g>
				<g>
					<circle class="st25" cx="592.726" cy="92.201" r="1.834"/>
				</g>
			</g>
		</g>
		<polyline class="st26" points="705.365,78.953 705.365,131.341 723.955,131.341 		"/>
		<path class="st27" d="M744.757,75.274c0,0-3.559,26.457-38.258,55.417"/>
		<path class="st27" d="M753.211,82.401c0,0-22.468,35.872-48.379,39.879"/>
	</g>
	<g>
		<path class="st2" d="M402.987,120.705c1.329,1.25,3.089,2.713,4.661,4.325l-27.456,0.807l-0.472,40.855l-3.912-0.428
			l-3.827-45.129c0,0,18.514-7.826,21.34-9.709C396.476,114.589,399.727,117.642,402.987,120.705z"/>
		<path class="st2" d="M475.354,110.942c-1.043,6.754-3.852,30.088,5.557,38.411c11.052,9.777,30.037,27.684,30.037,27.684
			l-3.714,2.921l-37.852-29.895l-10.987-12.861c1.222-3.274,2.594-6.495,4.15-9.63C466.636,121.864,470.813,116.238,475.354,110.942
			z"/>
		<g>
			<g>
				<path class="st2" d="M399.858,55.838c-0.183-0.521-0.268-0.852-0.378-1.264c-0.1-0.392-0.187-0.783-0.266-1.173
					c-0.157-0.781-0.267-1.566-0.34-2.358c-0.152-1.581-0.123-3.197,0.102-4.809c0.434-3.219,1.903-6.454,4.215-8.81
					c2.297-2.38,5.177-3.871,8.039-4.807c1.533-0.481,2.643-0.747,3.912-1.228c1.236-0.454,2.46-0.983,3.661-1.566
					c4.778-2.368,9.292-5.555,12.671-9.666c1.672-2.056,3.028-4.376,3.703-6.901c0.721-2.516,0.607-5.218-0.198-7.752l-0.004-0.012
					c-0.119-0.376,0.089-0.777,0.464-0.897c0.359-0.114,0.742,0.073,0.88,0.417c1.076,2.703,1.424,5.784,0.8,8.692
					c-0.573,2.921-1.921,5.615-3.601,7.993c-3.41,4.759-7.984,8.462-12.979,11.381c-1.26,0.721-2.555,1.39-3.898,1.989
					c-1.3,0.602-2.868,1.121-3.968,1.547c-2.363,0.941-4.475,2.28-5.947,4.032c-1.481,1.743-2.295,3.888-2.469,6.201
					c-0.083,1.156-0.034,2.345,0.16,3.528c0.093,0.591,0.215,1.181,0.371,1.758c0.078,0.288,0.161,0.573,0.252,0.851
					c0.084,0.256,0.205,0.591,0.266,0.723c0.675,1.47,0.03,3.209-1.441,3.884c-1.47,0.675-3.209,0.03-3.884-1.441
					c-0.037-0.082-0.071-0.164-0.1-0.247L399.858,55.838z"/>
			</g>
			<g>
				<path class="st2" d="M424.64,26.943c-0.731-0.635-1.223-1.198-1.77-1.827c-0.515-0.626-1.004-1.265-1.448-1.929
					c-0.891-1.327-1.661-2.722-2.256-4.184c-0.595-1.458-1.085-2.952-1.367-4.483c-0.331-1.519-0.433-3.067-0.483-4.593
					c-0.008-0.238,0.179-0.436,0.416-0.444c0.216-0.007,0.4,0.146,0.437,0.352l0.004,0.024c0.267,1.455,0.578,2.891,1.097,4.254
					c0.469,1.376,1.125,2.673,1.854,3.903c0.728,1.233,1.6,2.368,2.55,3.409c0.474,0.522,0.979,1.009,1.493,1.474
					c0.506,0.439,1.099,0.916,1.556,1.2l0.012,0.007c0.83,0.516,1.085,1.606,0.569,2.436c-0.516,0.83-1.606,1.085-2.436,0.569
					C424.789,27.061,424.708,27.001,424.64,26.943z"/>
			</g>
			<g>
				<path class="st2" d="M414.36,35.874c-0.531-0.336-0.882-0.604-1.284-0.919c-0.39-0.302-0.758-0.62-1.12-0.94
					c-0.725-0.641-1.395-1.329-2.041-2.033c-1.278-1.422-2.379-2.991-3.276-4.656c-0.477-0.815-0.822-1.703-1.198-2.558
					c-0.291-0.898-0.638-1.763-0.813-2.683c-0.479-1.8-0.567-3.659-0.582-5.466c-0.003-0.328,0.261-0.597,0.59-0.599
					c0.293-0.002,0.538,0.207,0.589,0.485l0.009,0.048c0.315,1.69,0.688,3.35,1.399,4.874c0.292,0.782,0.743,1.495,1.123,2.224
					c0.466,0.689,0.886,1.393,1.423,2.021c1.017,1.286,2.18,2.445,3.459,3.445c0.646,0.492,1.301,0.964,1.984,1.381
					c0.341,0.208,0.682,0.411,1.029,0.593c0.328,0.178,0.726,0.372,0.965,0.463c1.268,0.479,1.907,1.895,1.428,3.163
					c-0.479,1.268-1.895,1.907-3.163,1.428c-0.154-0.058-0.298-0.13-0.433-0.214L414.36,35.874z"/>
			</g>
			<g>
				<path class="st2" d="M433.005,20.281c0.517,0.139,1.272,0.259,1.933,0.298c0.685,0.057,1.374,0.042,2.061-0.005
					c1.371-0.112,2.717-0.463,3.942-1.085c1.222-0.618,2.358-1.491,3.217-2.639c0.494-0.528,0.808-1.189,1.2-1.809
					c0.351-0.644,0.598-1.347,0.908-2.028l0.03-0.066c0.098-0.215,0.351-0.31,0.566-0.212c0.195,0.089,0.291,0.306,0.234,0.506
					c-0.215,0.752-0.371,1.534-0.646,2.282c-0.32,0.73-0.569,1.507-1.03,2.186c-0.783,1.434-1.963,2.684-3.339,3.653
					c-1.378,0.976-2.974,1.652-4.617,2.032c-0.824,0.182-1.659,0.32-2.504,0.376c-0.867,0.064-1.644,0.076-2.635-0.031
					c-0.971-0.105-1.674-0.977-1.569-1.949s0.977-1.674,1.949-1.569c0.089,0.01,0.176,0.026,0.26,0.048L433.005,20.281z"/>
			</g>
			<g>
				<path class="st2" d="M415.561,32.27c0.397,0.36,1.014,0.811,1.585,1.146c0.584,0.363,1.204,0.664,1.837,0.935
					c1.272,0.525,2.63,0.827,4.004,0.832c1.37,0.008,2.779-0.252,4.067-0.881c0.68-0.245,1.262-0.69,1.894-1.063
					c0.606-0.413,1.146-0.926,1.733-1.391l0.057-0.045c0.185-0.146,0.454-0.115,0.6,0.07c0.133,0.168,0.119,0.405-0.023,0.557
					c-0.535,0.572-1.03,1.197-1.616,1.737c-0.618,0.504-1.194,1.082-1.914,1.476c-1.351,0.919-2.971,1.493-4.638,1.728
					c-1.672,0.24-3.4,0.114-5.036-0.296c-0.816-0.214-1.623-0.471-2.4-0.807c-0.801-0.338-1.498-0.682-2.331-1.228
					c-0.817-0.536-1.045-1.633-0.509-2.45c0.536-0.817,1.633-1.045,2.45-0.509c0.075,0.049,0.145,0.103,0.21,0.161L415.561,32.27z"
					/>
			</g>
			<path class="st3" d="M409.908,34.612"/>
		</g>
		<path class="st4" d="M488.183,96.445c-10.214,25.853-76.404,11.92-81.393,0.885c-5.893-13.039,10.66-36.957,0.425-49.728
			c-6.551-8.168-16.284-7.764-25.154,0.256c-12.32,11.139-31.085,9.123-31.085,9.123c5.788,7.595,15.211,15.01,32.655,14.635
			c-9.589,23.964-5.197,39.553,0.03,48.331l20.144,13.807c0,0,6.823,6.134,24.479,9.06c17.66,2.927,29.962-3.194,29.962-3.194
			l23.091-22.39C494.554,112.181,488.183,96.445,488.183,96.445z"/>
		<path class="st4" d="M405.084,55.193c0,0,3.532-6.139,9.645-8.322c6.113-2.183,12.376,0.462,12.376,0.462
			s-1.314,5.375-7.366,9.127C413.445,60.365,405.084,55.193,405.084,55.193z"/>
		<path class="st6" d="M389.485,59.066c-0.738-0.587-1.64-1.036-2.71-1.293c-0.012-0.464,0.056-0.974,0.233-1.491
			c0.522-1.53,1.72-2.507,2.675-2.184c0.954,0.326,1.309,1.832,0.788,3.366C390.242,58.124,389.89,58.672,389.485,59.066z"/>
		<path class="st7" d="M383.428,71.632c0,0-19.048,25.544,0.232,48.336c0,0-6.949-17.738-2.285-27.764
			c2.721-5.851,4.965-9.317,5.982-12.533c1.977-6.248,0.92-9.055,0.92-9.055L383.428,71.632z"/>
		<path class="st4" d="M479.519,111.425c-3.737,5.722-15.923,25.818-10.787,37.282c6.034,13.466,15.939,37.611,15.939,37.611
			l-4.588,1.129l-22.145-42.85l-4.702-16.248c2.464-2.479,5.042-4.846,7.754-7.06C467.072,117.777,473.197,114.376,479.519,111.425z
			"/>
		<path class="st7" d="M411.626,53.571c0,0,4.58-3.237,8.761-2.337C420.387,51.235,414.841,56.357,411.626,53.571z"/>
		<path class="st8" d="M609.276,94.279c-7.778-13.872-19.605-19.705-27.776-19.005c-39.5,3.381-61.08,60.418-147.66,55.009"/>
		<path class="st8" d="M431.709,126.45c-1.024,1.248,3.651,8.109-4.054,16.364"/>
		<path class="st7" d="M456.472,111.276c0,0-7.417,23.997-27.401,18.133c-19.986-5.864-15.417-26.612-15.417-26.612
			s26.781,6.859,26.298,7.913C439.466,111.76,456.472,111.276,456.472,111.276z"/>
		<path class="st28" d="M456.671,111.101c0,0-5.366,17.055-24.331,15.349c-18.967-1.702-18.687-23.654-18.687-23.654
			S441.719,112.461,456.671,111.101z"/>
		
			<pattern  id="SVGID_5_" xlink:href="#_x31_0_ppp_40_x25_" patternTransform="matrix(-1.0919 -0.1192 -0.1192 1.0919 -17202.5605 -322.6656)">
		</pattern>
		<path class="st29" d="M456.671,111.101c0,0-5.366,17.055-24.331,15.349c-18.967-1.702-18.687-23.654-18.687-23.654
			S441.719,112.461,456.671,111.101z"/>
		<path class="st4" d="M404.682,129.948c0.84,1.619,2.017,3.583,2.966,5.624l-26.174-8.329l-13.972,38.394l-3.55-1.699l11.33-43.851
			c0,0,20.06-1.255,23.351-2.097C400.563,122.021,402.62,125.979,404.682,129.948z"/>
	</g>
</g>
</svg>
