<?xml version="1.0" encoding="utf-8"?>
<!-- Generator: Adobe Illustrator 19.2.1, SVG Export Plug-In . SVG Version: 6.00 Build 0)  -->
<svg version="1.1" id="Layer_1" xmlns="http://www.w3.org/2000/svg" xmlns:xlink="http://www.w3.org/1999/xlink" x="0px" y="0px"
	 viewBox="0 0 264.4 189.9" style="enable-background:new 0 0 264.4 189.9;" xml:space="preserve">
<style type="text/css">
	.st0{fill-rule:evenodd;clip-rule:evenodd;fill:#B8342F;}
	.st1{fill-rule:evenodd;clip-rule:evenodd;fill:#4E4E4E;}
	.st2{fill-rule:evenodd;clip-rule:evenodd;fill:#FFFFFF;}
	.st3{fill-rule:evenodd;clip-rule:evenodd;fill:#DA4844;}
	.st4{fill:#FBB365;}
	.st5{fill-rule:evenodd;clip-rule:evenodd;fill:#F5C8B3;}
	.st6{fill:#4E4E4E;}
	.st7{fill-rule:evenodd;clip-rule:evenodd;fill:#F0A9A1;}
	.st8{fill:#F0A9A1;}
	.st9{fill-rule:evenodd;clip-rule:evenodd;fill:#F9C2B8;}
	.st10{fill:url(#SVGID_1_);}
	.st11{fill:url(#SVGID_2_);}
	.st12{fill:url(#SVGID_3_);}
	.st13{fill:#A8AAAD;}
	.st14{fill:url(#SVGID_4_);}
	.st15{clip-path:url(#SVGID_6_);fill:url(#SVGID_7_);}
	.st16{clip-path:url(#SVGID_9_);fill:#A8AAAD;}
	.st17{fill:url(#SVGID_10_);}
	.st18{fill:url(#SVGID_11_);}
	.st19{fill:url(#SVGID_12_);}
	.st20{fill:url(#SVGID_13_);}
</style>
<g>
	<g>
		<path class="st0" d="M103.9,107l28.8,6.4c2.6,6.6,1.2,12.5-3.9,17.6l-28.6-6.3C87,121.5,90.1,103.9,103.9,107z"/>
		<path class="st1" d="M143.3,115.2c6.6-0.2,10.6,2.4,5.4,6.2c2.8,0.3,8.6,2.8,7.6,7.1c-2,8.5-12.5,7.5-21,2
			C130.3,127.4,131.7,115.6,143.3,115.2z"/>
		<path class="st2" d="M128.1,130.7c2.6-4.9,4.2-13.1,3.8-17.4c-0.1-1.3,1.2-1.5,2-1.4c2.4,0.5,4.9,1.1,5.2,3.3
			c0.6,5.6-0.9,12.4-3.8,16.9c-1.1,1.7-3.8,1.2-6,0.7C128.3,132.5,127.5,131.7,128.1,130.7z"/>
	</g>
	<g>
		<path class="st1" d="M123.4,169.4c1,1.6,5.5,1.5,7,5.3c1.5,3.8,1.4,8.4-10,11.5c-10.6,2.9-14.1-2.6-14.9-9.4
			C104.7,170.1,120,164.3,123.4,169.4z"/>
		
			<rect x="93" y="119.6" transform="matrix(0.9193 -0.3937 0.3937 0.9193 -48.7002 52.1818)" class="st0" width="19.8" height="50.4"/>
		<path class="st2" d="M102.5,168.7c6-0.8,14.3-4.6,17.9-7.7c1.1-0.9,2.1,0.1,2.5,0.9c0.2,0.5,0.5,1,0.7,1.6c1.1,2.5,2,5.1,0.4,6.6
			c-4.4,4.2-11.4,7.1-17.4,7.4c-2.2,0.1-3.5-2.6-4.5-5c-0.2-0.5-0.4-0.9-0.6-1.4C101,170.1,101.3,168.8,102.5,168.7z"/>
	</g>
	<g>
		<path class="st1" d="M77.9,176.8c-0.3,1.8,2.9,4.9,1.3,8.7c-1.5,3.8-4.8,7-15.2,1.4c-9.7-5.2-8.3-11.6-4.2-17.1
			C63.9,164.4,78.9,170.8,77.9,176.8z"/>
		
			<rect x="54.9" y="135" transform="matrix(0.353 -0.9356 0.9356 0.353 -83.6998 168.6787)" class="st0" width="50.4" height="19.8"/>
		<path class="st2" d="M63.3,161.8c4.9,3.6,13.5,6.6,18.3,6.9c1.5,0.1,1.4,1.6,1.2,2.4c-0.2,0.5-0.4,1.1-0.6,1.6c-0.9,2.6-2,5-4.3,5
			c-6.1-0.1-13.2-2.8-17.7-6.7c-1.7-1.5-0.7-4.3,0.2-6.7c0.2-0.5,0.3-0.9,0.5-1.4C61.3,161.8,62.3,161.1,63.3,161.8z"/>
	</g>
	<g>
		
			<ellipse transform="matrix(0.9926 -0.1215 0.1215 0.9926 -14.0076 11.7933)" class="st3" cx="89.7" cy="120.7" rx="46.5" ry="40.2"/>
		<path class="st1" d="M59.7,152.4c20.9,6.3,47.7,3,66.9-8.4c3.4-3.9,6-8.4,7.6-13.1c-22.1,18.2-59.4,22.7-85.2,10.4
			C51.7,145.6,55.4,149.4,59.7,152.4z"/>
		<path class="st4" d="M113,139.7l-8.9,2.6c-1.1,0.3-2,1.1-2.7,2l0,0c-0.6,0.9-1,2.1-0.8,3.2l0.7,5.7c0.1,1.1,0.7,2,1.5,2.5l0,0
			c0.8,0.5,1.9,0.7,2.9,0.4l8.9-2.6c1.1-0.3,2-1.1,2.7-2l0,0c0.6-0.9,1-2.1,0.8-3.2l-0.7-5.7c-0.1-1.1-0.7-2-1.5-2.5l0,0
			C115.1,139.5,114.1,139.4,113,139.7L113,139.7z M104.5,145.7l8.9-2.6c0.2,0,0.3,0,0.4,0.1l0,0c0.1,0.1,0.2,0.2,0.2,0.4l0.7,5.7
			c0,0.2,0,0.3-0.1,0.5l0,0c-0.1,0.1-0.2,0.2-0.4,0.3l-8.9,2.6c-0.2,0-0.3,0-0.4-0.1l0,0c-0.1-0.1-0.2-0.2-0.2-0.4l-0.7-5.7
			c0-0.2,0-0.3,0.1-0.5l0,0C104.2,145.9,104.3,145.8,104.5,145.7z"/>
	</g>
	<g>
		<ellipse transform="matrix(0.9701 -0.2429 0.2429 0.9701 -15.9981 20.9684)" class="st2" cx="77" cy="75.4" rx="50.2" ry="32.1"/>
		<ellipse transform="matrix(0.9701 -0.2429 0.2429 0.9701 -14.4812 21.8797)" class="st5" cx="81.5" cy="69.7" rx="35" ry="32.6"/>
		<g>
			
				<ellipse transform="matrix(0.9701 -0.2429 0.2429 0.9701 -16.2664 28.19)" class="st2" cx="106.2" cy="80.1" rx="15.6" ry="19.4"/>
			
				<ellipse transform="matrix(0.9701 -0.2429 0.2429 0.9701 -19.3277 20.2536)" class="st2" cx="72.5" cy="88.5" rx="28.9" ry="19.4"/>
		</g>
		<ellipse transform="matrix(0.9701 -0.2429 0.2429 0.9701 -20.087 29.9075)" class="st2" cx="111.2" cy="96.4" rx="21" ry="21.1"/>
		
			<ellipse transform="matrix(0.9701 -0.2429 0.2429 0.9701 -24.1561 18.3131)" class="st2" cx="62.2" cy="107.1" rx="21" ry="21.1"/>
		<ellipse transform="matrix(0.9701 -0.2429 0.2429 0.9701 -24.1385 25.937)" class="st2" cx="93.1" cy="110.9" rx="21" ry="21.1"/>
		<path class="st6" d="M107,53.5c0.3,0.4,0.8,0.4,1.1,0.2c0.4-0.3,0.4-0.8,0.2-1.1c-0.4-0.6-1.1-1-1.8-1.3c-1.3-0.5-3.2-0.6-5-0.3
			c-1.8,0.3-3.6,0.9-4.9,1.9c-0.9,0.6-1.6,1.4-1.9,2.4c-0.2,0.4,0.1,0.9,0.5,1c0.4,0.2,0.9-0.1,1-0.5c0.2-0.6,0.7-1.2,1.4-1.7
			c1.1-0.8,2.6-1.4,4.2-1.6c1.5-0.2,3.1-0.2,4.1,0.2C106.4,53,106.8,53.2,107,53.5z"/>
		
			<ellipse transform="matrix(0.9701 -0.2429 0.2429 0.9701 -13.5027 23.9276)" class="st7" cx="90.3" cy="66.7" rx="10.2" ry="10.2"/>
		<path class="st2" d="M70.6,50.8c4.6-2.7,9.4-3.1,10.7-0.9c1.3,2.2-4,2.3-8.7,5c-4.6,2.7-6.8,7-8.1,4.8
			C63.2,57.5,65.9,53.5,70.6,50.8z"/>
		<path class="st2" d="M98.8,43.3c-5.3-0.2-9.8,1.7-9.9,4.2c-0.1,2.5,4.7,0.1,10,0.3c5.3,0.2,9.3,2.9,9.4,0.4
			C108.4,45.7,104.2,43.5,98.8,43.3z"/>
		<path class="st8" d="M103,75.9c0.1-0.4-0.1-0.9-0.5-1c-0.4-0.1-0.9,0.1-1,0.5c-0.2,0.7-0.7,1.4-1.4,2c-1.4,1.4-3.6,2.5-6,3.2
			c-2.3,0.6-4.8,0.8-6.7,0.1c-0.8-0.3-1.6-0.7-2.1-1.3c-0.3-0.3-0.8-0.3-1.1,0c-0.3,0.3-0.3,0.8,0,1.1c0.8,0.8,1.7,1.3,2.8,1.7
			c2.2,0.7,5,0.6,7.6-0.1c2.6-0.7,5-2,6.7-3.6C102.1,77.8,102.7,76.9,103,75.9z"/>
		<path class="st3" d="M93.8,22.8c-14-21.2-34.5-34.4-54.8-8.3c-20.3,26.1-26.5,37.9,0.3,27.4C65.9,31.5,76.2,31.7,93.8,22.8z"/>
		<path class="st0" d="M50.9,40.5c-3.7-4-4.5-19.5,4.5-26.2C64.3,7.7,45.8,20.8,50.9,40.5z"/>
		
			<ellipse transform="matrix(0.9701 -0.2429 0.2429 0.9701 -11.8074 5.2309)" class="st2" cx="15.3" cy="50.5" rx="15.3" ry="15.3"/>
		<path class="st2" d="M66.1,19.1c-22.6,5.6-36.9,26.1-32,45.6c1.1,4.5,3.2,8.6,6,12.1c2.6-14.7,21.7-35,45-35.7
			c17.9-0.5,23.6,5.1,29.6,17.5C124.3,26.4,91.1,12.8,66.1,19.1z"/>
		<ellipse transform="matrix(0.9701 -0.2429 0.2429 0.9701 -12.2361 24.0671)" class="st9" cx="91.5" cy="61.7" rx="2.8" ry="2.8"/>
		<path class="st6" d="M66.9,62.9c-0.1,0.4,0.2,0.8,0.7,0.9c0.4,0.1,0.8-0.2,0.9-0.7c0.1-0.4,0.3-0.8,0.6-1.2
			c0.8-0.9,2.1-1.6,3.5-2.2c1.5-0.5,3.1-0.8,4.5-0.6c0.8,0.1,1.5,0.4,2,0.8c0.3,0.3,0.8,0.3,1.1-0.1c0.3-0.3,0.3-0.8-0.1-1.1
			c-0.8-0.7-1.7-1.1-2.8-1.2c-1.6-0.2-3.5,0-5.2,0.6c-1.7,0.6-3.3,1.5-4.2,2.6C67.3,61.6,67,62.2,66.9,62.9z"/>
	</g>
	<g>
		<linearGradient id="SVGID_1_" gradientUnits="userSpaceOnUse" x1="141.7494" y1="169.9575" x2="164.5419" y2="169.9575">
			<stop  offset="0" style="stop-color:#33C4F2"/>
			<stop  offset="0.5" style="stop-color:#27ACE3"/>
			<stop  offset="1" style="stop-color:#1E94D2"/>
		</linearGradient>
		<path class="st10" d="M144.1,159.4c0,0-8.4,14.7,6.6,19.1c0,0,6.9,2,13.9,2C164.5,180.5,145.6,164.4,144.1,159.4z"/>
		<linearGradient id="SVGID_2_" gradientUnits="userSpaceOnUse" x1="222.498" y1="169.9575" x2="246.6688" y2="169.9575">
			<stop  offset="0" style="stop-color:#33C4F2"/>
			<stop  offset="0.5" style="stop-color:#27ACE3"/>
			<stop  offset="1" style="stop-color:#1E94D2"/>
		</linearGradient>
		<path class="st11" d="M243,159.4c0,0,11.8,13.6-6.6,19.1c0,0-6.9,2-13.9,2C222.5,180.5,241.4,164.4,243,159.4z"/>
		<linearGradient id="SVGID_3_" gradientUnits="userSpaceOnUse" x1="194.4159" y1="139.9105" x2="194.4159" y2="96.3901">
			<stop  offset="0" style="stop-color:#FEE7A2"/>
			<stop  offset="0.5" style="stop-color:#FFCB05"/>
			<stop  offset="1" style="stop-color:#F8AC1C"/>
		</linearGradient>
		<path class="st12" d="M260.1,103l-0.1,0.1c-1-3.3-5.5-11-8.6-15.9c-5.6-8.8-14.3-15.3-14.5-15.5l-1.9-1.6l-39.8,35.5l-42.8-35.3
			l-2.5,2.3c-0.5,0.7-7.5,5.9-12.1,12.9c-5.6,8.5-8.6,16.3-9.1,17.3l-0.2,0.7l0,0c-0.5,3-1.8,14.5,9.8,14.2l3.7-4.5l0,0l52.6,37.8
			l53.6-38.9l-1.5,1.1l3.7,4.5C263.8,118.2,260.1,103,260.1,103z"/>
		<path class="st13" d="M233.5,156.6L233.5,156.6l-18.9-23.1l-20.7,17.7l-20.7-17.6l-24.9,31.2c-0.1,0.2-0.7,1.1-0.8,2.5
			c11.4,12.6,27.8,20.6,46.1,20.6c18.9,0,35.8-8.5,47.2-21.8C239.5,163.6,237.4,160.5,233.5,156.6z"/>
		<path class="st13" d="M164,80.5l32.2,25.7l29.4-25.7l30.3,36.8c-4.1-30.2-30.1-53.6-61.5-53.6c-31.8,0-58.1,24.1-61.6,55L164,80.5
			z"/>
		<path class="st13" d="M164,80.5l32.2,25.7l29.4-25.7l30.3,36.8c-4.1-30.2-30.1-53.6-61.5-53.6c-31.8,0-58.1,24.1-61.6,55L164,80.5
			z"/>
		<path class="st13" d="M218.1,180.4c-13.6-3.7-3.8-28.6,12.7-26.1c0.3,0,0.6,0.1,1,0.2l-17.1-21l-20.7,17.7l-20.7-17.6l-16.9,21.1
			c0.5-0.1,1.1-0.2,1.7-0.3c16.5-2.6,26.3,22.4,12.7,26.1c-1.7,0.4-3.3,0.7-4.9,0.8c8.3,4.2,17.8,6.6,27.7,6.6
			c10.1,0,19.6-2.4,28-6.7C220.4,180.9,219.3,180.7,218.1,180.4z"/>
		<radialGradient id="SVGID_4_" cx="195.707" cy="113.506" r="66.9036" gradientUnits="userSpaceOnUse">
			<stop  offset="0" style="stop-color:#FFFFFF"/>
			<stop  offset="0.205" style="stop-color:#EFEFEF"/>
			<stop  offset="0.7237" style="stop-color:#CBCBCB"/>
			<stop  offset="1" style="stop-color:#BDBDBD"/>
		</radialGradient>
		<path class="st14" d="M254,125.7c0,32.9-26.6,59.5-59.5,59.5S135,158.5,135,125.7c0-32.9,26.6-59.5,59.5-59.5S254,92.8,254,125.7z
			"/>
		<g>
			<defs>
				<path id="SVGID_5_" d="M254,125.7c0,32.9-26.6,59.5-59.5,59.5S135,158.5,135,125.7c0-32.9,26.6-59.5,59.5-59.5
					S254,92.8,254,125.7z"/>
			</defs>
			<clipPath id="SVGID_6_">
				<use xlink:href="#SVGID_5_"  style="overflow:visible;"/>
			</clipPath>
			<linearGradient id="SVGID_7_" gradientUnits="userSpaceOnUse" x1="165.2614" y1="107.9027" x2="208.4644" y2="69.7822">
				<stop  offset="0" style="stop-color:#FFFFFF"/>
				<stop  offset="1" style="stop-color:#E3E3E3"/>
			</linearGradient>
			<path class="st15" d="M229.2,77.3c0,0-86.8-13.7-82.8,74.4c2.7,59.5-24.4-20-6.8-60.6C157.2,50.6,215.7,43.2,229.2,77.3z"/>
		</g>
		<g>
			<defs>
				<path id="SVGID_8_" d="M254,125.7c0,32.9-26.6,59.5-59.5,59.5S135,158.5,135,125.7c0-32.9,26.6-59.5,59.5-59.5
					S254,92.8,254,125.7z"/>
			</defs>
			<clipPath id="SVGID_9_">
				<use xlink:href="#SVGID_8_"  style="overflow:visible;"/>
			</clipPath>
			<path class="st16" d="M243.6,179.4l-0.5-0.2c0-0.1,1.2-5.1-8.6-15l-0.1-0.1l-18.8-23.1l-19.8,16.2l-21.6-16.1L149,172.5l-0.2,0.1
				c-0.1,0.1-3.7,2.9-2.5,6.1l-3,1.5l-2.8-4.6l-16.1-29.1v-0.4c0-0.4,0-8.8,4.3-14.6L164,88.2l32.2,25.7l29.4-25.7l38.2,46.4
				l0.1,0.4c0.1,0.3,2.1,8.3-0.1,13.5l0,0.1l-17.6,32.1L243.6,179.4z"/>
		</g>
		<linearGradient id="SVGID_10_" gradientUnits="userSpaceOnUse" x1="193.6455" y1="148.3161" x2="194.7785" y2="121.3999">
			<stop  offset="0" style="stop-color:#33C4F2"/>
			<stop  offset="0.5" style="stop-color:#27ACE3"/>
			<stop  offset="1" style="stop-color:#1E94D2"/>
		</linearGradient>
		<path class="st17" d="M243.1,171.8l-0.5-0.1c0-0.1,1.2-5.1-8.6-15l-0.1-0.1l-18.8-23.1l-20.7,17.7l-20.7-17.6l-25.1,31.4l-0.2,0.1
			c-0.1,0.1-3.7,2.9-2.5,6.1l-3,1.5L140,168l-16.1-29.1v-0.4c0-0.4,0-8.8,4.3-14.6l35.4-43.3l32.2,25.7l29.4-25.7l38.2,46.4l0.1,0.4
			c0.1,0.3,2.1,8.3-0.1,13.5l0,0.1L245.8,173L243.1,171.8z"/>
		<linearGradient id="SVGID_11_" gradientUnits="userSpaceOnUse" x1="194.1341" y1="74.7904" x2="194.1341" y2="171.7618">
			<stop  offset="0" style="stop-color:#33C4F2"/>
			<stop  offset="0.5" style="stop-color:#27ACE3"/>
			<stop  offset="1" style="stop-color:#1E94D2"/>
		</linearGradient>
		<path class="st18" d="M129.5,124.8l34.3-41.9l32,25.5L225,82.9l36.8,44.8c0,0,2,7.7,0,12.5l-17.6,32c0,0,2-5.7-9.1-16.7
			l-19.8-24.4l-21,17.8l-21-17.8l-26.1,32.6c0,0-4.8,3.6-3.1,8.1l-2.8-4.6l-15.9-28.7C125.6,138.4,125.6,130.2,129.5,124.8z"/>
		<linearGradient id="SVGID_12_" gradientUnits="userSpaceOnUse" x1="194.3367" y1="116.8408" x2="194.3367" y2="103.0259">
			<stop  offset="0" style="stop-color:#FEE7A2"/>
			<stop  offset="0.5" style="stop-color:#FFCB05"/>
			<stop  offset="1" style="stop-color:#F8AC1C"/>
		</linearGradient>
		<path class="st19" d="M128.6,103.7l0.2-0.7c0.4-1.1,3.5-8.8,9.1-17.3c4.6-7,11.6-12.2,12.1-12.9l2.5-2.3l42.8,35.3l39.8-35.5
			l1.9,1.6c0.2,0.2,8.9,6.7,14.5,15.5c3.2,5.1,8,13.3,8.7,16.3l-0.7,0.6l-64.7,47L128.6,103.7z"/>
		<linearGradient id="SVGID_13_" gradientUnits="userSpaceOnUse" x1="198.1122" y1="88.398" x2="185.8971" y2="135.0772">
			<stop  offset="0" style="stop-color:#FEE7A2"/>
			<stop  offset="0.5" style="stop-color:#FFCB05"/>
			<stop  offset="1" style="stop-color:#F8AC1C"/>
		</linearGradient>
		<path class="st20" d="M195,108.7L235,73.2c0,0,9,7.6,14.2,15.3c6.3,9.4,8.6,14.4,8.6,14.4l-62.8,45.5L131,102.8
			c0,0,2.9-7.7,9-16.2c5.9-8.4,12.2-13.1,12.2-13.1L195,108.7z"/>
	</g>
	<g>
		<path class="st0" d="M88.5,116l29,5.3c2.9,6.5,1.6,12.4-3.3,17.8l-28.8-5.3C72,131.2,74.6,113.4,88.5,116z"/>
		<path class="st1" d="M128.2,122.8c6.6-0.5,10.7,2.1,5.6,6c2.9,0.2,8.7,2.5,7.8,6.8c-1.7,8.6-12.3,7.9-20.9,2.8
			C115.6,135.5,116.6,123.6,128.2,122.8z"/>
		<path class="st2" d="M113.4,138.8c2.4-5,3.7-13.3,3.2-17.5c-0.2-1.3,1.2-1.6,2-1.4c2.5,0.4,5,1,5.3,3.1c0.8,5.6-0.5,12.4-3.2,17
			c-1,1.8-3.7,1.4-6,0.9C113.7,140.7,113,139.8,113.4,138.8z"/>
	</g>
</g>
</svg>
