<?xml version="1.0" encoding="utf-8"?>
<!-- Generator: Adobe Illustrator 19.2.1, SVG Export Plug-In . SVG Version: 6.00 Build 0)  -->
<svg version="1.1" xmlns="http://www.w3.org/2000/svg" xmlns:xlink="http://www.w3.org/1999/xlink" x="0px" y="0px"
	 viewBox="0 0 816.2 1036.1" style="enable-background:new 0 0 816.2 1036.1;" xml:space="preserve">
<style type="text/css">
	.st0{fill:#A5D329;}
	.st1{fill:#A1C923;}
	.st2{fill:#EF303E;}
	.st3{clip-path:url(#SVGID_2_);}
	.st4{fill:#D1D3D4;}
	.st5{fill:#58595B;}
	.st6{fill:#FCCC33;}
	.st7{fill:#E5B01A;}
	.st8{fill:#E6E7E8;}
	.st9{fill:#FFD34D;}
	.st10{fill:none;stroke:#EC008C;stroke-miterlimit:10;}
	.st11{fill:#63A69F;}
	.st12{fill:#5A25A0;}
	.st13{fill:#DB1F00;}
	.st14{fill:#FF2D00;}
	.st15{fill:#27AAE1;}
	.st16{fill:#5CA038;}
	.st17{fill:#7ABF5A;}
	.st18{fill:#A73E5C;}
	.st19{fill:#231F20;}
	.st20{fill:#D2FBFF;}
	.st21{fill:#FFFAD7;}
	.st22{fill:#ED1C24;}
	.st23{fill:#FFFFFF;}
	.st24{fill:#931D0A;}
	.st25{opacity:0.5;fill:#FFFFFF;}
	.st26{fill:#C3DDDC;}
	.st27{fill:#E8B72D;}
	.st28{fill:#FFDC7B;}
	.st29{fill:#D31A39;}
	.st30{fill:#309935;}
	.st31{fill:#A7A9AC;}
	.st32{fill:#414042;}
</style>
<g id="OBJECTS">
	<g>
		<g>
			<path class="st0" d="M125.6,1000.4c12.9,0,24.5-0.8,32.1-2.1c2.5-0.4,4.4-2.6,4.4-5.2l0.7-35c0-0.5-0.4-0.9-0.8-0.9H89.2
				c-0.5,0-0.8,0.4-0.8,0.9l0.9,35c0.1,2.6,1.9,4.7,4.4,5.1C101.3,999.6,112.8,1000.4,125.6,1000.4z"/>
			<path class="st0" d="M125.6,1000.4c12.9,0,24.5-0.8,32.1-2.1c2.5-0.4,4.4-2.6,4.4-5.2l0.7-35c0-0.5-0.4-0.9-0.8-0.9H89.2
				c-0.5,0-0.8,0.4-0.8,0.9l0.9,35c0.1,2.6,1.9,4.7,4.4,5.1C101.3,999.6,112.8,1000.4,125.6,1000.4z"/>
			<path class="st1" d="M125.6,945.8c-23,0-41.6,2.6-41.6,5.7v11.9l1.2,0.5c4.5,2.5,20.9,4.4,40.4,4.4s36-1.9,40.4-4.4l1.2-0.5
				v-11.9C167.2,948.4,148.6,945.8,125.6,945.8z"/>
			<path class="st1" d="M125.6,945.8c-23,0-41.6,2.6-41.6,5.7v11.9l1.2,0.5c4.5,2.5,20.9,4.4,40.4,4.4s36-1.9,40.4-4.4l1.2-0.5
				v-11.9C167.2,948.4,148.6,945.8,125.6,945.8z"/>
			<path class="st2" d="M125.6,945.8c-23,0-41.6,2.6-41.6,5.7v11.9l1.2,0.5c0.8,0.4,1.9,0.9,3.4,1.3l0.7,28c0.1,2.6,1.9,4.7,4.4,5.1
				c7.6,1.3,19.1,2.1,31.9,2.1c12.9,0,24.5-0.8,32.1-2.1c2.5-0.4,4.4-2.6,4.4-5.2l0.5-27.9c1.4-0.4,2.6-0.8,3.3-1.2l1.2-0.5v-11.9
				C167.2,948.4,148.6,945.8,125.6,945.8z"/>
			<g>
				<defs>
					<path id="SVGID_1_" d="M125.6,945.8c-23,0-41.6,2.6-41.6,5.7v11.9l1.2,0.5c0.8,0.4,1.9,0.9,3.4,1.3l0.7,28
						c0.1,2.6,1.9,4.7,4.4,5.1c7.6,1.3,19.1,2.1,31.9,2.1c12.9,0,24.5-0.8,32.1-2.1c2.5-0.4,4.4-2.6,4.4-5.2l0.5-27.9
						c1.4-0.4,2.6-0.8,3.3-1.2l1.2-0.5v-11.9C167.2,948.4,148.6,945.8,125.6,945.8z"/>
				</defs>
				<clipPath id="SVGID_2_">
					<use xlink:href="#SVGID_1_"  style="overflow:visible;"/>
				</clipPath>
				<g class="st3">
					<g>
						<g>
							<polygon class="st4" points="96.8,943.1 97.8,945.3 100.1,945.5 98.4,947.1 98.9,949.4 96.8,948.2 94.8,949.4 95.3,947.1 
								93.5,945.5 95.9,945.3 							"/>
							<polygon class="st4" points="112.5,943.1 113.5,945.3 115.8,945.5 114.1,947.1 114.6,949.4 112.5,948.2 110.5,949.4 
								111,947.1 109.3,945.5 111.6,945.3 							"/>
							<polygon class="st4" points="128.3,943.1 129.2,945.3 131.6,945.5 129.8,947.1 130.3,949.4 128.3,948.2 126.2,949.4 
								126.7,947.1 125,945.5 127.3,945.3 							"/>
							<polygon class="st4" points="144,943.1 144.9,945.3 147.3,945.5 145.5,947.1 146,949.4 144,948.2 141.9,949.4 142.4,947.1 
								140.7,945.5 143,945.3 							"/>
							<polygon class="st4" points="159.7,943.1 160.6,945.3 163,945.5 161.2,947.1 161.7,949.4 159.7,948.2 157.7,949.4 
								158.2,947.1 156.4,945.5 158.7,945.3 							"/>
						</g>
					</g>
					<g>
						<g>
							<polygon class="st4" points="88.2,951.8 89.2,954 91.5,954.2 89.7,955.8 90.2,958.1 88.2,956.9 86.2,958.1 86.7,955.8 
								84.9,954.2 87.3,954 							"/>
							<polygon class="st4" points="103.9,951.8 104.9,954 107.2,954.2 105.5,955.8 106,958.1 103.9,956.9 101.9,958.1 102.4,955.8 
								100.6,954.2 103,954 							"/>
							<polygon class="st4" points="119.6,951.8 120.6,954 122.9,954.2 121.2,955.8 121.7,958.1 119.6,956.9 117.6,958.1 
								118.1,955.8 116.3,954.2 118.7,954 							"/>
							<polygon class="st4" points="135.4,951.8 136.3,954 138.6,954.2 136.9,955.8 137.4,958.1 135.4,956.9 133.3,958.1 
								133.8,955.8 132.1,954.2 134.4,954 							"/>
							<polygon class="st4" points="151.1,951.8 152,954 154.4,954.2 152.6,955.8 153.1,958.1 151.1,956.9 149,958.1 149.5,955.8 
								147.8,954.2 150.1,954 							"/>
						</g>
						<g>
							<polygon class="st4" points="96.8,960.8 97.8,962.9 100.1,963.2 98.4,964.8 98.9,967.1 96.8,965.9 94.8,967.1 95.3,964.8 
								93.5,963.2 95.9,962.9 							"/>
							<polygon class="st4" points="112.5,960.8 113.5,962.9 115.8,963.2 114.1,964.8 114.6,967.1 112.5,965.9 110.5,967.1 
								111,964.8 109.3,963.2 111.6,962.9 							"/>
							<polygon class="st4" points="128.3,960.8 129.2,962.9 131.6,963.2 129.8,964.8 130.3,967.1 128.3,965.9 126.2,967.1 
								126.7,964.8 125,963.2 127.3,962.9 							"/>
							<polygon class="st4" points="144,960.8 144.9,962.9 147.3,963.2 145.5,964.8 146,967.1 144,965.9 141.9,967.1 142.4,964.8 
								140.7,963.2 143,962.9 							"/>
							<polygon class="st4" points="159.7,960.8 160.6,962.9 163,963.2 161.2,964.8 161.7,967.1 159.7,965.9 157.7,967.1 
								158.2,964.8 156.4,963.2 158.7,962.9 							"/>
						</g>
					</g>
					<g>
						<g>
							<polygon class="st4" points="88.2,970.6 89.2,972.8 91.5,973 89.7,974.6 90.2,976.9 88.2,975.7 86.2,976.9 86.7,974.6 
								84.9,973 87.3,972.8 							"/>
							<polygon class="st4" points="103.9,970.6 104.9,972.8 107.2,973 105.5,974.6 106,976.9 103.9,975.7 101.9,976.9 102.4,974.6 
								100.6,973 103,972.8 							"/>
							<polygon class="st4" points="119.6,970.6 120.6,972.8 122.9,973 121.2,974.6 121.7,976.9 119.6,975.7 117.6,976.9 
								118.1,974.6 116.3,973 118.7,972.8 							"/>
							<polygon class="st4" points="135.4,970.6 136.3,972.8 138.6,973 136.9,974.6 137.4,976.9 135.4,975.7 133.3,976.9 
								133.8,974.6 132.1,973 134.4,972.8 							"/>
							<polygon class="st4" points="151.1,970.6 152,972.8 154.4,973 152.6,974.6 153.1,976.9 151.1,975.7 149,976.9 149.5,974.6 
								147.8,973 150.1,972.8 							"/>
						</g>
						<g>
							<polygon class="st4" points="96.8,979.6 97.8,981.7 100.1,982 98.4,983.5 98.9,985.8 96.8,984.7 94.8,985.8 95.3,983.5 
								93.5,982 95.9,981.7 							"/>
							<polygon class="st4" points="112.5,979.6 113.5,981.7 115.8,982 114.1,983.5 114.6,985.8 112.5,984.7 110.5,985.8 111,983.5 
								109.3,982 111.6,981.7 							"/>
							<polygon class="st4" points="128.3,979.6 129.2,981.7 131.6,982 129.8,983.5 130.3,985.8 128.3,984.7 126.2,985.8 
								126.7,983.5 125,982 127.3,981.7 							"/>
							<polygon class="st4" points="144,979.6 144.9,981.7 147.3,982 145.5,983.5 146,985.8 144,984.7 141.9,985.8 142.4,983.5 
								140.7,982 143,981.7 							"/>
							<polygon class="st4" points="159.7,979.6 160.6,981.7 163,982 161.2,983.5 161.7,985.8 159.7,984.7 157.7,985.8 158.2,983.5 
								156.4,982 158.7,981.7 							"/>
						</g>
					</g>
					<g>
						<polygon class="st4" points="88.2,989.5 89.2,991.7 91.5,991.9 89.7,993.5 90.2,995.8 88.2,994.6 86.2,995.8 86.7,993.5 
							84.9,991.9 87.3,991.7 						"/>
						<polygon class="st4" points="103.9,989.5 104.9,991.7 107.2,991.9 105.5,993.5 106,995.8 103.9,994.6 101.9,995.8 
							102.4,993.5 100.6,991.9 103,991.7 						"/>
						<polygon class="st4" points="119.6,989.5 120.6,991.7 122.9,991.9 121.2,993.5 121.7,995.8 119.6,994.6 117.6,995.8 
							118.1,993.5 116.3,991.9 118.7,991.7 						"/>
						<polygon class="st4" points="135.4,989.5 136.3,991.7 138.6,991.9 136.9,993.5 137.4,995.8 135.4,994.6 133.3,995.8 
							133.8,993.5 132.1,991.9 134.4,991.7 						"/>
						<polygon class="st4" points="151.1,989.5 152,991.7 154.4,991.9 152.6,993.5 153.1,995.8 151.1,994.6 149,995.8 149.5,993.5 
							147.8,991.9 150.1,991.7 						"/>
					</g>
					<polygon class="st4" points="82.1,962.9 81.8,962.4 81.9,966.3 83.2,967.1 82.7,964.8 84.4,963.2 					"/>
					<polygon class="st4" points="82.3,981.8 82.4,985.4 83.2,985.8 82.7,983.5 84.4,982 					"/>
					<polygon class="st4" points="96.8,998.5 95.9,1000.6 97.8,1000.6 					"/>
					<polygon class="st4" points="82.1,945.3 81.3,943.6 81.5,948.4 83.2,949.4 82.7,947.1 84.4,945.5 					"/>
					<polygon class="st4" points="112.5,998.5 111.6,1000.6 113.5,1000.6 					"/>
					<polygon class="st4" points="128.3,998.5 127.3,1000.6 129.2,1000.6 					"/>
					<polygon class="st4" points="144,998.5 143,1000.6 144.9,1000.6 					"/>
					<polygon class="st4" points="159.7,998.5 158.7,1000.6 160.6,1000.6 					"/>
					<polygon class="st4" points="168.4,954 167.7,954 166.8,951.8 165.8,954 163.5,954.2 165.2,955.8 164.7,958.1 166.8,956.9 
						168.3,957.8 168.4,956.1 168.3,955.8 168.4,955.7 					"/>
					<polygon class="st4" points="166.8,975.7 168,976.4 168.1,972.8 167.7,972.8 166.8,970.6 165.8,972.8 163.5,973 165.2,974.6 
						164.7,976.9 					"/>
					<polygon class="st4" points="166.8,994.6 167.7,995.1 167.7,991.6 166.8,989.5 165.8,991.7 163.5,991.9 165.2,993.5 
						164.7,995.8 					"/>
				</g>
			</g>
			<path class="st5" d="M97.3,998.3c-2.5-0.4-4.4-2.6-4.4-5.1L92.1,966l0,0c7.6,1.4,19.7,2.3,33.4,2.3c0.6,0,1.2,0,1.7,0
				c-18.8-0.1-34.4-1.9-38.7-4.4l-1.2-0.5v-11.9c0-3.1,17.7-5.6,39.9-5.7c-0.6,0-1.1,0-1.7,0c-23,0-41.6,2.6-41.6,5.7v11.9l1.2,0.5
				c0.8,0.4,1.9,0.9,3.4,1.3l0.7,28c0.1,2.6,1.9,4.7,4.4,5.1c7.6,1.3,19.1,2.1,31.9,2.1c0.6,0,1.2,0,1.8,0
				C115.3,1000.3,104.5,999.5,97.3,998.3z"/>
		</g>
		<g>
			<path class="st6" d="M125.6,1000.4c1,0,1.9,0,2.9,0l2.2-45.4c0-0.3-0.3-0.6-0.6-0.6H121c-0.3,0-0.6,0.3-0.6,0.6l2.2,45.4
				C123.6,1000.4,124.6,1000.4,125.6,1000.4z"/>
			<path class="st2" d="M129.5,945.8c-1.3,0-2.6,0-4,0c-1.2,0-2.4,0-3.6,0v5.5h7.6V945.8z"/>
			<g>
				<g>
					<g>
						<path class="st6" d="M106,934c-2.2-0.3-4.2,1-4.9,3.1l-2.9,9.2c-0.1,0.2-0.1,0.5-0.1,0.7c5.7-3.7,21.7,6,23.7,7.2
							c0.1,0.1,0.3,0.1,0.4,0.1l1.5-0.3c0.4-0.1,0.6-0.5,0.4-0.8C122.6,949.8,115.7,935.5,106,934z"/>
						<path class="st5" d="M102.8,938.7c0.7-2,2.7-3.4,4.8-3.1c0,0,0.1,0,0.1,0c0.7,0.1,1-0.9,0.3-1.2c-0.7-0.2-1.4-0.4-2.1-0.5
							c-2.1-0.3-4.1,1-4.8,3.1l-2.9,9.2c-0.1,0.2-0.1,0.5-0.1,0.7c0.6-0.4,1.2-0.6,2-0.7c0.2,0,0.4-0.2,0.5-0.4L102.8,938.7z"/>
						<path class="st7" d="M98.3,946.8c-0.2,0.1-0.3,0.3-0.3,0.5c-0.1,0.6,0.2,1.8,2.7,2.9c3.8,1.6,21.3,4.1,21.3,4.1
							S104.5,943.3,98.3,946.8z"/>
					</g>
					<g>
						<path class="st6" d="M145.1,934c2.2-0.3,4.2,1,4.9,3.1l2.9,9.2c0.1,0.2,0.1,0.5,0.1,0.7c-5.7-3.7-21.7,6-23.7,7.2
							c-0.1,0.1-0.3,0.1-0.4,0.1l-1.5-0.3c-0.4-0.1-0.6-0.5-0.4-0.8C128.5,949.8,135.4,935.5,145.1,934z"/>
						<path class="st5" d="M146.8,934.9c0.9-0.1,1.8,0.2,2.5,0.7c-0.8-1.1-2.1-1.7-3.4-1.6c-10.1,0.8-17.3,15.8-18.9,19.2
							c-0.2,0.3,0,0.7,0.4,0.8l0.1,0c0.3,0.1,0.6-0.1,0.7-0.3C130.1,949.6,137.2,935.7,146.8,934.9z"/>
						<path class="st7" d="M152.8,946.8c0.2,0.1,0.3,0.3,0.3,0.5c0.1,0.6-0.2,1.8-2.7,2.9c-3.8,1.6-21.3,4.1-21.3,4.1
							S146.6,943.3,152.8,946.8z"/>
					</g>
				</g>
				<path class="st7" d="M126.2,949.6h-1.4c-1.8,0-3.3,1.5-3.3,3.3v0.8c0,0.3,0.3,0.6,0.6,0.6h6.8c0.3,0,0.6-0.3,0.6-0.6v-0.8
					C129.5,951.1,128.1,949.6,126.2,949.6z"/>
			</g>
		</g>
		<path class="st8" d="M162.6,965.2c-6,1.6-17.3,2.8-30.8,3.1l0.7-13.3c0-0.3-0.3-0.6-0.6-0.6h-1.8c0.3,0,0.6,0.3,0.6,0.6l-0.7,13.3
			c-1.5,0-3,0-4.5,0c-16.1,0-30.1-1.3-37-3.1c0,0,14,6.3,37,6.3c1.5,0,2.9,0,4.3,0l-1.4,28.9c-0.7,0-1.4,0-2.1,0c0.3,0,0.6,0,0.9,0
			c1,0,1.9,0,2.9,0l1.4-28.9c13.5-0.3,24.9-1.4,30.9-3.1L162.6,965.2z"/>
	</g>
	<g>
		<g>
			<g>
				<path class="st9" d="M137.5,665.3c-8.7,12.5-25.9,15.7-38.4,7c-12.5-8.7-15.7-25.9-7-38.4c8.7-12.5,25.9-15.7,38.4-7
					C143.1,635.6,146.2,652.8,137.5,665.3z"/>
				<path class="st10" d="M132.4,630.6c-1.1,1.7-3.4,2.1-5.1,0.9l0,0c-1.7-1.1-2.1-3.4-0.9-5.1l3.2-4.6c1.1-1.7,3.4-2.1,5.1-0.9l0,0
					c1.7,1.1,2.1,3.4,0.9,5.1L132.4,630.6z"/>
			</g>
			<g>
				
					<ellipse transform="matrix(0.2112 -0.9774 0.9774 0.2112 -36.4339 876.8691)" class="st11" cx="525.1" cy="461" rx="24.6" ry="24.6"/>
				<path class="st10" d="M517.1,482.6c0.4-1.8,2.1-2.9,3.9-2.5l0,0c1.8,0.4,2.9,2.1,2.5,3.9l-1.1,4.9c-0.4,1.8-2.1,2.9-3.9,2.5l0,0
					c-1.8-0.4-2.9-2.1-2.5-3.9L517.1,482.6z"/>
			</g>
			<g>
				<path class="st12" d="M253.8,367.2c-11.7,6.9-26.8,2.9-33.7-8.8c-6.9-11.7-2.9-26.8,8.8-33.7c11.7-6.9,26.8-2.9,33.7,8.8
					C269.5,345.2,265.6,360.3,253.8,367.2z"/>
				<path class="st10" d="M262.7,337.2c-1.6,0.9-3.5,0.4-4.5-1.2l0,0c-0.9-1.5-0.4-3.5,1.2-4.4l4.3-2.5c1.6-0.9,3.5-0.4,4.5,1.2l0,0
					c0.9,1.6,0.4,3.5-1.2,4.5L262.7,337.2z"/>
			</g>
			<g>
				
					<ellipse transform="matrix(0.9572 -0.2895 0.2895 0.9572 -67.0054 145.8053)" class="st13" cx="459.3" cy="299.4" rx="27.8" ry="27.8"/>
				<path class="st14" d="M455.4,273.6c0.6,1.9-0.5,4-2.5,4.6l0,0c-1.9,0.6-4-0.5-4.6-2.5l-1.6-5.4c-0.6-1.9,0.5-4,2.5-4.6l0,0
					c1.9-0.6,4,0.5,4.6,2.5L455.4,273.6z"/>
			</g>
			<g>
				
					<ellipse transform="matrix(0.9487 -0.3161 0.3161 0.9487 -141.038 84.2346)" class="st15" cx="189.1" cy="476.8" rx="27.8" ry="27.8"/>
				<path class="st14" d="M214.8,472.2c-1.9,0.6-4-0.4-4.6-2.3l0,0c-0.6-1.9,0.4-4,2.3-4.6l5.4-1.8c1.9-0.6,4,0.4,4.6,2.3l0,0
					c0.6,1.9-0.4,4-2.3,4.6L214.8,472.2z"/>
			</g>
			<path class="st16" d="M161.5,548.8c0,0-62.8,124.7-99.2,156.9l6.8,17.8l6.8,32.2c0,0,32.2,12.7,36,11c3.8-1.7,46.2-3.4,53.8-5.9
				c7.6-2.5,31.4,9.3,39,11.9c7.6,2.5,27.1,9.3,30.5,8.5c3.4-0.8,24,29.7,27.7,32.2c3.7,2.5,24,18.7,28.3,18.7
				c4.2,0,18.7,4.2,25.4,0c6.8-4.2,24.6-21.2,28.8-23.7c4.2-2.5,17.8-8.5,23.7-6.8c5.9,1.7,11.4,11.9,19.7,12.7
				c8.3,0.8,38.8-6.8,41.4-6.8c2.5,0,17.8-6.8,25.4-6.8c7.6,0,33.9,10.2,39.9,10.2c5.9,0,22.1-0.8,29.7-11.9
				c7.6-11,40.7-29.1,49.2-30.8c8.5-1.7,61.9-83.7,61.9-83.7s-61.9-78.9-72.9-117c-11-38.2-70.4-27.1-70.4-27.1L339.6,548
				l-135.7-4.2L161.5,548.8z"/>
			<path class="st17" d="M226.8,386.8c0,0-51.7,111.1-91.6,162l11,17l26.3,24.6l20.4,20.4l38.2,8.5l42.4-7.6l31.4,2.5l54,1.7
				l35.9,11.9l32.2,9.3l29.7-20.4l26.3-20.4l35.1-3.4l26,2.5l26.3-21.2l16.1-20.4c0,0-53.4-90.7-72.1-130.6
				c-18.7-39.9-48.3-50.9-48.3-50.9L371.8,397l-86.5,2.5L226.8,386.8z"/>
			<path class="st16" d="M278.8,268.4c0,0-40.1,81.4-79.1,117.6l7.3,14.7c0,0,22.6,8.5,23.7,10.2c1.1,1.7,11.9,23.2,13.6,23.2
				c1.7,0,25.4,10.7,31.1,9c5.7-1.7,32.8-1.7,36.7-3.4c4-1.7,24.3,5.7,29.4,7.3c5.1,1.7,19.8,19.2,22.9,19.2
				c3.1,0,33.1-12.4,34.8-15.8c1.7-3.4,11.9-9,18.1-10.2c6.2-1.1,19.2-1.1,23.7-2.3c4.5-1.1,18.1-9.6,24.9-8.5
				c6.8,1.1,24.3,5.7,28.8,1.7c4.5-4,23.2-36.7,23.2-36.7s-48.8-83.6-64-129.7c-15.2-46.1-107.9-30.9-107.9-30.9L278.8,268.4z"/>
			<path class="st17" d="M368.7,38.9c0,0-54.8,160-98.9,212l-6.8,19.2l19.2,7.3l7.4,21.5c0,0,27.7,10.7,31.1,9
				c3.4-1.7,30,9.6,32.8,9.6c2.8,0,20.9-1.1,22.6-2.3c1.7-1.1,20.9-17,28.3-17c7.4,0,29.4,1.1,32.8-0.6c3.4-1.7,8.5-19.8,10.7-23.7
				c2.3-4,18.1-26.6,18.1-26.6S395.2,164.4,368.7,38.9z"/>
			<path class="st18" d="M337.4,804.5v106.9c0,0,26.7,23.3,58.1,0V800.7L337.4,804.5z"/>
			<path class="st19" d="M397.7,224.2c0,0,7.8,20.4,24.8,17.7c17-2.7,8.4-20.2,8.4-20.2l-13.7-1.9L397.7,224.2z"/>
			<path class="st19" d="M332.5,198.6c0,0-6.9,18.1-22,15.7c-15-2.4-7.4-17.9-7.4-17.9l12.2-1.7L332.5,198.6z"/>
			<path class="st19" d="M366.8,150.2c0,0,9.1,23.7,28.8,20.6c19.8-3.1,9.8-23.5,9.8-23.5l-16-2.2L366.8,150.2z"/>
			<path class="st19" d="M398.3,374.7c0,0,12.5,32.6,39.6,28.3c27.1-4.3,13.4-32.2,13.4-32.2l-21.9-3L398.3,374.7z"/>
			<path class="st19" d="M268.1,548.5c0,0-12.5,32.6-39.6,28.3c-27.1-4.3-13.4-32.3-13.4-32.3l21.9-3L268.1,548.5z"/>
			<path class="st19" d="M452.6,525.6c0,0,12.5,32.6,39.6,28.3c27.1-4.3,13.4-32.2,13.4-32.2l-21.9-3L452.6,525.6z"/>
			<path class="st19" d="M542.4,661c0,0,11.9,31.1,37.8,27c25.9-4.1,12.8-30.8,12.8-30.8l-20.9-2.9L542.4,661z"/>
			<path class="st19" d="M325.1,722.1c0,0,0.3,37.9,31.1,37.6c29.7-0.3,33.4-35,30.5-43.8c-2.8-8.8-26.3-10.5-27.4-10.2
				c-1.1,0.3-18.7,4.2-19.8,4.5C338.4,710.5,325.1,722.1,325.1,722.1z"/>
			<path class="st19" d="M352.8,87.2c0,0,12.6-13.3,15.3-25.8c0,0,5.7,12.6,9.6,19.3l2.3,10c0,0-9-10.4-11.2-15.9
				c0,0-7.7,14.4-19.7,22.3L352.8,87.2z"/>
			<path class="st19" d="M374,244c0,0,0.8,23.7,13.1,34.4c0,0,9.6-20.3,1.5-38.1c-8.1-17.9-9.3-1.4-9.3-1.4L374,244z"/>
			<path class="st19" d="M301.6,368.7c0,0-8.5,29.1,2.2,47.1c0,0,19.7-20.8,17-45.8c-2.7-24.9-10.8-5.5-10.8-5.5L301.6,368.7z"/>
			<path class="st19" d="M221.1,686.5c0,0-8.2,29.1,2.7,47.1c0,0,19.5-21,16.6-45.9c-2.9-24.9-10.8-5.4-10.8-5.4L221.1,686.5z"/>
			<path class="st19" d="M495.2,686.1c0,0,0.8,35.5,19.1,51.8c0,0,14.7-30.2,2.9-57.1c-11.8-26.9-14-2.3-14-2.3L495.2,686.1z"/>
			<path class="st19" d="M297,245.1c0,0-2.2,4.9,5.8,10.3c7.9,5.4,29.7,10.7,37.5,7.6c7.8-3.1,13.1-17.6,15.1-22.2l0.6-1.9
				c0,0,2.5,1,6.8-1.2c4.2-2.2,6.4-7.6,6.9-9.7c0.6-2.1,2.2-6-2.7-8.5c-4.9-2.5-15.1-2.8-15.8-1.6c-0.7,1.2-14.4,21.3-16.3,21.9
				c-1.8,0.6-17,0.9-18.5,1.1C314.8,241.1,297,245.1,297,245.1z"/>
			<path class="st19" d="M322.2,561.6c0,0-1.6,6.1,8.5,10.9c10.1,4.8,36.3,7.1,44.9,2.1c8.5-5,12-22.8,13.5-28.4l0.3-2.3
				c0,0,3.1,0.7,7.6-2.6c4.5-3.3,6-9.9,6.3-12.5c0.3-2.6,1.5-7.3-4.7-9.4c-6.2-2-18-0.5-18.6,1c-0.6,1.5-12.9,27.2-14.9,28.3
				c-2,1.1-19.5,4.1-21.3,4.6C342.1,553.8,322.2,561.6,322.2,561.6z"/>
			<path class="st19" d="M433.5,757.1c2.9,2,5.3,4.1,13.8,1.4c10.7-3.5,30.2-21.3,32.5-31c2.3-9.6-8.2-24.4-11.2-29.3l-1.4-1.8
				c0,0,2.7-1.8,3.4-7.3c0.7-5.6-3-11.2-4.7-13.2c-1.7-2-4.2-6.1-10-3.1c-5.7,3-12.8,12.6-12.2,14.1c0.7,1.5,10.8,28.1,10.2,30.3
				c-0.6,2.2-25.5,22.2-26.4,23.8C426.5,742.6,425.3,751.5,433.5,757.1z"/>
			<path class="st19" d="M274.3,280.2l-3.8,6.1c0,0,2.5,3.3,1.9,14.9c-0.6,11.7-5.9,27.5,7.4,36.1c13.4,8.6,30.7-10.7,42.7-8.5
				c12,2.3,12.3,6.8,24.1,16.7c12.2,10.1,31.5,4.8,37.7-5.4c6.2-10.2,11.9-24.2,24-24.4c12.1-0.2,26.2,15.1,38.3,9.8
				c12.1-5.3,12.4-33.7,14.7-37.5l-7.9-15.8c0,0-12.5,22.2-15.7,23.3c-3.2,1.1-27.6,2.3-33.3,1.5c-5.7-0.8-20.3,4.3-23.5,8.9
				c-3.2,4.6-13.8,11.1-18.5,11.9c-4.7,0.8-19.6-4.6-22.1-6.3c-2.5-1.8-37.9-1.1-37.9-1.1s-16.3-5.5-16.5-7.9
				c-0.2-2.3-10.4-27.6-10.4-27.6L274.3,280.2z"/>
			<path class="st19" d="M218.5,409.8l-4.7,9c0,0,7.8,8.5,6.3,19.8c-1.5,11.3-5.4,29.4,9.8,39.8c15.2,10.3,38.3,7.8,56.8-7.2
				c11.2-9,28.6-11.3,37.9,0c9.3,11.3,24.5,24.7,42.8,21.6c18.4-3.1,22.4-27.4,34.3-28.8c11.9-1.3,14.6,9.7,29.8,9.7
				c15.2,0,11.5-17.5,21.4-17.2c9.9,0.3,22.7,22.3,42.8,17.2c20.1-5.1,17.8-28.8,25.3-31.9l-5.1-9.6c0,0-33.8,2.9-39,1.7
				c-5.1-1.2-24.8-0.2-31.8,2.6c-7,2.8-0.2,6.1-20.6,11c-20.3,4.8-28,6.5-34.5,7.1c-6.5,0.6-5.4,1.3-12.6,1.3
				c-7.2,0.1-18,2.9-19.8,2.3c-1.8-0.6-36.7-15.1-42.9-16.4c-6.2-1.3-41.9,4.5-48.9,5.1c-7,0.6-22.3-1.7-26.1-7.1
				c-3.8-5.4-15.7-21.3-17.7-24C220.3,413.1,218.5,409.8,218.5,409.8z"/>
			<path class="st19" d="M143.1,588.8l-2.6,4.5c0,0,3,8.5,11,10c8.1,1.5,14.9-3,17.5,0c2.6,3,1.1,28.6,18.5,39.8
				c17.4,11.1,41.3,12.2,56.8,2.4c15.5-9.8,20.4-16.5,28.2-15.5c7.8,1.1,19.5,16.1,40.9,14.2c21.4-1.9,21.3-14.8,33.6-15.3
				c12.2-0.4,34.1,40.4,75.8,35.8c41.8-4.6,44.9-43.2,69.5-46.4c24.6-3.2,31.3,11.4,48.1,8.6c16.8-2.8,17.5-25.5,23-31.7
				c5.6-6.2,5.6-6.2,5.6-6.2l-3.5-9c0,0-20.7,16.8-26.2,17c-5.5,0.2-29.6,0.8-34.9,0.6c-5.3-0.2-18.3,1.1-22.5,2.8
				c-4.2,1.7-49,33.7-57.3,33.3c-8.2-0.4-32.5-5.9-38.7-10c-6.2-4-29.1-16.1-29.1-16.1s-37.1,15.1-46.9,12.9
				c-9.8-2.1-51.3-17.2-53.1-17.2c-1.8,0-51.2,10.4-56.1,8.5c-4.9-1.9-30.1-21.8-31.9-24.2c-1.8-2.3-7.8-5.7-10.8-6.8
				C155.1,580,143.1,588.8,143.1,588.8z"/>
			<path class="st19" d="M340.6,828.2c0,0,14.4-13.3,24-12.7c9.6,0.6,10.4,13.1,26.9,20.6v72.5c0,0-9.3,11.3-30.3,8.1
				c0,0,17-27.6,13.1-55.5C370.5,833.3,340.6,828.2,340.6,828.2z"/>
			<path class="st20" d="M448.7,246.5c3.9-0.6-1.5-8.3,2.3-10.6c3.8-2.3,7.1,1.7,13.4,4.7c6.3,3,15.9,21.2,11.4,24
				c-4.5,2.8-13.8-3.4-17.6,7c-3.8,10.4,3.4,41.3-10.8,46.1c-14.2,4.7-24.4-9.8-42.4-7.5c-18,2.3-15.9,20.8-37.3,26.1
				c-21.4,5.3-26.3-9.1-38.8-14.2c-12.5-5.1-17.8,9.8-38,4.9c-20.1-4.9-11-34.1-14.8-42.8c-3.8-8.7-9.9,6.6-22.8,3.9
				c-12.9-2.8-7.8-14-0.3-25.4c6.8-10.3,18.5-13.8,18.5-13.8s3.5,0.9,2.9,11.5c-0.6,10.6,7.8,1.3,9.7,0.6c1.9-0.7,10.7-9.4,14.5-2.5
				c3.8,6.9-5,31,6.7,35.6c11.7,4.7,15.1-26.6,29.6-26.2c14.5,0.4,13.2,19.7,16.6,29.2c3.4,9.5,11.2,12.5,18.6,7.1
				c7.4-5.4,13-25.3,29.6-21.2c16.6,4.1,21.4,7.6,25.1,2.2s-4.2-27.6,7.6-36.3C440.9,242.4,441.7,247.6,448.7,246.5z"/>
			<path class="st20" d="M209,392.4c0,0-2.1-0.2-3-5.9c-0.9-5.8-7-5.5-12.7,0c-5.7,5.5-14,21.2-5.1,25.4c8.9,4.2,17-4.4,26.1,0.9
				c9.1,5.3,10.4,21.8,11,31.6c0.6,9.8,12.3,22.5,27.3,24.2c15.1,1.7,29.5-8.3,39-12.3c9.5-4,18.7-5.7,30.1,4.2
				c11.4,10,25.7,21.2,43.3,21.4c17.6,0.2,23.5-19.9,35.4-22.7c11.9-2.8,17.2,5.7,27.3,4.8c10.2-1,11-14.7,24-14.7
				c12.9,0,20.4,17.9,40.1,14.8c19.7-3.1,16.1-23.9,23.3-27.3c7.2-3.4,21.4-4.2,28-7.2c6.6-3,3.2-10.6,1.7-15.7
				c-1.5-5.1,1.9-10.2-7.6-14.6c-9.5-4.5-13.1-7-17.2-10.8c-4-3.8-7.4-9.1-14.6-7.4c-7.2,1.7-8.1,15.7-11.7,25
				c-3.6,9.3-11.7,12.1-17.6,9.1c-5.9-3-12.5-10-24.2-8.9c-11.7,1.1-12.7,20.1-24.8,21.6c-12.1,1.5-15.1-12.7-27.6-11.4
				c-12.5,1.3-8.1,34.3-23.3,35.2c-15.3,0.8-19.1-8.3-22.9-16.1c-3.8-7.8-5.3-16.5-19.5-18.4c-11.9-1.6-18.1,7.8-26.2,10.9
				c-1.6,0.6-3.2,1-5,1c0,0-4.7-0.4-6.6-4.5c-1.9-4-4.7-6.1-8.7-5.3c-4,0.8-19.5,14.4-29,8.3c-9.5-6.1-6.4-18.2-4.7-23.5
				c1.7-5.3,4.2-18.7-6.1-23.2C237.2,376,223.4,393.8,209,392.4z"/>
			<path class="st20" d="M159.2,546.4c0,0-0.4-0.2-1-0.3c-1.7-0.5-5.3-1-8.3,1.5c-4.1,3.4-7.6,2.7-8.9,0c-1.3-2.7,1.3-8.6-2.7-9.6
				c-4-1-15,4.4-17.8,11.9c-2.8,7.5-5.4,21.6,1.6,23.9c6.9,2.3,13.2-3,16.4,0c3.1,3,1,18.5,12.5,22.5c11.4,4,13.6-4,20.9,0.6
				c7.3,4.5,7.3,30.7,28.7,37.5c0,0,20.6,7.6,42.1,0c21.5-7.6,22.6-15.5,35.1-11.3c12.4,4.2,19.2,12.2,35.9,11.3
				c16.7-0.8,19.5-12.4,35.8-11.6c16.3,0.8,31.8,26.6,67.1,30c35.3,3.4,46.9-31.7,67-40.4c20.1-8.8,36.7,5.9,54,4
				c17.2-2,22.3-31.2,31.1-35.2c8.8-4.1,21.8,4.7,28.5,2.4c6.8-2.3,9.9-13.3,2.5-19.8c-7.3-6.5-14.7-15.9-17.9-17.5
				c-3.3-1.7-12.6-4.2-14,5.4c-1.4,9.6,0,12.7-3.7,13c-3.7,0.3-8-6.2-17-4.5c-9,1.7-7.3,18.4-15.2,22.3c-7.9,4-27.1-18.7-37.3-19.8
				c-10.2-1.1-10.7,9.3-20.4,17.5c-9.6,8.2-8.8-3.4-20.1,0.6c-11.3,4-5.9,28.3-18.9,38.4c-13,10.2-31.9-2-42.4-17.2
				c-10.5-15.3-14.4-22.6-26.3-20.4c-11.9,2.3-13.3,18.1-21.2,17.5c-7.9-0.6-6.2-11.3-12.4-11.6c-6.2-0.3-17.8,18.9-28.6,16.1
				c-10.7-2.8-8.5-23.2-26.9-24c-18.4-0.8-14.1,14.7-22.9,16c-8.8,1.3-9.3-6.9-16.4-3.5c-7.1,3.4-12.4,16.4-26.3,12.4
				c-13.9-4-16.4-26.9-18.1-33.9c-1.7-7.1-3.1-11.9-11-10.5c-7.9,1.4-17.5,12.2-20.6,7.3C158.9,562.4,165.5,547.8,159.2,546.4z"/>
			<path class="st20" d="M646.3,724.1c0,0,8.2-6.1,19.8-2c5.6,2,11.3-10.5,0-20.9c-11.3-10.5-21.5-16.4-25.2-22
				c-3.7-5.7-19.5-20.1-26.6-17.2c-7.1,2.8-1.7,18.1-3.1,29.1c-1.4,11-7.9,10.7-13.8,10.2c-5.9-0.6-12.7-1.4-13.6,13.3
				c-0.8,14.7,4.2,33.1-5.9,33.4c-10.2,0.3-21.5-13.8-38.2-9.9c-16.7,4-21.5,13.6-20.9,24.6c0.6,11,0,15.5-2,15.5
				c-2,0-6.2-3.7-9.3,0c-3.1,3.7,0.6,22.6-16.1,19.2c-16.7-3.4-21.2-22.3-30-29.7c-8.8-7.4-16.1-9-20.1,0c-4,9-1.4,16.1-6.5,16.1
				c-5.1,0-15-8.8-21.5-11.9c-6.5-3.1-10.2,0.6-11.6,8.8c-1.4,8.2-4.5,21.8-12.8,18.9c-8.4-2.8-13.7-22.3-24.5-23.2
				c-10.7-0.8-18.7,5.9-27,18.9c-8.3,13-24.4,21.3-36,19.4c-11.6-2-10.5-32.4-21.5-37.7c-11-5.4-10.2,6.2-17.5,5.9
				c-7.3-0.3-10.2-21.2-11-27.4c-0.8-6.2-7.9-15.8-24.6-7.9c-16.7,7.9-22.9,16.1-27.7,13.6c-4.8-2.5,0-24-9.3-29.7
				c-9.3-5.7-13,4.5-20.9,6.8c-7.9,2.3-8.2-6.8-17.8-7.6c-9.6-0.8-17.8,2.9-25.4,11.6c-7.6,8.7-20.4,17.8-27.4,13.2
				c-7.1-4.5-8.2-29.7-7.9-34.2c0.3-4.5-3.1-14.7-9.3-14.7c-6.2,0-6.2,6.5-8.5,5.7c-2.3-0.8,0.5-9.4-1.7-11
				c-2.2-1.6-10.2-2.5-14.7,4.5c-4.5,7.1-12.4,17.2-8.5,21.5c4,4.2,14.7-1.1,16.1,5.7c1.4,6.8-13.6,37,12.4,50
				c26,13,68.1-15.3,84.5-12.7c16.4,2.5,6.5,19.5,18.7,24.6c12.2,5.1,32.8-10.2,44.9-3.7c12.2,6.5,2,47.8,46.1,58.5
				c44.1,10.7,67.4-31.1,89.3-36.7c21.8-5.7,14.2,22.6,50.7,23.7c36.5,1.1,23.2-20.6,44.1-20.4c20.9,0.3,34.8,18.4,59.6,11.9
				c24.9-6.5,28.6-40.4,48.6-47.8c20.1-7.4,33.1,8.5,54.6,0.3C638.6,772.4,629,735.4,646.3,724.1z"/>
			<g>
				<path class="st8" d="M420.7,341.2c0.6,1.9-0.5,4-2.5,4.6l0,0c-1.9,0.6-4-0.5-4.6-2.5l-1.6-5.4c-0.6-1.9,0.5-4,2.5-4.6l0,0
					c1.9-0.6,4,0.5,4.6,2.5L420.7,341.2z"/>
				
					<ellipse transform="matrix(0.9572 -0.2895 0.2895 0.9572 -88.0618 138.661)" class="st15" cx="424.6" cy="367" rx="27.8" ry="27.8"/>
			</g>
			<g>
				<path class="st8" d="M247.9,509.7c-0.3,2.1-2.2,3.7-4.3,3.4l0,0c-2.1-0.3-3.7-2.2-3.4-4.3l0.7-6c0.3-2.1,2.2-3.7,4.3-3.4l0,0
					c2.1,0.3,3.7,2.2,3.4,4.3L247.9,509.7z"/>
				
					<ellipse transform="matrix(0.1201 -0.9928 0.9928 0.1201 -320.6975 711.0427)" class="st13" cx="240.8" cy="536.4" rx="29.5" ry="29.5"/>
			</g>
			<g>
				<path class="st8" d="M359.6,683.8c0,2.4-1.9,4.3-4.3,4.4l0,0c-2.4,0-4.3-1.9-4.4-4.3l-0.1-6.6c0-2.4,1.9-4.3,4.3-4.4l0,0
					c2.4,0,4.3,1.9,4.4,4.3L359.6,683.8z"/>
				
					<ellipse transform="matrix(0.9999 -1.188773e-002 1.188773e-002 0.9999 -8.4642 4.2784)" class="st15" cx="355.7" cy="714.1" rx="32.6" ry="32.6"/>
			</g>
			<g>
				<path class="st8" d="M172,690.9c-0.8,2.2-3.2,3.4-5.5,2.7l0,0c-2.3-0.8-3.5-3.2-2.7-5.5l2.1-6.3c0.8-2.3,3.2-3.5,5.5-2.7l0,0
					c2.3,0.8,3.5,3.2,2.7,5.5L172,690.9z"/>
				
					<ellipse transform="matrix(0.3233 -0.9463 0.9463 0.3233 -572.55 635.6971)" class="st11" cx="158.2" cy="718.2" rx="32.6" ry="32.6"/>
			</g>
			<g>
				<path class="st8" d="M471.2,490.2c0.9,1.9,0.1,4.3-1.8,5.2l0,0c-1.9,0.9-4.3,0.1-5.2-1.8l-2.6-5.4c-0.9-1.9-0.1-4.3,1.8-5.2l0,0
					c1.9-0.9,4.3-0.1,5.2,1.8L471.2,490.2z"/>
				
					<ellipse transform="matrix(0.9027 -0.4303 0.4303 0.9027 -175.6118 256.5606)" class="st9" cx="479.4" cy="516.6" rx="29.5" ry="29.5"/>
			</g>
			<g>
				<path class="st8" d="M560.7,630.3c0.8,1.7,0.1,3.8-1.6,4.6l0,0c-1.7,0.8-3.8,0.1-4.6-1.6l-2.3-4.8c-0.8-1.7-0.1-3.8,1.6-4.6l0,0
					c1.7-0.8,3.8-0.1,4.6,1.6L560.7,630.3z"/>
				
					<ellipse transform="matrix(0.9027 -0.4303 0.4303 0.9027 -226.0498 308.0311)" class="st12" cx="568.1" cy="653.8" rx="26.4" ry="26.4"/>
			</g>
			<g>
				<path class="st8" d="M411.3,201.1c0.4,1.2-0.3,2.5-1.6,2.9l0,0c-1.2,0.4-2.5-0.3-2.9-1.6l-1-3.4c-0.4-1.2,0.3-2.5,1.6-2.9l0,0
					c1.2-0.4,2.5,0.3,2.9,1.6L411.3,201.1z"/>
				
					<ellipse transform="matrix(0.9572 -0.2895 0.2895 0.9572 -45.2443 129.0974)" class="st9" cx="413.8" cy="217.5" rx="17.7" ry="17.7"/>
			</g>
			<g>
				<path class="st8" d="M327.7,169.9c-0.6,1.3-2.2,1.9-3.6,1.3l0,0c-1.3-0.6-1.9-2.2-1.3-3.6l1.8-3.7c0.6-1.3,2.2-1.9,3.6-1.3l0,0
					c1.3,0.6,1.9,2.2,1.3,3.6L327.7,169.9z"/>
				
					<ellipse transform="matrix(0.4284 -0.9036 0.9036 0.4284 13.5362 392.835)" class="st13" cx="317.3" cy="185.7" rx="20.2" ry="20.2"/>
			</g>
			<g>
				<path class="st8" d="M380.3,122.8c0.7,1.4,0.1,3.2-1.3,3.9l0,0c-1.4,0.7-3.2,0.1-3.9-1.3l-2-4c-0.7-1.4-0.1-3.2,1.3-3.9l0,0
					c1.4-0.7,3.2-0.2,3.9,1.3L380.3,122.8z"/>
				
					<ellipse transform="matrix(0.8927 -0.4506 0.4506 0.8927 -22.6819 189.6615)" class="st11" cx="387" cy="142.5" rx="22.2" ry="22.2"/>
			</g>
			<g>
				<path class="st18" d="M357.4,523.8c0,0,1.3,8.9-4.7,11.4c-5.9,2.5-14.8,3-20.1,2.6c-5.3-0.4-15.1,7.2-13.4,17.4
					c1.7,10.2,9.3,15.1,31.3,16.5c21.9,1.5,30-1.5,32.7-9.3c2.8-7.8,8.1-29.7,8.1-29.7L357.4,523.8z"/>
				<path class="st21" d="M365.6,499.9c0,0,30.6,9,33.3,10c2.7,1,6.5,3.8,5.4,10.7c-1.1,6.9-2.8,11.4-5.2,14.3
					c-2.4,2.8-8.9,3.3-13.3,2.1c-4.4-1.1-29.4-10.3-29.4-10.3s-6.8-1.4-5.8-8c1-6.6,5.4-15.8,5.4-15.8S358.5,497.8,365.6,499.9z"/>
			</g>
			<g>
				<path class="st18" d="M436.4,702.2c0,0,6.8,5.4,4.3,11.1c-2.5,5.7-8.5,11.9-12.5,15.1c-4,3.2-5.9,15,2,21
					c7.9,6.1,16.5,4.4,32.9-9c16.4-13.4,20.2-20.8,16.9-28.2c-3.2-7.3-13.9-26.2-13.9-26.2L436.4,702.2z"/>
				<path class="st21" d="M426.5,680c0,0,27.5-13.8,30.1-14.9c2.5-1.1,7.1-1.6,10.9,4s5.6,9.9,5.7,13.5c0.2,3.6-4.1,8.2-8,10.3
					c-3.8,2.1-27.5,12.1-27.5,12.1s-5.7,3.5-9.3-1.8c-3.6-5.3-6.6-14.7-6.6-14.7S420.1,683.2,426.5,680z"/>
			</g>
			<g>
				<path class="st18" d="M331,219.9c0,0-0.3,7.3-5.4,8.5c-5.1,1.2-12.3,0.3-16.5-0.8c-4.2-1.1-13.1,3.6-13.2,12
					c-0.1,8.4,5.3,13.4,22.6,17.7c17.3,4.3,24.2,3.1,27.5-2.8c3.3-5.9,10.7-22.6,10.7-22.6L331,219.9z"/>
				<path class="st21" d="M341.1,202c0,0,23.2,11.6,25.2,12.8c2,1.2,4.7,4,2.8,9.4c-1.9,5.4-3.9,8.8-6.2,10.7
					c-2.3,1.9-7.6,1.3-10.9-0.2c-3.3-1.5-22-12.5-22-12.5s-5.2-2.1-3.5-7.2c1.7-5.1,6.6-11.8,6.6-11.8S335.6,199.2,341.1,202z"/>
			</g>
			<g>
				<path class="st22" d="M316.9,341.8c0,0-32.9,25.1-16.2,65.3C334.3,379.3,316.9,341.8,316.9,341.8z"/>
				<polygon class="st8" points="315.8,346.3 312.8,345.5 315.8,339.6 317.3,340 				"/>
				<polygon class="st8" points="315.8,346.3 318.8,347 318.8,340.4 317.3,340 				"/>
				<path class="st8" d="M317.7,343c-0.2,0.6-0.8,1-1.4,0.9l0,0c-0.6-0.2-1-0.8-0.9-1.4l0.9-3.8c0.2-0.6,0.8-1,1.4-0.9l0,0
					c0.6,0.2,1,0.8,0.9,1.4L317.7,343z"/>
			</g>
			<g>
				<path class="st22" d="M235.9,662.7c0,0-30.4,23.1-14.9,60.3C251.9,697.4,235.9,662.7,235.9,662.7z"/>
				<polygon class="st8" points="234.9,666.9 232.1,666.2 234.9,660.8 236.3,661.1 				"/>
				<polygon class="st8" points="234.9,666.9 237.6,667.6 237.7,661.4 236.3,661.1 				"/>
				<path class="st8" d="M236.7,663.9c-0.1,0.6-0.7,0.9-1.3,0.8l0,0c-0.6-0.1-0.9-0.7-0.8-1.3l0.9-3.5c0.1-0.6,0.7-0.9,1.3-0.8l0,0
					c0.6,0.1,0.9,0.7,0.8,1.3L236.7,663.9z"/>
			</g>
			<g>
				<path class="st22" d="M501.5,653c0,0-21.7,41.6,14.9,74.9C537.5,683.2,501.5,653,501.5,653z"/>
				<polygon class="st8" points="502.6,658.2 499.1,658.9 499.4,651.3 501.1,651 				"/>
				<polygon class="st8" points="502.6,658.2 506,657.5 502.9,650.6 501.1,651 				"/>
				<path class="st8" d="M503,653.9c0.1,0.7-0.3,1.4-1,1.6l0,0c-0.7,0.1-1.4-0.3-1.6-1l-0.9-4.3c-0.1-0.7,0.3-1.4,1-1.6l0,0
					c0.7-0.1,1.4,0.3,1.6,1L503,653.9z"/>
			</g>
			<g>
				<path class="st22" d="M379.7,221.4c0,0-16.1,25.6,5.7,48.8C401.2,242.6,379.7,221.4,379.7,221.4z"/>
				<polygon class="st8" points="380.1,224.8 377.8,225.1 378.4,220.2 379.5,220.1 				"/>
				<polygon class="st8" points="380.1,224.8 382.3,224.5 380.6,220 379.5,220.1 				"/>
				<path class="st8" d="M380.5,222.1c0.1,0.5-0.3,0.9-0.7,0.9l0,0c-0.5,0.1-0.9-0.3-0.9-0.7l-0.3-2.8c-0.1-0.5,0.3-0.9,0.7-0.9l0,0
					c0.5-0.1,0.9,0.3,0.9,0.7L380.5,222.1z"/>
			</g>
			<g>
				
					<ellipse transform="matrix(0.7769 -0.6296 0.6296 0.7769 -375.9698 204.5801)" class="st23" cx="100.7" cy="632.8" rx="5.9" ry="3.1"/>
				<path class="st23" d="M98.5,633.6c0.5,0.6,1.9,0.3,3.1-0.6c1.2-1,1.7-2.2,1.2-2.9c-0.5-0.6-1.9-0.4-3.1,0.6
					C98.5,631.7,98,633,98.5,633.6z"/>
				<path class="st19" d="M119.8,623.8c0,0-8.7,17.8-25.3,40.3c0,0-8-10.3-3.1-23.3c0,0,5.1,4.2,10.9,0.2c5.7-4,7.9-12.7,6.2-15.4
					C108.4,625.6,114.2,622.8,119.8,623.8z"/>
				<path class="st19" d="M109.9,626.6c0,0,6.6-2,8.2-1.1c0,0-13.8,22.9-23.5,35.5c0,0-4.4-6.1-2.5-16.1c0,0,8,2.1,13.9-5.4
					C112,631.9,110.4,627.4,109.9,626.6z"/>
			</g>
			<g>
				
					<ellipse transform="matrix(0.7214 -0.6925 0.6925 0.7214 -271.1879 248.5008)" class="st23" cx="173.3" cy="461.3" rx="5.9" ry="3.1"/>
				<path class="st23" d="M171.2,462.3c0.6,0.6,1.9,0.2,3-0.9c1.1-1.1,1.5-2.4,1-2.9c-0.6-0.6-1.9-0.2-3,0.9
					C171,460.4,170.6,461.8,171.2,462.3z"/>
				<path class="st19" d="M191.5,450.8c0,0-7.2,18.5-21.9,42.2c0,0-8.8-9.6-5-23c0,0,5.5,3.8,10.9-0.7c5.4-4.4,6.8-13.3,4.9-15.9
					C180.4,453.5,185.9,450.2,191.5,450.8z"/>
				<path class="st19" d="M182,454.3c0,0,6.4-2.6,8.1-1.8c0,0-11.8,23.9-20.4,37.3c0,0-4.9-5.7-3.8-15.9c0,0,8.1,1.4,13.4-6.6
					C184.5,459.4,182.5,455.1,182,454.3z"/>
			</g>
			<g>
				
					<ellipse transform="matrix(0.8097 -0.5868 0.5868 0.8097 -150.3684 197.0914)" class="st23" cx="228.7" cy="330.4" rx="5.1" ry="2.7"/>
				
					<ellipse transform="matrix(0.8102 -0.5861 0.5861 0.8102 -149.7942 196.6109)" class="st23" cx="228.7" cy="329.6" rx="2.4" ry="1.3"/>
				<path class="st19" d="M245.7,323.5c0,0-8.4,15-23.8,33.7c0,0-6.4-9.3-1.6-20.4c0,0,4.3,3.9,9.4,0.7c5.2-3.2,7.5-10.7,6.1-13.1
					C235.8,324.5,240.9,322.4,245.7,323.5z"/>
				<path class="st19" d="M237,325.4c0,0,5.8-1.5,7.2-0.6c0,0-13,19.2-22,29.7c0,0-3.5-5.5-1.4-14.1c0,0,6.8,2.2,12.3-4
					C238.6,330.1,237.4,326.2,237,325.4z"/>
			</g>
			<g>
				<path class="st23" d="M480.1,289.9c-1.3,1.1-4.1,0.1-6.3-2.4c-2.2-2.5-2.9-5.4-1.6-6.6c1.3-1.1,4.1-0.1,6.3,2.4
					C480.7,285.8,481.4,288.7,480.1,289.9z"/>
				<path class="st23" d="M478.2,286.6c-0.6,0.5-1.9,0-3-1.1c-1-1.2-1.4-2.5-0.8-3.1c0.6-0.5,1.9,0,3,1.1
					C478.4,284.7,478.8,286.1,478.2,286.6z"/>
				<path class="st19" d="M458.5,273.2c0,0,5.7,19.3,18.5,44.6c0,0,9.8-9,7-22.9c0,0-5.9,3.3-10.9-1.6c-5.1-4.9-5.8-14.1-3.6-16.5
					C469.6,276.8,464.3,273.1,458.5,273.2z"/>
				<path class="st19" d="M467.9,277.6c0,0-6.3-3.2-8.1-2.5c0,0,9.9,25.3,17.5,39.5c0,0,5.5-5.3,5.2-15.7c0,0-8.3,0.8-13-7.8
					C464.9,282.5,467.3,278.3,467.9,277.6z"/>
			</g>
			<g>
				
					<ellipse transform="matrix(0.6963 -0.7177 0.7177 0.6963 -157.1603 523.2203)" class="st23" cx="539.7" cy="447.3" rx="2.7" ry="5.1"/>
				
					<ellipse transform="matrix(0.6957 -0.7183 0.7183 0.6957 -156.515 523.6273)" class="st23" cx="539.8" cy="446.6" rx="1.2" ry="2.4"/>
				<path class="st19" d="M524,438.2c0,0,6.1,16,18.7,36.5c0,0,7.7-8.3,4.4-19.8c0,0-4.7,3.2-9.4-0.6c-4.6-3.9-5.8-11.5-4.1-13.7
					C533.6,440.5,528.9,437.7,524,438.2z"/>
				<path class="st19" d="M532.2,441.3c0,0-5.5-2.3-7-1.6c0,0,10.1,20.7,17.5,32.3c0,0,4.3-4.9,3.4-13.7c0,0-7,1.2-11.5-5.7
					C530,445.6,531.8,442,532.2,441.3z"/>
			</g>
			<path class="st13" d="M349.7,51.9c0,0-10.2,29.5-28.4,38.4c0,0,12.7,0,18-3.4c0,0-0.2,10-2.4,17.6c0,0,24-25.4,31.3-48.8
				c7.2-23.3-10.8-10.8-10.8-10.8L349.7,51.9z"/>
			<path class="st13" d="M386.4,52.8c0,0,10.2,29.5,28.4,38.4c0,0-12.7,0-18-3.4c0,0,0.2,10,2.4,17.6c0,0-24-25.4-31.3-48.8
				c-7.2-23.3,10.8-10.8,10.8-10.8L386.4,52.8z"/>
			<g>
				<path class="st13" d="M358.1,24c0,0-8.2-18.4-26.6-23c-18.4-4.7-15.7,8-17.2,19.5c-1.6,11.5-4.7,18.4-5.8,22.6
					c-1.1,4.2,4.4,18.5,23.3,16.7c18.9-1.8,24-7.5,24-7.5s3.7-17.2,3.5-18.2C359.2,33.1,358.1,24,358.1,24z"/>
				<path class="st24" d="M354.5,49.2c0,0-8.8-8.8-20.7-7.9c-11.9,0.8-19.3,9-14.6,14.3c4.7,5.2,31.9-0.4,35.3-4
					C357.9,48.1,354.5,49.2,354.5,49.2z"/>
			</g>
			<g>
				<path class="st13" d="M379,24.5c0,0,8.2-18.4,26.6-23c18.4-4.7,15.7,8,17.2,19.5c1.6,11.5,4.7,18.4,5.8,22.6
					c1.1,4.2-4.4,18.5-23.3,16.7c-18.9-1.8-24-7.5-24-7.5s-3.7-17.2-3.5-18.2C377.9,33.5,379,24.5,379,24.5z"/>
				<path class="st24" d="M382.5,49.6c0,0,8.8-8.8,20.7-7.9c11.9,0.8,19.3,9,14.6,14.3c-4.7,5.2-31.9-0.4-35.3-4
					C379.2,48.5,382.5,49.6,382.5,49.6z"/>
			</g>
			<path class="st13" d="M381.3,23.7c0,0-13.4-7.2-25,0c0,0-6.5,17.4-1.7,29.3c0,0,11.4,7,26.7,1.1C381.3,54,386.2,39.4,381.3,23.7z
				"/>
			<g>
				<path class="st19" d="M213.8,534.5c0,0-0.2,27.9,23.7,29.8c23.9,1.9,30.2-22.3,30.2-22.3s1.7-11-9.4-13.1
					C247.3,526.8,230,548.5,213.8,534.5z"/>
				<path class="st19" d="M216.2,539.8c0,0-0.2,21.8,21.4,23.2c21.6,1.5,27.2-17.4,27.2-17.4s1.5-8.6-8.4-10.2
					C246.5,533.8,230.9,550.7,216.2,539.8z"/>
				<g>
					<path class="st23" d="M229.8,512.5c-0.5,0.2-6.4,1.9-7.5,7.5c-1.1,5.6,15.4,3.4,20-2.3C246.9,512.1,238.7,508.3,229.8,512.5z"
						/>
					<path class="st23" d="M230.8,513.4c-0.3,0.1-3.3,1-3.8,3.8c-0.5,2.9,7.9,1.7,10.2-1.2C239.5,513.1,235.3,511.2,230.8,513.4z"/>
				</g>
				<circle class="st23" cx="217.4" cy="526.2" r="1.8"/>
				<g>
					<path class="st23" d="M249.4,559.9c0.5-0.2,6.4-1.9,7.5-7.5c1.1-5.6-15.4-3.4-20,2.3C232.3,560.4,240.5,564.1,249.4,559.9z"/>
					<path class="st23" d="M248.5,559.1c0.3-0.1,3.3-1,3.8-3.8c0.5-2.9-7.9-1.7-10.2,1.2C239.7,559.3,243.9,561.2,248.5,559.1z"/>
				</g>
			</g>
			<g>
				<path class="st19" d="M452.9,514.2c0,0-0.2,27.9,23.7,29.8c23.9,1.9,30.2-22.3,30.2-22.3s1.7-11-9.4-13.1
					C486.4,506.5,469.2,528.1,452.9,514.2z"/>
				<path class="st19" d="M455.4,519.5c0,0-0.2,21.8,21.4,23.2c21.6,1.5,27.2-17.4,27.2-17.4s1.5-8.6-8.4-10.2
					C485.6,513.5,470,530.3,455.4,519.5z"/>
				<g>
					<path class="st23" d="M468.9,492.1c-0.5,0.2-6.4,1.9-7.5,7.5c-1.1,5.6,15.4,3.4,20-2.3C486.1,491.7,477.8,488,468.9,492.1z"/>
					<path class="st23" d="M469.9,493c-0.3,0.1-3.3,1-3.8,3.8c-0.5,2.9,7.9,1.7,10.2-1.2C478.7,492.8,474.4,490.9,469.9,493z"/>
				</g>
				<circle class="st23" cx="456.5" cy="505.8" r="1.8"/>
				<g>
					<path class="st23" d="M488.6,539.6c0.5-0.2,6.4-1.9,7.5-7.5c1.1-5.6-15.4-3.4-20,2.3C471.4,540,479.7,543.8,488.6,539.6z"/>
					<path class="st23" d="M487.6,538.7c0.3-0.1,3.3-1,3.8-3.8c0.5-2.9-7.9-1.7-10.2,1.2C478.8,538.9,483,540.8,487.6,538.7z"/>
				</g>
			</g>
			<g>
				<path class="st19" d="M399.4,365.1c0,0-0.2,26.2,22.3,28c22.5,1.8,28.4-20.9,28.4-20.9s1.6-10.4-8.8-12.3
					C430.9,357.9,414.7,378.2,399.4,365.1z"/>
				<path class="st19" d="M401.7,370.1c0,0-0.2,20.5,20.1,21.8c20.3,1.4,25.6-16.3,25.6-16.3s1.4-8.1-7.9-9.6
					C430.1,364.4,415.5,380.3,401.7,370.1z"/>
				<g>
					<path class="st23" d="M414.4,344.4c-0.5,0.2-6,1.7-7,7c-1,5.3,14.5,3.2,18.8-2.1C430.6,344,422.8,340.5,414.4,344.4z"/>
					<path class="st23" d="M415.4,345.2c-0.3,0.1-3.1,0.9-3.6,3.6c-0.5,2.7,7.4,1.6,9.6-1.1C423.6,345,419.6,343.2,415.4,345.2z"/>
				</g>
				<circle class="st23" cx="402.8" cy="357.2" r="1.7"/>
				<g>
					<path class="st23" d="M432.9,389c0.5-0.2,6-1.7,7-7c1-5.3-14.5-3.2-18.8,2.1C416.8,389.4,424.6,392.9,432.9,389z"/>
					<path class="st23" d="M432,388.2c0.2-0.1,3.1-0.9,3.6-3.6c0.5-2.7-7.4-1.6-9.6,1.1C423.8,388.4,427.7,390.2,432,388.2z"/>
				</g>
			</g>
			<g>
				<path class="st19" d="M543.7,651.4c0,0-0.2,25.4,21.6,27.1c21.8,1.7,27.5-20.3,27.5-20.3s1.5-10.1-8.5-12
					C574.2,644.3,558.5,664.1,543.7,651.4z"/>
				<path class="st19" d="M546,656.2c0,0-0.2,19.8,19.5,21.2c19.7,1.3,24.8-15.8,24.8-15.8s1.4-7.8-7.7-9.3
					C573.5,650.7,559.3,666.1,546,656.2z"/>
				<g>
					<path class="st23" d="M558.3,631.3c-0.5,0.2-5.9,1.7-6.8,6.8c-1,5.1,14,3.1,18.3-2.1C573.9,630.9,566.4,627.5,558.3,631.3z"/>
					<path class="st23" d="M559.2,632.1c-0.2,0.1-3,0.9-3.5,3.5c-0.5,2.6,7.2,1.6,9.3-1.1C567.2,631.9,563.3,630.1,559.2,632.1z"/>
				</g>
				<circle class="st23" cx="547" cy="643.7" r="1.6"/>
				<g>
					<path class="st23" d="M576.2,674.5c0.5-0.2,5.8-1.7,6.8-6.8c1-5.1-14-3.1-18.3,2.1C560.6,674.9,568.1,678.3,576.2,674.5z"/>
					<path class="st23" d="M575.3,673.7c0.2-0.1,3-0.9,3.5-3.5c0.5-2.6-7.2-1.6-9.3,1.1C567.3,673.9,571.2,675.7,575.3,673.7z"/>
				</g>
			</g>
			<g>
				<path class="st19" d="M325.4,712.4c0,0-0.2,31.3,26.7,33.5c26.9,2.1,33.9-25,33.9-25s1.9-12.4-10.5-14.7
					C363,703.7,343.6,728.1,325.4,712.4z"/>
				<path class="st19" d="M328.1,718.4c0,0-0.2,24.5,24.1,26.1c24.3,1.6,30.6-19.5,30.6-19.5s1.7-9.7-9.5-11.5
					C362.1,711.6,344.6,730.6,328.1,718.4z"/>
				<g>
					<path class="st23" d="M343.3,687.7c-0.6,0.3-7.2,2.1-8.4,8.4c-1.2,6.3,17.3,3.8,22.5-2.5C362.7,687.2,353.3,683,343.3,687.7z"
						/>
					<path class="st23" d="M344.5,688.6c-0.3,0.1-3.7,1.1-4.3,4.3c-0.6,3.2,8.9,1.9,11.5-1.3C354.3,688.4,349.6,686.2,344.5,688.6z"
						/>
				</g>
				<circle class="st23" cx="329.4" cy="703" r="2"/>
				<g>
					<path class="st23" d="M365.5,741c0.6-0.3,7.2-2.1,8.4-8.4c1.2-6.3-17.3-3.8-22.5,2.5C346.1,741.5,355.5,745.7,365.5,741z"/>
					<path class="st23" d="M364.3,740c0.3-0.1,3.7-1.1,4.3-4.3c0.6-3.2-8.9-1.9-11.5,1.3C354.5,740.3,359.2,742.4,364.3,740z"/>
				</g>
			</g>
			<g>
				<path class="st19" d="M128.1,715.7c0,0-0.2,31.7,27,33.8c27.2,2.1,34.3-25.3,34.3-25.3s1.9-12.5-10.6-14.9
					C166.2,706.9,146.6,731.5,128.1,715.7z"/>
				<path class="st19" d="M130.9,721.7c0,0-0.2,24.7,24.3,26.4c24.6,1.7,31-19.8,31-19.8s1.7-9.8-9.6-11.6
					C165.3,714.9,147.6,734.1,130.9,721.7z"/>
				<g>
					<path class="st23" d="M146.3,690.6c-0.6,0.3-7.3,2.1-8.5,8.5c-1.2,6.4,17.5,3.8,22.8-2.6C165.9,690.1,156.4,685.9,146.3,690.6z
						"/>
					<path class="st23" d="M147.5,691.6c-0.3,0.1-3.7,1.1-4.4,4.3c-0.6,3.3,9,2,11.6-1.3C157.4,691.4,152.6,689.2,147.5,691.6z"/>
				</g>
				<circle class="st23" cx="132.2" cy="706.2" r="2"/>
				<g>
					<path class="st23" d="M168.7,744.6c0.6-0.3,7.3-2.1,8.5-8.5c1.2-6.4-17.5-3.8-22.8,2.6C149.2,745.1,158.6,749.3,168.7,744.6z"
						/>
					<path class="st23" d="M167.6,743.6c0.3-0.1,3.7-1.1,4.3-4.3c0.6-3.3-8.9-2-11.6,1.3C157.6,743.8,162.4,746,167.6,743.6z"/>
				</g>
			</g>
			<g>
				<path class="st19" d="M398.2,216.4c0,0-0.1,16.3,13.9,17.4c14,1.1,17.7-13,17.7-13s1-6.5-5.5-7.7
					C417.8,211.9,407.7,224.6,398.2,216.4z"/>
				<path class="st19" d="M399.6,219.5c0,0-0.1,12.7,12.5,13.6c12.7,0.9,16-10.2,16-10.2s0.9-5-4.9-6
					C417.3,216,408.2,225.9,399.6,219.5z"/>
				<g>
					<path class="st23" d="M407.5,203.5c-0.3,0.1-3.8,1.1-4.4,4.4c-0.6,3.3,9,2,11.7-1.3C417.6,203.3,412.7,201.1,407.5,203.5z"/>
					<path class="st23" d="M408.1,204c-0.2,0.1-1.9,0.6-2.2,2.2c-0.3,1.7,4.6,1,6-0.7C413.3,203.9,410.8,202.8,408.1,204z"/>
				</g>
				<circle class="st23" cx="400.3" cy="211.5" r="1"/>
				<g>
					<path class="st23" d="M419.1,231.3c0.3-0.1,3.8-1.1,4.4-4.4c0.6-3.3-9-2-11.7,1.3C409,231.6,413.8,233.8,419.1,231.3z"/>
					<path class="st23" d="M418.5,230.8c0.2-0.1,1.9-0.6,2.2-2.2c0.3-1.7-4.6-1-6,0.7C413.3,230.9,415.8,232,418.5,230.8z"/>
				</g>
			</g>
			<g>
				<path class="st19" d="M367.1,140.7c0,0-0.2,20.8,17.7,22.2c17.8,1.4,22.5-16.6,22.5-16.6s1.2-8.2-7-9.8
					C392.1,134.9,379.2,151.1,367.1,140.7z"/>
				<path class="st19" d="M368.9,144.6c0,0-0.1,16.2,16,17.3c16.1,1.1,20.3-13,20.3-13s1.1-6.4-6.3-7.6
					C391.5,140.2,379.9,152.8,368.9,144.6z"/>
				<g>
					<path class="st23" d="M379,124.3c-0.4,0.2-4.8,1.4-5.6,5.6c-0.8,4.2,11.5,2.5,14.9-1.7C391.8,123.9,385.7,121.2,379,124.3z"/>
					<path class="st23" d="M379.8,124.9c-0.2,0.1-2.5,0.7-2.9,2.9c-0.4,2.1,5.9,1.3,7.6-0.9C386.3,124.8,383.2,123.3,379.8,124.9z"
						/>
				</g>
				<circle class="st23" cx="369.8" cy="134.5" r="1.3"/>
				<g>
					<path class="st23" d="M393.7,159.7c0.4-0.2,4.8-1.4,5.6-5.6c0.8-4.2-11.5-2.5-14.9,1.7C380.9,160,387.1,162.8,393.7,159.7z"/>
					<path class="st23" d="M393,159c0.2-0.1,2.4-0.7,2.9-2.8c0.4-2.1-5.9-1.3-7.6,0.9C386.4,159.2,389.6,160.6,393,159z"/>
				</g>
			</g>
			<g>
				<path class="st19" d="M298.9,184.1c0,0-0.1,19.1,16.2,20.4c16.4,1.3,20.6-15.2,20.6-15.2s1.1-7.5-6.4-9
					C321.8,178.8,310,193.6,298.9,184.1z"/>
				<path class="st19" d="M300.6,187.7c0,0-0.1,14.9,14.6,15.9c14.8,1,18.6-11.9,18.6-11.9s1-5.9-5.8-7
					C321.2,183.6,310.6,195.1,300.6,187.7z"/>
				<g>
					<path class="st23" d="M309.8,169c-0.4,0.2-4.4,1.3-5.1,5.1c-0.7,3.8,10.5,2.3,13.7-1.6C321.6,168.7,315.9,166.1,309.8,169z"/>
					<path class="st23" d="M310.5,169.6c-0.2,0.1-2.2,0.7-2.6,2.6c-0.4,2,5.4,1.2,7-0.8C316.5,169.4,313.6,168.1,310.5,169.6z"/>
				</g>
				<circle class="st23" cx="301.3" cy="178.3" r="1.2"/>
				<g>
					<path class="st23" d="M323.3,201.4c0.3-0.2,4.4-1.3,5.1-5.1c0.7-3.8-10.5-2.3-13.7,1.6C311.5,201.7,317.2,204.3,323.3,201.4z"
						/>
					<path class="st23" d="M322.6,200.9c0.2-0.1,2.2-0.7,2.6-2.6c0.4-2-5.4-1.2-7,0.8C316.6,201,319.5,202.3,322.6,200.9z"/>
				</g>
			</g>
			<path class="st19" d="M133.1,741.5c0,0,14,24.2,48.3,1.9c0,0-15.7,19.9-35.2,17C126.7,757.4,133.1,741.5,133.1,741.5z"/>
			<path class="st19" d="M133.1,741.5c0,0,14,24.2,48.3,1.9c0,0-15.7,19.9-35.2,17C126.7,757.4,133.1,741.5,133.1,741.5z"/>
			<g>
				<path class="st19" d="M318.6,354c0,0,6.8,32.4-17.4,50.2c0,0-4.5-7.4-3.4-21.4c0,0,3,4.5,7.6,3c4.7-1.5,12.7-23.7,8.7-38.4
					l3.3,0.8C317.4,348.2,318.4,350.2,318.6,354z"/>
				<path class="st19" d="M318.4,361.4c0,0,1,24.7-17,40.6c0,0-1.8-7.1-2-12.9C299.4,389.1,312.7,396,318.4,361.4z"/>
				<path class="st19" d="M308.4,389.3c0,0-2.4,2.9-6.8,2.4c0,0-0.1,4.2,0.6,5.9C302.2,397.7,307,393.7,308.4,389.3z"/>
				
					<ellipse transform="matrix(0.264 -0.9645 0.9645 0.264 -130.6572 567.5405)" class="st23" cx="306.5" cy="369.4" rx="10.4" ry="4.8"/>
				
					<ellipse transform="matrix(0.264 -0.9645 0.9645 0.264 -125.7404 565.1996)" class="st23" cx="307.5" cy="365" rx="4.4" ry="2"/>
				<path class="st19" d="M314.9,345.7l3.4,0.7l0.1-5.7l-0.5-0.1l0.5-1.3c0,0,0-1-0.6-1.1c0,0,0.1,0.3,0,0.8
					C317.5,339.5,314.9,345.7,314.9,345.7z"/>
			</g>
			<g>
				<path class="st19" d="M237.4,674.1c0,0,6.2,29.6-15.9,45.9c0,0-4.1-6.8-3.1-19.6c0,0,2.7,4.1,7,2.7c4.3-1.4,11.6-21.7,7.9-35
					l3,0.8C236.4,668.8,237.2,670.6,237.4,674.1z"/>
				<path class="st19" d="M237.2,680.8c0,0,0.9,22.6-15.5,37c0,0-1.7-6.4-1.8-11.7C220,706.1,232.1,712.5,237.2,680.8z"/>
				<path class="st19" d="M228.1,706.3c0,0-2.2,2.6-6.2,2.2c0,0-0.1,3.9,0.6,5.4C222.5,713.9,226.9,710.4,228.1,706.3z"/>
				
					<ellipse transform="matrix(0.2638 -0.9646 0.9646 0.2638 -497.0283 725.0294)" class="st23" cx="226.5" cy="688.1" rx="9.5" ry="4.4"/>
				
					<ellipse transform="matrix(0.2641 -0.9645 0.9645 0.2641 -492.5396 722.6866)" class="st23" cx="227.3" cy="684.1" rx="4" ry="1.9"/>
				<path class="st19" d="M234.1,666.5l3.1,0.7l0.1-5.2l-0.5-0.1l0.4-1.2c0,0,0-0.9-0.6-1c0,0,0.1,0.3,0,0.7
					C236.5,660.9,234.1,666.5,234.1,666.5z"/>
			</g>
			<g>
				<path class="st19" d="M509.4,664.7c0,0,23.2,30.4,6.8,60.9c0,0-8.3-5.5-14.2-20.6c0,0,5.3,3.2,9.4-0.7c4.1-3.9,1.5-31-10-44.3
					l3.9-0.8C505.4,659.3,507.3,660.9,509.4,664.7z"/>
				<path class="st19" d="M512.9,672.6c0,0,13.3,25.3,2.5,50.6c0,0-5.4-6.4-8.4-12.4C506.9,710.8,524.2,711.4,512.9,672.6z"/>
				<path class="st19" d="M516.3,706.5c0,0-1.1,4.2-5.9,5.9c0,0,2,4.5,3.6,5.9C514.1,718.3,517.1,711.9,516.3,706.5z"/>
				<path class="st23" d="M510,685.8c1.2,6.5-0.3,12.3-3.3,12.8c-3,0.5-6.4-4.3-7.6-10.8c-1.2-6.5,0.3-12.3,3.3-12.8
					C505.4,674.4,508.8,679.2,510,685.8z"/>
				
					<ellipse transform="matrix(0.9843 -0.1766 0.1766 0.9843 -112.491 99.6225)" class="st23" cx="503.4" cy="681.7" rx="2.4" ry="5.1"/>
				<path class="st19" d="M501.5,657.9l3.9-0.9l-2.7-6l-0.6,0.1l-0.2-1.6c0,0-0.4-1-1.2-0.8c0,0,0.3,0.3,0.3,0.8
					C501.2,650.2,501.5,657.9,501.5,657.9z"/>
			</g>
			<g>
				<path class="st19" d="M384,229.3c0,0,13,20.5,1,38.9c0,0-5-3.9-7.8-13.8c0,0,3.2,2.3,6,0.1c2.8-2.2,2.6-19.5-3.9-28.5l2.5-0.3
					C381.8,225.7,382.9,226.8,384,229.3z"/>
				<path class="st19" d="M385.8,234.5c0,0,7,16.7-1.2,32.2c0,0-3.1-4.4-4.7-8.3C379.9,258.3,390.8,259.7,385.8,234.5z"/>
				<path class="st19" d="M386.1,256.1c0,0-0.9,2.6-4,3.4c0,0,1,2.9,2,3.9C384.1,263.5,386.3,259.6,386.1,256.1z"/>
				
					<ellipse transform="matrix(0.9957 -9.237069e-002 9.237069e-002 0.9957 -20.8216 36.1158)" class="st23" cx="379.7" cy="243" rx="3.5" ry="7.6"/>
				
					<ellipse transform="matrix(0.9957 -9.232847e-002 9.232847e-002 0.9957 -20.5148 36.0407)" class="st23" cx="379.3" cy="239.7" rx="1.5" ry="3.2"/>
				<path class="st19" d="M379.4,224.6l2.5-0.4l-1.4-3.9l-0.4,0.1l0-1c0,0-0.2-0.7-0.7-0.6c0,0,0.2,0.2,0.2,0.5
					C379.6,219.7,379.4,224.6,379.4,224.6z"/>
			</g>
			<g>
				<path class="st19" d="M367.1,217.3c0,0,1.5,1.7,0.8,4.9c-0.6,3.2-3.5,9.8-5.6,11.2c-2.1,1.5-4.6,1.6-8.7,0.2
					c-4.1-1.4-23.8-12.5-25-13.7c-1.2-1.2-2.3-3.8-1.1-6c1.3-2.2,3.8-7,3.8-7s-1.3,3.7,1,5.9c2.2,2.2,21.1,10.1,24.4,11.2
					C360,225.3,366.6,223.8,367.1,217.3z"/>
				<path class="st19" d="M329.9,211.4l-1.5,3.1c0,0-1.3,2.3,0.8,4.7c2.1,2.5,24.6,13,24.6,13s5.8,2.1,9.2-1.6c0,0,1.9-4.2,2.4-6.1
					c0,0-3.3,4.5-6.6,4.1c-3.4-0.4-26.6-11.7-27.5-12.8C330.5,214.8,329.4,213.1,329.9,211.4z"/>
				<path class="st19" d="M331.2,224c0,0,17.7,10.1,19.4,11.2c1.8,1.1,3.1,1.2,3.1,1.2l-1.1,2.4c0,0-2.4-0.8-3.2-1.2
					c-5-2.4-19.4-11-19.4-11L331.2,224z"/>
				<path class="st19" d="M297.6,236.7c0,0-1.9,6.9,4.3,12.3c6.2,5.4,27.7,9.5,33.3,9.3c5.6-0.2,9.9-3.2,11.5-8.1
					c1.7-4.9,2.2-6.9,2.2-6.9s-2.1,4.3-4.8,7.1c-2.7,2.8-6.2,5.3-13.4,4C323.6,253.3,299.4,251.5,297.6,236.7z"/>
				<path class="st25" d="M329.4,228.5c0,0-2.2,2.2-6.3,2.1c-4.1-0.1-12.5-2.1-15-2.1c-2.5,0-7.2,1.5-8.3,5.6
					c-1.1,4.1,26.2,11.2,32.7,9c6.5-2.2,7.8-8.8,7.8-8.8L329.4,228.5z"/>
			</g>
			<g>
				<path class="st19" d="M401.3,513.2c0,0,2.2,1.8,2,5.8c-0.1,4-2.3,12.7-4.6,15c-2.3,2.3-5.3,2.9-10.6,2.1
					c-5.4-0.8-31.9-10.4-33.6-11.6c-1.7-1.2-3.7-4.2-2.6-7.2c1.1-3,3.2-9.4,3.2-9.4s-0.8,4.8,2.4,7.1c3.2,2.3,28,8,32.3,8.7
					C394.2,524.4,402,521.2,401.3,513.2z"/>
				<path class="st19" d="M354.4,513.6l-1.2,4.2c0,0-1.2,3,1.9,5.6c3.1,2.6,32.9,10.9,32.9,10.9s7.6,1.4,11-3.9c0,0,1.5-5.5,1.7-8
					c0,0-3.1,6.2-7.3,6.4c-4.2,0.2-35.1-8.8-36.4-10C355.8,517.7,354.1,515.8,354.4,513.6z"/>
				<path class="st19" d="M358.6,528.8c0,0,23.8,8.8,26.2,9.7c2.4,0.9,4.1,0.8,4.1,0.8l-0.9,3.2c0,0-3.1-0.5-4.2-0.8
					c-6.7-1.9-26.1-9.4-26.1-9.4L358.6,528.8z"/>
				<path class="st19" d="M319.9,551.4c0,0-0.9,8.9,7.8,14.2c8.8,5.3,36,6,42.8,4.5c6.8-1.4,11.4-5.9,12.5-12.3
					c1.1-6.3,1.3-8.9,1.3-8.9s-1.7,5.7-4.4,9.8c-2.7,4-6.5,7.8-15.6,7.7C355.3,566.4,325.3,569.2,319.9,551.4z"/>
				<path class="st25" d="M357.3,534.7c0,0-2.2,3.2-7.3,3.9c-5.1,0.7-15.8,0-18.9,0.5c-3.1,0.5-8.5,3.3-9,8.6
					c-0.4,5.3,34.5,8.4,42,4.3c7.5-4.1,7.8-12.5,7.8-12.5L357.3,534.7z"/>
			</g>
			<g>
				<path class="st19" d="M460.3,667.6c0,0,2.6-0.2,5.1,2.7c2.5,2.9,6.6,10.2,6.4,13.2c-0.1,3-1.8,5.4-6,8.2
					c-4.2,2.9-28.5,13.2-30.5,13.5c-1.9,0.2-5.2-0.6-6.4-3.3c-1.2-2.8-3.8-8.5-3.8-8.5s2.5,3.8,6.2,3.3c3.6-0.5,24.3-12.4,27.7-14.6
					C462.7,679.8,465.9,672.7,460.3,667.6z"/>
				<path class="st19" d="M428.4,697.8l1.8,3.6c0,0,1.2,2.8,4.9,2.7c3.8-0.2,29.6-13.6,29.6-13.6s6.1-3.9,5.1-9.7
					c0,0-2.5-4.7-3.9-6.5c0,0,1.8,6.2-0.9,9.1c-2.8,2.9-29.8,16.4-31.4,16.4C431.9,699.8,429.6,699.6,428.4,697.8z"/>
				<path class="st19" d="M441,705.6c0,0,21.9-9.2,24.2-10.1c2.2-0.9,3.3-2,3.3-2l1.4,2.8c0,0-2.5,1.6-3.4,2.1
					c-5.8,3-23.9,10.2-23.9,10.2L441,705.6z"/>
				<path class="st19" d="M428.8,745.8c0,0,5.1,6.7,14.5,4.7c9.4-2,28.5-18.9,32.3-24.2c3.8-5.3,4-11.4,0.7-16.4
					c-3.3-5-4.8-6.9-4.8-6.9s2.5,5,3.2,9.5c0.7,4.5,0.5,9.5-5.8,15.3C462.7,733.5,443.9,754.7,428.8,745.8z"/>
				<path class="st25" d="M443.8,710.5c0,0,0.5,3.6-2.5,7.3c-3,3.7-10.8,10.1-12.6,12.4c-1.8,2.4-3.7,7.7-0.7,11.7
					c3.1,3.9,29-16.3,31.6-23.9c2.6-7.6-2.6-13.5-2.6-13.5L443.8,710.5z"/>
			</g>
			<path class="st19" d="M255.6,261.2c0,0-11.4,14.3-7.9,21.1c3.5,6.8,13.4,3.3,21-0.8c7.6-4.1,8.7-2.8,10,3.1
				c1.3,5.9-2.5,24.9,3.4,33.1c5.9,8.2,18.1,11.2,29,5.6c10.9-5.6,18.6-8.1,25.6,0.3c6.9,8.4,13.8,12.9,24.6,11.6
				c10.8-1.3,19.8-6.2,24.9-14.4c5.1-8.2,11.8-13.6,20.3-13.6c8.5,0,16.8,2.4,24.5,5.5c7.6,3.1,16.8,5.4,20.2-1
				c3.4-6.4,4.7-27.3,4.5-35.1c-0.2-7.8-0.2-12.4,5.1-13.1c5.4-0.7,13.7,1.1,14.1-0.9c0.4-2-4.2-13.5-8.9-18.7c0,0,3,6.5,1.1,9.3
				c-1.8,2.8-10.6-0.2-18.7,2.9c-8.1,3.1-0.8,27.1-3.4,36.1c-2.5,9-14,10.2-24.3,7.1c-10.2-3.1-25.2-8.9-37.4,3.9
				c-12.2,12.9-13.9,18.1-24.5,16.7c-10.6-1.4-17.2-8.5-25-12.7c-7.8-4.2-10.9-4.5-21-0.4c-10.1,4.1-21,0.7-23.5-5
				c-2.5-5.7,0.6-23.6-5.1-28.3c-5.7-4.7-25.6,6.2-28.1,3C253.5,273.3,252.6,267.3,255.6,261.2z"/>
			<path class="st19" d="M255.6,261.2c0,0-11.4,14.3-7.9,21.1c3.5,6.8,13.4,3.3,21-0.8c7.6-4.1,8.7-2.8,10,3.1
				c1.3,5.9-2.5,24.9,3.4,33.1c5.9,8.2,18.1,11.2,29,5.6c10.9-5.6,18.6-8.1,25.6,0.3c6.9,8.4,13.8,12.9,24.6,11.6
				c10.8-1.3,19.8-6.2,24.9-14.4c5.1-8.2,11.8-13.6,20.3-13.6c8.5,0,16.8,2.4,24.5,5.5c7.6,3.1,16.8,5.4,20.2-1
				c3.4-6.4,4.7-27.3,4.5-35.1c-0.2-7.8-0.2-12.4,5.1-13.1c5.4-0.7,13.7,1.1,14.1-0.9c0.4-2-4.2-13.5-8.9-18.7c0,0,3,6.5,1.1,9.3
				c-1.8,2.8-10.6-0.2-18.7,2.9c-8.1,3.1-0.8,27.1-3.4,36.1c-2.5,9-14,10.2-24.3,7.1c-10.2-3.1-25.2-8.9-37.4,3.9
				c-12.2,12.9-13.9,18.1-24.5,16.7c-10.6-1.4-17.2-8.5-25-12.7c-7.8-4.2-10.9-4.5-21-0.4c-10.1,4.1-21,0.7-23.5-5
				c-2.5-5.7,0.6-23.6-5.1-28.3c-5.7-4.7-25.6,6.2-28.1,3C253.5,273.3,252.6,267.3,255.6,261.2z"/>
			<path class="st19" d="M193.9,389.3c0,0-8.7,11.1-6.8,16.2c1.9,5.1,4.7,5.3,12.5,4c7.8-1.3,17.2-3.8,21.6,3.2
				c4.5,7,5.5,19.7,8.5,31.2c3,11.4,7.4,16.8,19,20c11.6,3.3,23.9-2.8,32.3-7.3c8.5-4.5,17.5-12.7,30.9-7.7
				c13.4,5.1,16.2,11.2,26.3,19.3c10.2,8.1,27,12.5,33.7,8.7c6.6-3.8,16.1-20.6,29.8-22.7c13.7-2.1,14.8,4.7,23.6,5.7
				c8.8,1,10.7-7.8,17-12.9c6.4-5.1,14.1-4.5,23.7,2.3c9.6,6.8,15.6,15.5,26.6,9.5c11-5.9,10.1-20.4,16.4-24
				c6.3-3.6,23.5-7.2,28.9-9.1c5.4-1.9,1.8-8.1,1.9-11.7c0.1-3.6-1.5-10.2-4.2-12.1c-2.7-1.9-12.9-8.9-12.9-8.9s10.2,8.7,11.3,13.2
				c1.1,4.5,2,13-8.8,13.6c-10.7,0.6-14-4.6-24.8,3.6c-10.8,8.2-6.2,20.5-17.8,19.7c-11.6-0.8-16.9-11.2-26.1-12.5
				c-9.2-1.3-19,6.9-26.5,14.8c-7.6,7.9-15.1-0.5-25.5-2.4c-10.4-1.9-17.4,7.4-25.4,17.7c-7.9,10.4-24.6,10.2-32.1,2.9
				c-7.5-7.3-18.6-29-42-27.9c-23.4,1.1-39.5,20.1-51.7,17c-12.2-3.1-14-18.8-14.6-27.3c-0.6-8.6-3.1-25.4-14.4-28
				c-11.4-2.6-26,5.1-30,4.3C190.4,401.2,193,390.6,193.9,389.3z"/>
			<path class="st19" d="M193.9,389.3c0,0-8.7,11.1-6.8,16.2c1.9,5.1,4.7,5.3,12.5,4c7.8-1.3,17.2-3.8,21.6,3.2
				c4.5,7,5.5,19.7,8.5,31.2c3,11.4,7.4,16.8,19,20c11.6,3.3,23.9-2.8,32.3-7.3c8.5-4.5,17.5-12.7,30.9-7.7
				c13.4,5.1,16.2,11.2,26.3,19.3c10.2,8.1,27,12.5,33.7,8.7c6.6-3.8,16.1-20.6,29.8-22.7c13.7-2.1,14.8,4.7,23.6,5.7
				c8.8,1,10.7-7.8,17-12.9c6.4-5.1,14.1-4.5,23.7,2.3c9.6,6.8,15.6,15.5,26.6,9.5c11-5.9,10.1-20.4,16.4-24
				c6.3-3.6,23.5-7.2,28.9-9.1c5.4-1.9,1.8-8.1,1.9-11.7c0.1-3.6-1.5-10.2-4.2-12.1c-2.7-1.9-12.9-8.9-12.9-8.9s10.2,8.7,11.3,13.2
				c1.1,4.5,2,13-8.8,13.6c-10.7,0.6-14-4.6-24.8,3.6c-10.8,8.2-6.2,20.5-17.8,19.7c-11.6-0.8-16.9-11.2-26.1-12.5
				c-9.2-1.3-19,6.9-26.5,14.8c-7.6,7.9-15.1-0.5-25.5-2.4c-10.4-1.9-17.4,7.4-25.4,17.7c-7.9,10.4-24.6,10.2-32.1,2.9
				c-7.5-7.3-18.6-29-42-27.9c-23.4,1.1-39.5,20.1-51.7,17c-12.2-3.1-14-18.8-14.6-27.3c-0.6-8.6-3.1-25.4-14.4-28
				c-11.4-2.6-26,5.1-30,4.3C190.4,401.2,193,390.6,193.9,389.3z"/>
			<path class="st19" d="M124.7,549.2c0,0-8.8,16.6-3.4,20.8c5.4,4.2,13-3.7,17.5,0c4.5,3.7,3,13.2,6.5,19.2
				c3.5,6,12.9,5.4,18.3,3.1c5.4-2.3,10.8-3.1,14,1.6c3.2,4.7,5.3,27.2,18.3,34.4c15.8,8.6,36.3,8.4,47.7,1.5
				c11.4-7,19.3-14,28.9-13.2c9.6,0.8,17.2,10.7,28.8,13c11.6,2.3,27.1-12.2,44.9-12.2c17.8,0,35.3,20.9,54.4,26.6
				c19.1,5.7,34.2,8.2,47.9-5.9c13.6-14.1,24.9-31.7,41.3-34.2c16.4-2.5,28.8,12.2,48.6,8.2c19.8-4,15.3-30,32.4-34.5
				c17.1-4.5,21.4,4.8,26.7,2.3c5.3-2.6,3.2-9.9-3.2-15c0,0,3.9,5.8,0,7.2c-3.9,1.3-11.6-6.8-26.1-1.3
				c-14.5,5.5-17.6,30.4-32.6,34.6c-15,4.2-28.6-16.4-49.8-10c-21.2,6.4-38.6,42-59.6,44.3c-21,2.3-62-30.8-82.1-29.7
				c-20.1,1.1-26.2,13.2-42.1,13c-15.9-0.2-18.9-11.9-29.1-14.1s-38.7,21.1-61.4,17.5c-22.7-3.6-16.9-30.6-33.9-38.7
				c0,0-7-4.2-14.4-1c-7.3,3.3-9.9,4.1-12.9,0.8c-3-3.3-1.7-17.4-8.1-21.4c0,0-6.7-3.5-16,1.1C126.4,567,117.8,571.1,124.7,549.2z"
				/>
			<path class="st19" d="M124.7,549.2c0,0-8.8,16.6-3.4,20.8c5.4,4.2,13-3.7,17.5,0c4.5,3.7,3,13.2,6.5,19.2
				c3.5,6,12.9,5.4,18.3,3.1c5.4-2.3,10.8-3.1,14,1.6c3.2,4.7,5.3,27.2,18.3,34.4c15.8,8.6,36.3,8.4,47.7,1.5
				c11.4-7,19.3-14,28.9-13.2c9.6,0.8,17.2,10.7,28.8,13c11.6,2.3,27.1-12.2,44.9-12.2c17.8,0,35.3,20.9,54.4,26.6
				c19.1,5.7,34.2,8.2,47.9-5.9c13.6-14.1,24.9-31.7,41.3-34.2c16.4-2.5,28.8,12.2,48.6,8.2c19.8-4,15.3-30,32.4-34.5
				c17.1-4.5,21.4,4.8,26.7,2.3c5.3-2.6,3.2-9.9-3.2-15c0,0,3.9,5.8,0,7.2c-3.9,1.3-11.6-6.8-26.1-1.3
				c-14.5,5.5-17.6,30.4-32.6,34.6c-15,4.2-28.6-16.4-49.8-10c-21.2,6.4-38.6,42-59.6,44.3c-21,2.3-62-30.8-82.1-29.7
				c-20.1,1.1-26.2,13.2-42.1,13c-15.9-0.2-18.9-11.9-29.1-14.1s-38.7,21.1-61.4,17.5c-22.7-3.6-16.9-30.6-33.9-38.7
				c0,0-7-4.2-14.4-1c-7.3,3.3-9.9,4.1-12.9,0.8c-3-3.3-1.7-17.4-8.1-21.4c0,0-6.7-3.5-16,1.1C126.4,567,117.8,571.1,124.7,549.2z"
				/>
			<path class="st19" d="M55.9,709.1c0,0-8.9,11.3-7.2,16.1c1.7,4.8,10.5-1.7,15.1,2.7c4.7,4.4,1.8,10.8,0.7,23.2
				c-1.1,12.4,0.4,23.1,12.4,28.4c12,5.2,19.5,5.9,36,0c16.5-5.9,42.7-18.7,53.8-12.4c11.2,6.2,8.2,7.8,9.2,13.9
				c1,6.1,1,11.7,8.6,10.3c7.6-1.4,26.3-8.8,38.9-5.2c12.6,3.5,12.3,13,15.7,22.9c3.4,9.9,5.8,24.7,26.6,31.9
				c20.8,7.2,37.7,3.7,49.8-4.1c12-7.8,33.9-29.8,51-28.3c17,1.6,13.6,12,29,19.2c15.4,7.2,24.7,4.7,31.2,1.7
				c6.5-3,10.6-15.3,18.2-18c7.6-2.7,20.3-1.4,33.7,4.7c13.4,6.1,24.6,12.2,36.9,6.4c12.3-5.8,19.9-22.2,28.4-32.4
				c8.5-10.2,21.1-18.2,29.7-17.7c8.6,0.6,17.4,3.7,28.5,3c11.2-0.7,19.9-4.5,23.7-19c3.8-14.4,4.1-31.8,13.4-36.3
				c9.3-4.5,19.5-3.4,23.9-4.2c4.4-0.8,2-11.3-3.2-15.4c-5.2-4.1-13.3-6.8-17-12.1c0,0,5.9,9.7,11.2,13.6c5.2,4,1.4,6.5-9.3,7.1
				c-10.7,0.6-12.9-0.3-20.6,8.6c-7.8,8.9-4.2,17.2-10.7,29.1c-6.5,11.9-7.1,16.4-19.6,15.7c-12.6-0.7-19.1-3.8-30-0.7
				c-10.9,3.1-25.6,12.3-36.7,26.3c-11.2,14-11.2,22.8-25.4,23.5c-14.3,0.7-33.9-16.5-53-13.6c-19.1,3-19.4,15.4-27.7,21.6
				c-8.3,6.2-26.9-18.8-53.1-20.8c-26.3-2-44,21.3-63.6,31.2c-19.6,9.9-44.2-1.1-49.5-10.9c-5.2-9.8-3.3-25.3-18.9-36.5
				c-15.7-11.2-31.1-7.9-41.3-2.8c-10.2,5.1-13.1-3.4-13.1-8.1c0-4.7-0.3-14.9-13.6-16.6c-13.3-1.7-34.1,6.4-48.2,13.9
				c-14.1,7.5-36.2,7.2-42.3-1.4c-6.1-8.6-6.1-21-4.8-27.5c1.3-6.5,1.6-16.4-6.2-19C58.6,718.6,48.7,729.2,55.9,709.1z"/>
			<path class="st19" d="M55.9,709.1c0,0-8.9,11.3-7.2,16.1c1.7,4.8,10.5-1.7,15.1,2.7c4.7,4.4,1.8,10.8,0.7,23.2
				c-1.1,12.4,0.4,23.1,12.4,28.4c12,5.2,19.5,5.9,36,0c16.5-5.9,42.7-18.7,53.8-12.4c11.2,6.2,8.2,7.8,9.2,13.9
				c1,6.1,1,11.7,8.6,10.3c7.6-1.4,26.3-8.8,38.9-5.2c12.6,3.5,12.3,13,15.7,22.9c3.4,9.9,5.8,24.7,26.6,31.9
				c20.8,7.2,37.7,3.7,49.8-4.1c12-7.8,33.9-29.8,51-28.3c17,1.6,13.6,12,29,19.2c15.4,7.2,24.7,4.7,31.2,1.7
				c6.5-3,10.6-15.3,18.2-18c7.6-2.7,20.3-1.4,33.7,4.7c13.4,6.1,24.6,12.2,36.9,6.4c12.3-5.8,19.9-22.2,28.4-32.4
				c8.5-10.2,21.1-18.2,29.7-17.7c8.6,0.6,17.4,3.7,28.5,3c11.2-0.7,19.9-4.5,23.7-19c3.8-14.4,4.1-31.8,13.4-36.3
				c9.3-4.5,19.5-3.4,23.9-4.2c4.4-0.8,2-11.3-3.2-15.4c-5.2-4.1-13.3-6.8-17-12.1c0,0,5.9,9.7,11.2,13.6c5.2,4,1.4,6.5-9.3,7.1
				c-10.7,0.6-12.9-0.3-20.6,8.6c-7.8,8.9-4.2,17.2-10.7,29.1c-6.5,11.9-7.1,16.4-19.6,15.7c-12.6-0.7-19.1-3.8-30-0.7
				c-10.9,3.1-25.6,12.3-36.7,26.3c-11.2,14-11.2,22.8-25.4,23.5c-14.3,0.7-33.9-16.5-53-13.6c-19.1,3-19.4,15.4-27.7,21.6
				c-8.3,6.2-26.9-18.8-53.1-20.8c-26.3-2-44,21.3-63.6,31.2c-19.6,9.9-44.2-1.1-49.5-10.9c-5.2-9.8-3.3-25.3-18.9-36.5
				c-15.7-11.2-31.1-7.9-41.3-2.8c-10.2,5.1-13.1-3.4-13.1-8.1c0-4.7-0.3-14.9-13.6-16.6c-13.3-1.7-34.1,6.4-48.2,13.9
				c-14.1,7.5-36.2,7.2-42.3-1.4c-6.1-8.6-6.1-21-4.8-27.5c1.3-6.5,1.6-16.4-6.2-19C58.6,718.6,48.7,729.2,55.9,709.1z"/>
			<path class="st23" d="M382.1,32.8c0,0-1.4-6.3-2-7.9c0,0-11.7-5.2-22.6-0.1c0,0-1.5,3.5-1.8,7.6
				C355.6,32.4,365.8,39.2,382.1,32.8z"/>
			<path class="st19" d="M355.6,37.6c0,0-2,7.4,0.4,14.4c0,0,11.9,6,24.5,0.9c0,0,1.3-7,1.6-12.5c0,0-6.5,8.7-13.9,8.2
				C360.8,48.1,357,43.9,355.6,37.6z"/>
			<g>
				<path class="st19" d="M352,32.8c0,0-3-2.8-10.7-5c-4.3-1.2-4.8-6.6,0-5.2c0,0-0.6-2.4-4.8-1.4c-4.1,1.1-2.8,5.1,2.2,7.3
					C343.7,30.8,349.6,31.6,352,32.8z"/>
				<path class="st19" d="M315.8,19.5c0,0-2.8,17.4-6.6,24.2c0,0,0.7,8.3,8.6,12.7c0,0-4.8-8.7,3.5-14
					C321.3,42.4,313.7,41.8,315.8,19.5z"/>
				<path class="st23" d="M354.1,35.6l-1.2,8.3c0,0-12.8-7.7-25.6-4.9c0,0,13.5-1.9,18.3-1.3C350.5,38.2,353.7,37.4,354.1,35.6z"/>
				<path class="st23" d="M354.8,26.9l1.5-3.2c0,0-7.8-14.5-24-19.7c-9.7-3.1-13.7-2.1-14.6,3.4c-0.8,5.5-1.4,10.3-1.4,10.3
					s1.8-7.8,3.1-9.3c1.3-1.6,17.9-4.5,34.6,18.5"/>
				<path class="st19" d="M352.8,51.2l-0.5-2.6c0,0-8.8-6.3-16.9-6.1c-8.1,0.1-15.7,5-16.3,8.8c-0.5,3.7,4,5.9,9.1,5.2
					c0,0-1.5-6.1,4.3-8.2c5.8-2,16.9,0.5,20.2,3.3"/>
			</g>
			<g>
				<path class="st19" d="M385.2,32.3c0,0,3-2.8,10.7-5c4.3-1.2,4.8-6.6,0-5.2c0,0,0.6-2.4,4.8-1.4c4.1,1.1,2.8,5.1-2.2,7.3
					C393.4,30.3,387.5,31.1,385.2,32.3z"/>
				<path class="st19" d="M421.3,19c0,0,2.8,17.4,6.6,24.2c0,0-0.7,8.3-8.6,12.7c0,0,4.8-8.7-3.5-14C415.8,41.9,423.4,41.3,421.3,19
					z"/>
				<path class="st23" d="M383,35.1l1.2,8.3c0,0,12.8-7.7,25.6-4.9c0,0-13.5-1.9-18.3-1.3C386.6,37.7,383.5,36.9,383,35.1z"/>
				<path class="st23" d="M382.3,26.4l-1.5-3.2c0,0,7.8-14.5,24-19.7c9.7-3.1,13.7-2.1,14.6,3.4c0.8,5.5,1.4,10.3,1.4,10.3
					s-1.8-7.8-3.1-9.3c-1.3-1.6-17.9-4.5-34.6,18.5l-0.4,0.4L382.3,26.4z"/>
				<path class="st19" d="M384.3,50.7l0.5-2.6c0,0,8.8-6.3,16.9-6.1c8.1,0.1,15.7,5,16.3,8.8c0.5,3.7-4,5.9-9.1,5.2
					c0,0,1.5-6.1-4.3-8.2c-5.8-2.1-16.9,0.5-20.2,3.3"/>
			</g>
			<path class="st19" d="M366.2,58.1c0,0-4.8,0-10.6-3.1c0,0-4.5,2.5-6.4,2.7c0,0-2.8,6.1-5.3,10.2c0,0,10.9-1,13,7.4
				C356.9,75.3,364.2,66.1,366.2,58.1z"/>
			<path class="st23" d="M340.4,74.4c0,0-7.5,10.9-14.4,14.3c0,0,9.1,0.4,14.4-3.5c0,0,0.8,8-1,13.8c0,0,9.5-10.6,13.3-16.4
				C352.7,82.6,350,71,340.4,74.4z"/>
			<path class="st23" d="M338.4,78.9c0,0-3.4,5.6-8.6,8.7c0,0,7.9-1.2,12.3-4.6c0,0,0.3,6.8-0.5,11.7c0,0,5.4-5.4,8.2-10.1
				C349.7,84.5,347.2,76,338.4,78.9z"/>
			<path class="st23" d="M380.4,30l-1.1-4.5c0,0-11.1-3.9-21.1,0c0,0-0.8,1.8-1.3,3.6C357,29.1,366.9,23,380.4,30z"/>
			<path class="st23" d="M355.2,23.8l-1.1,1.5c0,0-5.4-10.2-11.1-14.3C343,11,349.6,14.7,355.2,23.8z"/>
			<path class="st23" d="M381.5,23.1l1.1,1.5c0,0,5.4-10.2,11.1-14.3C393.7,10.2,387.1,13.9,381.5,23.1z"/>
			<path class="st19" d="M348.1,62.1l1.6-3.6l5.8-2.2c0,0,3.8,2.2,9.4,2.9l-1.6,3.1C363.2,62.4,355.1,58.3,348.1,62.1z"/>
			<g>
				<path class="st19" d="M370.4,59c0,0,4.8,0,10.6-3.1c0,0,4.5,2.5,6.4,2.7c0,0,2.8,6.1,5.3,10.2c0,0-10.9-1-13,7.4
					C379.7,76.2,372.4,67,370.4,59z"/>
				<path class="st23" d="M396.2,75.3c0,0,7.5,10.9,14.4,14.3c0,0-9.1,0.4-14.4-3.5c0,0-0.8,8,1,13.8c0,0-9.5-10.6-13.3-16.4
					C383.9,83.5,386.6,71.9,396.2,75.3z"/>
				<path class="st23" d="M398.2,79.8c0,0,3.4,5.6,8.6,8.7c0,0-7.9-1.2-12.3-4.6c0,0-0.3,6.8,0.5,11.7c0,0-5.4-5.4-8.2-10.1
					C386.9,85.4,389.4,76.9,398.2,79.8z"/>
				<path class="st19" d="M388.5,63l-1.6-3.6l-5.8-2.2c0,0-3.8,2.2-9.4,2.9l1.6,3.1C373.4,63.3,381.5,59.2,388.5,63z"/>
			</g>
			<path class="st19" d="M356,45.4c0,0-0.1,4,0.9,5.9c0,0,9.7,4.5,22.8,1.1c0,0,0.7-4.2,0.7-6.1C380.4,46.3,369.7,58.2,356,45.4z"/>
			<path class="st19" d="M346.6,827c0,0,10.7-8.9,17.8-7.1c7.1,1.8,13.6,16.4,25.4,20.2v67.4c0,0-1.8,3.3-11.3,6.5
				c0,0,9-32.1,6.4-47.7c-2.7-15.5-8.3-30.1-18.9-37.6C360.5,824.8,347.2,826,346.6,827z"/>
		</g>
		<g>
			<ellipse class="st26" cx="408.1" cy="928.6" rx="408.1" ry="38.5"/>
			<path class="st26" d="M588.6,968.2c-48.2,0-89.3,7.1-104.5,17.1c-10.2-0.3-20.8-0.5-31.7-0.5c-27.9,0-54.1,1.2-76.8,3.3
				c-11.5-11.4-55.4-19.8-108-19.8c-61.3,0-110.9,11.5-110.9,25.7c0,14.2,49.7,25.7,110.9,25.7c12.1,0,23.7-0.5,34.6-1.3
				c20.3,10.4,79.9,17.8,150.2,17.8c67.7,0,125.4-6.9,147.8-16.7c55.8-1.3,99.4-12.3,99.4-25.5C699.5,979.7,649.8,968.2,588.6,968.2
				z"/>
		</g>
		<g>
			<g>
				<g>
					<path class="st6" d="M314.9,1007.4H156.3c-1,0-1.9-0.8-1.9-1.8L149.1,872c0-1.1,0.8-2,1.9-2h166.4c1.1,0,1.9,0.9,1.9,1.9
						l-2.5,133.5C316.8,1006.5,315.9,1007.4,314.9,1007.4z"/>
					<path class="st27" d="M314.9,1007.4H154.4c-1,0-1.9-0.8-1.9-1.9L149,872c0-1.1,0.8-2,1.9-2h166.4c1.1,0,1.9,0.9,1.9,1.9
						l-2.5,133.5C316.8,1006.5,315.9,1007.4,314.9,1007.4z"/>
					<path class="st28" d="M149,872l3.4,133.5c0,1,0.9,1.9,1.9,1.9h7.6c1.1,0,1.9-0.9,1.9-2l-3.4-133.5c0-1-0.9-1.9-1.9-1.9h-7.6
						C149.9,870,149,870.9,149,872z"/>
					<path class="st6" d="M332.4,832.9H136c-0.7,0-1.2,0.6-1.2,1.2v34.7c0,0.7,0.6,1.2,1.2,1.2h196.4c0.7,0,1.2-0.6,1.2-1.2v-34.7
						C333.6,833.5,333,832.9,332.4,832.9z"/>
					<path class="st28" d="M134.7,834.8v33.3c0,1.1,0.9,1.9,1.9,1.9h3.8c1.1,0,1.9-0.9,1.9-1.9v-33.3c0-1.1-0.9-1.9-1.9-1.9h-3.8
						C135.6,832.9,134.7,833.8,134.7,834.8z"/>
				</g>
				<g>
					<g>
						<path class="st2" d="M171.8,768.2c-6.9-1-13.4,3.1-15.6,9.7l-9.3,29.2c-0.2,0.7-0.4,1.5-0.5,2.2
							c18.1-11.7,69.2,19.2,75.6,23.1c0.4,0.3,0.9,0.3,1.4,0.2l4.7-1.1c1.2-0.3,1.8-1.5,1.3-2.6
							C224.8,818.6,202.7,772.9,171.8,768.2z"/>
						<path class="st5" d="M161.5,783.2c2.1-6.5,8.5-10.8,15.2-9.8c9.6,1.4,18.4,6.7,26,13.8c-8.8-9.5-19.4-17.3-31.3-19
							c-6.4-0.9-13.2,3.6-15.2,9.8l-9.3,29.2c-0.2,0.7-0.4,1.5-0.5,2.2c1.8-1.2,3.9-1.9,6.3-2.3c0.7-0.1,1.3-0.6,1.6-1.3
							L161.5,783.2z"/>
						<path class="st29" d="M147.2,809c-0.5,0.3-0.9,0.9-0.9,1.5c-0.2,1.9,0.6,5.8,8.5,9.2c12.1,5.3,68,13.2,68,13.2
							S167.2,797.8,147.2,809z"/>
					</g>
					<g>
						<path class="st2" d="M296.5,768.2c6.9-1,13.4,3.1,15.6,9.7l9.3,29.2c0.2,0.7,0.4,1.5,0.5,2.2c-18.1-11.7-69.2,19.2-75.6,23.1
							c-0.4,0.3-0.9,0.3-1.4,0.2l-4.7-1.1c-1.2-0.3-1.8-1.5-1.3-2.6C243.5,818.6,265.6,772.9,296.5,768.2z"/>
						<path class="st5" d="M242.6,830.7c6-13,28.6-57.2,59.5-59.6c2.4-0.2,4.7,0.3,6.7,1.4c-2.9-3-7-4.7-11.3-4.4
							c-0.4,0.1-0.9,0.1-1.3,0.2c-0.5,0.1-0.9,0.2-1.4,0.3c-0.5,0.1-1,0.2-1.5,0.3c-0.5,0.1-0.9,0.2-1.3,0.4c-0.5,0.1-1,0.3-1.5,0.4
							c-0.4,0.1-0.9,0.3-1.3,0.5c-0.5,0.2-1,0.4-1.5,0.6c-0.4,0.2-0.9,0.4-1.3,0.6c-0.5,0.2-1,0.4-1.4,0.7c-0.4,0.2-0.9,0.4-1.3,0.7
							c-0.5,0.2-0.9,0.5-1.4,0.8c-0.4,0.2-0.8,0.5-1.3,0.8c-0.5,0.3-0.9,0.6-1.4,0.8c-0.4,0.3-0.8,0.5-1.2,0.8
							c-0.4,0.3-0.9,0.6-1.3,0.9c-0.4,0.3-0.8,0.6-1.2,0.9c-0.4,0.3-0.9,0.7-1.3,1c-0.4,0.3-0.8,0.6-1.2,1c-0.4,0.4-0.8,0.7-1.3,1.1
							c-0.4,0.3-0.8,0.7-1.1,1c-0.4,0.4-0.8,0.7-1.2,1.1c-0.4,0.4-0.7,0.7-1.1,1.1c-0.4,0.4-0.8,0.8-1.2,1.2
							c-0.4,0.4-0.7,0.7-1.1,1.1c-0.4,0.4-0.8,0.8-1.1,1.2c-0.3,0.4-0.7,0.8-1,1.1c-0.4,0.4-0.7,0.8-1.1,1.3c-0.3,0.4-0.7,0.8-1,1.2
							c-0.4,0.4-0.7,0.9-1.1,1.3c-0.3,0.4-0.6,0.8-1,1.2c-0.3,0.4-0.7,0.9-1,1.3c-0.3,0.4-0.6,0.8-0.9,1.2c-0.3,0.4-0.7,0.9-1,1.3
							c-0.3,0.4-0.6,0.8-0.9,1.2c-0.3,0.4-0.6,0.9-0.9,1.3c-0.3,0.4-0.6,0.8-0.8,1.2c-0.3,0.4-0.6,0.9-0.9,1.3
							c-0.3,0.4-0.5,0.8-0.8,1.2c-0.3,0.4-0.6,0.9-0.9,1.3c-0.3,0.4-0.5,0.8-0.8,1.2c-0.3,0.4-0.5,0.9-0.8,1.3
							c-0.2,0.4-0.5,0.8-0.7,1.2c-0.3,0.4-0.5,0.9-0.8,1.3c-0.2,0.4-0.5,0.8-0.7,1.1c-0.2,0.4-0.5,0.8-0.7,1.2
							c-0.2,0.4-0.4,0.7-0.6,1.1c-0.2,0.4-0.5,0.8-0.7,1.2c-0.2,0.4-0.4,0.7-0.6,1.1c-0.2,0.4-0.4,0.8-0.6,1.2
							c-0.2,0.3-0.4,0.7-0.5,1c-0.2,0.4-0.4,0.8-0.6,1.1c-0.2,0.3-0.3,0.6-0.5,0.9c-0.2,0.4-0.4,0.7-0.6,1.1
							c-0.2,0.3-0.3,0.6-0.4,0.9c-0.2,0.3-0.3,0.7-0.5,1c-0.1,0.3-0.3,0.5-0.4,0.8c-0.2,0.4-0.3,0.7-0.5,1c-0.1,0.2-0.2,0.4-0.3,0.6
							c-0.2,0.3-0.3,0.6-0.5,1c-0.1,0.2-0.2,0.4-0.3,0.5c-0.2,0.3-0.3,0.7-0.4,1c0,0.1-0.1,0.2-0.2,0.3c-0.2,0.4-0.4,0.8-0.5,1.1
							c-0.5,1.1,0.1,2.4,1.3,2.6l0.3,0.1C241.3,831.9,242.2,831.5,242.6,830.7z"/>
						<path class="st29" d="M321.1,809c0.5,0.3,0.9,0.9,0.9,1.5c0.2,1.9-0.6,5.8-8.5,9.2c-12.1,5.3-68,13.2-68,13.2
							S301.1,797.8,321.1,809z"/>
					</g>
				</g>
				<path class="st29" d="M240.1,817.8h-11.9c-3.7,0-6.8,3-6.8,6.8v7.1c0,0.7,0.6,1.2,1.2,1.2h23c0.7,0,1.2-0.6,1.2-1.2v-7.1
					C246.9,820.8,243.9,817.8,240.1,817.8z"/>
				<path class="st2" d="M217.7,834.9l8.4,170.6c0.1,1,0.9,1.8,1.9,1.8h6.1h6.1c1,0,1.9-0.8,1.9-1.8l8.4-170.6c0.1-1.1-0.8-2-1.9-2
					h-29C218.5,832.9,217.7,833.8,217.7,834.9z"/>
			</g>
			<polygon class="st8" points="319.3,870 253.2,870 255.1,832.9 250.7,832.9 248.8,870 149,870 248.4,879.3 242.1,1007.4 
				246.4,1007.4 252.8,879.3 319.2,879.3 			"/>
		</g>
		<g>
			<g>
				<path class="st0" d="M615.9,1003.3c20.1,0,38-1.3,49.9-3.2c3.9-0.7,6.8-4,6.9-8l1-54.3c0-0.7-0.6-1.3-1.3-1.3H559.5
					c-0.7,0-1.3,0.6-1.3,1.3l1.4,54.4c0.1,4,3,7.3,6.9,7.9C578.3,1002,596.1,1003.3,615.9,1003.3z"/>
				<path class="st0" d="M615.9,1003.3c20.1,0,38-1.3,49.9-3.2c3.9-0.7,6.8-4,6.9-8l1-54.3c0-0.7-0.6-1.3-1.3-1.3H559.5
					c-0.7,0-1.3,0.6-1.3,1.3l1.4,54.4c0.1,4,3,7.3,6.9,7.9C578.3,1002,596.1,1003.3,615.9,1003.3z"/>
				<path class="st6" d="M615.9,1003.3c20.1,0,38-1.3,49.9-3.2c3.9-0.7,6.8-4,6.9-8l1-54.3c0-0.7-0.6-1.3-1.3-1.3H559.5
					c-0.7,0-1.3,0.6-1.3,1.3l1.4,54.4c0.1,4,3,7.3,6.9,7.9C578.3,1002,596.1,1003.3,615.9,1003.3z"/>
				<path class="st1" d="M615.9,918.6c-35.7,0-64.6,4-64.6,8.9V946l1.9,0.8c6.9,3.9,32.4,6.8,62.7,6.8c30.4,0,55.8-2.9,62.7-6.8
					l1.9-0.8v-18.4C680.5,922.6,651.6,918.6,615.9,918.6z"/>
				<path class="st1" d="M615.9,918.6c-35.7,0-64.6,4-64.6,8.9V946l1.9,0.8c6.9,3.9,32.4,6.8,62.7,6.8c30.4,0,55.8-2.9,62.7-6.8
					l1.9-0.8v-18.4C680.5,922.6,651.6,918.6,615.9,918.6z"/>
				<path class="st6" d="M615.9,918.6c-35.7,0-64.6,4-64.6,8.9V946l1.9,0.8c6.9,3.9,32.4,6.8,62.7,6.8c30.4,0,55.8-2.9,62.7-6.8
					l1.9-0.8v-18.4C680.5,922.6,651.6,918.6,615.9,918.6z"/>
				<path class="st5" d="M572,1000.1c-3.9-0.6-6.8-4-6.9-7.9l-1.1-42.2l0,0c11.8,2.2,30.6,3.6,51.9,3.6c0.9,0,1.8,0,2.7,0
					c-29.2-0.2-53.4-3-60.1-6.8l-1.9-0.8v-18.4c0-4.8,27.5-8.7,61.9-8.9c-0.9,0-1.8,0-2.7,0c-35.7,0-64.6,4-64.6,8.9V946l1.9,0.8
					c1.2,0.7,3,1.3,5.3,1.9l1.1,43.5c0.1,4,3,7.3,6.9,7.9c11.8,1.9,29.6,3.2,49.5,3.2c0.9,0,1.8,0,2.8,0
					C599.9,1003.2,583.3,1001.9,572,1000.1z"/>
			</g>
			<g>
				<path class="st2" d="M615.9,1003.3c1.5,0,3,0,4.5,0l3.5-70.4c0-0.5-0.4-1-0.9-1h-14.1c-0.5,0-1,0.4-0.9,1l3.5,70.4
					C612.9,1003.3,614.4,1003.3,615.9,1003.3z"/>
				<path class="st2" d="M622.1,918.7c-2,0-4.1,0-6.2,0c-1.9,0-3.7,0-5.6,0v8.5h11.8V918.7z"/>
				<g>
					<g>
						<g>
							<path class="st2" d="M585.6,900.4c-3.3-0.5-6.5,1.5-7.6,4.7l-4.5,14.2c-0.1,0.4-0.2,0.7-0.2,1.1c8.8-5.7,33.7,9.3,36.8,11.2
								c0.2,0.1,0.5,0.2,0.7,0.1l2.3-0.5c0.6-0.1,0.9-0.7,0.6-1.3C611.4,924.9,600.6,902.7,585.6,900.4z"/>
							<path class="st5" d="M580.6,907.7c1-3.2,4.1-5.2,7.4-4.8c0.1,0,0.1,0,0.2,0c1.1,0.2,1.6-1.4,0.5-1.8
								c-1.1-0.4-2.1-0.6-3.3-0.8c-3.3-0.5-6.4,1.6-7.4,4.8l-4.5,14.2c-0.1,0.4-0.2,0.7-0.2,1.1c0.9-0.6,1.9-0.9,3-1.1
								c0.4-0.1,0.6-0.3,0.8-0.6L580.6,907.7z"/>
							<path class="st29" d="M573.6,920.2c-0.3,0.1-0.4,0.4-0.5,0.7c-0.1,0.9,0.3,2.8,4.1,4.5c5.9,2.6,33.1,6.4,33.1,6.4
								S583.3,914.8,573.6,920.2z"/>
						</g>
						<g>
							<path class="st2" d="M646.2,900.4c3.3-0.5,6.5,1.5,7.6,4.7l4.5,14.2c0.1,0.4,0.2,0.7,0.2,1.1c-8.8-5.7-33.7,9.3-36.8,11.2
								c-0.2,0.1-0.5,0.2-0.7,0.1l-2.3-0.5c-0.6-0.1-0.9-0.7-0.6-1.3C620.5,924.9,631.2,902.7,646.2,900.4z"/>
							<path class="st5" d="M648.9,901.8c1.4-0.1,2.7,0.3,3.8,1c-1.2-1.7-3.2-2.7-5.3-2.5c-15.6,1.2-26.9,24.5-29.3,29.7
								c-0.2,0.5,0.1,1.2,0.6,1.3l0.1,0c0.4,0.1,0.9-0.1,1.1-0.5C622.9,924.4,633.9,903,648.9,901.8z"/>
							<path class="st29" d="M658.2,920.2c0.3,0.1,0.4,0.4,0.5,0.7c0.1,0.9-0.3,2.8-4.1,4.5c-5.9,2.6-33.1,6.4-33.1,6.4
								S648.5,914.8,658.2,920.2z"/>
						</g>
					</g>
					<path class="st29" d="M618.8,924.5H613c-1.8,0-3.3,1.5-3.3,3.3v3.5c0,0.3,0.3,0.6,0.6,0.6h11.2c0.3,0,0.6-0.3,0.6-0.6v-3.5
						C622.1,926,620.6,924.5,618.8,924.5z"/>
				</g>
			</g>
			<path class="st8" d="M673.5,948.7c-9.3,2.5-26.9,4.3-47.8,4.8l1-20.6c0-0.5-0.4-1-0.9-1H623c0.5,0,1,0.4,0.9,1l-1,20.7
				c-2.3,0-4.6,0.1-7,0.1c-25.1,0-46.8-2-57.5-4.8c0,0,21.8,9.8,57.5,9.8c2.3,0,4.5,0,6.7,0l-2.2,44.8c-1.1,0-2.1,0-3.2,0
				c0.5,0,1,0,1.5,0c1.5,0,3,0,4.5,0l2.2-44.9c21-0.4,38.6-2.2,48-4.7L673.5,948.7z"/>
		</g>
		<g>
			<path class="st30" d="M599.7,877H304c-1.3,0-2.4,1.1-2.4,2.4v32.4c0,1.3,1.1,2.4,2.4,2.4h13.4l7.4,87.9c0.4,4.8,4.4,8.4,9.2,8.4
				h237.1c4.8,0,8.9-3.7,9.2-8.6l6.1-87.7h13.3c1.3,0,2.4-1.1,2.4-2.4v-32.4C602,878,601,877,599.7,877z"/>
			<g>
				<circle class="st31" cx="347.8" cy="921.8" r="6.6"/>
				<circle class="st31" cx="391.7" cy="921.8" r="6.6"/>
				<circle class="st31" cx="431" cy="921.8" r="6.6"/>
				<circle class="st31" cx="467.6" cy="921.8" r="6.6"/>
				<circle class="st31" cx="509" cy="921.8" r="6.6"/>
			</g>
			<g>
				<circle class="st31" cx="347.8" cy="970.3" r="6.6"/>
				<circle class="st31" cx="391.7" cy="970.3" r="6.6"/>
				<circle class="st31" cx="431" cy="970.3" r="6.6"/>
				<circle class="st31" cx="467.6" cy="970.3" r="6.6"/>
				<circle class="st31" cx="509" cy="970.3" r="6.6"/>
			</g>
			<g>
				<circle class="st31" cx="327.7" cy="946.8" r="6.6"/>
				<circle class="st31" cx="371.5" cy="946.8" r="6.6"/>
				<circle class="st31" cx="410.9" cy="946.8" r="6.6"/>
				<circle class="st31" cx="447.4" cy="946.8" r="6.6"/>
				<circle class="st31" cx="488.8" cy="946.8" r="6.6"/>
			</g>
			<g>
				<circle class="st31" cx="327.5" cy="994.3" r="6.6"/>
				<circle class="st31" cx="371.4" cy="994.3" r="6.6"/>
				<circle class="st31" cx="410.7" cy="994.3" r="6.6"/>
				<circle class="st31" cx="447.3" cy="994.3" r="6.6"/>
				<circle class="st31" cx="488.7" cy="994.3" r="6.6"/>
			</g>
			<g>
				<circle class="st31" cx="551.7" cy="921.8" r="6.6"/>
			</g>
			<g>
				<circle class="st31" cx="551.7" cy="970.3" r="6.6"/>
			</g>
			<g>
				<circle class="st31" cx="531.5" cy="946.8" r="6.6"/>
				<circle class="st31" cx="575.4" cy="946.8" r="6.6"/>
			</g>
			<g>
				<circle class="st31" cx="531.4" cy="994.3" r="6.6"/>
				<circle class="st31" cx="575.2" cy="994.3" r="6.6"/>
			</g>
			<g>
				<circle class="st31" cx="327.5" cy="902.1" r="6.6"/>
				<circle class="st31" cx="371.4" cy="902.1" r="6.6"/>
				<circle class="st31" cx="410.7" cy="902.1" r="6.6"/>
				<circle class="st31" cx="447.3" cy="902.1" r="6.6"/>
				<circle class="st31" cx="488.7" cy="902.1" r="6.6"/>
			</g>
			<g>
				<circle class="st31" cx="531.4" cy="902.1" r="6.6"/>
				<circle class="st31" cx="575.2" cy="902.1" r="6.6"/>
			</g>
			<path class="st31" d="M502.5,877c-0.1,0.4-0.1,0.8-0.1,1.2c0,3.6,2.9,6.6,6.6,6.6c3.6,0,6.6-2.9,6.6-6.6c0-0.4,0-0.8-0.1-1.2
				H502.5z"/>
			<path class="st31" d="M545.2,877c-0.1,0.4-0.1,0.8-0.1,1.2c0,3.6,2.9,6.6,6.6,6.6c3.6,0,6.6-2.9,6.6-6.6c0-0.4,0-0.8-0.1-1.2
				H545.2z"/>
			<path class="st31" d="M461.1,877c-0.1,0.4-0.1,0.8-0.1,1.2c0,3.6,2.9,6.6,6.6,6.6s6.6-2.9,6.6-6.6c0-0.4,0-0.8-0.1-1.2H461.1z"/>
			<path class="st31" d="M424.6,877c-0.1,0.4-0.1,0.8-0.1,1.2c0,3.6,2.9,6.6,6.6,6.6c3.6,0,6.6-2.9,6.6-6.6c0-0.4,0-0.8-0.1-1.2
				H424.6z"/>
			<path class="st31" d="M385.2,877c-0.1,0.4-0.1,0.8-0.1,1.2c0,3.6,2.9,6.6,6.6,6.6c3.6,0,6.6-2.9,6.6-6.6c0-0.4,0-0.8-0.1-1.2
				H385.2z"/>
			<path class="st31" d="M341.4,877c-0.1,0.4-0.1,0.8-0.1,1.2c0,3.6,2.9,6.6,6.6,6.6c3.6,0,6.6-2.9,6.6-6.6c0-0.4,0-0.8-0.1-1.2
				H341.4z"/>
			<g>
				<path class="st32" d="M336.3,1002l-7.4-87.9h-11.5l7.4,87.9c0.4,4.8,4.4,8.4,9.2,8.4h11.5C340.7,1010.4,336.7,1006.8,336.3,1002
					z"/>
				<path class="st32" d="M313.1,911.8v-32.4c0-1.3,1.1-2.4,2.4-2.4H304c-1.3,0-2.4,1.1-2.4,2.4v32.4c0,1.3,1.1,2.4,2.4,2.4h11.5
					C314.2,914.1,313.1,913.1,313.1,911.8z"/>
			</g>
			<g>
				<g>
					<g>
						<path class="st6" d="M389.5,812.3c-6.9-1-13.4,3.1-15.6,9.7l-9.3,29.2c-0.2,0.7-0.4,1.5-0.5,2.2
							c18.1-11.7,69.2,19.2,75.6,23.1c0.4,0.3,0.9,0.3,1.4,0.2l4.7-1.1c1.2-0.3,1.8-1.5,1.3-2.6C442.5,862.6,420.4,817,389.5,812.3z
							"/>
						<path class="st5" d="M379.2,827.3c2.1-6.5,8.5-10.8,15.2-9.8c9.6,1.4,18.4,6.7,26,13.8c-8.8-9.5-19.4-17.3-31.3-19
							c-6.4-0.9-13.2,3.6-15.2,9.8l-9.3,29.2c-0.2,0.7-0.4,1.5-0.5,2.2c1.8-1.2,3.9-1.9,6.3-2.3c0.7-0.1,1.3-0.6,1.6-1.3
							L379.2,827.3z"/>
						<path class="st7" d="M364.9,853c-0.5,0.3-0.9,0.9-0.9,1.5c-0.2,1.9,0.6,5.8,8.5,9.2c12.1,5.3,68,13.2,68,13.2
							S384.9,841.8,364.9,853z"/>
					</g>
					<g>
						<path class="st6" d="M514.2,812.3c6.9-1,13.4,3.1,15.6,9.7l9.3,29.2c0.2,0.7,0.4,1.5,0.5,2.2c-18.1-11.7-69.2,19.2-75.6,23.1
							c-0.4,0.3-0.9,0.3-1.4,0.2l-4.7-1.1c-1.2-0.3-1.8-1.5-1.3-2.6C461.2,862.6,483.3,817,514.2,812.3z"/>
						<path class="st5" d="M460.3,874.7c6-13,28.6-57.2,59.5-59.6c2.4-0.2,4.7,0.3,6.7,1.4c-2.9-3-7-4.7-11.3-4.4
							c-0.4,0.1-0.9,0.1-1.3,0.2c-0.5,0.1-0.9,0.2-1.4,0.3c-0.5,0.1-1,0.2-1.5,0.3c-0.5,0.1-0.9,0.2-1.4,0.4c-0.5,0.1-1,0.3-1.5,0.4
							c-0.4,0.1-0.9,0.3-1.3,0.5c-0.5,0.2-1,0.4-1.5,0.6c-0.4,0.2-0.9,0.4-1.3,0.6c-0.5,0.2-1,0.4-1.4,0.7c-0.4,0.2-0.9,0.4-1.3,0.7
							c-0.5,0.2-0.9,0.5-1.4,0.8c-0.4,0.2-0.8,0.5-1.3,0.8c-0.5,0.3-0.9,0.6-1.4,0.8c-0.4,0.3-0.8,0.6-1.2,0.8
							c-0.4,0.3-0.9,0.6-1.3,0.9c-0.4,0.3-0.8,0.6-1.2,0.9c-0.4,0.3-0.9,0.7-1.3,1c-0.4,0.3-0.8,0.6-1.2,1c-0.4,0.3-0.8,0.7-1.2,1.1
							c-0.4,0.3-0.8,0.7-1.1,1c-0.4,0.4-0.8,0.7-1.2,1.1c-0.4,0.4-0.7,0.7-1.1,1.1c-0.4,0.4-0.8,0.8-1.2,1.2
							c-0.4,0.4-0.7,0.7-1.1,1.1c-0.4,0.4-0.8,0.8-1.1,1.2c-0.3,0.4-0.7,0.8-1,1.1c-0.4,0.4-0.7,0.8-1.1,1.3c-0.3,0.4-0.7,0.8-1,1.2
							c-0.4,0.4-0.7,0.8-1.1,1.3c-0.3,0.4-0.7,0.8-1,1.2c-0.3,0.4-0.7,0.9-1,1.3c-0.3,0.4-0.6,0.8-0.9,1.2c-0.3,0.4-0.7,0.9-1,1.3
							c-0.3,0.4-0.6,0.8-0.9,1.2c-0.3,0.4-0.6,0.9-0.9,1.3c-0.3,0.4-0.6,0.8-0.8,1.2c-0.3,0.4-0.6,0.9-0.9,1.3
							c-0.3,0.4-0.5,0.8-0.8,1.2c-0.3,0.4-0.6,0.9-0.9,1.3c-0.3,0.4-0.5,0.8-0.8,1.2c-0.3,0.4-0.5,0.9-0.8,1.3
							c-0.2,0.4-0.5,0.8-0.7,1.2c-0.3,0.4-0.5,0.9-0.8,1.3c-0.2,0.4-0.5,0.8-0.7,1.1c-0.2,0.4-0.5,0.8-0.7,1.2
							c-0.2,0.4-0.4,0.7-0.6,1.1c-0.2,0.4-0.5,0.8-0.7,1.2c-0.2,0.4-0.4,0.7-0.6,1.1c-0.2,0.4-0.4,0.8-0.6,1.2
							c-0.2,0.3-0.4,0.7-0.5,1c-0.2,0.4-0.4,0.8-0.6,1.1c-0.2,0.3-0.3,0.6-0.5,0.9c-0.2,0.4-0.4,0.7-0.6,1.1
							c-0.1,0.3-0.3,0.6-0.4,0.9c-0.2,0.4-0.4,0.7-0.5,1c-0.1,0.3-0.3,0.5-0.4,0.8c-0.2,0.3-0.3,0.7-0.5,1c-0.1,0.2-0.2,0.5-0.3,0.7
							c-0.2,0.3-0.3,0.6-0.4,0.9c-0.1,0.2-0.2,0.4-0.3,0.6c-0.1,0.3-0.3,0.6-0.4,0.9c-0.1,0.1-0.1,0.3-0.2,0.4
							c-0.2,0.3-0.3,0.6-0.4,0.9c0,0.1-0.1,0.1-0.1,0.2c-0.5,1.1,0.1,2.4,1.3,2.6l0.3,0.1C459,876,459.9,875.5,460.3,874.7z"/>
						<path class="st7" d="M538.8,853c0.5,0.3,0.9,0.9,0.9,1.5c0.2,1.9-0.6,5.8-8.5,9.2c-12.1,5.3-68,13.2-68,13.2
							S518.8,841.8,538.8,853z"/>
					</g>
				</g>
				<path class="st7" d="M457.8,861.8h-11.9c-3.7,0-6.8,3-6.8,6.8v7.1c0,0.7,0.6,1.2,1.2,1.2h23c0.7,0,1.2-0.6,1.2-1.2v-7.1
					C464.6,864.9,461.5,861.8,457.8,861.8z"/>
			</g>
			<path class="st6" d="M465.3,1010.4l2.9-132c0.1-0.8-0.8-1.4-1.9-1.4h-29c-1.1,0-2,0.7-1.9,1.4l2.9,132H465.3z"/>
			<path class="st8" d="M472.9,878.4c0.1-0.8-0.8-1.4-1.9-1.4h-4.7c1.1,0,2,0.7,1.9,1.4l-0.8,35.7H317.4l149.9,8.3l-2,88h1.9
				l3.8-87.8l114.4,6.3l1-14.8h-115L472.9,878.4z"/>
		</g>
	</g>
</g>
<g id="DESIGNED_BY_FREEPIK">
</g>
</svg>
